<?xml version="1.0" encoding="UTF-8"?>
<svg width="114px" height="126px" viewBox="0 0 114 126" version="1.1" xmlns="http://www.w3.org/2000/svg" xmlns:xlink="http://www.w3.org/1999/xlink">
    <!-- Generator: Sketch 52.5 (67469) - http://www.bohemiancoding.com/sketch -->
    <title>Group 64</title>
    <desc>Created with Sketch.</desc>
    <g id="Symbols" stroke="none" stroke-width="1" fill="none" fill-rule="evenodd">
        <g id="CI/brandlogo-white" transform="translate(-7.000000, -7.000000)" fill="#FFFFFF">
            <g id="Group-64" transform="translate(7.000000, 7.000000)">
                <path d="M34.5051,115.8103 C33.9331,115.4803 33.9331,114.9403 34.5051,114.6103 L51.7761,104.6393 C52.3491,104.3093 52.8171,104.5793 52.8171,105.2393 L52.8171,125.1823 C52.8171,125.8423 52.3491,126.1123 51.7761,125.7823 L34.5051,115.8103 Z M22.4982,73.2839 C22.4982,73.9439 22.0302,74.2139 21.4592,73.8839 L3.7002,63.6319 C3.1282,63.3019 3.1282,62.7619 3.7002,62.4319 L21.4592,52.1799 C22.0302,51.8499 22.4982,52.1199 22.4982,52.7809 L22.4982,73.2839 Z M61.6437,56.239 C61.0727,56.569 60.6047,56.299 60.6047,55.639 L60.6047,35.397 C60.6047,34.737 61.0727,34.467 61.6437,34.797 L79.1757,44.918 C79.7477,45.248 79.7477,45.788 79.1757,46.118 L61.6437,56.239 Z M31.3254,38.7766 C30.7544,39.1066 30.2864,38.8366 30.2864,38.1766 L30.2864,17.8946 C30.2864,17.2346 30.7544,16.9646 31.3254,17.2946 L48.8914,27.4356 C49.4634,27.7656 49.4634,28.3056 48.8914,28.6356 L31.3254,38.7766 Z M51.7765,69.6428 C52.3485,69.3128 52.8165,69.5828 52.8165,70.2428 L52.8165,90.7858 C52.8165,91.4458 52.3485,91.7158 51.7765,91.3858 L33.9835,81.1138 C33.4125,80.7848 33.4125,80.2448 33.9835,79.9138 L51.7765,69.6428 Z M82.0285,87.031 C82.6005,86.701 83.0675,86.971 83.0675,87.631 L83.0675,108.394 C83.0675,109.054 82.6005,109.324 82.0285,108.994 L64.0455,98.613 C63.4735,98.282 63.4735,97.742 64.0455,97.412 L82.0285,87.031 Z M90.8879,53.0051 C90.8879,52.3451 91.3549,52.0751 91.9269,52.4051 L109.2689,62.4161 C109.8399,62.7461 109.8399,63.2861 109.2689,63.6161 L91.9269,73.6271 C91.3549,73.9571 90.8879,73.6871 90.8879,73.0271 L90.8879,53.0051 Z M78.8801,10.1243 C79.4511,10.4543 79.4511,10.9943 78.8801,11.3243 L61.6441,21.2743 C61.0721,21.6043 60.6051,21.3343 60.6051,20.6743 L60.6051,0.7723 C60.6051,0.1133 61.0721,-0.1567 61.6441,0.1733 L78.8801,10.1243 Z" id="Fill-30" fill-opacity="0.45"></path>
                <path d="M61.6437,125.7502 C61.0727,126.0802 60.6047,125.8102 60.6047,125.1502 L60.6047,105.3902 C60.6047,104.7302 61.0727,104.4592 61.6437,104.7902 L78.7577,114.6692 C79.3297,114.9992 79.3297,115.5392 78.7577,115.8692 L61.6437,125.7502 Z M113.3849,55.8474 C113.3849,56.5074 112.9179,56.7774 112.3459,56.4474 L94.4529,46.1184 C93.8809,45.7874 93.8809,45.2474 94.4529,44.9184 L112.3459,34.5884 C112.9179,34.2584 113.3849,34.5284 113.3849,35.1884 L113.3849,55.8474 Z M0.000200000001,70.3035 C0.000200000001,69.6435 0.4682,69.3735 1.0392,69.7035 L18.7282,79.9145 C19.2992,80.2445 19.2992,80.7845 18.7282,81.1145 L1.0392,91.3255 C0.4682,91.6555 0.000200000001,91.3855 0.000200000001,90.7255 L0.000200000001,70.3035 Z M0.000200000001,35.2751 C0.000200000001,34.6151 0.4682,34.3451 1.0392,34.6751 L18.7822,44.9181 C19.3542,45.2481 19.3542,45.7881 18.7822,46.1181 L1.0392,56.3611 C0.4682,56.6911 0.000200000001,56.4211 0.000200000001,55.7611 L0.000200000001,35.2751 Z M90.9006,87.6741 C90.9006,87.0141 91.3686,86.7441 91.9396,87.0741 L109.4996,97.2111 C110.0706,97.5401 110.0706,98.0801 109.4996,98.4101 L91.9396,108.5471 C91.3686,108.8771 90.9006,108.6071 90.9006,107.9471 L90.9006,87.6741 Z M94.3898,80.9123 C93.8188,80.5823 93.8188,80.0423 94.3898,79.7123 L112.3458,69.3473 C112.9178,69.0163 113.3848,69.2873 113.3848,69.9473 L113.3848,90.6783 C113.3848,91.3373 112.9178,91.6073 112.3458,91.2783 L94.3898,80.9123 Z M51.7765,0.1409 C52.3485,-0.1891 52.8165,0.0809 52.8165,0.7409 L52.8165,20.7929 C52.8165,21.4529 52.3485,21.7229 51.7765,21.3929 L34.4105,11.3679 C33.8395,11.0369 33.8395,10.4969 34.4105,10.1669 L51.7765,0.1409 Z M21.4592,17.6448 C22.0302,17.3148 22.4982,17.5848 22.4982,18.2448 L22.4982,38.2558 C22.4982,38.9158 22.0302,39.1858 21.4592,38.8558 L4.1282,28.8508 C3.5562,28.5208 3.5562,27.9808 4.1282,27.6508 L21.4592,17.6448 Z" id="Fill-33" fill-opacity="0.7"></path>
                <path d="M60.6047,65.7424 C60.6047,65.0824 61.0727,64.2724 61.6437,63.9424 L82.0627,52.1534 C82.6347,51.8234 83.1027,52.0934 83.1027,52.7534 L83.1027,77.6114 C83.1027,78.2714 82.6347,79.0814 82.0627,79.4114 L61.6437,91.2014 C61.0727,91.5314 60.6047,91.2614 60.6047,90.6014 L60.6047,65.7424 Z M30.3283,48.2361 C30.3283,47.5761 30.7963,46.7661 31.3673,46.4361 L51.7863,34.6481 C52.3583,34.3181 52.8263,34.5881 52.8263,35.2471 L52.8263,60.1051 C52.8263,60.7651 52.3583,61.5751 51.7863,61.9051 L31.3673,73.6951 C30.7963,74.0251 30.3283,73.7551 30.3283,73.0951 L30.3283,48.2361 Z M85.966,14.9114 C86.537,14.5814 87.472,14.5824 88.043,14.9124 L109.555,27.3844 C110.125,27.7154 110.125,28.2554 109.554,28.5854 L88.027,41.0144 C87.454,41.3444 86.52,41.3444 85.948,41.0134 L64.436,28.5424 C63.865,28.2114 63.865,27.6704 64.437,27.3404 L85.966,14.9114 Z M25.3957,84.8269 C25.9677,84.4969 26.9027,84.4969 27.4737,84.8279 L48.9847,97.2999 C49.5557,97.6309 49.5557,98.1709 48.9837,98.5009 L27.4567,110.9299 C26.8847,111.2599 25.9507,111.2589 25.3787,110.9289 L3.8667,98.4579 C3.2947,98.1269 3.2957,97.5859 3.8677,97.2559 L25.3957,84.8269 Z" id="Fill-41"></path>
            </g>
        </g>
    </g>
</svg>