<?xml version="1.0" encoding="UTF-8"?>
<svg width="112px" height="124px" viewBox="0 0 112 124" version="1.1" xmlns="http://www.w3.org/2000/svg" xmlns:xlink="http://www.w3.org/1999/xlink">
    <!-- Generator: Sketch 52.5 (67469) - http://www.bohemiancoding.com/sketch -->
    <title>logo-icon-only</title>
    <desc>Created with Sketch.</desc>
    <g id="Symbols" stroke="none" stroke-width="1" fill="none" fill-rule="evenodd">
        <g id="CI/brandlogo-black" transform="translate(0.000000, -8.000000)">
            <g id="logo-black" transform="translate(0.000000, 8.000000)">
                <g id="logo-icon-only">
                    <g id="Group-2" transform="translate(4.000000, 0.000000)" fill="#7D9196">
                        <path d="M56.3871,0.148 C55.7861,-0.199 55.2941,0.085 55.2941,0.779 L55.2941,20.53 C55.2941,21.224 55.7861,21.508 56.3871,21.161 L73.4921,11.286 C74.0931,10.939 74.0931,10.371 73.4921,10.023 L56.3871,0.148 Z" id="Fill-24"></path>
                        <path d="M77.9989,86.4449 C77.9989,85.7509 77.5069,85.4669 76.9059,85.8139 L59.9089,95.6279 C59.3069,95.9749 59.3069,96.5429 59.9089,96.8899 L76.9059,106.7029 C77.5069,107.0499 77.9989,106.7659 77.9989,106.0719 L77.9989,86.4449 Z" id="Fill-33"></path>
                        <path d="M55.2943,54.7715 C55.2943,55.4655 55.7863,55.7505 56.3873,55.4025 L73.4923,45.5275 C74.0933,45.1805 74.0933,44.6125 73.4923,44.2655 L56.3873,34.3895 C55.7863,34.0425 55.2943,34.3265 55.2943,35.0205 L55.2943,54.7715 Z" id="Fill-35"></path>
                        <path d="M86.0346,51.5064 C85.4326,51.1594 84.9416,51.4434 84.9416,52.1374 L84.9416,71.8964 C84.9416,72.5904 85.4326,72.8744 86.0346,72.5274 L103.1456,62.6484 C103.7476,62.3004 103.7476,61.7334 103.1456,61.3854 L86.0346,51.5064 Z" id="Fill-39"></path>
                        <path d="M17.6117,72.4698 C18.2137,72.8168 18.7047,72.5328 18.7047,71.8388 L18.7047,52.1958 C18.7047,51.5008 18.2137,51.2178 17.6117,51.5648 L0.6007,61.3858 C-0.0003,61.7328 -0.0003,62.3008 0.6007,62.6478 L17.6117,72.4698 Z" id="Fill-43"></path>
                        <path d="M47.2587,123.8277 C47.8607,124.1747 48.3517,123.8907 48.3517,123.1967 L48.3517,103.5617 C48.3517,102.8677 47.8607,102.5837 47.2587,102.9307 L30.2547,112.7477 C29.6537,113.0957 29.6537,113.6627 30.2547,114.0107 L47.2587,123.8277 Z" id="Fill-53"></path>
                        <path d="M48.352,69.3204 C48.352,68.6264 47.86,68.3414 47.259,68.6894 L30.254,78.5064 C29.653,78.8534 29.653,79.4224 30.254,79.7684 L47.259,89.5864 C47.86,89.9334 48.352,89.6494 48.352,88.9554 L48.352,69.3204 Z" id="Fill-55"></path>
                        <path d="M25.6469,37.647 C25.6469,38.341 26.1389,38.625 26.7399,38.278 L43.8379,28.407 C44.4389,28.06 44.4389,27.491 43.8379,27.144 L26.7399,17.273 C26.1389,16.926 25.6469,17.21 25.6469,17.904 L25.6469,37.647 Z" id="Fill-57"></path>
                    </g>
                    <g id="Group-3" fill="#BCC9D3">
                        <path d="M111.6464,69.3282 C111.6464,68.6342 111.1544,68.3502 110.5534,68.6972 L93.5634,78.5062 C92.9624,78.8532 92.9624,79.4212 93.5634,79.7682 L110.5534,89.5782 C111.1544,89.9252 111.6464,89.6402 111.6464,88.9462 L111.6464,69.3282 Z" id="Fill-27"></path>
                        <path d="M90.0346,85.7471 C89.4326,85.4001 88.9416,85.6841 88.9416,86.3781 L88.9416,106.1381 C88.9416,106.8321 89.4326,107.1161 90.0346,106.7691 L107.1466,96.8891 C107.7476,96.5421 107.7476,95.9741 107.1466,95.6271 L90.0346,85.7471 Z" id="Fill-29"></path>
                        <path d="M59.2943,123.2549 C59.2943,123.9489 59.7863,124.2329 60.3873,123.8859 L77.4923,114.0099 C78.0933,113.6629 78.0933,113.0949 77.4923,112.7479 L60.3873,102.8729 C59.7863,102.5259 59.2943,102.8099 59.2943,103.5039 L59.2943,123.2549 Z" id="Fill-31"></path>
                        <path d="M111.6464,35.0865 C111.6464,34.3925 111.1544,34.1085 110.5534,34.4555 L93.5624,44.2655 C92.9614,44.6125 92.9614,45.1805 93.5624,45.5275 L110.5534,55.3365 C111.1544,55.6845 111.6464,55.3995 111.6464,54.7055 L111.6464,35.0865 Z" id="Fill-37"></path>
                        <path d="M21.6117,38.2276 C22.2137,38.5746 22.7047,38.2906 22.7047,37.5966 L22.7047,17.9536 C22.7047,17.2596 22.2137,16.9756 21.6117,17.3226 L4.6007,27.1446 C3.9997,27.4916 3.9997,28.0596 4.6007,28.4066 L21.6117,38.2276 Z" id="Fill-41"></path>
                        <path d="M-0.0001,54.7637 C-0.0001,55.4577 0.4919,55.7417 1.0929,55.3947 L18.1849,45.5267 C18.7859,45.1797 18.7859,44.6117 18.1849,44.2647 L1.0929,34.3967 C0.4919,34.0497 -0.0001,34.3337 -0.0001,35.0287 L-0.0001,54.7637 Z" id="Fill-45"></path>
                        <path d="M51.2587,21.1031 C51.8607,21.4501 52.3517,21.1661 52.3517,20.4721 L52.3517,0.8371 C52.3517,0.1431 51.8607,-0.1409 51.2587,0.2061 L34.2547,10.0231 C33.6537,10.3711 33.6537,10.9381 34.2547,11.2861 L51.2587,21.1031 Z" id="Fill-48"></path>
                        <path d="M-0.000100000001,89.0049 C-0.000100000001,89.6989 0.4919,89.9839 1.0929,89.6359 L18.1839,79.7689 C18.7849,79.4219 18.7849,78.8539 18.1839,78.5059 L1.0929,68.6389 C0.4919,68.2919 -0.000100000001,68.5759 -0.000100000001,69.2699 L-0.000100000001,89.0049 Z" id="Fill-50"></path>
                    </g>
                    <g id="Group" transform="translate(4.000000, 15.000000)" fill="#B40000">
                        <path d="M103.1459,13.4068 C103.7479,13.0598 103.7479,12.4908 103.1459,12.1438 L82.6209,0.2938 C82.0199,-0.0532 81.0359,-0.0532 80.4339,0.2938 L59.9089,12.1438 C59.3069,12.4908 59.3069,13.0598 59.9089,13.4068 L80.4339,25.2568 C81.0359,25.6038 82.0199,25.6038 82.6209,25.2568 L103.1459,13.4068 Z" id="Fill-59"></path>
                        <path d="M77.9989,37.2037 C77.9989,36.5097 77.5069,36.2247 76.9059,36.5727 L56.3869,48.4187 C55.7859,48.7667 55.2939,49.6177 55.2939,50.3117 L55.2939,74.0137 C55.2939,74.7077 55.7859,74.9917 56.3869,74.6437 L76.9059,62.7977 C77.5069,62.4507 77.9989,61.5987 77.9989,60.9047 L77.9989,37.2037 Z" id="Fill-61"></path>
                        <path d="M25.6469,56.8882 C25.6469,57.5822 26.1389,57.8672 26.7399,57.5192 L47.2589,45.6732 C47.8599,45.3252 48.3519,44.4732 48.3519,43.7802 L48.3519,20.0782 C48.3519,19.3842 47.8599,19.1002 47.2589,19.4482 L26.7399,31.2942 C26.1389,31.6412 25.6469,32.4932 25.6469,33.1872 L25.6469,56.8882 Z" id="Fill-63"></path>
                        <path d="M0.6005,80.6275 C-0.0005,80.9745 -0.0005,81.5425 0.6005,81.8895 L21.1255,93.7405 C21.7275,94.0875 22.7115,94.0875 23.3125,93.7405 L43.8375,81.8895 C44.4395,81.5425 44.4395,80.9745 43.8375,80.6275 L23.3125,68.7765 C22.7115,68.4295 21.7275,68.4295 21.1255,68.7765 L0.6005,80.6275 Z" id="Fill-65"></path>
                    </g>
                </g>
            </g>
        </g>
    </g>
</svg>