<?xml version="1.0" encoding="UTF-8"?>
<svg width="260px" height="304px" viewBox="0 0 260 304" version="1.1" xmlns="http://www.w3.org/2000/svg" xmlns:xlink="http://www.w3.org/1999/xlink">
    <!-- Generator: Sketch 52.6 (67491) - http://www.bohemiancoding.com/sketch -->
    <title>brand/logo-square-color-is-dark</title>
    <desc>Created with Sketch.</desc>
    <defs>
        <polygon id="path-1" points="0 0.4497 13.4809 0.4497 13.4809 31.2545696 0 31.2545696"></polygon>
        <polygon id="path-3" points="0.33145 0.12415 6.22545 0.12415 6.22545 8.5 0.33145 8.5"></polygon>
        <polygon id="path-5" points="0.1735 0.1242 4.974 0.1242 4.974 8.5 0.1735 8.5"></polygon>
    </defs>
    <g id="brand/logo-square-color-is-dark" stroke="none" stroke-width="1" fill="none" fill-rule="evenodd">
        <g id="Group-76" transform="translate(10.000000, 36.000000)">
            <g id="Group-3" transform="translate(0.000000, 184.662500)">
                <mask id="mask-2" fill="white">
                    <use xlink:href="#path-1"></use>
                </mask>
                <g id="Clip-2"></g>
                <path d="M13.4794,0.4497 L13.4809,1.4547 C13.4809,1.4547 12.6984,1.5357 12.0984,1.6972 C11.4974,1.8587 11.2579,2.0307 11.1279,2.1822 C10.7844,2.5642 10.8164,4.0647 10.8164,5.4047 L10.8164,20.4432 C10.8164,23.3547 10.0659,25.8837 8.4374,28.0317 C6.8089,30.1802 4.7349,31.2777 2.2174,31.2542 C0.1534,31.2352 -0.0001,29.9492 -0.0001,29.4182 C-0.0001,28.9097 0.1964,28.1492 1.2399,27.8327 C2.0709,27.5807 3.1404,28.0372 3.5519,28.4302 C4.0714,28.9267 4.4809,29.1752 4.7819,29.1752 C5.1049,29.1752 5.4344,29.0137 5.7694,28.6902 C6.1039,28.3662 6.4329,27.8937 6.7569,27.2697 C7.0799,26.6462 7.4354,25.7622 7.6439,24.6192 C7.8514,23.4757 7.9554,22.1762 7.9554,20.7207 L7.9554,5.2662 C7.9554,3.8342 8.0119,2.5517 7.7129,2.1822 C7.6439,1.9977 7.3144,1.8302 6.7254,1.6797 C6.1364,1.5297 5.3014,1.4547 5.3014,1.4547 L5.3014,0.4497 L13.4794,0.4497 Z" id="Fill-1" fill="#FFFFFE" mask="url(#mask-2)"></path>
            </g>
            <path d="M28.2201,197.55605 L25.3721,189.82455 L22.3916,197.55205 L28.2201,197.55605 Z M26.5596,185.42055 L33.4111,203.47705 C33.8266,204.56355 34.1616,205.66355 34.4161,206.24055 C34.5546,206.58705 34.9121,206.87055 35.4901,207.08955 C36.0671,207.30955 36.7721,207.41905 36.7721,207.41905 L36.8416,208.15505 L29.0101,208.15505 L29.0451,207.41905 C29.0451,207.41905 29.6681,207.36155 30.0846,207.24555 C30.5001,207.13005 30.7056,206.96205 30.8121,206.79555 C31.2966,206.03805 30.3966,203.58155 30.3966,203.58155 L28.9746,199.64605 L21.6031,199.64605 L20.0706,203.51205 C19.6771,204.66755 19.4811,205.73305 19.4811,206.17105 C19.4811,206.49505 19.5731,206.72605 19.7586,206.86455 C19.9661,207.02655 20.3006,207.15905 20.7631,207.26255 C21.2251,207.36705 21.7681,207.41905 21.7681,207.41905 L21.8376,208.15505 L14.6646,208.15505 L14.6646,207.41905 C14.6646,207.41905 15.2996,207.36155 15.7391,207.24555 C16.1776,207.13005 16.4781,206.96855 16.6396,206.76005 C17.1246,206.13655 17.6676,204.78255 18.2681,203.23405 L24.2976,187.74555 C24.3441,187.63005 25.2261,185.60555 25.3066,185.47155 C25.5791,185.01905 25.9831,185.05705 26.1336,185.07705 C26.2881,185.10205 26.4891,185.24355 26.5596,185.42055 Z" id="Fill-4" fill="#FFFFFE"></path>
            <path d="M67.2328,197.55605 L64.3843,189.82455 L61.4043,197.55205 L67.2328,197.55605 Z M65.5723,185.42055 L72.4233,203.47705 C72.8393,204.56355 73.1738,205.69155 73.4283,206.26905 C73.5673,206.61555 73.9248,206.89905 74.5028,207.11805 C75.0798,207.33755 75.7848,207.44705 75.7848,207.44705 L75.8543,208.15505 L68.0228,208.15505 L68.0573,207.44705 C68.0573,207.44705 68.6808,207.39005 69.0973,207.27405 C69.5128,207.15855 69.7183,206.99005 69.8248,206.82355 C70.3088,206.06655 69.4088,203.58155 69.4088,203.58155 L67.9873,199.64605 L60.6158,199.64605 L59.0833,203.51205 C58.6898,204.66755 58.4938,205.76105 58.4938,206.19955 C58.4938,206.52355 58.5858,206.75405 58.7713,206.89305 C58.9788,207.05455 59.3133,207.18755 59.7758,207.29105 C60.2373,207.39555 60.7808,207.44705 60.7808,207.44705 L60.8503,208.15505 L53.6773,208.15505 L53.6773,207.44705 C53.6773,207.44705 54.3123,207.39005 54.7518,207.27405 C55.1903,207.15855 55.4908,206.99705 55.6523,206.78855 C56.1373,206.16505 56.6803,204.78255 57.2808,203.23405 L63.3103,187.74555 C63.3568,187.63005 64.2388,185.60555 64.3193,185.47155 C64.5918,185.01905 64.9958,185.05705 65.1463,185.07705 C65.3008,185.10205 65.5018,185.24355 65.5723,185.42055 Z" id="Fill-6" fill="#FFFFFE"></path>
            <path d="M160.55485,197.55605 L157.70685,189.82455 L154.72635,197.55205 L160.55485,197.55605 Z M158.89435,185.42055 L165.74585,203.47705 C166.16135,204.56355 166.61685,205.66355 166.87135,206.24055 C167.00985,206.58705 167.24685,206.87055 167.82485,207.08955 C168.40185,207.30955 169.10685,207.41905 169.10685,207.41905 L169.17585,208.15505 L161.34485,208.15505 L161.37935,207.41905 C161.37935,207.41905 162.00285,207.36155 162.41935,207.24555 C162.83485,207.13005 163.01035,206.93855 163.14685,206.79555 C163.76235,206.14705 162.73135,203.58155 162.73135,203.58155 L161.30935,199.64605 L153.93785,199.64605 L152.40485,203.51205 C152.01185,204.66755 151.81585,205.73305 151.81585,206.17105 C151.81585,206.49505 151.90735,206.72605 152.09285,206.86455 C152.30085,207.02655 152.63535,207.15905 153.09785,207.26255 C153.55985,207.36705 154.10285,207.41905 154.10285,207.41905 L154.17185,208.15505 L146.99935,208.15505 L146.99935,207.41905 C146.99935,207.41905 147.63385,207.36155 148.07335,207.24555 C148.51185,207.13005 148.81285,206.96855 148.97435,206.76005 C149.45935,206.13655 150.00235,204.78255 150.60285,203.23405 L156.63185,187.74555 C156.67835,187.63005 157.56085,185.60555 157.64135,185.47155 C157.91385,185.01905 158.31785,185.05705 158.46835,185.07705 C158.62285,185.10205 158.82385,185.24355 158.89435,185.42055 Z" id="Fill-8" fill="#FFFFFE"></path>
            <path d="M38.6818,185.2509 C38.6818,185.2509 47.0598,185.2004 47.7293,185.2314 C50.2443,185.3474 51.5548,186.1059 52.2828,186.5674 C53.0098,187.0299 53.6043,187.6884 54.0673,188.5429 C54.5288,189.3974 54.7863,190.3914 54.7598,191.5224 C54.7333,192.6609 54.1938,196.1649 50.8273,197.7424 C49.2933,198.4614 47.9263,198.3589 46.6083,197.9409 C45.9493,197.7319 45.4003,197.4039 45.0243,197.0184 C44.8498,196.7474 45.1008,196.5669 45.2503,196.6654 C45.9433,196.9199 46.5288,197.0184 47.3843,197.0184 C48.5388,197.0184 49.5468,196.6219 50.4508,195.7189 C51.3268,194.8424 52.0898,193.2429 52.0898,191.9034 C52.0898,190.2629 51.6468,189.2729 50.9313,188.3139 C50.2148,187.3559 48.6728,186.7059 47.1713,186.7059 C46.1318,186.7059 45.3228,186.7874 44.7458,186.9489 C44.6298,186.9714 44.5493,187.0584 44.5033,187.2084 C44.4568,187.3594 44.4168,187.7109 44.3818,188.2654 C44.3473,188.8199 44.3303,189.6514 44.3303,190.7604 L44.3303,203.1309 C44.3303,204.6784 44.4223,205.9524 44.6073,206.4139 C44.7223,206.7149 45.1323,206.9574 45.8378,207.1414 C46.5418,207.3264 47.3448,207.4189 47.3448,207.4189 L47.4143,208.1554 L38.6818,208.1554 L38.6818,207.4394 C38.6818,207.4394 39.4553,207.3699 40.0333,207.2314 C40.6103,207.0929 40.9568,206.8299 41.0728,206.6219 C41.2343,206.3449 41.3158,204.9904 41.3158,203.0959 L41.3158,189.9979 C41.3158,188.6354 41.2833,187.4764 41.0728,187.0179 C41.0038,186.8329 40.6378,186.4554 40.0508,186.2194 C39.4593,185.9819 38.9818,185.9644 38.6818,185.9644 L38.6818,185.2509 Z" id="Fill-10" fill="#FFFFFE"></path>
            <path d="M95.60245,189.89395 C95.60245,188.48545 95.52145,187.46795 95.35995,186.84445 C95.26645,186.52395 94.90145,186.32545 94.17345,186.15245 C93.44595,185.97895 92.62295,185.95895 92.62295,185.95895 L92.62295,185.11245 L100.59245,185.11245 L100.57945,185.95895 C100.57945,185.95895 99.78945,185.99445 99.01595,186.17895 C98.24145,186.36445 97.90395,186.54295 97.78545,186.84445 C97.60045,187.56095 97.50845,188.63495 97.50845,190.06745 L97.50695,208.21695 L96.31995,208.22445 L95.73145,207.42745 L82.36595,188.36945 L82.36595,203.16545 C82.36595,204.69045 82.39145,205.76395 82.55295,206.38745 C82.72295,206.86795 83.04745,206.94845 83.76895,207.14495 C84.51995,207.34895 85.27345,207.43345 85.27345,207.43345 L85.27645,208.15495 L77.30695,208.15495 L77.30695,207.42795 C77.30695,207.42795 78.15595,207.31845 78.88345,207.14495 C79.61095,206.97145 79.95295,206.85395 80.15095,206.38745 C80.38145,205.78695 80.42545,204.63295 80.42545,203.06145 L80.42545,189.44395 C80.42545,188.31195 80.34395,187.44595 80.18295,186.84445 C80.11345,186.65995 79.72045,186.49245 79.00495,186.34195 C78.28845,186.19245 77.44545,186.11695 77.44545,186.11695 L77.44545,185.11245 L83.75195,185.11245 C83.75195,185.11245 88.52145,192.34245 95.49845,202.09145 C95.56795,201.69845 95.60245,201.22445 95.60245,200.67095 L95.60245,189.89395 Z" id="Fill-12" fill="#FFFFFE"></path>
            <path d="M112.22575,191.2797 C112.26425,189.4837 112.91475,187.8857 114.29225,186.7312 C115.66825,185.5762 117.26525,185.1207 119.08475,185.1207 C119.59775,185.1207 120.70775,185.2117 121.15975,185.2902 C122.62975,185.5442 124.36925,186.1007 124.36925,186.1007 L124.78925,191.1047 L123.81675,191.0832 C123.81675,191.0832 123.65375,189.5277 122.31875,188.0312 C121.44975,187.0582 120.31175,186.6182 118.84025,186.5552 C117.44125,186.4957 116.33275,186.9637 115.76175,187.6642 C115.18975,188.3637 115.02425,189.1682 115.02525,190.1947 C115.02725,192.1012 116.22075,193.0642 116.65275,193.4147 C117.08425,193.7642 117.39875,194.0092 117.59775,194.1492 C117.79575,194.2897 118.19275,194.5462 118.78725,194.9192 C119.38225,195.2927 119.76075,195.5257 119.92425,195.6192 C120.04125,195.6887 120.44975,195.9397 121.14975,196.3717 C121.84925,196.8037 122.32725,197.1062 122.58475,197.2812 C122.84075,197.4567 123.25475,197.7582 123.79175,198.2262 C125.68175,199.8732 126.01375,201.8132 126.01375,202.3732 C126.01375,204.2402 125.33075,205.8502 123.87275,207.0512 C122.41425,208.2532 120.65975,208.7772 118.69975,208.7772 C118.13975,208.7772 117.54525,208.7362 116.91525,208.6547 C116.28525,208.5727 115.76025,208.4917 115.34025,208.4102 C114.92025,208.3287 114.38975,208.2117 113.74775,208.0602 C113.10625,207.9087 112.40075,207.7622 112.40075,207.7622 L111.60275,202.1982 L112.61725,202.1902 C112.61725,202.1902 112.78075,203.2257 113.64475,204.6647 C114.67275,206.3772 116.57275,207.3422 118.77025,207.3422 C119.93625,207.3422 120.92725,206.9927 121.74425,206.2927 C122.56125,205.5927 122.96875,204.6017 122.96875,203.3182 C122.96875,202.8517 122.82725,201.3712 121.51675,200.2212 C121.15375,199.9027 120.83475,199.7137 120.62475,199.5737 C120.41475,199.4342 120.02975,199.2122 119.46975,198.9087 C118.90975,198.6057 118.52525,198.3952 118.31475,198.2787 C117.63775,197.8822 117.16575,197.6027 116.89775,197.4387 C116.64775,197.2872 116.20375,197.0017 115.56825,196.5817 C114.94925,196.1737 114.50025,195.8117 114.22075,195.4967 C113.94075,195.1817 112.17275,193.7687 112.22575,191.2797" id="Fill-14" fill="#FFFFFE"></path>
            <path d="M131.0602,206.3534 L131.0602,186.8604 C131.0737,186.7829 130.6737,186.4629 129.8807,186.2054 C129.2787,186.0099 128.5117,185.9634 128.5117,185.9634 L128.5117,185.2509 L143.9062,185.2799 L144.8327,189.7554 L143.7967,189.7494 C143.7967,189.7494 143.4477,188.3984 142.2682,187.4009 C141.7187,186.9369 140.7892,186.8639 139.7037,186.8639 L133.9647,186.8664 L133.9752,195.6639 C133.9752,195.6639 139.2162,195.6614 139.5057,195.6614 C140.7102,195.6614 141.0102,195.3374 141.1542,195.0569 C141.3837,194.6104 141.6507,193.5354 141.6507,193.5354 L142.4067,193.5369 L142.4067,199.7999 L141.6507,199.7949 C141.6507,199.7949 141.6002,199.1664 141.2412,198.4009 C140.9487,197.7779 140.3777,197.5179 139.4762,197.5179 C138.5267,197.5179 133.9752,197.5244 133.9752,197.5244 L133.9712,206.3119 L138.4912,206.3424 C138.4912,206.3424 142.0777,206.3309 142.8407,205.9374 C143.1867,205.7529 143.4772,205.4304 143.8957,204.6019 C144.2407,203.9189 144.7337,202.4379 144.7337,202.4379 L145.8412,202.4379 L144.5207,208.1899 L128.5117,208.1554 L128.5117,207.4474 C129.6527,207.2914 130.5942,206.8194 131.0602,206.3534" id="Fill-16" fill="#FFFFFE"></path>
            <path d="M179.5138,186.70595 C178.4738,186.70595 178.0373,186.69545 177.5103,186.78895 C177.4178,186.81245 176.6718,186.84695 176.6718,188.01095 C176.6718,188.55495 176.6723,194.95295 176.6723,194.95295 C176.6723,195.62345 177.6773,195.95795 179.6873,195.95795 L180.5528,195.95795 C181.3613,195.95795 182.1993,195.55395 183.0653,194.74495 C183.9318,193.93645 184.3648,192.86245 184.3648,191.52245 C184.3648,188.31195 182.7473,186.70595 179.5138,186.70595 M180.0153,185.23445 C182.6273,185.23445 184.0643,186.10595 184.8503,186.56745 C185.6348,187.02945 186.2823,187.68845 186.7908,188.54295 C187.2983,189.39745 187.5528,190.39095 187.5528,191.52245 C187.5528,192.49245 187.1893,193.50945 186.4613,194.57195 C185.7333,195.63445 184.4778,196.55445 183.2303,197.13195 C182.9993,197.22395 182.9298,197.33995 183.0228,197.47795 C184.1773,199.90395 185.4308,202.21795 186.9323,203.85795 C189.4858,207.00995 191.1998,207.75795 193.0708,208.53845 C193.4378,208.69145 193.3208,208.92445 193.0378,208.93145 C192.5393,208.94395 191.8678,208.89945 191.1718,208.77845 C188.1143,208.24545 185.5453,206.22845 183.4038,203.23445 C183.0343,202.72645 182.6128,202.12045 182.1393,201.41545 C181.6663,200.71095 180.1633,198.22245 179.9438,198.03695 C179.7243,197.85245 179.6968,197.69195 179.2333,197.58695 C178.9698,197.52695 178.1043,197.44745 177.5038,197.44745 C177.3183,197.44745 177.1803,197.45345 177.0878,197.46545 C176.9958,197.47745 176.9028,197.52895 176.8113,197.62095 C176.7178,197.71395 176.6723,197.85245 176.6723,198.03695 C176.6723,198.03695 176.7643,205.79045 176.9493,206.25245 C177.0653,206.55245 177.5023,206.87245 178.2073,207.05695 C178.9113,207.24195 179.7538,207.41845 179.7538,207.41845 L179.7563,208.15495 L170.9188,208.15495 L170.9248,207.42295 C170.9248,207.42295 171.7793,207.24245 172.3423,207.08745 C173.2723,206.83095 173.5838,206.62595 173.6298,206.15345 L173.6258,187.01795 C173.6258,187.01795 173.4573,186.52195 172.3928,186.21295 C171.7903,186.03745 171.0243,185.97045 171.0243,185.97045 L171.0243,185.25095 C171.0243,185.25095 179.3448,185.23445 180.0153,185.23445" id="Fill-18" fill="#FFFFFE"></path>
            <path d="M211.70815,201.90665 L210.54665,206.85915 C210.54665,206.85915 209.64915,207.32915 209.10115,207.51715 C207.45715,208.08065 205.69465,208.51115 202.38365,208.36165 C199.38065,208.22665 196.82115,207.25765 194.71515,205.04865 C192.60865,202.84065 191.55515,200.21015 191.55515,197.15915 C191.55515,193.92565 192.72465,191.10615 194.82615,188.73765 C196.23465,187.15065 199.21015,185.37515 202.75915,185.37515 C207.52615,185.37515 210.38465,186.77415 210.38465,186.77415 L210.99065,191.14715 L209.82915,191.48865 C209.82915,191.48865 209.67565,190.89115 209.57315,190.58365 C209.47015,190.27615 208.85715,188.42215 205.74715,187.20215 C204.91615,186.87565 203.93115,186.80915 202.86115,186.80915 C201.26965,186.80915 198.98815,187.79415 197.41665,189.76365 C195.84515,191.73365 195.08615,194.06315 195.08615,196.54515 C195.08615,198.38965 195.37815,199.98265 196.01615,201.53115 C196.65365,203.08015 197.42715,204.28265 198.80565,205.29515 C200.18265,206.30965 201.79065,206.89365 203.68065,206.89365 C205.93565,206.89365 207.49315,206.33865 208.72265,205.01815 C209.04115,204.67615 209.45215,204.12165 209.69165,203.56315 C209.93015,203.00565 210.58065,201.59915 210.58065,201.59915 L211.70815,201.90665 Z" id="Fill-20" fill="#FFFFFE"></path>
            <path d="M233.35755,186.91005 L233.35755,206.51205 C233.38455,206.73155 233.73255,207.06105 234.44755,207.20605 C235.04755,207.32755 235.74855,207.42805 235.74855,207.42805 L235.74955,208.13055 L227.69605,208.13055 L227.69605,207.42805 C227.69605,207.42805 228.42855,207.33905 229.01555,207.22305 C229.78505,207.07005 230.24705,206.91005 230.25255,206.51205 L230.23205,197.26605 L219.81405,197.28405 L219.81005,206.49555 L219.81105,206.51205 C219.81605,206.76155 220.18605,207.06105 220.90105,207.20605 C221.50055,207.32755 222.20205,207.42805 222.20205,207.42805 L222.20305,208.13055 L214.14955,208.13055 L214.14955,207.42805 C214.14955,207.42805 214.88205,207.33905 215.46955,207.22305 C216.23905,207.07005 216.69205,206.91005 216.69755,206.51205 L216.69705,206.49555 L216.69705,186.90055 C216.69705,186.55205 216.22905,186.36355 215.61655,186.19105 C215.03755,186.02755 214.29705,185.96805 214.29705,185.96805 L214.29705,185.34155 L222.38455,185.34155 L222.38105,185.96805 C222.38105,185.96805 221.42955,186.03405 220.97705,186.15655 C220.45605,186.29755 219.81005,186.51455 219.81005,186.90055 L219.83055,195.45105 L230.21605,195.45105 L230.25255,186.91005 L230.25305,186.90005 C230.25305,186.55155 229.77605,186.36355 229.16305,186.19105 C228.58455,186.02755 227.84355,185.96805 227.84355,185.96805 L227.84355,185.34155 L235.93105,185.34155 L235.92805,185.96805 C235.92805,185.96805 234.97605,186.03405 234.52405,186.15655 C234.00305,186.29755 233.35705,186.51455 233.35705,186.90055 L233.35755,186.91005 Z" id="Fill-22" fill="#FFFFFE"></path>
            <g id="Group-26" transform="translate(105.000000, 224.162500)">
                <mask id="mask-4" fill="white">
                    <use xlink:href="#path-3"></use>
                </mask>
                <g id="Clip-25"></g>
                <path d="M1.68445,6.99415 C1.68445,7.28865 1.74345,7.34715 2.03745,7.34715 L3.14345,7.34715 C4.11945,7.34715 4.83745,6.88865 4.83745,5.91215 C4.83745,5.01815 4.26095,4.67665 3.35495,4.67665 L2.03745,4.67665 C1.74345,4.67665 1.68445,4.73515 1.68445,5.02965 L1.68445,6.99415 Z M1.68445,3.19415 C1.68445,3.48865 1.74345,3.54715 2.03745,3.54715 L2.97845,3.54715 C3.84895,3.54715 4.47245,3.21765 4.47245,2.27665 C4.47245,1.50065 3.83745,1.30015 3.11995,1.30015 L2.03745,1.30015 C1.74345,1.30015 1.68445,1.35915 1.68445,1.65315 L1.68445,3.19415 Z M2.22545,8.47665 C1.67295,8.47665 0.74345,8.50015 0.66095,8.50015 C0.41395,8.50015 0.33145,8.41815 0.33145,8.17115 C0.33145,8.08815 0.35495,6.81765 0.35495,6.15915 L0.35495,2.46465 C0.35495,1.88865 0.33145,0.70015 0.33145,0.50065 C0.33145,0.21765 0.40245,0.12415 0.66095,0.12415 C0.79045,0.12415 1.67295,0.14765 2.22545,0.14765 L3.13195,0.14765 C4.82545,0.14765 5.82545,0.59415 5.82545,2.02965 C5.82545,2.71215 5.67295,3.35865 5.06095,3.80615 C4.96645,3.87715 4.90795,3.92365 4.90795,3.95915 C4.90795,4.01815 4.96645,4.05315 5.09595,4.10015 C5.77845,4.37115 6.22545,4.95915 6.22545,5.92365 C6.22545,7.67665 5.06095,8.47665 3.16695,8.47665 L2.22545,8.47665 Z" id="Fill-24" fill="#FFFFFE" mask="url(#mask-4)"></path>
            </g>
            <g id="Group-29" transform="translate(113.500000, 224.162500)">
                <mask id="mask-6" fill="white">
                    <use xlink:href="#path-5"></use>
                </mask>
                <g id="Clip-28"></g>
                <path d="M2.974,7.2412 C3.5385,7.2412 4.5975,7.2062 4.6795,7.2062 C4.9265,7.2062 4.974,7.2767 4.974,7.5472 L4.974,8.1592 C4.974,8.4297 4.9265,8.5002 4.6795,8.5002 C4.5975,8.5002 3.5385,8.4767 2.974,8.4767 L2.068,8.4767 C1.515,8.4767 0.586,8.5002 0.5035,8.5002 C0.2445,8.5002 0.1735,8.4062 0.1735,8.1237 C0.1855,7.4647 0.1975,6.7237 0.1975,6.1592 L0.1975,2.4647 C0.1975,1.8887 0.1855,1.1002 0.1735,0.5007 C0.1735,0.2177 0.2445,0.1242 0.5035,0.1242 C0.586,0.1242 1.515,0.1472 2.068,0.1472 L2.727,0.1472 C3.2915,0.1472 4.3505,0.1242 4.4325,0.1242 C4.6795,0.1242 4.727,0.1942 4.727,0.4647 L4.727,1.1002 C4.727,1.3712 4.6795,1.4412 4.4325,1.4412 C4.3505,1.4412 3.2915,1.4062 2.727,1.4062 L1.8915,1.4062 C1.5975,1.4062 1.5385,1.4647 1.5385,1.7592 L1.5385,3.1002 C1.5385,3.3947 1.5975,3.4532 1.8915,3.4532 L2.48,3.4532 C3.0325,3.4532 4.1035,3.4297 4.1855,3.4297 C4.4325,3.4297 4.48,3.5007 4.48,3.7712 L4.48,4.3472 C4.48,4.6177 4.4325,4.6887 4.1855,4.6887 C4.1035,4.6887 3.0325,4.6652 2.48,4.6652 L1.8915,4.6652 C1.5975,4.6652 1.5385,4.7237 1.5385,5.0182 L1.5385,6.8887 C1.5385,7.1827 1.5975,7.2412 1.8915,7.2412 L2.974,7.2412 Z" id="Fill-27" fill="#FFFFFE" mask="url(#mask-6)"></path>
            </g>
            <path d="M124.0387,230.28605 C124.0387,230.96855 124.0737,232.26255 124.0737,232.34505 C124.0737,232.59205 124.0037,232.63905 123.7332,232.63905 L122.9917,232.63905 C122.7212,232.63905 122.6512,232.59205 122.6512,232.34505 C122.6512,232.26255 122.6862,230.96855 122.6862,230.28605 L122.6862,225.93355 C122.6862,225.63905 122.6277,225.58055 122.3327,225.58055 L121.9682,225.58055 C121.4742,225.58055 120.4627,225.61555 120.3807,225.61555 C120.1332,225.61555 120.0867,225.54555 120.0867,225.27505 L120.0867,224.62755 C120.0867,224.35705 120.1332,224.28655 120.3807,224.28655 C120.4627,224.28655 121.5327,224.31005 122.0867,224.31005 L124.6512,224.31005 C125.2037,224.31005 126.2742,224.28655 126.3572,224.28655 C126.6042,224.28655 126.6512,224.35705 126.6512,224.62755 L126.6512,225.27505 C126.6512,225.54555 126.6042,225.61555 126.3572,225.61555 C126.2742,225.61555 125.2622,225.58055 124.7682,225.58055 L124.3922,225.58055 C124.0982,225.58055 124.0387,225.63905 124.0387,225.93355 L124.0387,230.28605 Z" id="Fill-30" fill="#FFFFFE"></path>
            <path d="M130.1569,229.2157 C130.1219,229.2982 130.1099,229.3687 130.1099,229.4157 C130.1099,229.5212 130.1929,229.5452 130.3804,229.5452 L132.3924,229.5452 C132.5809,229.5452 132.6629,229.5212 132.6629,229.4157 C132.6629,229.3687 132.6509,229.2982 132.6159,229.2157 L131.5219,226.5212 C131.4754,226.4042 131.4399,226.3332 131.3924,226.3332 C131.3569,226.3332 131.3104,226.3922 131.2634,226.5212 L130.1569,229.2157 Z M129.9459,230.6747 C129.6394,230.6747 129.5574,230.6982 129.4519,230.9567 C129.2869,231.3452 129.1334,231.7452 128.9344,232.3097 C128.8279,232.5922 128.7694,232.6392 128.4634,232.6392 L127.6394,232.6392 C127.4519,232.6392 127.3689,232.6157 127.3689,232.5212 C127.3689,232.4747 127.3924,232.4152 127.4399,232.3217 C127.8044,231.4977 128.0634,230.9097 128.3104,230.3332 L129.9929,226.3452 C130.2049,225.8392 130.4519,225.2747 130.6989,224.6397 C130.8044,224.3567 130.8629,224.3097 131.1684,224.3097 L131.6744,224.3097 C131.9809,224.3097 132.0399,224.3567 132.1454,224.6397 C132.3924,225.2747 132.6274,225.8392 132.8394,226.3332 L134.5339,230.3097 C134.7924,230.9217 135.0514,231.5097 135.4159,232.3217 C135.4634,232.4152 135.4869,232.4747 135.4869,232.5212 C135.4869,232.6157 135.4039,232.6392 135.2164,232.6392 L134.3104,232.6392 C134.0044,232.6392 133.9459,232.5922 133.8394,232.3097 C133.6394,231.7452 133.4869,231.3452 133.3219,230.9567 C133.2164,230.6982 133.1454,230.6747 132.8279,230.6747 L129.9459,230.6747 Z" id="Fill-32" fill="#FFFFFE"></path>
            <path d="M124.32155,110.32805 C124.32155,111.11805 124.88105,111.44155 125.56555,111.04655 L152.08905,95.73305 C152.77355,95.33805 153.33355,94.36805 153.33355,93.57805 L153.33355,62.95105 C153.33355,62.16105 152.77355,61.83755 152.08905,62.23255 L125.56555,77.54605 C124.88105,77.94105 124.32155,78.91105 124.32155,79.70155 L124.32155,110.32805 Z" id="Fill-34" fill="#D1C116"></path>
            <path d="M87.2832,88.944 C87.2832,89.7345 87.8432,90.0575 88.5277,89.6625 L115.0512,74.349 C115.7357,73.954 116.2952,72.984 116.2952,72.194 L116.2952,41.567 C116.2952,40.777 115.7357,40.4535 115.0512,40.849 L88.5277,56.162 C87.8432,56.557 87.2832,57.527 87.2832,58.3175 L87.2832,88.944 Z" id="Fill-36" fill="#6D37B8"></path>
            <path d="M125.56565,40.8488 C124.88115,40.4533 124.32165,40.7768 124.32165,41.5673 L124.32165,67.5598 C124.32165,68.3503 124.88115,68.6733 125.56565,68.2783 L148.07615,55.2818 C148.76065,54.8868 148.76065,54.2403 148.07615,53.8453 L125.56565,40.8488 Z" id="Fill-59" fill="#FFFFFE"></path>
            <path d="M115.05105,111.0463 C115.73555,111.4418 116.29555,111.1183 116.29555,110.3278 L116.29555,84.3353 C116.29555,83.5448 115.73555,83.2218 115.05105,83.6168 L92.54055,96.6128 C91.85605,97.0083 91.85605,97.6548 92.54055,98.0498 L115.05105,111.0463 Z" id="Fill-63" fill="#595A59"></path>
            <path d="M182.96705,35.1376 C183.47705,34.8451 183.45905,34.4976 183.34355,34.2436 C181.01005,31.2626 178.18955,28.6816 174.98205,26.6476 C174.86755,26.5751 174.74955,26.5066 174.63405,26.4356 C174.23405,26.1891 173.83205,25.9451 173.42105,25.7151 L173.42355,25.7116 L167.13505,22.0811 L158.59055,17.1476 C157.90605,16.7526 156.78655,16.7526 156.10255,17.1481 L129.57855,32.4611 C128.89405,32.8566 128.89405,33.5026 129.57905,33.8981 L142.84055,41.5546 L156.10255,49.2111 C156.78655,49.6066 157.90655,49.6066 158.59055,49.2111 L167.13505,44.2786 L167.13505,44.2781 C172.96805,40.9096 182.41305,35.4566 182.94655,35.1496 L182.96705,35.1376 Z" id="Fill-72" fill="#D1C116"></path>
            <path d="M111.0381,117.99695 L84.5146,102.68395 C83.8301,102.28845 82.7101,102.28845 82.0261,102.68395 L73.6131,107.54045 L73.6131,107.54095 C67.8076,110.89345 58.2606,116.40595 57.6776,116.74095 L57.6496,116.75745 C57.0906,117.07845 57.1656,117.46445 57.3091,117.72045 C57.4961,117.95795 57.6791,118.19845 57.8721,118.43095 C57.8771,118.43645 57.8816,118.44245 57.8866,118.44795 C58.8991,119.66445 59.9971,120.80695 61.1716,121.86645 C61.1736,121.86845 61.1761,121.87095 61.1786,121.87295 C61.5451,122.20295 61.9196,122.52345 62.3001,122.83695 C62.3461,122.87445 62.3911,122.91245 62.4371,122.94945 C62.7656,123.21695 63.1006,123.47595 63.4391,123.73095 C63.5481,123.81245 63.6556,123.89495 63.7661,123.97495 C64.0396,124.17595 64.3196,124.37045 64.6001,124.56295 C64.7826,124.68795 64.9646,124.81395 65.1501,124.93545 C65.3661,125.07745 65.5861,125.21445 65.8056,125.35145 C66.1196,125.54745 66.4321,125.74395 66.7551,125.93045 L73.6131,129.88995 L82.0261,134.74695 C82.7101,135.14245 83.8301,135.14245 84.5146,134.74695 L111.0381,119.43395 C111.7226,119.03845 111.7226,118.39245 111.0381,117.99695" id="Fill-74" fill="#6D37B8"></path>
            <g id="Group" transform="translate(50.000000, 0.000000)" fill="#DA0340">
                <path d="M136.97975,42.08855 C136.39025,42.43105 116.61625,53.84555 116.61625,53.84555 C115.93225,54.24055 115.93225,54.88705 116.61675,55.28205 L135.60675,66.24555 L139.12725,68.27855 C139.81175,68.67355 140.37175,68.35005 140.37175,67.56005 L140.37175,54.56055 C140.37125,50.28305 139.55275,46.19805 138.07075,42.44755 C137.96475,42.17955 137.67075,41.68705 136.97975,42.08855" id="Fill-38"></path>
                <path d="M3.63695,42.08855 C4.22645,42.43105 24.00045,53.84555 24.00045,53.84555 C24.68445,54.24055 24.68445,54.88705 23.99995,55.28205 L5.00995,66.24555 L1.48945,68.27855 C0.80495,68.67355 0.24495,68.35005 0.24495,67.56005 L0.24495,54.56055 C0.24545,50.28305 1.06395,46.19805 2.54595,42.44755 C2.65195,42.17955 2.94595,41.68705 3.63695,42.08855" id="Fill-40"></path>
                <path d="M136.97975,109.80655 C136.39025,109.46405 116.61625,98.05005 116.61625,98.05005 C115.93225,97.65455 115.93225,97.00805 116.61675,96.61305 L135.60675,85.64955 L139.12725,83.61705 C139.81175,83.22155 140.37175,83.54505 140.37175,84.33505 L140.37175,97.33455 C140.37125,101.61205 139.55275,105.69705 138.07075,109.44755 C137.96475,109.71555 137.67075,110.20805 136.97975,109.80655" id="Fill-42"></path>
                <path d="M3.63695,109.80655 C4.22645,109.46405 24.00045,98.05005 24.00045,98.05005 C24.68445,97.65455 24.68445,97.00805 23.99995,96.61305 L5.00995,85.64955 L1.48945,83.61705 C0.80495,83.22155 0.24495,83.54505 0.24495,84.33505 L0.24495,97.33455 C0.24545,101.61205 1.06395,105.69705 2.54595,109.44755 C2.65195,109.71555 2.94595,110.20805 3.63695,109.80655" id="Fill-44"></path>
                <path d="M74.32155,150.6161 C74.32355,149.9346 74.32155,127.1031 74.32155,127.1031 C74.32155,126.3131 74.88155,125.9896 75.56555,126.3846 L94.55555,137.3486 L98.07605,139.3811 C98.76055,139.7761 98.76055,140.4226 98.07605,140.8176 L86.81855,147.3176 C83.11355,149.4561 79.16655,150.7901 75.17755,151.3816 C74.89255,151.4236 74.31905,151.4156 74.32155,150.6161" id="Fill-48"></path>
                <path d="M132.96705,116.75725 C132.37505,116.41825 112.60355,105.00025 112.60355,105.00025 C111.91905,104.60525 111.35955,104.92875 111.35955,105.71925 L111.35955,127.64675 L111.35955,131.71175 C111.35955,132.50225 111.91955,132.82575 112.60355,132.43025 L123.86155,125.93075 C127.56605,123.79125 130.69455,121.03975 133.20155,117.88175 C133.38055,117.65575 133.66005,117.15475 132.96705,116.75725" id="Fill-53"></path>
                <path d="M102.0891,132.4301 C102.7736,132.8256 103.3336,132.5026 103.3336,131.7116 L103.3336,105.7191 C103.3336,104.9291 102.7736,104.6056 102.0891,105.0006 L79.5786,117.9971 C78.8941,118.3921 78.8941,119.0386 79.5786,119.4341 L102.0891,132.4301 Z" id="Fill-55"></path>
                <path d="M112.60375,62.23255 C111.91975,61.83755 111.35975,62.16055 111.35975,62.95105 L111.35975,88.94405 C111.35975,89.73405 111.91975,90.05755 112.60375,89.66205 L135.11425,76.66605 C135.79875,76.27105 135.79875,75.62405 135.11425,75.22905 L112.60375,62.23255 Z" id="Fill-57"></path>
                <path d="M38.5276,19.46475 C37.8431,19.06975 37.2831,19.39275 37.2831,20.18325 L37.2831,46.17575 C37.2831,46.96625 37.8431,47.28925 38.5276,46.89425 L61.0381,33.89825 C61.7226,33.50275 61.7226,32.85625 61.0381,32.46125 L38.5276,19.46475 Z" id="Fill-61"></path>
                <path d="M28.01295,89.66225 C28.69745,90.05775 29.25745,89.73425 29.25745,88.94375 L29.25745,62.95125 C29.25745,62.16075 28.69745,61.83775 28.01295,62.23275 L5.50245,75.22925 C4.81795,75.62425 4.81795,76.27075 5.50245,76.66575 L28.01295,89.66225 Z" id="Fill-65"></path>
                <path d="M66.2954,150.6161 C66.2934,149.9346 66.2954,127.1031 66.2954,127.1031 C66.2954,126.3131 65.7354,125.9896 65.0509,126.3846 L46.0614,137.3486 L42.5404,139.3811 C41.8564,139.7761 41.8564,140.4226 42.5409,140.8176 L53.7984,147.3176 C57.5034,149.4561 61.4504,150.7901 65.4389,151.3816 C65.7244,151.4236 66.2974,151.4156 66.2954,150.6161" id="Fill-67"></path>
                <path d="M7.6499,35.13785 C8.2414,35.47735 28.0134,46.89485 28.0134,46.89485 C28.6974,47.28985 29.2574,46.96635 29.2569,46.17635 L29.2569,24.24835 L29.2569,20.18335 C29.2569,19.39285 28.6974,19.06985 28.0129,19.46485 L16.7549,25.96435 C13.0504,28.10385 9.9224,30.85485 7.4154,34.01335 C7.2359,34.23935 6.9569,34.74035 7.6499,35.13785" id="Fill-46"></path>
                <path d="M66.2954,1.27895 C66.2934,1.96045 66.2954,24.79245 66.2954,24.79245 C66.2954,25.58245 65.7354,25.90545 65.0509,25.51045 L46.0614,14.54645 L42.5404,12.51395 C41.8564,12.11895 41.8564,11.47245 42.5409,11.07745 L53.7984,4.57745 C57.5034,2.43895 61.4504,1.10545 65.4389,0.51345 C65.7244,0.47145 66.2974,0.47995 66.2954,1.27895" id="Fill-50"></path>
                <path d="M74.32155,1.27895 C74.32355,1.96045 74.32155,24.79245 74.32155,24.79245 C74.32155,25.58245 74.88155,25.90545 75.56555,25.51045 L94.55555,14.54645 L98.07605,12.51395 C98.76055,12.11895 98.76055,11.47245 98.07605,11.07745 L86.81855,4.57745 C83.11355,2.43895 79.16655,1.10545 75.17755,0.51345 C74.89255,0.47145 74.31905,0.47995 74.32155,1.27895" id="Fill-69"></path>
            </g>
        </g>
    </g>
</svg>