<?xml version="1.0" encoding="UTF-8"?>
<svg width="591px" height="78px" viewBox="0 0 591 78" version="1.1" xmlns="http://www.w3.org/2000/svg" xmlns:xlink="http://www.w3.org/1999/xlink">
    <!-- Generator: Sketch 52.5 (67469) - http://www.bohemiancoding.com/sketch -->
    <title>Group 64</title>
    <desc>Created with Sketch.</desc>
    <g id="Symbols" stroke="none" stroke-width="1" fill="none" fill-rule="evenodd">
        <g id="CI/brandlogo-white" transform="translate(-175.000000, -34.000000)" fill="#FFFFFF">
            <g id="Group-64" transform="translate(175.000000, 34.000000)">
                <path d="M34.1916,0.2522 L34.1956,2.7672 C34.1956,2.7672 32.2386,2.9702 30.7356,3.3752 C29.2316,3.7802 28.6306,4.2102 28.3066,4.5892 C27.4476,5.5442 27.5266,9.3022 27.5266,12.6542 L27.5266,50.2972 C27.5266,57.5832 25.6486,63.9142 21.5716,69.2902 C17.4956,74.6682 12.3046,77.4152 6.0036,77.3572 C0.8366,77.3092 0.4536,74.0892 0.4536,72.7602 C0.4536,71.4882 0.9446,69.5852 3.5566,68.7922 C5.6366,68.1612 8.3136,69.3042 9.3426,70.2882 C10.6436,71.5312 11.6696,72.1532 12.4216,72.1532 C13.2316,72.1532 14.0556,71.7482 14.8936,70.9392 C15.7306,70.1282 16.5546,68.9442 17.3656,67.3822 C18.1736,65.8222 19.0646,63.6092 19.5856,60.7482 C20.1046,57.8852 20.3666,54.6342 20.3666,50.9902 L20.3666,12.3072 C20.3666,8.7232 20.5076,5.5142 19.7586,4.5892 C19.5856,4.1262 18.7606,3.7072 17.2866,3.3322 C15.8126,2.9562 13.7226,2.7672 13.7226,2.7672 L13.7226,0.2522 L34.1916,0.2522 Z" id="Fill-42"></path>
                <path d="M71.0881,31.3997 L63.9591,12.0477 L56.5001,31.3897 L71.0881,31.3997 Z M66.9321,1.0247 L84.0811,46.2197 C85.1221,48.9387 85.9591,51.6917 86.5961,53.1367 C86.9431,54.0037 87.8391,54.7137 89.2851,55.2617 C90.7301,55.8127 92.4941,56.0867 92.4941,56.0867 L92.6671,57.9287 L73.0661,57.9287 L73.1521,56.0867 C73.1521,56.0867 74.7141,55.9427 75.7541,55.6527 C76.7951,55.3637 77.3101,54.9417 77.5761,54.5247 C78.7881,52.6297 76.5351,46.4807 76.5351,46.4807 L72.9771,36.6297 L54.5261,36.6297 L50.6901,46.3077 C49.7051,49.1997 49.2151,51.8657 49.2151,52.9637 C49.2151,53.7737 49.4441,54.3517 49.9081,54.6987 C50.4291,55.1047 51.2661,55.4357 52.4241,55.6957 C53.5791,55.9567 54.9391,56.0867 54.9391,56.0867 L55.1121,57.9287 L37.1581,57.9287 L37.1581,56.0867 C37.1581,56.0867 38.7481,55.9427 39.8481,55.6527 C40.9451,55.3637 41.6971,54.9587 42.1031,54.4377 C43.3171,52.8777 44.6751,49.4877 46.1791,45.6127 L61.2711,6.8437 C61.3861,6.5547 63.5951,1.4867 63.7961,1.1517 C64.4781,0.0187 65.4891,0.1137 65.8661,0.1647 C66.2521,0.2267 66.7561,0.5807 66.9321,1.0247 Z" id="Fill-44"></path>
                <path d="M168.7375,31.3997 L161.6085,12.0477 L154.1485,31.3897 L168.7375,31.3997 Z M164.5805,1.0247 L181.7295,46.2197 C182.7705,48.9387 183.6085,51.7627 184.2455,53.2077 C184.5925,54.0747 185.4885,54.7847 186.9335,55.3327 C188.3795,55.8827 190.1425,56.1567 190.1425,56.1567 L190.3165,57.9287 L170.7145,57.9287 L170.8015,56.1567 C170.8015,56.1567 172.3625,56.0137 173.4035,55.7227 C174.4445,55.4347 174.9595,55.0127 175.2245,54.5957 C176.4375,52.7007 174.1845,46.4807 174.1845,46.4807 L170.6265,36.6297 L152.1755,36.6297 L148.3385,46.3077 C147.3545,49.1997 146.8645,51.9367 146.8645,53.0347 C146.8645,53.8447 147.0925,54.4227 147.5575,54.7697 C148.0775,55.1747 148.9155,55.5057 150.0725,55.7667 C151.2285,56.0267 152.5885,56.1567 152.5885,56.1567 L152.7615,57.9287 L134.8075,57.9287 L134.8075,56.1567 C134.8075,56.1567 136.3965,56.0137 137.4965,55.7227 C138.5935,55.4347 139.3465,55.0297 139.7525,54.5087 C140.9655,52.9477 142.3245,49.4877 143.8285,45.6127 L158.9195,6.8437 C159.0355,6.5547 161.2435,1.4867 161.4445,1.1517 C162.1275,0.0187 163.1385,0.1137 163.5145,0.1647 C163.9015,0.2267 164.4045,0.5807 164.5805,1.0247 Z" id="Fill-46"></path>
                <path d="M402.3224,31.3997 L395.1934,12.0477 L387.7344,31.3897 L402.3224,31.3997 Z M398.1664,1.0247 L415.3154,46.2197 C416.3564,48.9387 417.4964,51.6917 418.1334,53.1367 C418.4804,54.0037 419.0734,54.7137 420.5194,55.2617 C421.9654,55.8127 423.7284,56.0867 423.7284,56.0867 L423.9024,57.9287 L404.3004,57.9287 L404.3874,56.0867 C404.3874,56.0867 405.9484,55.9427 406.9894,55.6527 C408.0294,55.3637 408.4694,54.8837 408.8104,54.5247 C410.3514,52.9027 407.7694,46.4807 407.7694,46.4807 L404.2114,36.6297 L385.7604,36.6297 L381.9244,46.3077 C380.9394,49.1997 380.4494,51.8657 380.4494,52.9637 C380.4494,53.7737 380.6784,54.3517 381.1424,54.6987 C381.6634,55.1047 382.5014,55.4357 383.6584,55.6957 C384.8134,55.9567 386.1744,56.0867 386.1744,56.0867 L386.3464,57.9287 L368.3934,57.9287 L368.3934,56.0867 C368.3934,56.0867 369.9824,55.9427 371.0824,55.6527 C372.1794,55.3637 372.9324,54.9587 373.3374,54.4377 C374.5514,52.8777 375.9094,49.4877 377.4134,45.6127 L392.5054,6.8437 C392.6204,6.5547 394.8294,1.4867 395.0304,1.1517 C395.7124,0.0187 396.7234,0.1137 397.1004,0.1647 C397.4864,0.2267 397.9904,0.5807 398.1664,1.0247 Z" id="Fill-48"></path>
                <path d="M97.2736,0.5994 C97.2736,0.5994 118.2446,0.4744 119.9196,0.5514 C126.2146,0.8414 129.4956,2.7394 131.3166,3.8944 C133.1376,5.0524 134.6256,6.7004 135.7836,8.8384 C136.9396,10.9784 137.5846,13.4664 137.5176,16.2974 C137.4506,19.1474 136.1006,27.9174 127.6726,31.8664 C123.8346,33.6644 120.4136,33.4084 117.1146,32.3624 C115.4636,31.8394 114.0896,31.0174 113.1496,30.0544 C112.7126,29.3754 113.3406,28.9234 113.7146,29.1694 C115.4496,29.8064 116.9156,30.0544 119.0556,30.0544 C121.9456,30.0544 124.4686,29.0614 126.7316,26.8004 C128.9236,24.6064 130.8346,20.6034 130.8346,17.2494 C130.8346,13.1444 129.7256,10.6664 127.9336,8.2664 C126.1416,5.8684 122.2826,4.2424 118.5236,4.2424 C115.9206,4.2424 113.8966,4.4454 112.4526,4.8494 C112.1626,4.9074 111.9606,5.1234 111.8456,5.4994 C111.7286,5.8764 111.6286,6.7574 111.5416,8.1454 C111.4556,9.5324 111.4126,11.6144 111.4126,14.3894 L111.4126,45.3524 C111.4126,49.2274 111.6416,52.4154 112.1056,53.5704 C112.3936,54.3234 113.4196,54.9304 115.1846,55.3924 C116.9476,55.8554 118.9576,56.0864 118.9576,56.0864 L119.1306,57.9294 L97.2736,57.9294 L97.2736,56.1374 C97.2736,56.1374 99.2106,55.9644 100.6566,55.6174 C102.1006,55.2694 102.9676,54.6114 103.2586,54.0914 C103.6636,53.3974 103.8666,50.0074 103.8666,45.2664 L103.8666,12.4814 C103.8666,9.0704 103.7856,6.1704 103.2586,5.0224 C103.0856,4.5594 102.1696,3.6144 100.7006,3.0234 C99.2206,2.4284 98.0256,2.3854 97.2736,2.3854 L97.2736,0.5994 Z" id="Fill-50"></path>
                <path d="M239.7473,12.2209 C239.7473,8.6949 239.5443,6.1499 239.1403,4.5889 C238.9053,3.7859 237.9913,3.2889 236.1703,2.8559 C234.3483,2.4219 232.2893,2.3709 232.2893,2.3709 L232.2893,0.2519 L252.2363,0.2519 L252.2043,2.3709 C252.2043,2.3709 250.2263,2.4609 248.2903,2.9229 C246.3523,3.3869 245.5083,3.8329 245.2113,4.5889 C244.7483,6.3819 244.5183,9.0699 244.5183,12.6549 L244.5143,58.0849 L241.5423,58.1019 L240.0703,56.1079 L206.6153,8.4049 L206.6153,45.4399 C206.6153,49.2559 206.6793,51.9439 207.0843,53.5039 C207.5093,54.7069 208.3213,54.9089 210.1283,55.3999 C212.0083,55.9109 213.8933,56.1229 213.8933,56.1229 L213.9013,57.9289 L193.9533,57.9289 L193.9533,56.1099 C193.9533,56.1099 196.0783,55.8339 197.8983,55.3999 C199.7203,54.9669 200.5763,54.6719 201.0713,53.5039 C201.6473,52.0019 201.7593,49.1119 201.7593,45.1789 L201.7593,11.0939 C201.7593,8.2609 201.5563,6.0929 201.1513,4.5889 C200.9773,4.1259 199.9933,3.7069 198.2023,3.3319 C196.4093,2.9559 194.2993,2.7669 194.2993,2.7669 L194.2993,0.2519 L210.0853,0.2519 C210.0853,0.2519 222.0233,18.3499 239.4873,42.7509 C239.6603,41.7679 239.7473,40.5819 239.7473,39.1949 L239.7473,12.2209 Z" id="Fill-52"></path>
                <path d="M281.3547,15.6897 C281.4517,11.1947 283.0807,7.1947 286.5277,4.3047 C289.9717,1.4137 293.9687,0.2727 298.5227,0.2727 C299.8067,0.2727 302.5847,0.5017 303.7167,0.6967 C307.3957,1.3337 311.7507,2.7267 311.7507,2.7267 L312.8007,15.2517 L310.3667,15.1987 C310.3667,15.1987 309.9597,11.3047 306.6177,7.5587 C304.4437,5.1227 301.5947,4.0217 297.9117,3.8647 C294.4107,3.7147 291.6347,4.8867 290.2067,6.6387 C288.7737,8.3907 288.3607,10.4047 288.3627,12.9737 C288.3667,17.7457 291.3537,20.1567 292.4367,21.0327 C293.5157,21.9077 294.3037,22.5217 294.8007,22.8727 C295.2957,23.2227 296.2907,23.8657 297.7797,24.7987 C299.2677,25.7347 300.2157,26.3177 300.6257,26.5507 C300.9167,26.7257 301.9407,27.3547 303.6917,28.4337 C305.4437,29.5167 306.6397,30.2737 307.2837,30.7117 C307.9247,31.1497 308.9597,31.9057 310.3047,33.0767 C315.0357,37.1987 315.8667,42.0557 315.8667,43.4567 C315.8667,48.1297 314.1567,52.1597 310.5077,55.1667 C306.8567,58.1737 302.4647,59.4857 297.5597,59.4857 C296.1587,59.4857 294.6687,59.3837 293.0927,59.1797 C291.5157,58.9747 290.2027,58.7707 289.1507,58.5667 C288.0997,58.3627 286.7717,58.0717 285.1657,57.6907 C283.5597,57.3117 281.7927,56.9457 281.7927,56.9457 L279.7957,43.0187 L282.3347,42.9997 C282.3347,42.9997 282.7447,45.5897 284.9067,49.1917 C287.4807,53.4797 292.2357,55.8947 297.7357,55.8947 C300.6547,55.8947 303.1357,55.0187 305.1807,53.2677 C307.2247,51.5147 308.2467,49.0337 308.2467,45.8217 C308.2467,44.6537 307.8907,40.9477 304.6107,38.0697 C303.7027,37.2727 302.9037,36.7997 302.3777,36.4487 C301.8517,36.0997 300.8887,35.5447 299.4877,34.7847 C298.0847,34.0267 297.1227,33.5007 296.5957,33.2087 C294.9017,32.2157 293.7197,31.5157 293.0497,31.1067 C292.4227,30.7267 291.3117,30.0127 289.7207,28.9607 C288.1717,27.9387 287.0487,27.0337 286.3477,26.2447 C285.6477,25.4557 281.2217,21.9187 281.3547,15.6897" id="Fill-54"></path>
                <path d="M328.4982,53.4192 L328.4982,4.6272 C328.5322,4.4352 327.5292,3.6332 325.5452,2.9892 C324.0372,2.5002 322.1192,2.3832 322.1192,2.3832 L322.1192,0.5992 L360.6522,0.6712 L362.9702,11.8742 L360.3762,11.8592 C360.3762,11.8592 359.5052,8.4772 356.5522,5.9812 C355.1772,4.8192 352.8502,4.6372 350.1332,4.6372 L335.7672,4.6442 L335.7952,26.6632 C335.7952,26.6632 348.9132,26.6572 349.6372,26.6572 C352.6512,26.6572 353.4032,25.8462 353.7642,25.1452 C354.3382,24.0262 355.0052,21.3362 355.0052,21.3362 L356.8982,21.3392 L356.8982,37.0152 L355.0052,37.0022 C355.0052,37.0022 354.8802,35.4302 353.9812,33.5142 C353.2492,31.9542 351.8192,31.3032 349.5632,31.3032 C347.1852,31.3032 335.7952,31.3202 335.7952,31.3202 L335.7842,53.3152 L347.0982,53.3922 C347.0982,53.3922 356.0752,53.3622 357.9832,52.3782 C358.8512,51.9172 359.5782,51.1102 360.6252,49.0352 C361.4882,47.3262 362.7232,43.6182 362.7232,43.6182 L365.4952,43.6182 L362.1892,58.0162 L322.1192,57.9292 L322.1192,56.1562 C324.9742,55.7682 327.3322,54.5862 328.4982,53.4192" id="Fill-56"></path>
                <path d="M449.7775,4.2419 C447.1745,4.2419 446.0815,4.2159 444.7625,4.4499 C444.5315,4.5079 442.6645,4.5949 442.6645,7.5079 C442.6645,8.8699 442.6655,24.8839 442.6655,24.8839 C442.6655,26.5619 445.1805,27.3989 450.2115,27.3989 L452.3795,27.3989 C454.4025,27.3989 456.4995,26.3879 458.6675,24.3639 C460.8365,22.3399 461.9205,19.6519 461.9205,16.2969 C461.9205,8.2609 457.8715,4.2419 449.7775,4.2419 M451.0325,0.5579 C457.5705,0.5579 461.1675,2.7389 463.1345,3.8939 C465.0995,5.0529 466.7185,6.6999 467.9915,8.8389 C469.2625,10.9779 469.8995,13.4649 469.8995,16.2969 C469.8995,18.7259 468.9895,21.2709 467.1675,23.9299 C465.3455,26.5909 462.2025,28.8929 459.0805,30.3369 C458.5025,30.5679 458.3285,30.8579 458.5595,31.2039 C461.4515,37.2749 464.5875,43.0689 468.3465,47.1729 C474.7385,55.0629 479.0285,56.9349 483.7115,58.8879 C484.6295,59.2709 484.3375,59.8539 483.6285,59.8719 C482.3815,59.9039 480.6995,59.7919 478.9595,59.4889 C471.3045,58.1549 464.8755,53.1059 459.5145,45.6129 C458.5905,44.3419 457.5345,42.8239 456.3495,41.0599 C455.1645,39.2959 451.4025,33.0669 450.8545,32.6029 C450.3035,32.1409 450.2365,31.7389 449.0765,31.4759 C448.4165,31.3259 446.2505,31.1289 444.7475,31.1289 C444.2825,31.1289 443.9365,31.1429 443.7065,31.1719 C443.4745,31.2019 443.2435,31.3319 443.0125,31.5619 C442.7805,31.7949 442.6655,32.1409 442.6655,32.6029 C442.6655,32.6029 442.8955,52.0109 443.3585,53.1659 C443.6485,53.9179 444.7415,54.7179 446.5065,55.1799 C448.2695,55.6429 450.3805,56.0839 450.3805,56.0839 L450.3845,57.9289 L428.2635,57.9289 L428.2795,56.0959 C428.2795,56.0959 430.4185,55.6449 431.8275,55.2569 C434.1555,54.6139 434.9345,54.1009 435.0505,52.9179 L435.0395,5.0229 C435.0395,5.0229 434.6175,3.7809 431.9545,3.0069 C430.4455,2.5689 428.5275,2.4009 428.5275,2.4009 L428.5275,0.5989 C428.5275,0.5989 449.3555,0.5579 451.0325,0.5579" id="Fill-58"></path>
                <path d="M530.3605,42.2883 L527.4525,54.6853 C527.4525,54.6853 525.2065,55.8613 523.8355,56.3313 C519.7195,57.7423 515.3075,58.8203 507.0205,58.4463 C499.5045,58.1073 493.0975,55.6833 487.8265,50.1543 C482.5535,44.6263 479.9175,38.0433 479.9175,30.4053 C479.9175,22.3123 482.8445,15.2553 488.1055,9.3273 C491.6305,5.3553 499.0775,0.9093 507.9605,0.9093 C519.8925,0.9093 527.0475,4.4123 527.0475,4.4123 L528.5645,15.3583 L525.6575,16.2133 C525.6575,16.2133 525.2725,14.7173 525.0165,13.9473 C524.7585,13.1773 523.2235,8.5373 515.4405,5.4833 C513.3595,4.6663 510.8945,4.4993 508.2155,4.4993 C504.2325,4.4993 498.5205,6.9653 494.5885,11.8953 C490.6555,16.8263 488.7555,22.6573 488.7555,28.8693 C488.7555,33.4853 489.4865,37.4733 491.0835,41.3493 C492.6785,45.2253 494.6155,48.2363 498.0655,50.7713 C501.5115,53.3093 505.5365,54.7713 510.2675,54.7713 C515.9115,54.7713 519.8105,53.3823 522.8875,50.0763 C523.6845,49.2213 524.7145,47.8323 525.3125,46.4343 C525.9105,45.0393 527.5385,41.5183 527.5385,41.5183 L530.3605,42.2883 Z" id="Fill-60"></path>
                <path d="M584.549,4.7527 L584.549,53.8167 C584.615,54.3647 585.488,55.1897 587.277,55.5527 C588.778,55.8567 590.534,56.1097 590.534,56.1097 L590.536,57.8677 L570.378,57.8677 L570.378,56.1097 C570.378,56.1097 572.212,55.8867 573.681,55.5957 C575.609,55.2137 576.764,54.8127 576.778,53.8167 L576.727,30.6727 L550.651,30.7177 L550.641,53.7747 L550.642,53.8167 C550.654,54.4407 551.581,55.1897 553.37,55.5527 C554.871,55.8567 556.627,56.1097 556.627,56.1097 L556.63,57.8677 L536.472,57.8677 L536.472,56.1097 C536.472,56.1097 538.305,55.8867 539.775,55.5957 C541.701,55.2137 542.835,54.8127 542.849,53.8167 L542.848,53.7747 L542.848,4.7297 C542.848,3.8567 541.677,3.3847 540.143,2.9527 C538.694,2.5447 536.84,2.3947 536.84,2.3947 L536.84,0.8267 L557.083,0.8267 L557.074,2.3947 C557.074,2.3947 554.693,2.5597 553.561,2.8667 C552.257,3.2197 550.641,3.7627 550.641,4.7297 L550.692,26.1307 L576.685,26.1307 L576.778,4.7527 L576.778,4.7287 C576.778,3.8557 575.584,3.3847 574.05,2.9527 C572.602,2.5447 570.747,2.3947 570.747,2.3947 L570.747,0.8267 L590.991,0.8267 L590.983,2.3947 C590.983,2.3947 588.601,2.5597 587.469,2.8667 C586.164,3.2197 584.548,3.7627 584.548,4.7297 L584.549,4.7527 Z" id="Fill-62"></path>
            </g>
        </g>
    </g>
</svg>