<?xml version="1.0" encoding="UTF-8"?>
<svg width="800px" height="150px" viewBox="0 0 800 150" version="1.1" xmlns="http://www.w3.org/2000/svg" xmlns:xlink="http://www.w3.org/1999/xlink">
    <!-- Generator: Sketch 53 (72520) - https://sketchapp.com -->
    <title>brand/logo-black</title>
    <desc>Created with Sketch.</desc>
    <defs>
        <polygon id="path-1" points="0.1974 0.2646 55.004 0.2646 55.004 57.6066 0.1974 57.6066"></polygon>
    </defs>
    <g id="brand/logo-black" stroke="none" stroke-width="1" fill="none" fill-rule="evenodd">
        <g id="Group-76">
            <path d="M73.0693,108.3352 C73.0693,109.1142 73.6213,109.4342 74.2973,109.0442 L100.4593,93.9392 C101.1343,93.5492 101.6863,92.5922 101.6863,91.8132 L101.6863,61.6032 C101.6863,60.8232 101.1343,60.5042 100.4593,60.8942 L74.2973,75.9992 C73.6213,76.3892 73.0693,77.3462 73.0693,78.1252 L73.0693,108.3352 Z" id="Fill-1" fill="#E6C620"></path>
            <path d="M36.5342,87.2424 C36.5342,88.0214 37.0872,88.3404 37.7622,87.9504 L63.9252,72.8464 C64.5992,72.4564 65.1522,71.4994 65.1522,70.7204 L65.1522,40.5094 C65.1522,39.7294 64.5992,39.4114 63.9252,39.8014 L37.7622,54.9054 C37.0872,55.2954 36.5342,56.2524 36.5342,57.0314 L36.5342,87.2424 Z" id="Fill-3" fill="#6941A0"></path>
            <g id="Group" fill="#CA1B4D">
                <path d="M100.459,130.137 C101.135,130.527 101.687,130.208 101.687,129.429 L101.687,103.789 C101.687,103.01 101.135,102.691 100.459,103.08 L78.255,115.901 C77.58,116.29 77.58,116.928 78.255,117.318 L100.459,130.137 Z" id="Fill-5"></path>
                <path d="M110.8311,60.8938 C110.1561,60.5038 109.6031,60.8238 109.6031,61.6028 L109.6031,87.2428 C109.6031,88.0218 110.1561,88.3398 110.8311,87.9508 L133.0351,75.1308 C133.7111,74.7418 133.7111,74.1038 133.0351,73.7138 L110.8311,60.8938 Z" id="Fill-7"></path>
                <path d="M37.7617,18.7073 C37.0867,18.3173 36.5337,18.6373 36.5337,19.4163 L36.5337,45.0563 C36.5337,45.8353 37.0867,46.1533 37.7617,45.7643 L59.9667,32.9443 C60.6417,32.5553 60.6417,31.9173 59.9667,31.5273 L37.7617,18.7073 Z" id="Fill-11"></path>
                <path d="M27.3906,87.9504 C28.0656,88.3404 28.6176,88.0214 28.6176,87.2424 L28.6176,61.6024 C28.6176,60.8234 28.0656,60.5044 27.3906,60.8934 L5.1856,73.7144 C4.5106,74.1034 4.5106,74.7414 5.1856,75.1314 L27.3906,87.9504 Z" id="Fill-15"></path>
                <path d="M65.1523,148.0764 C65.1503,147.4034 65.1523,124.8824 65.1523,124.8824 C65.1523,124.1024 64.5993,123.7844 63.9243,124.1744 L45.1933,134.9884 L41.7203,136.9934 C41.0453,137.3834 41.0453,138.0204 41.7203,138.4114 L52.8253,144.8224 C56.4793,146.9314 60.3733,148.2474 64.3073,148.8314 C64.5893,148.8724 65.1543,148.8644 65.1523,148.0764" id="Fill-17"></path>
                <path d="M73.0693,0.7688 C73.0713,1.4418 73.0693,23.9628 73.0693,23.9628 C73.0693,24.7428 73.6213,25.0608 74.2973,24.6708 L93.0283,13.8568 L96.5013,11.8508 C97.1753,11.4608 97.1753,10.8238 96.5013,10.4338 L85.3963,4.0228 C81.7423,1.9138 77.8483,0.5978 73.9143,0.0138 C73.6323,-0.0282 73.0663,-0.0192 73.0693,0.7688" id="Fill-20"></path>
                <path d="M134.876,41.0237 C134.294,41.3617 114.789,52.6207 114.789,52.6207 C114.114,53.0097 114.114,53.6477 114.789,54.0377 L133.522,64.8527 L136.994,66.8577 C137.669,67.2477 138.222,66.9277 138.222,66.1487 L138.222,53.3267 C138.221,49.1067 137.414,45.0777 135.952,41.3777 C135.848,41.1137 135.557,40.6277 134.876,41.0237" id="Fill-26"></path>
                <path d="M134.876,107.8215 C134.294,107.4835 114.789,96.2235 114.789,96.2235 C114.114,95.8345 114.114,95.1965 114.789,94.8065 L133.522,83.9925 L136.994,81.9875 C137.669,81.5975 138.222,81.9165 138.222,82.6965 L138.222,95.5185 C138.221,99.7385 137.414,103.7675 135.952,107.4675 C135.848,107.7315 135.557,108.2175 134.876,107.8215" id="Fill-31"></path>
                <path d="M7.3037,34.1672 C7.8877,34.5022 27.3907,45.7652 27.3907,45.7652 C28.0657,46.1542 28.6167,45.8352 28.6167,45.0562 L28.6167,23.4262 L28.6167,19.4162 C28.6167,18.6372 28.0657,18.3172 27.3897,18.7072 L16.2847,25.1182 C12.6307,27.2292 9.5457,29.9422 7.0727,33.0592 C6.8957,33.2812 6.6197,33.7752 7.3037,34.1672" id="Fill-36"></path>
                <path d="M3.3457,41.0237 C3.9267,41.3617 23.4317,52.6207 23.4317,52.6207 C24.1067,53.0097 24.1067,53.6477 23.4317,54.0377 L4.6997,64.8527 L1.2277,66.8577 C0.5517,67.2477 -0.0003,66.9277 -0.0003,66.1487 L-0.0003,53.3267 C-0.0003,49.1067 0.8077,45.0777 2.2697,41.3777 C2.3737,41.1137 2.6637,40.6277 3.3457,41.0237" id="Fill-28"></path>
                <path d="M3.3457,107.8215 C3.9267,107.4835 23.4317,96.2235 23.4317,96.2235 C24.1067,95.8345 24.1067,95.1965 23.4317,94.8065 L4.6997,83.9925 L1.2277,81.9875 C0.5517,81.5975 -0.0003,81.9165 -0.0003,82.6965 L-0.0003,95.5185 C-0.0003,99.7385 0.8077,103.7675 2.2697,107.4675 C2.3737,107.7315 2.6637,108.2175 3.3457,107.8215" id="Fill-33"></path>
                <path d="M73.0693,148.0764 C73.0713,147.4034 73.0693,124.8824 73.0693,124.8824 C73.0693,124.1024 73.6213,123.7844 74.2973,124.1744 L93.0283,134.9884 L96.5013,136.9934 C97.1753,137.3834 97.1753,138.0204 96.5013,138.4114 L85.3963,144.8224 C81.7423,146.9314 77.8483,148.2474 73.9143,148.8314 C73.6323,148.8724 73.0663,148.8644 73.0693,148.0764" id="Fill-38"></path>
                <path d="M65.1523,0.7688 C65.1503,1.4418 65.1523,23.9628 65.1523,23.9628 C65.1523,24.7428 64.5993,25.0608 63.9243,24.6708 L45.1933,13.8568 L41.7203,11.8508 C41.0453,11.4608 41.0453,10.8238 41.7203,10.4338 L52.8253,4.0228 C56.4793,1.9138 60.3733,0.5978 64.3073,0.0138 C64.5893,-0.0282 65.1543,-0.0192 65.1523,0.7688" id="Fill-41"></path>
                <path d="M130.917,114.677 C130.334,114.343 110.831,103.08 110.831,103.08 C110.156,102.691 109.604,103.01 109.604,103.789 L109.604,125.418 L109.604,129.429 C109.604,130.208 110.156,130.527 110.831,130.137 L121.936,123.726 C125.59,121.615 128.676,118.902 131.148,115.786 C131.325,115.564 131.601,115.07 130.917,114.677" id="Fill-43"></path>
            </g>
            <path d="M74.2969,39.801 C73.6209,39.411 73.0689,39.73 73.0689,40.509 L73.0689,66.149 C73.0689,66.928 73.6209,67.247 74.2969,66.858 L96.5009,54.037 C97.1759,53.648 97.1759,53.01 96.5009,52.62 L74.2969,39.801 Z" id="Fill-9" fill="#D7D8D6"></path>
            <path d="M63.9248,109.0442 C64.5998,109.4342 65.1528,109.1142 65.1528,108.3352 L65.1528,82.6952 C65.1528,81.9162 64.5998,81.5982 63.9248,81.9872 L41.7208,94.8072 C41.0448,95.1962 41.0448,95.8342 41.7208,96.2242 L63.9248,109.0442 Z" id="Fill-13" fill="#343534"></path>
            <path d="M130.918,34.1672 C131.42,33.8792 131.403,33.5362 131.289,33.2852 C128.987,30.3452 126.205,27.7992 123.041,25.7932 C122.928,25.7222 122.812,25.6532 122.697,25.5832 C122.304,25.3402 121.907,25.1002 121.501,24.8732 L121.504,24.8692 L115.301,21.2882 L106.872,16.4222 C106.197,16.0322 105.093,16.0322 104.418,16.4222 L78.255,31.5272 C77.58,31.9172 77.58,32.5552 78.255,32.9442 L91.336,40.4972 L104.418,48.0502 C105.093,48.4392 106.197,48.4392 106.872,48.0502 L115.301,43.1842 C121.055,39.8602 130.371,34.4812 130.897,34.1792 L130.918,34.1672 Z" id="Fill-22" fill="#E6C620"></path>
            <path d="M59.9668,115.9006 L33.8038,100.7956 C33.1278,100.4056 32.0238,100.4056 31.3488,100.7956 L23.0508,105.5866 C17.3228,108.8936 7.9058,114.3316 7.3318,114.6616 L7.3038,114.6776 C6.7518,114.9946 6.8258,115.3746 6.9678,115.6276 C7.1528,115.8616 7.3328,116.0986 7.5238,116.3286 C7.5288,116.3346 7.5328,116.3386 7.5368,116.3446 C8.5358,117.5456 9.6188,118.6716 10.7778,119.7166 C10.7798,119.7186 10.7818,119.7206 10.7848,119.7236 C11.1458,120.0486 11.5158,120.3646 11.8918,120.6736 C11.9368,120.7116 11.9808,120.7486 12.0268,120.7856 C12.3498,121.0486 12.6808,121.3046 13.0148,121.5556 C13.1218,121.6356 13.2288,121.7176 13.3368,121.7966 C13.6078,121.9956 13.8828,122.1866 14.1588,122.3776 C14.3398,122.5006 14.5188,122.6246 14.7018,122.7446 C14.9148,122.8846 15.1318,123.0196 15.3488,123.1546 C15.6578,123.3476 15.9668,123.5426 16.2848,123.7256 L23.0508,127.6316 L31.3488,132.4226 C32.0238,132.8126 33.1278,132.8126 33.8038,132.4226 L59.9668,117.3176 C60.6418,116.9276 60.6418,116.2906 59.9668,115.9006" id="Fill-24" fill="#6941A0"></path>
            <g id="Group-2" transform="translate(187.000000, 30.000000)" fill="#343534">
                <path d="M34.0712,0.2656 L34.0752,2.7946 C34.0752,2.7946 32.1072,2.9986 30.5962,3.4056 C29.0852,3.8126 28.4812,4.2446 28.1552,4.6256 C27.2912,5.5856 27.3712,9.3636 27.3712,12.7346 L27.3712,50.5746 C27.3712,57.8986 25.4832,64.2636 21.3842,69.6686 C17.2872,75.0746 12.0692,77.8356 5.7342,77.7776 C0.5402,77.7296 0.1552,74.4936 0.1552,73.1566 C0.1552,71.8776 0.6482,69.9636 3.2752,69.1666 C5.3662,68.5336 8.0562,69.6826 9.0922,70.6716 C10.3992,71.9206 11.4302,72.5456 12.1862,72.5456 C13.0012,72.5456 13.8292,72.1386 14.6722,71.3256 C15.5122,70.5106 16.3422,69.3206 17.1562,67.7496 C17.9692,66.1816 18.8642,63.9576 19.3872,61.0806 C19.9102,58.2036 20.1732,54.9346 20.1732,51.2716 L20.1732,12.3846 C20.1732,8.7816 20.3152,5.5556 19.5622,4.6256 C19.3872,4.1606 18.5592,3.7396 17.0772,3.3616 C15.5942,2.9846 13.4942,2.7946 13.4942,2.7946 L13.4942,0.2656 L34.0712,0.2656 Z" id="Fill-45"></path>
                <path d="M71.1621,31.5781 L63.9961,12.1241 L56.4971,31.5671 L71.1621,31.5781 Z M66.9841,1.0421 L84.2241,46.4761 C85.2701,49.2091 86.1121,51.9771 86.7521,53.4301 C87.1011,54.3021 88.0021,55.0151 89.4551,55.5661 C90.9081,56.1191 92.6811,56.3941 92.6811,56.3941 L92.8551,58.2471 L73.1501,58.2471 L73.2381,56.3941 C73.2381,56.3941 74.8071,56.2511 75.8531,55.9581 C76.8991,55.6691 77.4171,55.2441 77.6841,54.8251 C78.9031,52.9201 76.6391,46.7381 76.6391,46.7381 L73.0611,36.8361 L54.5131,36.8361 L50.6561,46.5641 C49.6671,49.4721 49.1741,52.1521 49.1741,53.2551 C49.1741,54.0701 49.4041,54.6501 49.8711,55.0001 C50.3931,55.4071 51.2361,55.7401 52.3991,56.0021 C53.5611,56.2651 54.9281,56.3941 54.9281,56.3941 L55.1021,58.2471 L37.0541,58.2471 L37.0541,56.3941 C37.0541,56.3941 38.6511,56.2511 39.7571,55.9581 C40.8601,55.6691 41.6171,55.2621 42.0241,54.7371 C43.2441,53.1691 44.6101,49.7611 46.1221,45.8651 L61.2931,6.8911 C61.4091,6.6021 63.6301,1.5071 63.8311,1.1711 C64.5171,0.0311 65.5341,0.1271 65.9131,0.1791 C66.3011,0.2401 66.8081,0.5971 66.9841,1.0421 L66.9841,1.0421 Z" id="Fill-47"></path>
                <path d="M169.3261,31.5781 L162.1601,12.1241 L154.6611,31.5671 L169.3261,31.5781 Z M165.1481,1.0421 L182.3881,46.4761 C183.4331,49.2091 184.2761,52.0491 184.9161,53.5011 C185.2651,54.3731 186.1661,55.0861 187.6191,55.6371 C189.0721,56.1901 190.8451,56.4661 190.8451,56.4661 L191.0191,58.2471 L171.3141,58.2471 L171.4021,56.4661 C171.4021,56.4661 172.9711,56.3211 174.0171,56.0291 C175.0631,55.7391 175.5811,55.3151 175.8481,54.8961 C177.0671,52.9911 174.8021,46.7381 174.8021,46.7381 L171.2251,36.8361 L152.6771,36.8361 L148.8201,46.5641 C147.8311,49.4721 147.3381,52.2231 147.3381,53.3261 C147.3381,54.1411 147.5681,54.7221 148.0351,55.0711 C148.5571,55.4781 149.3991,55.8111 150.5631,56.0731 C151.7251,56.3351 153.0921,56.4661 153.0921,56.4661 L153.2661,58.2471 L135.2181,58.2471 L135.2181,56.4661 C135.2181,56.4661 136.8151,56.3211 137.9211,56.0291 C139.0241,55.7391 139.7811,55.3321 140.1881,54.8081 C141.4081,53.2401 142.7731,49.7611 144.2861,45.8651 L159.4571,6.8911 C159.5731,6.6021 161.7931,1.5071 161.9951,1.1711 C162.6811,0.0311 163.6981,0.1271 164.0771,0.1791 C164.4651,0.2401 164.9721,0.5971 165.1481,1.0421 L165.1481,1.0421 Z" id="Fill-49"></path>
                <path d="M404.1435,31.5781 L396.9775,12.1241 L389.4785,31.5671 L404.1435,31.5781 Z M399.9655,1.0421 L417.2055,46.4761 C418.2505,49.2091 419.3975,51.9771 420.0385,53.4301 C420.3865,54.3021 420.9835,55.0151 422.4365,55.5661 C423.8895,56.1191 425.6625,56.3941 425.6625,56.3941 L425.8365,58.2471 L406.1315,58.2471 L406.2195,56.3941 C406.2195,56.3941 407.7885,56.2511 408.8345,55.9581 C409.8805,55.6691 410.3235,55.1851 410.6655,54.8251 C412.2155,53.1941 409.6195,46.7381 409.6195,46.7381 L406.0425,36.8361 L387.4945,36.8361 L383.6375,46.5641 C382.6485,49.4721 382.1555,52.1521 382.1555,53.2551 C382.1555,54.0701 382.3855,54.6501 382.8525,55.0001 C383.3745,55.4071 384.2165,55.7401 385.3805,56.0021 C386.5425,56.2651 387.9095,56.3941 387.9095,56.3941 L388.0835,58.2471 L370.0355,58.2471 L370.0355,56.3941 C370.0355,56.3941 371.6325,56.2511 372.7385,55.9581 C373.8415,55.6691 374.5985,55.2621 375.0055,54.7371 C376.2255,53.1691 377.5905,49.7611 379.1035,45.8651 L394.2745,6.8911 C394.3905,6.6021 396.6105,1.5071 396.8125,1.1711 C397.4985,0.0311 398.5155,0.1271 398.8935,0.1791 C399.2825,0.2401 399.7895,0.5971 399.9655,1.0421 L399.9655,1.0421 Z" id="Fill-51"></path>
                <path d="M97.4863,0.6152 C97.4863,0.6152 118.5663,0.4892 120.2513,0.5662 C126.5803,0.8582 129.8773,2.7652 131.7093,3.9282 C133.5393,5.0922 135.0353,6.7482 136.1983,8.8972 C137.3613,11.0492 138.0083,13.5502 137.9423,16.3952 C137.8753,19.2612 136.5173,28.0772 128.0463,32.0472 C124.1863,33.8552 120.7473,33.5972 117.4313,32.5462 C115.7723,32.0192 114.3913,31.1942 113.4453,30.2242 C113.0073,29.5432 113.6373,29.0892 114.0143,29.3362 C115.7573,29.9762 117.2313,30.2242 119.3823,30.2242 C122.2883,30.2242 124.8253,29.2272 127.0983,26.9542 C129.3033,24.7492 131.2233,20.7252 131.2233,17.3532 C131.2233,13.2262 130.1093,10.7352 128.3073,8.3222 C126.5063,5.9112 122.6263,4.2762 118.8483,4.2762 C116.2323,4.2762 114.1963,4.4812 112.7453,4.8872 C112.4533,4.9452 112.2503,5.1632 112.1343,5.5412 C112.0163,5.9202 111.9173,6.8052 111.8293,8.2012 C111.7423,9.5942 111.6993,11.6872 111.6993,14.4772 L111.6993,45.6042 C111.6993,49.5002 111.9303,52.7042 112.3953,53.8662 C112.6853,54.6222 113.7163,55.2322 115.4913,55.6972 C117.2633,56.1632 119.2843,56.3942 119.2843,56.3942 L119.4593,58.2472 L97.4863,58.2472 L97.4863,56.4452 C97.4863,56.4452 99.4323,56.2722 100.8863,55.9232 C102.3393,55.5742 103.2113,54.9122 103.5033,54.3892 C103.9093,53.6912 104.1133,50.2842 104.1133,45.5172 L104.1133,12.5592 C104.1133,9.1312 104.0323,6.2162 103.5033,5.0612 C103.3283,4.5962 102.4083,3.6462 100.9303,3.0522 C99.4433,2.4542 98.2413,2.4112 97.4863,2.4112 L97.4863,0.6152 Z" id="Fill-53"></path>
                <path d="M240.7109,12.2978 C240.7109,8.7528 240.5069,6.1948 240.1009,4.6258 C239.8639,3.8188 238.9459,3.3188 237.1149,2.8838 C235.2829,2.4468 233.2129,2.3968 233.2129,2.3968 L233.2129,0.2658 L253.2669,0.2658 L253.2329,2.3968 C253.2329,2.3968 251.2459,2.4858 249.2989,2.9498 C247.3519,3.4168 246.5019,3.8658 246.2029,4.6258 C245.7379,6.4278 245.5069,9.1308 245.5069,12.7348 L245.5029,58.4028 L242.5159,58.4218 L241.0359,56.4168 L207.4039,8.4618 L207.4039,45.6928 C207.4039,49.5278 207.4689,52.2308 207.8759,53.7988 C208.3029,55.0078 209.1189,55.2108 210.9359,55.7048 C212.8249,56.2188 214.7209,56.4318 214.7209,56.4318 L214.7289,58.2468 L194.6749,58.2468 L194.6749,56.4178 C194.6749,56.4178 196.8119,56.1408 198.6419,55.7048 C200.4729,55.2698 201.3329,54.9728 201.8309,53.7988 C202.4109,52.2878 202.5229,49.3838 202.5229,45.4298 L202.5229,11.1648 C202.5229,8.3178 202.3169,6.1378 201.9109,4.6258 C201.7369,4.1598 200.7479,3.7388 198.9469,3.3608 C197.1449,2.9848 195.0229,2.7948 195.0229,2.7948 L195.0229,0.2658 L210.8929,0.2658 C210.8929,0.2658 222.8939,18.4598 240.4489,42.9888 C240.6239,42.0008 240.7109,40.8088 240.7109,39.4138 L240.7109,12.2978 Z" id="Fill-55"></path>
                <path d="M282.538,15.7851 C282.635,11.2661 284.272,7.2451 287.737,4.3401 C291.2,1.4331 295.219,0.2871 299.797,0.2871 C301.087,0.2871 303.88,0.5161 305.017,0.7131 C308.716,1.3531 313.094,2.7531 313.094,2.7531 L314.15,15.3451 L311.702,15.2911 C311.702,15.2911 311.294,11.3771 307.934,7.6111 C305.748,5.1621 302.885,4.0561 299.182,3.8971 C295.662,3.7471 292.872,4.9251 291.435,6.6861 C289.996,8.4471 289.58,10.4731 289.582,13.0551 C289.587,17.8511 292.59,20.2751 293.678,21.1561 C294.764,22.0361 295.555,22.6521 296.055,23.0061 C296.553,23.3581 297.552,24.0051 299.049,24.9421 C300.546,25.8831 301.499,26.4701 301.91,26.7031 C302.204,26.8801 303.231,27.5111 304.992,28.5971 C306.753,29.6841 307.956,30.4461 308.602,30.8871 C309.248,31.3261 310.289,32.0861 311.641,33.2641 C316.396,37.4071 317.231,42.2901 317.231,43.6981 C317.231,48.3951 315.513,52.4471 311.845,55.4701 C308.175,58.4931 303.76,59.8121 298.829,59.8121 C297.419,59.8121 295.923,59.7101 294.338,59.5051 C292.753,59.2981 291.432,59.0931 290.375,58.8881 C289.318,58.6821 287.983,58.3901 286.368,58.0081 C284.754,57.6261 282.978,57.2591 282.978,57.2591 L280.971,43.2581 L283.523,43.2381 C283.523,43.2381 283.934,45.8431 286.108,49.4641 C288.695,53.7741 293.476,56.2021 299.005,56.2021 C301.938,56.2021 304.434,55.3211 306.489,53.5601 C308.544,51.7991 309.57,49.3051 309.57,46.0761 C309.57,44.9021 309.214,41.1761 305.917,38.2831 C305.004,37.4811 304.2,37.0061 303.672,36.6531 C303.142,36.3021 302.175,35.7441 300.766,34.9801 C299.356,34.2191 298.389,33.6891 297.859,33.3961 C296.156,32.3981 294.969,31.6941 294.294,31.2821 C293.665,30.9001 292.548,30.1831 290.948,29.1251 C289.391,28.0981 288.262,27.1881 287.558,26.3951 C286.853,25.6021 282.404,22.0471 282.538,15.7851" id="Fill-57"></path>
                <path d="M329.9307,53.7138 L329.9307,4.6638 C329.9647,4.4708 328.9557,3.6648 326.9607,3.0178 C325.4467,2.5258 323.5177,2.4078 323.5177,2.4078 L323.5177,0.6148 L362.2537,0.6878 L364.5837,11.9488 L361.9767,11.9348 C361.9767,11.9348 361.0997,8.5338 358.1307,6.0258 C356.7497,4.8578 354.4097,4.6738 351.6787,4.6738 L337.2377,4.6808 L337.2647,26.8168 C337.2647,26.8168 350.4517,26.8108 351.1807,26.8108 C354.2107,26.8108 354.9657,25.9948 355.3277,25.2898 C355.9057,24.1658 356.5767,21.4618 356.5767,21.4618 L358.4807,21.4648 L358.4807,37.2228 L356.5767,37.2098 C356.5767,37.2098 356.4517,35.6298 355.5477,33.7028 C354.8117,32.1358 353.3737,31.4818 351.1067,31.4818 C348.7157,31.4818 337.2647,31.4978 337.2647,31.4978 L337.2547,53.6098 L348.6277,53.6858 C348.6277,53.6858 357.6527,53.6558 359.5707,52.6668 C360.4427,52.2028 361.1737,51.3918 362.2267,49.3068 C363.0947,47.5878 364.3347,43.8608 364.3347,43.8608 L367.1217,43.8608 L363.7987,58.3348 L323.5177,58.2468 L323.5177,56.4658 C326.3867,56.0738 328.7577,54.8858 329.9307,53.7138" id="Fill-59"></path>
                <path d="M451.8486,4.2763 C449.2326,4.2763 448.1326,4.2513 446.8076,4.4853 C446.5756,4.5443 444.6986,4.6313 444.6986,7.5593 C444.6986,8.9293 444.6996,25.0273 444.6996,25.0273 C444.6996,26.7143 447.2276,27.5553 452.2846,27.5553 L454.4636,27.5553 C456.4976,27.5553 458.6056,26.5403 460.7856,24.5053 C462.9656,22.4703 464.0556,19.7683 464.0556,16.3953 C464.0556,8.3173 459.9856,4.2763 451.8486,4.2763 M453.1106,0.5733 C459.6836,0.5733 463.2986,2.7653 465.2766,3.9273 C467.2506,5.0913 468.8796,6.7483 470.1596,8.8973 C471.4366,11.0483 472.0776,13.5483 472.0776,16.3953 C472.0776,18.8373 471.1616,21.3953 469.3296,24.0693 C467.4986,26.7433 464.3386,29.0573 461.2006,30.5093 C460.6196,30.7423 460.4456,31.0333 460.6776,31.3803 C463.5836,37.4843 466.7376,43.3083 470.5156,47.4343 C476.9416,55.3653 481.2536,57.2483 485.9616,59.2113 C486.8846,59.5953 486.5906,60.1823 485.8776,60.2003 C484.6236,60.2313 482.9346,60.1193 481.1836,59.8143 C473.4896,58.4733 467.0256,53.3983 461.6376,45.8653 C460.7076,44.5883 459.6466,43.0623 458.4546,41.2893 C457.2646,39.5153 453.4826,33.2543 452.9316,32.7873 C452.3776,32.3233 452.3096,31.9193 451.1436,31.6543 C450.4796,31.5043 448.3026,31.3053 446.7916,31.3053 C446.3256,31.3053 445.9776,31.3203 445.7446,31.3483 C445.5126,31.3793 445.2806,31.5093 445.0476,31.7413 C444.8146,31.9743 444.6996,32.3233 444.6996,32.7873 C444.6996,32.7873 444.9306,52.2973 445.3966,53.4593 C445.6876,54.2143 446.7866,55.0193 448.5606,55.4833 C450.3326,55.9493 452.4536,56.3923 452.4536,56.3923 L452.4586,58.2473 L430.2216,58.2473 L430.2376,56.4033 C430.2376,56.4033 432.3876,55.9513 433.8036,55.5603 C436.1446,54.9153 436.9276,54.3983 437.0436,53.2103 L437.0336,5.0613 C437.0336,5.0613 436.6096,3.8133 433.9316,3.0353 C432.4146,2.5943 430.4866,2.4253 430.4866,2.4253 L430.4866,0.6153 C430.4866,0.6153 451.4236,0.5733 453.1106,0.5733" id="Fill-61"></path>
                <path d="M532.8564,42.5244 L529.9334,54.9864 C529.9334,54.9864 527.6744,56.1694 526.2964,56.6414 C522.1604,58.0594 517.7244,59.1434 509.3934,58.7674 C501.8364,58.4264 495.3974,55.9894 490.0984,50.4304 C484.7974,44.8754 482.1474,38.2564 482.1474,30.5784 C482.1474,22.4434 485.0904,15.3484 490.3784,9.3884 C493.9214,5.3954 501.4084,0.9264 510.3374,0.9264 C522.3344,0.9264 529.5254,4.4484 529.5254,4.4484 L531.0504,15.4524 L528.1284,16.3104 C528.1284,16.3104 527.7424,14.8074 527.4844,14.0334 C527.2254,13.2594 525.6824,8.5944 517.8584,5.5244 C515.7664,4.7044 513.2884,4.5364 510.5954,4.5364 C506.5904,4.5364 500.8494,7.0144 496.8954,11.9704 C492.9424,16.9274 491.0314,22.7904 491.0314,29.0344 C491.0314,33.6744 491.7674,37.6834 493.3724,41.5794 C494.9754,45.4764 496.9234,48.5034 500.3904,51.0514 C503.8564,53.6024 507.9024,55.0724 512.6584,55.0724 C518.3324,55.0724 522.2514,53.6764 525.3444,50.3524 C526.1454,49.4934 527.1794,48.0964 527.7824,46.6924 C528.3834,45.2904 530.0194,41.7504 530.0194,41.7504 L532.8564,42.5244 Z" id="Fill-63"></path>
                <path d="M587.331,4.79 L587.331,54.113 C587.398,54.664 588.275,55.493 590.073,55.858 C591.583,56.164 593.348,56.418 593.348,56.418 L593.351,58.186 L573.086,58.186 L573.086,56.418 C573.086,56.418 574.929,56.193 576.405,55.901 C578.343,55.518 579.505,55.114 579.519,54.113 L579.467,30.848 L553.253,30.893 L553.243,54.071 L553.245,54.113 C553.258,54.741 554.189,55.493 555.987,55.858 C557.497,56.164 559.262,56.418 559.262,56.418 L559.265,58.186 L539,58.186 L539,56.418 C539,56.418 540.843,56.193 542.32,55.901 C544.258,55.518 545.396,55.114 545.411,54.113 L545.41,54.071 L545.41,4.767 C545.41,3.89 544.232,3.415 542.69,2.98 C541.234,2.57 539.37,2.42 539.37,2.42 L539.37,0.844 L559.721,0.844 L559.712,2.42 C559.712,2.42 557.317,2.586 556.18,2.894 C554.868,3.249 553.243,3.795 553.243,4.767 L553.295,26.281 L579.426,26.281 L579.519,4.79 L579.519,4.766 C579.519,3.889 578.319,3.415 576.776,2.98 C575.32,2.57 573.457,2.42 573.457,2.42 L573.457,0.844 L593.807,0.844 L593.798,2.42 C593.798,2.42 591.404,2.586 590.267,2.894 C588.955,3.249 587.33,3.795 587.33,4.767 L587.331,4.79 Z" id="Fill-65"></path>
            </g>
            <g id="Group-67" transform="translate(726.000000, 30.844000)">
                <mask id="mask-2" fill="white">
                    <use xlink:href="#path-1"></use>
                </mask>
                <g id="Clip-66"></g>
            </g>
            <g id="beta" transform="translate(446.000000, 115.000000)" fill="#343534">
                <path d="M4.0099,17.9169 C4.0099,18.6609 4.1589,18.8109 4.9039,18.8109 L7.7019,18.8109 C10.1729,18.8109 11.9889,17.6489 11.9889,15.1789 C11.9889,12.9159 10.5309,12.0529 8.2379,12.0529 L4.9039,12.0529 C4.1589,12.0529 4.0099,12.2009 4.0099,12.9449 L4.0099,17.9169 Z M4.0099,8.3019 C4.0099,9.0459 4.1589,9.1939 4.9039,9.1939 L7.2849,9.1939 C9.4889,9.1939 11.0659,8.3609 11.0659,5.9789 C11.0659,4.0149 9.4579,3.5089 7.6429,3.5089 L4.9039,3.5089 C4.1589,3.5089 4.0099,3.6569 4.0099,4.4009 L4.0099,8.3019 Z M5.3799,21.6679 C3.9809,21.6679 1.6289,21.7279 1.4199,21.7279 C0.7949,21.7279 0.5869,21.5199 0.5869,20.8949 C0.5869,20.6859 0.6469,17.4709 0.6469,15.8039 L0.6469,6.4559 C0.6469,4.9969 0.5869,1.9899 0.5869,1.4839 C0.5869,0.7699 0.7659,0.5309 1.4199,0.5309 C1.7479,0.5309 3.9809,0.5909 5.3799,0.5909 L7.6719,0.5909 C11.9589,0.5909 14.4889,1.7229 14.4889,5.3539 C14.4889,7.0809 14.1029,8.7179 12.5549,9.8499 C12.3169,10.0279 12.1669,10.1469 12.1669,10.2359 C12.1669,10.3859 12.3169,10.4749 12.6439,10.5939 C14.3699,11.2779 15.5009,12.7669 15.5009,15.2079 C15.5009,19.6439 12.5549,21.6679 7.7619,21.6679 L5.3799,21.6679 Z" id="Fill-68"></path>
                <path d="M28.7745,18.5419 C30.2035,18.5419 32.8825,18.4529 33.0905,18.4529 C33.7155,18.4529 33.8355,18.6319 33.8355,19.3159 L33.8355,20.8639 C33.8355,21.5489 33.7155,21.7279 33.0905,21.7279 C32.8825,21.7279 30.2035,21.6679 28.7745,21.6679 L26.4825,21.6679 C25.0835,21.6679 22.7315,21.7279 22.5225,21.7279 C21.8685,21.7279 21.6895,21.4889 21.6895,20.7749 C21.7185,19.1069 21.7495,17.2319 21.7495,15.8039 L21.7495,6.4559 C21.7495,4.9969 21.7185,3.0019 21.6895,1.4839 C21.6895,0.7699 21.8685,0.5309 22.5225,0.5309 C22.7315,0.5309 25.0835,0.5909 26.4825,0.5909 L28.1495,0.5909 C29.5785,0.5909 32.2575,0.5309 32.4655,0.5309 C33.0905,0.5309 33.2105,0.7099 33.2105,1.3949 L33.2105,3.0019 C33.2105,3.6879 33.0905,3.8649 32.4655,3.8649 C32.2575,3.8649 29.5785,3.7759 28.1495,3.7759 L26.0355,3.7759 C25.2915,3.7759 25.1425,3.9249 25.1425,4.6699 L25.1425,8.0629 C25.1425,8.8079 25.2915,8.9559 26.0355,8.9559 L27.5245,8.9559 C28.9225,8.9559 31.6325,8.8959 31.8405,8.8959 C32.4655,8.8959 32.5855,9.0749 32.5855,9.7599 L32.5855,11.2189 C32.5855,11.9029 32.4655,12.0819 31.8405,12.0819 C31.6325,12.0819 28.9225,12.0219 27.5245,12.0219 L26.0355,12.0219 C25.2915,12.0219 25.1425,12.1719 25.1425,12.9159 L25.1425,17.6489 C25.1425,18.3939 25.2915,18.5419 26.0355,18.5419 L28.7745,18.5419 Z" id="Fill-70"></path>
                <path d="M47.9122,15.7138 C47.9122,17.4408 48.0022,20.7158 48.0022,20.9238 C48.0022,21.5488 47.8232,21.6678 47.1392,21.6678 L45.2632,21.6678 C44.5782,21.6678 44.3992,21.5488 44.3992,20.9238 C44.3992,20.7158 44.4882,17.4408 44.4882,15.7138 L44.4882,4.6988 C44.4882,3.9548 44.3402,3.8068 43.5962,3.8068 L42.6732,3.8068 C41.4232,3.8068 38.8622,3.8958 38.6542,3.8958 C38.0282,3.8958 37.9092,3.7168 37.9092,3.0318 L37.9092,1.3948 C37.9092,0.7098 38.0282,0.5308 38.6542,0.5308 C38.8622,0.5308 41.5712,0.5908 42.9712,0.5908 L49.4602,0.5908 C50.8592,0.5908 53.5682,0.5308 53.7772,0.5308 C54.4022,0.5308 54.5212,0.7098 54.5212,1.3948 L54.5212,3.0318 C54.5212,3.7168 54.4022,3.8958 53.7772,3.8958 C53.5682,3.8958 51.0092,3.8068 49.7582,3.8068 L48.8062,3.8068 C48.0612,3.8068 47.9122,3.9548 47.9122,4.6988 L47.9122,15.7138 Z" id="Fill-72"></path>
                <path d="M63.3888,13.0048 C63.2988,13.2138 63.2698,13.3918 63.2698,13.5108 C63.2698,13.7788 63.4778,13.8388 63.9538,13.8388 L69.0448,13.8388 C69.5218,13.8388 69.7298,13.7788 69.7298,13.5108 C69.7298,13.3918 69.7008,13.2138 69.6108,13.0048 L66.8418,6.1878 C66.7228,5.8898 66.6338,5.7108 66.5148,5.7108 C66.4248,5.7108 66.3058,5.8598 66.1868,6.1878 L63.3888,13.0048 Z M62.8528,16.6958 C62.0788,16.6958 61.8698,16.7558 61.6028,17.4108 C61.1858,18.3938 60.7988,19.4048 60.2928,20.8348 C60.0248,21.5488 59.8758,21.6678 59.1018,21.6678 L57.0178,21.6678 C56.5418,21.6678 56.3328,21.6088 56.3328,21.3698 C56.3328,21.2508 56.3928,21.1028 56.5118,20.8638 C57.4348,18.7798 58.0898,17.2918 58.7148,15.8328 L62.9718,5.7408 C63.5078,4.4608 64.1328,3.0318 64.7578,1.4248 C65.0268,0.7098 65.1748,0.5908 65.9498,0.5908 L67.2288,0.5908 C68.0028,0.5908 68.1518,0.7098 68.4198,1.4248 C69.0448,3.0318 69.6408,4.4608 70.1758,5.7108 L74.4628,15.7738 C75.1188,17.3208 75.7728,18.8108 76.6958,20.8638 C76.8148,21.1028 76.8738,21.2508 76.8738,21.3698 C76.8738,21.6088 76.6658,21.6678 76.1898,21.6678 L73.8978,21.6678 C73.1228,21.6678 72.9748,21.5488 72.7068,20.8348 C72.2008,19.4048 71.8138,18.3938 71.3968,17.4108 C71.1288,16.7558 70.9508,16.6958 70.1468,16.6958 L62.8528,16.6958 Z" id="Fill-74"></path>
            </g>
        </g>
    </g>
</svg>