<?xml version="1.0" encoding="UTF-8"?>
<svg width="800px" height="150px" viewBox="0 0 800 150" version="1.1" xmlns="http://www.w3.org/2000/svg" xmlns:xlink="http://www.w3.org/1999/xlink">
    <!-- Generator: Sketch 53 (72520) - https://sketchapp.com -->
    <title>brand/logo-white</title>
    <desc>Created with Sketch.</desc>
    <defs>
        <polygon id="path-1" points="0.1974 0.2645 55.004 0.2645 55.004 57.6065 0.1974 57.6065"></polygon>
    </defs>
    <g id="brand/logo-white" stroke="none" stroke-width="1" fill="none" fill-rule="evenodd">
        <g id="Group-78" transform="translate(0.000000, 1.000000)">
            <path d="M73.0694,108.3348 C73.0694,109.1148 73.6214,109.4338 74.2974,109.0438 L100.4594,93.9388 C101.1344,93.5488 101.6864,92.5928 101.6864,91.8128 L101.6864,61.6028 C101.6864,60.8228 101.1344,60.5038 100.4594,60.8938 L74.2974,75.9988 C73.6214,76.3888 73.0694,77.3458 73.0694,78.1248 L73.0694,108.3348 Z" id="Fill-1" fill="#FFFFFE"></path>
            <path d="M36.5343,87.242 C36.5343,88.021 37.0873,88.341 37.7623,87.95 L63.9253,72.846 C64.5993,72.456 65.1523,71.499 65.1523,70.72 L65.1523,40.509 C65.1523,39.729 64.5993,39.411 63.9253,39.801 L37.7623,54.905 C37.0873,55.296 36.5343,56.252 36.5343,57.031 L36.5343,87.242 Z" id="Fill-3" fill="#FFFFFE"></path>
            <path d="M100.4591,130.1366 C101.1351,130.5276 101.6871,130.2076 101.6871,129.4286 L101.6871,103.7886 C101.6871,103.0096 101.1351,102.6906 100.4591,103.0796 L78.2551,115.9006 C77.5801,116.2896 77.5801,116.9276 78.2551,117.3176 L100.4591,130.1366 Z" id="Fill-5" fill-opacity="0.6" fill="#FFFFFE"></path>
            <path d="M110.8311,60.8934 C110.1561,60.5034 109.6031,60.8234 109.6031,61.6024 L109.6031,87.2424 C109.6031,88.0214 110.1561,88.3404 110.8311,87.9504 L133.0351,75.1304 C133.7111,74.7414 133.7111,74.1034 133.0351,73.7134 L110.8311,60.8934 Z" id="Fill-7" fill-opacity="0.6" fill="#FFFFFE"></path>
            <path d="M74.297,39.8006 C73.621,39.4106 73.069,39.7296 73.069,40.5086 L73.069,66.1486 C73.069,66.9286 73.621,67.2466 74.297,66.8576 L96.501,54.0376 C97.176,53.6476 97.176,53.0096 96.501,52.6196 L74.297,39.8006 Z" id="Fill-9" fill-opacity="0.8" fill="#FFFFFE"></path>
            <path d="M37.7618,18.7069 C37.0868,18.3169 36.5338,18.6369 36.5338,19.4159 L36.5338,45.0559 C36.5338,45.8349 37.0868,46.1539 37.7618,45.7639 L59.9668,32.9439 C60.6418,32.5549 60.6418,31.9169 59.9668,31.5269 L37.7618,18.7069 Z" id="Fill-11" fill-opacity="0.6" fill="#FFFFFE"></path>
            <path d="M63.9249,109.0438 C64.5999,109.4338 65.1529,109.1148 65.1529,108.3348 L65.1529,82.6948 C65.1529,81.9158 64.5999,81.5978 63.9249,81.9868 L41.7209,94.8068 C41.0449,95.1958 41.0449,95.8338 41.7209,96.2248 L63.9249,109.0438 Z" id="Fill-13" fill-opacity="0.3" fill="#FFFFFE"></path>
            <path d="M27.3907,87.95 C28.0657,88.341 28.6177,88.021 28.6177,87.242 L28.6177,61.602 C28.6177,60.823 28.0657,60.504 27.3907,60.893 L5.1857,73.714 C4.5107,74.103 4.5107,74.741 5.1857,75.131 L27.3907,87.95 Z" id="Fill-15" fill-opacity="0.6" fill="#FFFFFE"></path>
            <path d="M65.1524,148.076 C65.1504,147.403 65.1524,124.882 65.1524,124.882 C65.1524,124.102 64.5994,123.784 63.9244,124.174 L45.1934,134.988 L41.7204,136.993 C41.0454,137.383 41.0454,138.02 41.7204,138.411 L52.8254,144.822 C56.4794,146.931 60.3734,148.247 64.3074,148.831 C64.5894,148.872 65.1544,148.864 65.1524,148.076" id="Fill-17" fill-opacity="0.6" fill="#FFFFFE"></path>
            <path d="M73.0694,0.7684 C73.0714,1.4414 73.0694,23.9624 73.0694,23.9624 C73.0694,24.7424 73.6214,25.0604 74.2974,24.6704 L93.0284,13.8564 L96.5014,11.8514 C97.1754,11.4604 97.1754,10.8234 96.5014,10.4334 L85.3964,4.0224 C81.7424,1.9134 77.8484,0.5974 73.9144,0.0134 C73.6324,-0.0286 73.0664,-0.0196 73.0694,0.7684" id="Fill-20" fill-opacity="0.6" fill="#FFFFFE"></path>
            <path d="M130.9181,34.1668 C131.4201,33.8788 131.4031,33.5358 131.2891,33.2848 C128.9871,30.3448 126.2051,27.7988 123.0411,25.7928 C122.9281,25.7218 122.8121,25.6528 122.6971,25.5828 C122.3041,25.3398 121.9071,25.0998 121.5011,24.8728 L121.5041,24.8688 L115.3011,21.2878 L106.8721,16.4218 C106.1971,16.0318 105.0931,16.0318 104.4181,16.4218 L78.2551,31.5268 C77.5801,31.9168 77.5801,32.5548 78.2551,32.9438 L91.3361,40.4968 L104.4181,48.0498 C105.0931,48.4388 106.1971,48.4388 106.8721,48.0498 L115.3011,43.1838 C121.0551,39.8598 130.3711,34.4808 130.8971,34.1788 L130.9181,34.1668 Z" id="Fill-23" fill="#FFFFFE"></path>
            <path d="M59.9669,115.9002 L33.8039,100.7952 C33.1279,100.4052 32.0239,100.4052 31.3489,100.7952 L23.0509,105.5862 C17.3229,108.8932 7.9059,114.3312 7.3319,114.6612 L7.3039,114.6772 C6.7519,114.9942 6.8259,115.3742 6.9679,115.6272 C7.1529,115.8612 7.3329,116.0982 7.5239,116.3282 C7.5289,116.3342 7.5329,116.3382 7.5369,116.3442 C8.5359,117.5452 9.6189,118.6712 10.7779,119.7162 C10.7799,119.7182 10.7819,119.7202 10.7849,119.7232 C11.1459,120.0482 11.5159,120.3642 11.8919,120.6732 C11.9369,120.7112 11.9809,120.7492 12.0269,120.7852 C12.3499,121.0482 12.6809,121.3042 13.0149,121.5552 C13.1219,121.6362 13.2289,121.7172 13.3369,121.7962 C13.6079,121.9952 13.8829,122.1862 14.1589,122.3772 C14.3399,122.5002 14.5189,122.6242 14.7019,122.7442 C14.9149,122.8842 15.1319,123.0192 15.3489,123.1542 C15.6579,123.3472 15.9669,123.5422 16.2849,123.7252 L23.0509,127.6312 L31.3489,132.4222 C32.0239,132.8122 33.1279,132.8122 33.8039,132.4222 L59.9669,117.3172 C60.6419,116.9272 60.6419,116.2902 59.9669,115.9002" id="Fill-25" fill="#FFFFFE"></path>
            <path d="M134.8761,41.0233 C134.2941,41.3613 114.7891,52.6203 114.7891,52.6203 C114.1141,53.0093 114.1141,53.6473 114.7891,54.0373 L133.5221,64.8523 L136.9941,66.8573 C137.6691,67.2473 138.2221,66.9273 138.2221,66.1483 L138.2221,53.3263 C138.2211,49.1063 137.4141,45.0773 135.9521,41.3773 C135.8481,41.1133 135.5571,40.6273 134.8761,41.0233" id="Fill-27" fill-opacity="0.6" fill="#FFFFFE"></path>
            <path d="M3.3458,41.0233 C3.9268,41.3613 23.4318,52.6203 23.4318,52.6203 C24.1068,53.0093 24.1068,53.6473 23.4318,54.0373 L4.6998,64.8523 L1.2278,66.8573 C0.5518,67.2473 -0.0002,66.9273 -0.0002,66.1483 L-0.0002,53.3263 C-0.0002,49.1063 0.8078,45.0773 2.2698,41.3773 C2.3738,41.1133 2.6638,40.6273 3.3458,41.0233" id="Fill-29" fill-opacity="0.6" fill="#FFFFFE"></path>
            <path d="M134.8761,107.8211 C134.2941,107.4831 114.7891,96.2231 114.7891,96.2231 C114.1141,95.8341 114.1141,95.1961 114.7891,94.8061 L133.5221,83.9921 L136.9941,81.9871 C137.6691,81.5971 138.2221,81.9161 138.2221,82.6961 L138.2221,95.5181 C138.2211,99.7381 137.4141,103.7671 135.9521,107.4671 C135.8481,107.7311 135.5571,108.2171 134.8761,107.8211" id="Fill-32" fill-opacity="0.6" fill="#FFFFFE"></path>
            <path d="M3.3458,107.8211 C3.9268,107.4831 23.4318,96.2231 23.4318,96.2231 C24.1068,95.8341 24.1068,95.1961 23.4318,94.8061 L4.6998,83.9921 L1.2278,81.9871 C0.5518,81.5971 -0.0002,81.9161 -0.0002,82.6961 L-0.0002,95.5181 C-0.0002,99.7381 0.8078,103.7671 2.2698,107.4671 C2.3738,107.7311 2.6638,108.2171 3.3458,107.8211" id="Fill-34" fill-opacity="0.6" fill="#FFFFFE"></path>
            <path d="M7.3038,34.1668 C7.8878,34.5018 27.3908,45.7648 27.3908,45.7648 C28.0658,46.1538 28.6168,45.8348 28.6168,45.0558 L28.6168,23.4258 L28.6168,19.4158 C28.6168,18.6368 28.0658,18.3168 27.3898,18.7068 L16.2848,25.1188 C12.6308,27.2288 9.5458,29.9418 7.0728,33.0588 C6.8958,33.2808 6.6198,33.7748 7.3038,34.1668" id="Fill-37" fill-opacity="0.6" fill="#FFFFFE"></path>
            <path d="M73.0694,148.076 C73.0714,147.403 73.0694,124.882 73.0694,124.882 C73.0694,124.102 73.6214,123.784 74.2974,124.174 L93.0284,134.988 L96.5014,136.993 C97.1754,137.383 97.1754,138.02 96.5014,138.411 L85.3964,144.822 C81.7424,146.931 77.8484,148.247 73.9144,148.831 C73.6324,148.872 73.0664,148.864 73.0694,148.076" id="Fill-39" fill-opacity="0.6" fill="#FFFFFE"></path>
            <path d="M65.1524,0.7684 C65.1504,1.4414 65.1524,23.9624 65.1524,23.9624 C65.1524,24.7424 64.5994,25.0604 63.9244,24.6704 L45.1934,13.8564 L41.7204,11.8514 C41.0454,11.4604 41.0454,10.8234 41.7204,10.4334 L52.8254,4.0224 C56.4794,1.9134 60.3734,0.5974 64.3074,0.0134 C64.5894,-0.0286 65.1544,-0.0196 65.1524,0.7684" id="Fill-42" fill-opacity="0.6" fill="#FFFFFE"></path>
            <path d="M130.9171,114.6766 C130.3341,114.3426 110.8311,103.0796 110.8311,103.0796 C110.1561,102.6906 109.6041,103.0096 109.6041,103.7886 L109.6041,125.4186 L109.6041,129.4286 C109.6041,130.2076 110.1561,130.5276 110.8311,130.1366 L121.9361,123.7256 C125.5901,121.6156 128.6761,118.9016 131.1481,115.7856 C131.3251,115.5636 131.6011,115.0696 130.9171,114.6766" id="Fill-45" fill-opacity="0.6" fill="#FFFFFE"></path>
            <g id="Group" transform="translate(187.000000, 30.000000)" fill="#FFFFFE">
                <path d="M34.0712,0.2666 L34.0752,2.7946 C34.0752,2.7946 32.1072,2.9986 30.5962,3.4056 C29.0852,3.8126 28.4812,4.2456 28.1552,4.6256 C27.2912,5.5856 27.3712,9.3636 27.3712,12.7346 L27.3712,50.5756 C27.3712,57.8996 25.4832,64.2636 21.3842,69.6686 C17.2872,75.0746 12.0692,77.8356 5.7342,77.7776 C0.5402,77.7296 0.1552,74.4936 0.1552,73.1566 C0.1552,71.8776 0.6482,69.9636 3.2752,69.1676 C5.3662,68.5336 8.0562,69.6826 9.0922,70.6716 C10.3992,71.9206 11.4302,72.5456 12.1862,72.5456 C13.0012,72.5456 13.8292,72.1386 14.6722,71.3256 C15.5122,70.5106 16.3422,69.3206 17.1562,67.7506 C17.9692,66.1816 18.8642,63.9576 19.3872,61.0806 C19.9102,58.2036 20.1732,54.9346 20.1732,51.2716 L20.1732,12.3846 C20.1732,8.7816 20.3152,5.5556 19.5622,4.6256 C19.3872,4.1606 18.5592,3.7396 17.0772,3.3616 C15.5942,2.9846 13.4942,2.7946 13.4942,2.7946 L13.4942,0.2666 L34.0712,0.2666 Z" id="Fill-47"></path>
                <path d="M71.1621,31.5781 L63.9961,12.1241 L56.4971,31.5671 L71.1621,31.5781 Z M66.9841,1.0421 L84.2241,46.4761 C85.2701,49.2091 86.1121,51.9771 86.7521,53.4301 C87.1011,54.3021 88.0021,55.0151 89.4551,55.5661 C90.9081,56.1191 92.6811,56.3941 92.6811,56.3941 L92.8551,58.2471 L73.1501,58.2471 L73.2381,56.3941 C73.2381,56.3941 74.8071,56.2511 75.8531,55.9591 C76.8991,55.6691 77.4171,55.2441 77.6841,54.8251 C78.9031,52.9201 76.6391,46.7381 76.6391,46.7381 L73.0611,36.8361 L54.5131,36.8361 L50.6561,46.5641 C49.6671,49.4721 49.1741,52.1521 49.1741,53.2561 C49.1741,54.0701 49.4041,54.6511 49.8711,55.0001 C50.3931,55.4071 51.2361,55.7401 52.3991,56.0021 C53.5611,56.2651 54.9281,56.3941 54.9281,56.3941 L55.1021,58.2471 L37.0541,58.2471 L37.0541,56.3941 C37.0541,56.3941 38.6511,56.2511 39.7571,55.9591 C40.8601,55.6691 41.6171,55.2621 42.0241,54.7371 C43.2441,53.1691 44.6101,49.7611 46.1221,45.8661 L61.2931,6.8911 C61.4091,6.6021 63.6301,1.5071 63.8311,1.1711 C64.5171,0.0311 65.5341,0.1271 65.9131,0.1791 C66.3011,0.2411 66.8081,0.5971 66.9841,1.0421 L66.9841,1.0421 Z" id="Fill-49"></path>
                <path d="M169.3261,31.5781 L162.1601,12.1241 L154.6611,31.5671 L169.3261,31.5781 Z M165.1481,1.0421 L182.3881,46.4761 C183.4331,49.2091 184.2761,52.0491 184.9161,53.5011 C185.2651,54.3731 186.1661,55.0861 187.6191,55.6371 C189.0721,56.1901 190.8451,56.4661 190.8451,56.4661 L191.0191,58.2471 L171.3141,58.2471 L171.4021,56.4661 C171.4021,56.4661 172.9711,56.3211 174.0171,56.0291 C175.0631,55.7401 175.5811,55.3151 175.8481,54.8961 C177.0671,52.9911 174.8021,46.7381 174.8021,46.7381 L171.2251,36.8361 L152.6771,36.8361 L148.8201,46.5641 C147.8311,49.4721 147.3381,52.2241 147.3381,53.3261 C147.3381,54.1411 147.5681,54.7221 148.0351,55.0711 C148.5571,55.4781 149.3991,55.8111 150.5631,56.0731 C151.7251,56.3351 153.0921,56.4661 153.0921,56.4661 L153.2661,58.2471 L135.2181,58.2471 L135.2181,56.4661 C135.2181,56.4661 136.8151,56.3211 137.9211,56.0291 C139.0241,55.7401 139.7811,55.3321 140.1881,54.8081 C141.4081,53.2401 142.7731,49.7611 144.2861,45.8661 L159.4571,6.8911 C159.5731,6.6021 161.7931,1.5071 161.9951,1.1711 C162.6811,0.0311 163.6981,0.1271 164.0771,0.1791 C164.4651,0.2411 164.9721,0.5971 165.1481,1.0421 L165.1481,1.0421 Z" id="Fill-51"></path>
                <path d="M404.1435,31.5781 L396.9775,12.1241 L389.4785,31.5671 L404.1435,31.5781 Z M399.9655,1.0421 L417.2055,46.4761 C418.2505,49.2091 419.3975,51.9771 420.0385,53.4301 C420.3865,54.3021 420.9835,55.0151 422.4365,55.5661 C423.8895,56.1191 425.6625,56.3941 425.6625,56.3941 L425.8365,58.2471 L406.1315,58.2471 L406.2195,56.3941 C406.2195,56.3941 407.7885,56.2511 408.8345,55.9591 C409.8805,55.6691 410.3235,55.1851 410.6655,54.8251 C412.2155,53.1941 409.6195,46.7381 409.6195,46.7381 L406.0425,36.8361 L387.4945,36.8361 L383.6375,46.5641 C382.6485,49.4721 382.1555,52.1521 382.1555,53.2561 C382.1555,54.0701 382.3855,54.6511 382.8525,55.0001 C383.3745,55.4071 384.2165,55.7401 385.3805,56.0021 C386.5425,56.2651 387.9095,56.3941 387.9095,56.3941 L388.0835,58.2471 L370.0355,58.2471 L370.0355,56.3941 C370.0355,56.3941 371.6325,56.2511 372.7385,55.9591 C373.8415,55.6691 374.5985,55.2621 375.0055,54.7371 C376.2255,53.1691 377.5905,49.7611 379.1035,45.8661 L394.2745,6.8911 C394.3905,6.6021 396.6105,1.5071 396.8125,1.1711 C397.4985,0.0311 398.5155,0.1271 398.8935,0.1791 C399.2825,0.2411 399.7895,0.5971 399.9655,1.0421 L399.9655,1.0421 Z" id="Fill-53"></path>
                <path d="M97.4863,0.6152 C97.4863,0.6152 118.5663,0.4892 120.2513,0.5662 C126.5803,0.8582 129.8773,2.7662 131.7093,3.9282 C133.5393,5.0922 135.0353,6.7482 136.1983,8.8982 C137.3613,11.0492 138.0083,13.5502 137.9423,16.3952 C137.8753,19.2612 136.5173,28.0772 128.0463,32.0472 C124.1863,33.8552 120.7473,33.5972 117.4313,32.5462 C115.7723,32.0192 114.3913,31.1942 113.4453,30.2242 C113.0073,29.5432 113.6373,29.0892 114.0143,29.3362 C115.7573,29.9762 117.2313,30.2242 119.3823,30.2242 C122.2883,30.2242 124.8253,29.2272 127.0983,26.9542 C129.3033,24.7492 131.2233,20.7252 131.2233,17.3532 C131.2233,13.2262 130.1093,10.7352 128.3073,8.3222 C126.5063,5.9112 122.6263,4.2772 118.8483,4.2772 C116.2323,4.2772 114.1963,4.4812 112.7453,4.8872 C112.4533,4.9452 112.2503,5.1632 112.1343,5.5412 C112.0163,5.9202 111.9173,6.8052 111.8293,8.2012 C111.7423,9.5942 111.6993,11.6872 111.6993,14.4772 L111.6993,45.6042 C111.6993,49.5002 111.9303,52.7042 112.3953,53.8662 C112.6853,54.6222 113.7163,55.2322 115.4913,55.6972 C117.2633,56.1632 119.2843,56.3942 119.2843,56.3942 L119.4593,58.2472 L97.4863,58.2472 L97.4863,56.4452 C97.4863,56.4452 99.4323,56.2722 100.8863,55.9232 C102.3393,55.5742 103.2113,54.9122 103.5033,54.3892 C103.9093,53.6912 104.1133,50.2842 104.1133,45.5172 L104.1133,12.5592 C104.1133,9.1312 104.0323,6.2162 103.5033,5.0612 C103.3283,4.5962 102.4083,3.6462 100.9303,3.0532 C99.4433,2.4542 98.2413,2.4112 97.4863,2.4112 L97.4863,0.6152 Z" id="Fill-55"></path>
                <path d="M240.7109,12.2978 C240.7109,8.7528 240.5069,6.1948 240.1009,4.6258 C239.8639,3.8188 238.9459,3.3188 237.1149,2.8838 C235.2829,2.4468 233.2129,2.3968 233.2129,2.3968 L233.2129,0.2668 L253.2669,0.2668 L253.2329,2.3968 C253.2329,2.3968 251.2459,2.4858 249.2989,2.9498 C247.3519,3.4168 246.5019,3.8658 246.2029,4.6258 C245.7379,6.4278 245.5069,9.1308 245.5069,12.7348 L245.5029,58.4028 L242.5159,58.4218 L241.0359,56.4168 L207.4039,8.4618 L207.4039,45.6928 C207.4039,49.5278 207.4689,52.2308 207.8759,53.7988 C208.3029,55.0078 209.1189,55.2108 210.9359,55.7048 C212.8249,56.2188 214.7209,56.4318 214.7209,56.4318 L214.7289,58.2468 L194.6749,58.2468 L194.6749,56.4178 C194.6749,56.4178 196.8119,56.1408 198.6419,55.7048 C200.4729,55.2698 201.3329,54.9728 201.8309,53.7988 C202.4109,52.2878 202.5229,49.3838 202.5229,45.4298 L202.5229,11.1648 C202.5229,8.3178 202.3169,6.1378 201.9109,4.6258 C201.7369,4.1598 200.7479,3.7388 198.9469,3.3608 C197.1449,2.9848 195.0229,2.7948 195.0229,2.7948 L195.0229,0.2668 L210.8929,0.2668 C210.8929,0.2668 222.8939,18.4598 240.4489,42.9888 C240.6239,42.0008 240.7109,40.8088 240.7109,39.4138 L240.7109,12.2978 Z" id="Fill-57"></path>
                <path d="M282.538,15.7851 C282.635,11.2661 284.272,7.2451 287.737,4.3401 C291.2,1.4331 295.219,0.2871 299.797,0.2871 C301.087,0.2871 303.88,0.5161 305.017,0.7131 C308.716,1.3531 313.094,2.7531 313.094,2.7531 L314.15,15.3451 L311.702,15.2911 C311.702,15.2911 311.294,11.3771 307.934,7.6111 C305.748,5.1621 302.885,4.0561 299.182,3.8971 C295.662,3.7471 292.872,4.9251 291.435,6.6861 C289.996,8.4471 289.58,10.4731 289.582,13.0551 C289.587,17.8511 292.59,20.2751 293.678,21.1561 C294.764,22.0361 295.555,22.6531 296.055,23.0061 C296.553,23.3581 297.552,24.0051 299.049,24.9421 C300.546,25.8831 301.499,26.4701 301.91,26.7031 C302.204,26.8801 303.231,27.5111 304.992,28.5971 C306.753,29.6841 307.956,30.4461 308.602,30.8871 C309.248,31.3261 310.289,32.0861 311.641,33.2641 C316.396,37.4071 317.231,42.2901 317.231,43.6981 C317.231,48.3961 315.513,52.4471 311.845,55.4701 C308.175,58.4931 303.76,59.8121 298.829,59.8121 C297.419,59.8121 295.923,59.7101 294.338,59.5051 C292.753,59.2981 291.432,59.0931 290.375,58.8881 C289.318,58.6821 287.983,58.3901 286.368,58.0081 C284.754,57.6261 282.978,57.2591 282.978,57.2591 L280.971,43.2581 L283.523,43.2381 C283.523,43.2381 283.934,45.8431 286.108,49.4651 C288.695,53.7741 293.476,56.2021 299.005,56.2021 C301.938,56.2021 304.434,55.3211 306.489,53.5601 C308.544,51.7991 309.57,49.3061 309.57,46.0761 C309.57,44.9021 309.214,41.1771 305.917,38.2831 C305.004,37.4811 304.2,37.0071 303.672,36.6531 C303.142,36.3031 302.175,35.7441 300.766,34.9801 C299.356,34.2191 298.389,33.6901 297.859,33.3961 C296.156,32.3981 294.969,31.6941 294.294,31.2831 C293.665,30.9011 292.548,30.1831 290.948,29.1261 C289.391,28.0981 288.262,27.1881 287.558,26.3951 C286.853,25.6021 282.404,22.0471 282.538,15.7851" id="Fill-59"></path>
                <path d="M329.9307,53.7139 L329.9307,4.6639 C329.9647,4.4709 328.9557,3.6649 326.9607,3.0179 C325.4467,2.5259 323.5177,2.4079 323.5177,2.4079 L323.5177,0.6149 L362.2537,0.6879 L364.5837,11.9489 L361.9767,11.9349 C361.9767,11.9349 361.0997,8.5339 358.1307,6.0259 C356.7497,4.8579 354.4097,4.6749 351.6787,4.6749 L337.2377,4.6809 L337.2647,26.8169 C337.2647,26.8169 350.4517,26.8109 351.1807,26.8109 C354.2107,26.8109 354.9657,25.9949 355.3277,25.2899 C355.9057,24.1659 356.5767,21.4619 356.5767,21.4619 L358.4807,21.4649 L358.4807,37.2229 L356.5767,37.2109 C356.5767,37.2109 356.4517,35.6299 355.5477,33.7039 C354.8117,32.1359 353.3737,31.4819 351.1067,31.4819 C348.7157,31.4819 337.2647,31.4979 337.2647,31.4979 L337.2547,53.6099 L348.6277,53.6859 C348.6277,53.6859 357.6527,53.6559 359.5707,52.6669 C360.4427,52.2029 361.1737,51.3929 362.2267,49.3069 C363.0947,47.5879 364.3347,43.8609 364.3347,43.8609 L367.1217,43.8609 L363.7987,58.3349 L323.5177,58.2469 L323.5177,56.4659 C326.3867,56.0739 328.7577,54.8869 329.9307,53.7139" id="Fill-61"></path>
                <path d="M451.8486,4.2773 C449.2326,4.2773 448.1326,4.2513 446.8076,4.4853 C446.5756,4.5443 444.6986,4.6313 444.6986,7.5603 C444.6986,8.9293 444.6996,25.0273 444.6996,25.0273 C444.6996,26.7143 447.2276,27.5553 452.2846,27.5553 L454.4636,27.5553 C456.4976,27.5553 458.6056,26.5403 460.7856,24.5053 C462.9656,22.4703 464.0556,19.7683 464.0556,16.3953 C464.0556,8.3173 459.9856,4.2773 451.8486,4.2773 M453.1106,0.5733 C459.6836,0.5733 463.2986,2.7663 465.2766,3.9273 C467.2506,5.0913 468.8796,6.7483 470.1596,8.8983 C471.4366,11.0483 472.0776,13.5483 472.0776,16.3953 C472.0776,18.8373 471.1616,21.3953 469.3296,24.0693 C467.4986,26.7433 464.3386,29.0573 461.2006,30.5093 C460.6196,30.7423 460.4456,31.0333 460.6776,31.3813 C463.5836,37.4843 466.7376,43.3083 470.5156,47.4343 C476.9416,55.3663 481.2536,57.2483 485.9616,59.2113 C486.8846,59.5953 486.5906,60.1823 485.8776,60.2003 C484.6236,60.2313 482.9346,60.1193 481.1836,59.8143 C473.4896,58.4733 467.0256,53.3983 461.6376,45.8663 C460.7076,44.5883 459.6466,43.0623 458.4546,41.2893 C457.2646,39.5153 453.4826,33.2543 452.9316,32.7873 C452.3776,32.3233 452.3096,31.9193 451.1436,31.6543 C450.4796,31.5043 448.3026,31.3053 446.7916,31.3053 C446.3256,31.3053 445.9776,31.3203 445.7446,31.3483 C445.5126,31.3803 445.2806,31.5093 445.0476,31.7413 C444.8146,31.9743 444.6996,32.3233 444.6996,32.7873 C444.6996,32.7873 444.9306,52.2973 445.3966,53.4593 C445.6876,54.2153 446.7866,55.0193 448.5606,55.4833 C450.3326,55.9493 452.4536,56.3923 452.4536,56.3923 L452.4586,58.2473 L430.2216,58.2473 L430.2376,56.4033 C430.2376,56.4033 432.3876,55.9513 433.8036,55.5603 C436.1446,54.9153 436.9276,54.3983 437.0436,53.2103 L437.0336,5.0613 C437.0336,5.0613 436.6096,3.8133 433.9316,3.0353 C432.4146,2.5943 430.4866,2.4263 430.4866,2.4263 L430.4866,0.6153 C430.4866,0.6153 451.4236,0.5733 453.1106,0.5733" id="Fill-63"></path>
                <path d="M532.8564,42.5244 L529.9334,54.9864 C529.9334,54.9864 527.6744,56.1694 526.2964,56.6414 C522.1604,58.0594 517.7244,59.1434 509.3934,58.7674 C501.8364,58.4264 495.3974,55.9894 490.0984,50.4304 C484.7974,44.8754 482.1474,38.2564 482.1474,30.5784 C482.1474,22.4434 485.0904,15.3484 490.3784,9.3894 C493.9214,5.3954 501.4084,0.9264 510.3374,0.9264 C522.3344,0.9264 529.5254,4.4484 529.5254,4.4484 L531.0504,15.4524 L528.1284,16.3114 C528.1284,16.3114 527.7424,14.8074 527.4844,14.0334 C527.2254,13.2594 525.6824,8.5954 517.8584,5.5244 C515.7664,4.7044 513.2884,4.5364 510.5954,4.5364 C506.5904,4.5364 500.8494,7.0154 496.8954,11.9704 C492.9424,16.9274 491.0314,22.7904 491.0314,29.0344 C491.0314,33.6744 491.7674,37.6834 493.3724,41.5794 C494.9754,45.4764 496.9234,48.5034 500.3904,51.0514 C503.8564,53.6024 507.9024,55.0734 512.6584,55.0734 C518.3324,55.0734 522.2514,53.6764 525.3444,50.3524 C526.1454,49.4934 527.1794,48.0964 527.7824,46.6924 C528.3834,45.2904 530.0194,41.7504 530.0194,41.7504 L532.8564,42.5244 Z" id="Fill-65"></path>
                <path d="M587.331,4.79 L587.331,54.113 C587.398,54.664 588.275,55.493 590.073,55.858 C591.583,56.164 593.348,56.418 593.348,56.418 L593.351,58.186 L573.086,58.186 L573.086,56.418 C573.086,56.418 574.929,56.194 576.405,55.901 C578.343,55.518 579.505,55.114 579.519,54.113 L579.467,30.848 L553.253,30.893 L553.243,54.071 L553.245,54.113 C553.258,54.741 554.189,55.493 555.987,55.858 C557.497,56.164 559.262,56.418 559.262,56.418 L559.265,58.186 L539,58.186 L539,56.418 C539,56.418 540.843,56.194 542.32,55.901 C544.258,55.518 545.396,55.114 545.411,54.113 L545.41,54.071 L545.41,4.767 C545.41,3.89 544.232,3.416 542.69,2.98 C541.234,2.57 539.37,2.42 539.37,2.42 L539.37,0.844 L559.721,0.844 L559.712,2.42 C559.712,2.42 557.317,2.586 556.18,2.894 C554.868,3.249 553.243,3.795 553.243,4.767 L553.295,26.281 L579.426,26.281 L579.519,4.79 L579.519,4.766 C579.519,3.889 578.319,3.416 576.776,2.98 C575.32,2.57 573.457,2.42 573.457,2.42 L573.457,0.844 L593.807,0.844 L593.798,2.42 C593.798,2.42 591.404,2.586 590.267,2.894 C588.955,3.249 587.33,3.795 587.33,4.767 L587.331,4.79 Z" id="Fill-67"></path>
            </g>
            <g id="Group-69" transform="translate(726.000000, 30.844000)">
                <mask id="mask-2" fill="white">
                    <use xlink:href="#path-1"></use>
                </mask>
                <g id="Clip-68"></g>
            </g>
            <g id="beta" transform="translate(446.000000, 115.000000)" fill="#FFFFFE">
                <path d="M4.0099,17.9168 C4.0099,18.6608 4.1589,18.8108 4.9039,18.8108 L7.7019,18.8108 C10.1729,18.8108 11.9889,17.6488 11.9889,15.1788 C11.9889,12.9158 10.5309,12.0528 8.2379,12.0528 L4.9039,12.0528 C4.1589,12.0528 4.0099,12.2008 4.0099,12.9448 L4.0099,17.9168 Z M4.0099,8.3018 C4.0099,9.0458 4.1589,9.1938 4.9039,9.1938 L7.2849,9.1938 C9.4889,9.1938 11.0659,8.3608 11.0659,5.9788 C11.0659,4.0148 9.4579,3.5088 7.6429,3.5088 L4.9039,3.5088 C4.1589,3.5088 4.0099,3.6568 4.0099,4.4008 L4.0099,8.3018 Z M5.3799,21.6678 C3.9809,21.6678 1.6289,21.7278 1.4199,21.7278 C0.7949,21.7278 0.5869,21.5198 0.5869,20.8948 C0.5869,20.6858 0.6469,17.4708 0.6469,15.8038 L0.6469,6.4558 C0.6469,4.9968 0.5869,1.9898 0.5869,1.4838 C0.5869,0.7698 0.7659,0.5308 1.4199,0.5308 C1.7479,0.5308 3.9809,0.5908 5.3799,0.5908 L7.6719,0.5908 C11.9589,0.5908 14.4889,1.7228 14.4889,5.3538 C14.4889,7.0808 14.1029,8.7178 12.5549,9.8498 C12.3169,10.0278 12.1669,10.1468 12.1669,10.2358 C12.1669,10.3858 12.3169,10.4748 12.6439,10.5938 C14.3699,11.2778 15.5009,12.7668 15.5009,15.2078 C15.5009,19.6438 12.5549,21.6678 7.7619,21.6678 L5.3799,21.6678 Z" id="Fill-70"></path>
                <path d="M28.7745,18.5418 C30.2035,18.5418 32.8825,18.4528 33.0905,18.4528 C33.7155,18.4528 33.8355,18.6318 33.8355,19.3158 L33.8355,20.8638 C33.8355,21.5488 33.7155,21.7278 33.0905,21.7278 C32.8825,21.7278 30.2035,21.6678 28.7745,21.6678 L26.4825,21.6678 C25.0835,21.6678 22.7315,21.7278 22.5225,21.7278 C21.8685,21.7278 21.6895,21.4888 21.6895,20.7748 C21.7185,19.1068 21.7495,17.2318 21.7495,15.8038 L21.7495,6.4558 C21.7495,4.9968 21.7185,3.0018 21.6895,1.4838 C21.6895,0.7698 21.8685,0.5308 22.5225,0.5308 C22.7315,0.5308 25.0835,0.5908 26.4825,0.5908 L28.1495,0.5908 C29.5785,0.5908 32.2575,0.5308 32.4655,0.5308 C33.0905,0.5308 33.2105,0.7098 33.2105,1.3948 L33.2105,3.0018 C33.2105,3.6878 33.0905,3.8648 32.4655,3.8648 C32.2575,3.8648 29.5785,3.7758 28.1495,3.7758 L26.0355,3.7758 C25.2915,3.7758 25.1425,3.9248 25.1425,4.6698 L25.1425,8.0628 C25.1425,8.8078 25.2915,8.9558 26.0355,8.9558 L27.5245,8.9558 C28.9225,8.9558 31.6325,8.8958 31.8405,8.8958 C32.4655,8.8958 32.5855,9.0748 32.5855,9.7598 L32.5855,11.2188 C32.5855,11.9028 32.4655,12.0818 31.8405,12.0818 C31.6325,12.0818 28.9225,12.0218 27.5245,12.0218 L26.0355,12.0218 C25.2915,12.0218 25.1425,12.1718 25.1425,12.9158 L25.1425,17.6488 C25.1425,18.3938 25.2915,18.5418 26.0355,18.5418 L28.7745,18.5418 Z" id="Fill-72"></path>
                <path d="M47.9122,15.7137 C47.9122,17.4407 48.0022,20.7157 48.0022,20.9237 C48.0022,21.5487 47.8232,21.6677 47.1392,21.6677 L45.2632,21.6677 C44.5782,21.6677 44.3992,21.5487 44.3992,20.9237 C44.3992,20.7157 44.4882,17.4407 44.4882,15.7137 L44.4882,4.6987 C44.4882,3.9547 44.3402,3.8067 43.5962,3.8067 L42.6732,3.8067 C41.4232,3.8067 38.8622,3.8957 38.6542,3.8957 C38.0282,3.8957 37.9092,3.7167 37.9092,3.0317 L37.9092,1.3947 C37.9092,0.7097 38.0282,0.5307 38.6542,0.5307 C38.8622,0.5307 41.5712,0.5907 42.9712,0.5907 L49.4602,0.5907 C50.8592,0.5907 53.5682,0.5307 53.7772,0.5307 C54.4022,0.5307 54.5212,0.7097 54.5212,1.3947 L54.5212,3.0317 C54.5212,3.7167 54.4022,3.8957 53.7772,3.8957 C53.5682,3.8957 51.0092,3.8067 49.7582,3.8067 L48.8062,3.8067 C48.0612,3.8067 47.9122,3.9547 47.9122,4.6987 L47.9122,15.7137 Z" id="Fill-74"></path>
                <path d="M63.3888,13.0047 C63.2988,13.2137 63.2698,13.3917 63.2698,13.5107 C63.2698,13.7787 63.4778,13.8387 63.9538,13.8387 L69.0448,13.8387 C69.5218,13.8387 69.7298,13.7787 69.7298,13.5107 C69.7298,13.3917 69.7008,13.2137 69.6108,13.0047 L66.8418,6.1877 C66.7228,5.8897 66.6338,5.7107 66.5148,5.7107 C66.4248,5.7107 66.3058,5.8597 66.1868,6.1877 L63.3888,13.0047 Z M62.8528,16.6957 C62.0788,16.6957 61.8698,16.7557 61.6028,17.4107 C61.1858,18.3937 60.7988,19.4047 60.2928,20.8347 C60.0248,21.5487 59.8758,21.6677 59.1018,21.6677 L57.0178,21.6677 C56.5418,21.6677 56.3328,21.6087 56.3328,21.3697 C56.3328,21.2507 56.3928,21.1027 56.5118,20.8637 C57.4348,18.7797 58.0898,17.2917 58.7148,15.8327 L62.9718,5.7407 C63.5078,4.4607 64.1328,3.0317 64.7578,1.4247 C65.0268,0.7097 65.1748,0.5907 65.9498,0.5907 L67.2288,0.5907 C68.0028,0.5907 68.1518,0.7097 68.4198,1.4247 C69.0448,3.0317 69.6408,4.4607 70.1758,5.7107 L74.4628,15.7737 C75.1188,17.3207 75.7728,18.8107 76.6958,20.8637 C76.8148,21.1027 76.8738,21.2507 76.8738,21.3697 C76.8738,21.6087 76.6658,21.6677 76.1898,21.6677 L73.8978,21.6677 C73.1228,21.6677 72.9748,21.5487 72.7068,20.8347 C72.2008,19.4047 71.8138,18.3937 71.3968,17.4107 C71.1288,16.7557 70.9508,16.6957 70.1468,16.6957 L62.8528,16.6957 Z" id="Fill-76"></path>
            </g>
        </g>
    </g>
</svg>