<?xml version="1.0" encoding="UTF-8"?>
<svg width="260px" height="304px" viewBox="0 0 260 304" version="1.1" xmlns="http://www.w3.org/2000/svg" xmlns:xlink="http://www.w3.org/1999/xlink">
    <!-- Generator: Sketch 52.5 (67469) - http://www.bohemiancoding.com/sketch -->
    <title>brand/logo-square-white</title>
    <desc>Created with Sketch.</desc>
    <g id="brand/logo-square-white" stroke="none" stroke-width="1" fill="none" fill-rule="evenodd">
        <g id="logo-square-white" transform="translate(10.000000, 36.000000)" fill="#FFFFFF">
            <g id="Group" transform="translate(0.000000, 184.500000)">
                <g>
                    <path d="M13.685,0.49 L13.685,1.495 C13.685,1.495 12.905,1.575 12.3,1.74 C11.7,1.9 11.46,2.075 11.33,2.225 C10.985,2.605 11.02,4.11 11.02,5.445 L11.02,20.485 C11.02,23.395 10.27,25.925 8.64,28.075 C7.01,30.225 4.94,31.32 2.42,31.3 C0.355,31.28 0.205,29.995 0.205,29.465 C0.205,28.955 0.4,28.195 1.445,27.88 C2.275,27.63 3.345,28.085 3.755,28.48 C4.275,28.975 4.685,29.225 4.985,29.225 C5.31,29.225 5.64,29.065 5.975,28.74 C6.31,28.415 6.64,27.945 6.96,27.32 C7.285,26.695 7.64,25.815 7.845,24.67 C8.055,23.525 8.155,22.225 8.155,20.77 L8.155,5.315 C8.155,3.885 8.21,2.6 7.91,2.23 C7.84,2.045 7.51,1.88 6.92,1.73 C6.33,1.58 5.495,1.505 5.495,1.505 L5.495,0.5 L13.685,0.5 L13.685,0.49 Z" id="Path"></path>
                    <path d="M26.765,0.8 L33.615,18.855 C34.03,19.94 34.365,21.04 34.62,21.62 C34.76,21.965 35.115,22.25 35.695,22.47 C36.27,22.69 36.975,22.8 36.975,22.8 L37.045,23.535 L29.215,23.535 L29.25,22.8 C29.25,22.8 29.875,22.745 30.29,22.625 C30.705,22.51 30.91,22.34 31.02,22.175 C31.505,21.42 30.605,18.96 30.605,18.96 L29.185,15.025 L21.815,15.025 L20.28,18.89 C19.885,20.045 19.69,21.11 19.69,21.55 C19.69,21.875 19.78,22.105 19.965,22.245 C20.175,22.405 20.505,22.54 20.97,22.645 C21.43,22.75 21.975,22.8 21.975,22.8 L22.045,23.535 L14.87,23.535 L14.87,22.8 C14.87,22.8 15.505,22.745 15.945,22.625 C16.385,22.51 16.685,22.35 16.845,22.14 C17.33,21.515 17.875,20.16 18.475,18.615 L24.505,3.125 C24.55,3.01 25.435,0.985 25.515,0.85 C25.79,0.395 26.19,0.435 26.34,0.455 C26.495,0.48 26.695,0.62 26.765,0.8 Z M28.425,12.935 L25.575,5.205 L22.595,12.935 L28.425,12.935 Z" id="Shape" fill-rule="nonzero"></path>
                    <path d="M65.78,0.8 L72.63,18.855 C73.045,19.94 73.38,21.07 73.635,21.645 C73.775,21.99 74.13,22.275 74.71,22.495 C75.285,22.715 75.99,22.825 75.99,22.825 L76.06,23.535 L68.23,23.535 L68.265,22.825 C68.265,22.825 68.89,22.77 69.305,22.65 C69.72,22.535 69.925,22.365 70.035,22.2 C70.52,21.445 69.62,18.96 69.62,18.96 L68.2,15.025 L60.83,15.025 L59.295,18.89 C58.9,20.045 58.705,21.14 58.705,21.58 C58.705,21.905 58.795,22.135 58.98,22.275 C59.19,22.435 59.52,22.57 59.985,22.675 C60.445,22.78 60.99,22.83 60.99,22.83 L61.06,23.54 L53.885,23.54 L53.885,22.83 C53.885,22.83 54.52,22.775 54.96,22.655 C55.4,22.54 55.7,22.38 55.86,22.17 C56.345,21.545 56.89,20.165 57.49,18.615 L63.52,3.125 C63.565,3.01 64.45,0.985 64.53,0.85 C64.805,0.395 65.205,0.435 65.355,0.455 C65.505,0.48 65.71,0.62 65.78,0.8 Z M67.44,12.935 L64.59,5.205 L61.61,12.935 L67.44,12.935 Z" id="Shape" fill-rule="nonzero"></path>
                    <path d="M159.1,0.8 L165.95,18.855 C166.365,19.94 166.82,21.04 167.075,21.62 C167.215,21.965 167.45,22.25 168.03,22.47 C168.605,22.69 169.31,22.8 169.31,22.8 L169.38,23.535 L161.55,23.535 L161.585,22.8 C161.585,22.8 162.21,22.745 162.625,22.625 C163.04,22.51 163.215,22.32 163.355,22.175 C163.97,21.525 162.94,18.96 162.94,18.96 L161.52,15.025 L154.15,15.025 L152.615,18.89 C152.22,20.045 152.025,21.11 152.025,21.55 C152.025,21.875 152.115,22.105 152.3,22.245 C152.51,22.405 152.84,22.54 153.305,22.645 C153.765,22.75 154.31,22.8 154.31,22.8 L154.38,23.535 L147.205,23.535 L147.205,22.8 C147.205,22.8 147.84,22.745 148.28,22.625 C148.72,22.51 149.02,22.35 149.18,22.14 C149.665,21.515 150.21,20.16 150.81,18.615 L156.84,3.125 C156.885,3.01 157.77,0.985 157.85,0.85 C158.125,0.395 158.525,0.435 158.675,0.455 C158.83,0.48 159.03,0.62 159.1,0.8 Z M160.76,12.935 L157.91,5.205 L154.93,12.935 L160.76,12.935 Z" id="Shape" fill-rule="nonzero"></path>
                    <path d="M38.89,0.63 C38.89,0.63 47.27,0.58 47.935,0.61 C50.45,0.725 51.76,1.485 52.49,1.945 C53.215,2.41 53.81,3.065 54.275,3.92 C54.735,4.775 54.995,5.77 54.97,6.9 C54.945,8.04 54.405,11.545 51.035,13.12 C49.5,13.84 48.135,13.735 46.815,13.32 C46.155,13.11 45.605,12.785 45.23,12.4 C45.055,12.13 45.305,11.95 45.455,12.045 C46.15,12.3 46.735,12.4 47.59,12.4 C48.745,12.4 49.755,12.005 50.655,11.1 C51.53,10.225 52.295,8.625 52.295,7.285 C52.295,5.645 51.85,4.655 51.135,3.695 C50.42,2.735 48.875,2.085 47.375,2.085 C46.335,2.085 45.525,2.165 44.95,2.33 C44.835,2.355 44.755,2.44 44.705,2.59 C44.66,2.74 44.62,3.09 44.585,3.645 C44.55,4.2 44.535,5.03 44.535,6.14 L44.535,18.51 C44.535,20.06 44.625,21.33 44.81,21.795 C44.925,22.095 45.335,22.34 46.04,22.525 C46.745,22.71 47.545,22.8 47.545,22.8 L47.615,23.535 L38.885,23.535 L38.885,22.82 C38.885,22.82 39.66,22.75 40.235,22.61 C40.81,22.47 41.16,22.21 41.275,22 C41.435,21.72 41.52,20.37 41.52,18.475 L41.52,5.375 C41.52,4.01 41.49,2.855 41.275,2.395 C41.205,2.21 40.84,1.83 40.255,1.595 C39.665,1.355 39.185,1.34 38.885,1.34 L38.885,0.63 L38.89,0.63 Z" id="Path"></path>
                    <path d="M95.81,5.27 C95.81,3.86 95.73,2.845 95.565,2.22 C95.47,1.9 95.105,1.7 94.38,1.53 C93.65,1.355 92.83,1.335 92.83,1.335 L92.83,0.49 L100.8,0.49 L100.785,1.335 C100.785,1.335 99.995,1.37 99.22,1.555 C98.445,1.74 98.11,1.92 97.99,2.22 C97.805,2.935 97.715,4.01 97.715,5.44 L97.715,23.59 L96.53,23.595 L95.94,22.8 L82.575,3.74 L82.575,18.535 C82.575,20.06 82.6,21.135 82.76,21.755 C82.93,22.235 83.255,22.315 83.975,22.51 C84.725,22.715 85.48,22.8 85.48,22.8 L85.485,23.52 L77.515,23.52 L77.515,22.795 C77.515,22.795 78.365,22.685 79.09,22.51 C79.82,22.335 80.16,22.22 80.36,21.755 C80.59,21.155 80.635,20 80.635,18.43 L80.635,4.81 C80.635,3.68 80.555,2.81 80.39,2.21 C80.32,2.025 79.925,1.86 79.21,1.71 C78.495,1.56 77.65,1.485 77.65,1.485 L77.65,0.48 L83.955,0.48 C83.955,0.48 88.725,7.71 95.7,17.46 C95.77,17.065 95.805,16.595 95.805,16.04 L95.805,5.27 L95.81,5.27 Z" id="Path"></path>
                    <path d="M112.43,6.655 C112.47,4.86 113.12,3.26 114.495,2.105 C115.87,0.95 117.47,0.495 119.29,0.495 C119.805,0.495 120.915,0.585 121.365,0.665 C122.835,0.92 124.575,1.475 124.575,1.475 L124.995,6.48 L124.02,6.46 C124.02,6.46 123.86,4.905 122.52,3.41 C121.65,2.435 120.515,1.995 119.04,1.935 C117.64,1.875 116.535,2.345 115.96,3.045 C115.39,3.745 115.225,4.55 115.225,5.575 C115.225,7.48 116.42,8.445 116.855,8.795 C117.285,9.145 117.6,9.39 117.8,9.53 C118,9.67 118.395,9.925 118.99,10.3 C119.585,10.675 119.965,10.905 120.125,11 C120.24,11.07 120.65,11.32 121.35,11.75 C122.05,12.18 122.53,12.485 122.785,12.66 C123.04,12.835 123.455,13.135 123.99,13.605 C125.88,15.25 126.21,17.19 126.21,17.75 C126.21,19.615 125.525,21.225 124.07,22.43 C122.61,23.63 120.855,24.155 118.895,24.155 C118.335,24.155 117.74,24.115 117.11,24.035 C116.48,23.955 115.955,23.87 115.535,23.79 C115.115,23.71 114.585,23.59 113.945,23.44 C113.305,23.29 112.6,23.14 112.6,23.14 L111.8,17.575 L112.815,17.565 C112.815,17.565 112.98,18.6 113.845,20.04 C114.875,21.755 116.775,22.72 118.97,22.72 C120.135,22.72 121.125,22.37 121.945,21.67 C122.76,20.97 123.17,19.98 123.17,18.695 C123.17,18.23 123.03,16.75 121.72,15.6 C121.355,15.28 121.04,15.095 120.83,14.95 C120.62,14.81 120.235,14.59 119.675,14.285 C119.115,13.98 118.73,13.77 118.52,13.655 C117.845,13.26 117.37,12.98 117.105,12.815 C116.855,12.665 116.41,12.38 115.775,11.96 C115.155,11.55 114.705,11.19 114.43,10.875 C114.155,10.56 112.38,9.145 112.43,6.655 Z" id="Path"></path>
                    <path d="M131.265,21.73 L131.265,2.235 C131.28,2.16 130.88,1.84 130.085,1.58 C129.485,1.385 128.715,1.34 128.715,1.34 L128.715,0.63 L144.11,0.66 L145.035,5.135 L144,5.13 C144,5.13 143.65,3.78 142.47,2.78 C141.92,2.315 140.99,2.245 139.905,2.245 L134.165,2.25 L134.175,11.045 C134.175,11.045 139.415,11.04 139.705,11.04 C140.91,11.04 141.21,10.715 141.355,10.435 C141.585,9.99 141.85,8.915 141.85,8.915 L142.605,8.915 L142.605,15.18 L141.85,15.175 C141.85,15.175 141.8,14.545 141.44,13.78 C141.15,13.155 140.575,12.895 139.675,12.895 C138.725,12.895 134.175,12.9 134.175,12.9 L134.17,21.69 L138.69,21.72 C138.69,21.72 142.275,21.71 143.04,21.315 C143.385,21.13 143.675,20.81 144.095,19.98 C144.44,19.295 144.935,17.815 144.935,17.815 L146.045,17.815 L144.725,23.565 L128.715,23.53 L128.715,22.82 C129.86,22.67 130.8,22.195 131.265,21.73 Z" id="Path"></path>
                    <path d="M180.22,0.61 C182.83,0.61 184.27,1.48 185.055,1.945 C185.84,2.41 186.485,3.065 186.995,3.92 C187.505,4.775 187.755,5.77 187.755,6.9 C187.755,7.87 187.39,8.885 186.665,9.95 C185.935,11.015 184.68,11.935 183.435,12.51 C183.205,12.6 183.135,12.72 183.225,12.855 C184.38,15.28 185.635,17.595 187.135,19.235 C189.69,22.385 191.405,23.135 193.275,23.915 C193.64,24.07 193.525,24.3 193.24,24.31 C192.74,24.325 192.07,24.28 191.375,24.155 C188.315,23.62 185.75,21.605 183.605,18.61 C183.235,18.1 182.815,17.495 182.34,16.79 C181.865,16.085 180.365,13.595 180.145,13.41 C179.925,13.225 179.9,13.065 179.435,12.96 C179.17,12.9 178.305,12.82 177.705,12.82 C177.52,12.82 177.38,12.825 177.29,12.835 C177.2,12.845 177.105,12.9 177.015,12.99 C176.92,13.085 176.875,13.22 176.875,13.405 C176.875,13.405 176.965,21.16 177.15,21.62 C177.265,21.92 177.7,22.24 178.41,22.425 C179.115,22.61 179.955,22.785 179.955,22.785 L179.955,23.52 L171.115,23.52 L171.12,22.785 C171.12,22.785 171.975,22.605 172.54,22.45 C173.47,22.195 173.78,21.99 173.83,21.515 L173.825,2.38 C173.825,2.38 173.655,1.885 172.59,1.575 C171.985,1.4 171.22,1.335 171.22,1.335 L171.22,0.615 C171.23,0.63 179.55,0.61 180.22,0.61 Z M179.72,2.085 C178.68,2.085 178.245,2.075 177.715,2.17 C177.62,2.195 176.875,2.23 176.875,3.39 C176.875,3.935 176.875,10.33 176.875,10.33 C176.875,11 177.88,11.335 179.89,11.335 L180.755,11.335 C181.565,11.335 182.4,10.93 183.265,10.12 C184.13,9.31 184.565,8.24 184.565,6.895 C184.57,3.69 182.955,2.085 179.72,2.085 Z" id="Shape" fill-rule="nonzero"></path>
                    <path d="M211.915,17.285 L210.755,22.24 C210.755,22.24 209.86,22.71 209.31,22.9 C207.665,23.465 205.905,23.895 202.59,23.745 C199.585,23.61 197.03,22.64 194.92,20.43 C192.815,18.22 191.76,15.59 191.76,12.54 C191.76,9.305 192.93,6.485 195.03,4.12 C196.44,2.535 199.415,0.755 202.96,0.755 C207.725,0.755 210.585,2.155 210.585,2.155 L211.19,6.53 L210.03,6.87 C210.03,6.87 209.875,6.27 209.775,5.965 C209.67,5.655 209.06,3.805 205.95,2.585 C205.12,2.26 204.135,2.19 203.065,2.19 C201.475,2.19 199.19,3.175 197.62,5.145 C196.05,7.115 195.29,9.445 195.29,11.925 C195.29,13.77 195.58,15.36 196.22,16.91 C196.855,18.46 197.63,19.66 199.01,20.675 C200.385,21.69 201.995,22.275 203.885,22.275 C206.14,22.275 207.695,21.72 208.925,20.4 C209.245,20.06 209.655,19.505 209.895,18.945 C210.135,18.39 210.785,16.98 210.785,16.98 L211.915,17.285 Z" id="Path"></path>
                </g>
                <path d="M233.565,2.285 L233.565,21.885 C233.59,22.105 233.94,22.435 234.655,22.58 C235.255,22.7 235.955,22.8 235.955,22.8 L235.955,23.5 L227.9,23.5 L227.9,22.8 C227.9,22.8 228.63,22.71 229.22,22.595 C229.99,22.44 230.45,22.28 230.455,21.885 L230.435,12.64 L220.015,12.66 L220.01,21.87 L220.01,21.885 C220.015,22.135 220.385,22.435 221.1,22.58 C221.7,22.7 222.4,22.8 222.4,22.8 L222.4,23.5 L214.345,23.5 L214.345,22.8 C214.345,22.8 215.075,22.71 215.665,22.595 C216.435,22.44 216.89,22.28 216.895,21.885 L216.895,21.87 L216.895,2.275 C216.895,1.925 216.425,1.74 215.815,1.565 C215.235,1.4 214.495,1.34 214.495,1.34 L214.495,0.715 L222.585,0.715 L222.58,1.34 C222.58,1.34 221.63,1.405 221.175,1.53 C220.655,1.67 220.01,1.89 220.01,2.275 L220.03,10.825 L230.415,10.825 L230.45,2.285 L230.45,2.275 C230.45,1.925 229.975,1.74 229.36,1.565 C228.78,1.4 228.04,1.34 228.04,1.34 L228.04,0.715 L236.13,0.715 L236.125,1.34 C236.125,1.34 235.175,1.405 234.72,1.53 C234.2,1.67 233.555,1.89 233.555,2.275 L233.565,2.285 Z" id="Path"></path>
            </g>
            <g id="Group" transform="translate(105.500000, 224.000000)">
                <path d="M1.93,8.515 C1.375,8.515 0.45,8.54 0.365,8.54 C0.12,8.54 0.035,8.46 0.035,8.21 C0.035,8.125 0.06,6.855 0.06,6.2 L0.06,2.505 C0.06,1.93 0.035,0.74 0.035,0.54 C0.035,0.255 0.105,0.165 0.365,0.165 C0.495,0.165 1.375,0.19 1.93,0.19 L2.835,0.19 C4.53,0.19 5.53,0.635 5.53,2.07 C5.53,2.75 5.375,3.4 4.765,3.845 C4.67,3.915 4.61,3.965 4.61,4 C4.61,4.06 4.67,4.095 4.8,4.14 C5.485,4.41 5.93,5 5.93,5.965 C5.93,7.72 4.765,8.52 2.87,8.52 L1.93,8.52 L1.93,8.515 Z M1.39,3.235 C1.39,3.53 1.45,3.59 1.745,3.59 L2.685,3.59 C3.555,3.59 4.18,3.26 4.18,2.32 C4.18,1.545 3.545,1.345 2.825,1.345 L1.74,1.345 C1.445,1.345 1.385,1.405 1.385,1.7 L1.385,3.235 L1.39,3.235 Z M1.39,7.035 C1.39,7.33 1.45,7.39 1.745,7.39 L2.85,7.39 C3.825,7.39 4.545,6.93 4.545,5.955 C4.545,5.06 3.97,4.72 3.065,4.72 L1.75,4.72 C1.455,4.72 1.395,4.78 1.395,5.075 L1.395,7.035 L1.39,7.035 Z" id="Shape" fill-rule="nonzero"></path>
                <path d="M11.18,7.28 C11.745,7.28 12.805,7.245 12.885,7.245 C13.13,7.245 13.18,7.315 13.18,7.585 L13.18,8.195 C13.18,8.465 13.13,8.535 12.885,8.535 C12.805,8.535 11.745,8.51 11.18,8.51 L10.275,8.51 C9.72,8.51 8.795,8.535 8.71,8.535 C8.45,8.535 8.38,8.44 8.38,8.16 C8.39,7.5 8.405,6.76 8.405,6.195 L8.405,2.5 C8.405,1.925 8.395,1.135 8.38,0.535 C8.38,0.25 8.45,0.16 8.71,0.16 C8.795,0.16 9.72,0.185 10.275,0.185 L10.935,0.185 C11.5,0.185 12.56,0.16 12.64,0.16 C12.885,0.16 12.935,0.23 12.935,0.5 L12.935,1.135 C12.935,1.405 12.89,1.475 12.64,1.475 C12.56,1.475 11.5,1.44 10.935,1.44 L10.1,1.44 C9.805,1.44 9.745,1.5 9.745,1.795 L9.745,3.135 C9.745,3.43 9.805,3.49 10.1,3.49 L10.69,3.49 C11.245,3.49 12.315,3.465 12.395,3.465 C12.64,3.465 12.69,3.535 12.69,3.805 L12.69,4.38 C12.69,4.65 12.645,4.72 12.395,4.72 C12.315,4.72 11.24,4.695 10.69,4.695 L10.1,4.695 C9.805,4.695 9.745,4.755 9.745,5.05 L9.745,6.92 C9.745,7.215 9.805,7.275 10.1,7.275 L11.18,7.275 L11.18,7.28 Z" id="Path"></path>
                <path d="M18.745,6.165 C18.745,6.85 18.78,8.14 18.78,8.225 C18.78,8.47 18.71,8.52 18.44,8.52 L17.7,8.52 C17.43,8.52 17.36,8.475 17.36,8.225 C17.36,8.14 17.395,6.85 17.395,6.165 L17.395,1.81 C17.395,1.515 17.335,1.455 17.04,1.455 L16.675,1.455 C16.18,1.455 15.17,1.49 15.085,1.49 C14.84,1.49 14.79,1.42 14.79,1.15 L14.79,0.505 C14.79,0.235 14.835,0.165 15.085,0.165 C15.165,0.165 16.235,0.19 16.79,0.19 L19.355,0.19 C19.91,0.19 20.98,0.165 21.06,0.165 C21.305,0.165 21.355,0.235 21.355,0.505 L21.355,1.15 C21.355,1.42 21.31,1.49 21.06,1.49 C20.975,1.49 19.965,1.455 19.47,1.455 L19.095,1.455 C18.8,1.455 18.74,1.515 18.74,1.81 L18.74,6.165 L18.745,6.165 Z" id="Path"></path>
                <path d="M24.65,6.55 C24.345,6.55 24.26,6.575 24.155,6.83 C23.99,7.22 23.835,7.62 23.635,8.185 C23.53,8.465 23.47,8.515 23.165,8.515 L22.34,8.515 C22.15,8.515 22.07,8.49 22.07,8.395 C22.07,8.35 22.095,8.29 22.14,8.195 C22.505,7.37 22.765,6.785 23.01,6.205 L24.695,2.215 C24.905,1.71 25.155,1.145 25.4,0.51 C25.505,0.225 25.565,0.18 25.87,0.18 L26.375,0.18 C26.68,0.18 26.74,0.225 26.845,0.51 C27.09,1.145 27.325,1.71 27.54,2.205 L29.235,6.18 C29.495,6.79 29.755,7.38 30.115,8.19 C30.165,8.285 30.185,8.345 30.185,8.39 C30.185,8.485 30.1,8.51 29.915,8.51 L29.01,8.51 C28.705,8.51 28.645,8.465 28.54,8.18 C28.34,7.615 28.185,7.215 28.02,6.825 C27.915,6.565 27.845,6.545 27.525,6.545 L24.65,6.545 L24.65,6.55 Z M24.865,5.095 C24.83,5.18 24.82,5.25 24.82,5.295 C24.82,5.4 24.905,5.425 25.09,5.425 L27.1,5.425 C27.29,5.425 27.37,5.4 27.37,5.295 C27.37,5.25 27.36,5.175 27.325,5.095 L26.23,2.4 C26.185,2.285 26.15,2.21 26.1,2.21 C26.065,2.21 26.02,2.27 25.97,2.4 L24.865,5.095 Z" id="Shape" fill-rule="nonzero"></path>
            </g>
            <path d="M123.455,110.205 C123.455,110.995 124.015,111.32 124.7,110.925 L151.225,95.61 C151.91,95.215 152.47,94.245 152.47,93.455 L152.47,62.83 C152.47,62.04 151.91,61.715 151.225,62.11 L124.7,77.425 C124.015,77.82 123.455,78.79 123.455,79.58 L123.455,110.205 Z" id="Path" opacity="0.65"></path>
            <path d="M86.42,88.82 C86.42,89.61 86.98,89.935 87.665,89.54 L114.19,74.225 C114.875,73.83 115.435,72.86 115.435,72.07 L115.435,41.445 C115.435,40.655 114.875,40.33 114.19,40.725 L87.665,56.04 C86.98,56.435 86.42,57.405 86.42,58.195 L86.42,88.82 Z" id="Path" opacity="0.8"></path>
            <g id="Group" opacity="0.4" transform="translate(54.000000, 0.000000)">
                <path d="M70.7,40.725 C70.015,40.33 69.455,40.655 69.455,41.445 L69.455,67.44 C69.455,68.23 70.015,68.555 70.7,68.16 L93.21,55.165 C93.895,54.77 93.895,54.125 93.21,53.73 L70.7,40.725 Z" id="Path"></path>
                <g id="Path">
                    <path d="M97.225,132.305 C97.91,132.7 98.47,132.375 98.47,131.585 L98.47,105.59 C98.47,104.8 97.91,104.475 97.225,104.87 L74.715,117.865 C74.03,118.26 74.03,118.905 74.715,119.3 L97.225,132.305 Z"></path>
                    <path d="M107.74,62.11 C107.055,61.715 106.495,62.04 106.495,62.83 L106.495,88.825 C106.495,89.615 107.055,89.94 107.74,89.545 L130.25,76.55 C130.935,76.155 130.935,75.51 130.25,75.115 L107.74,62.11 Z"></path>
                    <path d="M33.665,19.34 C32.98,18.945 32.42,19.27 32.42,20.06 L32.42,46.055 C32.42,46.845 32.98,47.17 33.665,46.775 L56.175,33.78 C56.86,33.385 56.86,32.74 56.175,32.345 L33.665,19.34 Z"></path>
                    <path d="M60.185,110.925 C60.87,111.32 61.43,110.995 61.43,110.205 L61.43,84.21 C61.43,83.42 60.87,83.095 60.185,83.49 L37.675,96.485 C36.99,96.88 36.99,97.525 37.675,97.92 L60.185,110.925 Z"></path>
                    <path d="M23.15,89.54 C23.835,89.935 24.395,89.61 24.395,88.82 L24.395,62.825 C24.395,62.035 23.835,61.71 23.15,62.105 L0.64,75.1 C-0.045,75.495 -0.045,76.14 0.64,76.535 L23.15,89.54 Z"></path>
                    <path d="M61.43,150.495 C61.43,149.815 61.43,126.98 61.43,126.98 C61.43,126.19 60.87,125.865 60.185,126.26 L41.195,137.225 L37.675,139.26 C36.99,139.655 36.99,140.3 37.675,140.695 L48.935,147.195 C52.64,149.335 56.585,150.665 60.575,151.26 C60.86,151.3 61.435,151.29 61.43,150.495 Z"></path>
                    <path d="M69.455,1.155 C69.455,1.835 69.455,24.67 69.455,24.67 C69.455,25.46 70.015,25.785 70.7,25.39 L89.69,14.425 L93.21,12.39 C93.895,11.995 93.895,11.35 93.21,10.955 L81.95,4.455 C78.245,2.315 74.3,0.985 70.31,0.39 C70.03,0.35 69.455,0.355 69.455,1.155 Z"></path>
                </g>
            </g>
            <path d="M182.105,35.015 C182.615,34.725 182.595,34.375 182.48,34.12 C180.145,31.14 177.325,28.56 174.12,26.525 C174.005,26.455 173.89,26.385 173.77,26.315 C173.37,26.07 172.97,25.825 172.555,25.595 L172.555,25.59 L166.265,21.96 L157.72,17.025 C157.035,16.63 155.915,16.63 155.23,17.025 L128.705,32.34 C128.02,32.735 128.02,33.38 128.705,33.775 L141.965,41.43 L155.225,49.085 C155.91,49.48 157.03,49.48 157.715,49.085 L166.26,44.15 C172.095,40.78 181.54,35.33 182.07,35.02 L182.105,35.015 Z" id="Path"></path>
            <path d="M110.175,117.875 L83.65,102.56 C82.965,102.165 81.845,102.165 81.16,102.56 L72.745,107.415 C66.94,110.77 57.39,116.28 56.81,116.615 L56.78,116.63 C56.22,116.95 56.295,117.335 56.44,117.595 C56.625,117.83 56.81,118.075 57.005,118.305 C57.01,118.31 57.015,118.315 57.02,118.32 C58.035,119.535 59.13,120.68 60.305,121.74 C60.305,121.74 60.31,121.745 60.31,121.745 C60.675,122.075 61.05,122.395 61.43,122.71 C61.475,122.75 61.52,122.785 61.565,122.825 C61.895,123.09 62.23,123.35 62.565,123.605 C62.675,123.685 62.78,123.77 62.89,123.85 C63.165,124.05 63.445,124.245 63.725,124.44 C63.91,124.565 64.09,124.69 64.275,124.81 C64.49,124.95 64.71,125.09 64.93,125.225 C65.245,125.42 65.555,125.62 65.88,125.805 L72.74,129.765 L81.155,134.62 C81.84,135.015 82.96,135.015 83.645,134.62 L110.17,119.305 C110.86,118.915 110.86,118.27 110.175,117.875 Z" id="Path" opacity="0.5"></path>
            <g id="Group" opacity="0.15" transform="translate(49.000000, 0.000000)">
                <path d="M137.115,41.965 C136.525,42.31 116.75,53.72 116.75,53.72 C116.065,54.115 116.065,54.76 116.75,55.155 L135.74,66.12 L139.26,68.155 C139.945,68.55 140.505,68.225 140.505,67.435 L140.505,54.435 C140.505,50.155 139.685,46.07 138.205,42.32 C138.1,42.055 137.805,41.565 137.115,41.965 Z" id="Path"></path>
                <path d="M3.77,41.965 C4.36,42.31 24.135,53.72 24.135,53.72 C24.82,54.115 24.82,54.76 24.135,55.155 L5.145,66.12 L1.625,68.155 C0.94,68.55 0.38,68.225 0.38,67.435 L0.38,54.435 C0.38,50.155 1.2,46.07 2.68,42.32 C2.785,42.055 3.08,41.565 3.77,41.965 Z" id="Path"></path>
                <path d="M137.115,109.685 C136.525,109.34 116.75,97.93 116.75,97.93 C116.065,97.535 116.065,96.89 116.75,96.495 L135.74,85.53 L139.26,83.495 C139.945,83.1 140.505,83.425 140.505,84.215 L140.505,97.215 C140.505,101.495 139.685,105.58 138.205,109.33 C138.1,109.595 137.805,110.085 137.115,109.685 Z" id="Path"></path>
                <path d="M3.77,109.685 C4.36,109.34 24.135,97.93 24.135,97.93 C24.82,97.535 24.82,96.89 24.135,96.495 L5.145,85.53 L1.625,83.495 C0.94,83.1 0.38,83.425 0.38,84.215 L0.38,97.215 C0.38,101.495 1.2,105.58 2.68,109.33 C2.785,109.595 3.08,110.085 3.77,109.685 Z" id="Path"></path>
                <path d="M7.785,35.015 C8.375,35.355 28.15,46.77 28.15,46.77 C28.835,47.165 29.395,46.84 29.395,46.05 L29.395,24.12 L29.395,20.055 C29.395,19.265 28.835,18.94 28.15,19.335 L16.89,25.835 C13.185,27.975 10.055,30.725 7.55,33.885 C7.37,34.115 7.09,34.615 7.785,35.015 Z" id="Path"></path>
                <path d="M74.455,150.495 C74.455,149.815 74.455,126.98 74.455,126.98 C74.455,126.19 75.015,125.865 75.7,126.26 L94.69,137.225 L98.21,139.26 C98.895,139.655 98.895,140.3 98.21,140.695 L86.95,147.195 C83.245,149.335 79.3,150.665 75.31,151.26 C75.03,151.3 74.455,151.29 74.455,150.495 Z" id="Path"></path>
                <path d="M66.43,1.155 C66.43,1.835 66.43,24.67 66.43,24.67 C66.43,25.46 65.87,25.785 65.185,25.39 L46.195,14.425 L42.675,12.39 C41.99,11.995 41.99,11.35 42.675,10.955 L53.935,4.455 C57.64,2.315 61.585,0.985 65.575,0.39 C65.86,0.35 66.435,0.355 66.43,1.155 Z" id="Path"></path>
                <path d="M133.105,116.635 C132.515,116.295 112.74,104.88 112.74,104.88 C112.055,104.485 111.495,104.81 111.495,105.6 L111.495,127.53 L111.495,131.595 C111.495,132.385 112.055,132.71 112.74,132.315 L124,125.815 C127.705,123.675 130.835,120.925 133.34,117.765 C133.515,117.535 133.795,117.03 133.105,116.635 Z" id="Path"></path>
            </g>
        </g>
    </g>
</svg>