<?xml version="1.0" encoding="UTF-8"?>
<svg width="600px" height="300px" viewBox="0 0 600 300" version="1.1" xmlns="http://www.w3.org/2000/svg" xmlns:xlink="http://www.w3.org/1999/xlink">
    <!-- Generator: Sketch 52.5 (67469) - http://www.bohemiancoding.com/sketch -->
    <title>brand/logo-minimal-white</title>
    <desc>Created with Sketch.</desc>
    <defs>
        <polygon id="path-1" points="0.5926 0.8035 15.5066 0.8035 15.5066 22 0.5926 22"></polygon>
        <polygon id="path-3" points="0.6952 0.8035 12.8412 0.8035 12.8412 22 0.6952 22"></polygon>
        <polygon id="path-5" points="0.8851 0.0983 54.307 0.0983 54.307 55.9913 0.8851 55.9913"></polygon>
    </defs>
    <g id="brand/logo-minimal-white" stroke="none" stroke-width="1" fill="none" fill-rule="evenodd">
        <g transform="translate(0.000000, 20.000000)">
            <g id="Group-3" transform="translate(268.000000, 237.618000)">
                <mask id="mask-2" fill="white">
                    <use xlink:href="#path-1"></use>
                </mask>
                <g id="Clip-2"></g>
                <path d="M4.0156,18.1895 C4.0156,18.9335 4.1646,19.0835 4.9096,19.0835 L7.7076,19.0835 C10.1786,19.0835 11.9946,17.9215 11.9946,15.4515 C11.9946,13.1885 10.5366,12.3255 8.2436,12.3255 L4.9096,12.3255 C4.1646,12.3255 4.0156,12.4735 4.0156,13.2175 L4.0156,18.1895 Z M4.0156,8.5745 C4.0156,9.3185 4.1646,9.4665 4.9096,9.4665 L7.2906,9.4665 C9.4946,9.4665 11.0716,8.6335 11.0716,6.2515 C11.0716,4.2875 9.4636,3.7815 7.6486,3.7815 L4.9096,3.7815 C4.1646,3.7815 4.0156,3.9295 4.0156,4.6735 L4.0156,8.5745 Z M5.3856,21.9405 C3.9866,21.9405 1.6346,22.0005 1.4256,22.0005 C0.8006,22.0005 0.5926,21.7925 0.5926,21.1675 C0.5926,20.9585 0.6526,17.7435 0.6526,16.0765 L0.6526,6.7285 C0.6526,5.2695 0.5926,2.2625 0.5926,1.7565 C0.5926,1.0425 0.7716,0.8035 1.4256,0.8035 C1.7536,0.8035 3.9866,0.8635 5.3856,0.8635 L7.6776,0.8635 C11.9646,0.8635 14.4946,1.9955 14.4946,5.6265 C14.4946,7.3535 14.1086,8.9905 12.5606,10.1225 C12.3226,10.3005 12.1726,10.4195 12.1726,10.5085 C12.1726,10.6585 12.3226,10.7475 12.6496,10.8665 C14.3756,11.5505 15.5066,13.0395 15.5066,15.4805 C15.5066,19.9165 12.5606,21.9405 7.7676,21.9405 L5.3856,21.9405 Z" id="Fill-1" fill="#FFFFFE" mask="url(#mask-2)"></path>
            </g>
            <g id="Group-6" transform="translate(289.000000, 237.618000)">
                <mask id="mask-4" fill="white">
                    <use xlink:href="#path-3"></use>
                </mask>
                <g id="Clip-5"></g>
                <path d="M7.7802,18.8145 C9.2092,18.8145 11.8882,18.7255 12.0962,18.7255 C12.7212,18.7255 12.8412,18.9045 12.8412,19.5885 L12.8412,21.1365 C12.8412,21.8215 12.7212,22.0005 12.0962,22.0005 C11.8882,22.0005 9.2092,21.9405 7.7802,21.9405 L5.4882,21.9405 C4.0892,21.9405 1.7372,22.0005 1.5282,22.0005 C0.8742,22.0005 0.6952,21.7615 0.6952,21.0475 C0.7242,19.3795 0.7552,17.5045 0.7552,16.0765 L0.7552,6.7285 C0.7552,5.2695 0.7242,3.2745 0.6952,1.7565 C0.6952,1.0425 0.8742,0.8035 1.5282,0.8035 C1.7372,0.8035 4.0892,0.8635 5.4882,0.8635 L7.1552,0.8635 C8.5842,0.8635 11.2632,0.8035 11.4712,0.8035 C12.0962,0.8035 12.2162,0.9825 12.2162,1.6675 L12.2162,3.2745 C12.2162,3.9605 12.0962,4.1375 11.4712,4.1375 C11.2632,4.1375 8.5842,4.0485 7.1552,4.0485 L5.0412,4.0485 C4.2972,4.0485 4.1482,4.1975 4.1482,4.9425 L4.1482,8.3355 C4.1482,9.0805 4.2972,9.2285 5.0412,9.2285 L6.5302,9.2285 C7.9282,9.2285 10.6382,9.1685 10.8462,9.1685 C11.4712,9.1685 11.5912,9.3475 11.5912,10.0325 L11.5912,11.4915 C11.5912,12.1755 11.4712,12.3545 10.8462,12.3545 C10.6382,12.3545 7.9282,12.2945 6.5302,12.2945 L5.0412,12.2945 C4.2972,12.2945 4.1482,12.4445 4.1482,13.1885 L4.1482,17.9215 C4.1482,18.6665 4.2972,18.8145 5.0412,18.8145 L7.7802,18.8145 Z" id="Fill-4" fill="#FFFFFE" mask="url(#mask-4)"></path>
            </g>
            <path d="M315.9179,253.6043 C315.9179,255.3313 316.0079,258.6063 316.0079,258.8143 C316.0079,259.4393 315.8289,259.5583 315.1449,259.5583 L313.2689,259.5583 C312.5839,259.5583 312.4049,259.4393 312.4049,258.8143 C312.4049,258.6063 312.4939,255.3313 312.4939,253.6043 L312.4939,242.5893 C312.4939,241.8453 312.3459,241.6973 311.6019,241.6973 L310.6789,241.6973 C309.4289,241.6973 306.8679,241.7863 306.6599,241.7863 C306.0339,241.7863 305.9149,241.6073 305.9149,240.9223 L305.9149,239.2853 C305.9149,238.6003 306.0339,238.4213 306.6599,238.4213 C306.8679,238.4213 309.5769,238.4813 310.9769,238.4813 L317.4659,238.4813 C318.8649,238.4813 321.5739,238.4213 321.7829,238.4213 C322.4079,238.4213 322.5269,238.6003 322.5269,239.2853 L322.5269,240.9223 C322.5269,241.6073 322.4079,241.7863 321.7829,241.7863 C321.5739,241.7863 319.0149,241.6973 317.7639,241.6973 L316.8119,241.6973 C316.0669,241.6973 315.9179,241.8453 315.9179,242.5893 L315.9179,253.6043 Z" id="Fill-7" fill="#FFFFFE"></path>
            <path d="M331.3945,250.8953 C331.3045,251.1043 331.2755,251.2823 331.2755,251.4013 C331.2755,251.6693 331.4835,251.7293 331.9595,251.7293 L337.0505,251.7293 C337.5275,251.7293 337.7355,251.6693 337.7355,251.4013 C337.7355,251.2823 337.7065,251.1043 337.6165,250.8953 L334.8475,244.0783 C334.7285,243.7803 334.6395,243.6013 334.5205,243.6013 C334.4305,243.6013 334.3115,243.7503 334.1925,244.0783 L331.3945,250.8953 Z M330.8585,254.5863 C330.0845,254.5863 329.8755,254.6463 329.6085,255.3013 C329.1915,256.2843 328.8045,257.2953 328.2985,258.7253 C328.0305,259.4393 327.8815,259.5583 327.1075,259.5583 L325.0235,259.5583 C324.5475,259.5583 324.3385,259.4993 324.3385,259.2603 C324.3385,259.1413 324.3985,258.9933 324.5175,258.7543 C325.4405,256.6703 326.0955,255.1823 326.7205,253.7233 L330.9775,243.6313 C331.5135,242.3513 332.1385,240.9223 332.7635,239.3153 C333.0325,238.6003 333.1805,238.4813 333.9555,238.4813 L335.2345,238.4813 C336.0085,238.4813 336.1575,238.6003 336.4255,239.3153 C337.0505,240.9223 337.6465,242.3513 338.1815,243.6013 L342.4685,253.6643 C343.1235,255.2113 343.7785,256.7013 344.7015,258.7543 C344.8205,258.9933 344.8795,259.1413 344.8795,259.2603 C344.8795,259.4993 344.6715,259.5583 344.1955,259.5583 L341.9035,259.5583 C341.1285,259.5583 340.9805,259.4393 340.7125,258.7253 C340.2065,257.2953 339.8195,256.2843 339.4025,255.3013 C339.1345,254.6463 338.9565,254.5863 338.1525,254.5863 L330.8585,254.5863 Z" id="Fill-9" fill="#FFFFFE"></path>
            <path d="M270.3964,31.9559 L270.4004,34.4209 C270.4004,34.4209 268.4824,34.6189 267.0094,35.0159 C265.5364,35.4119 264.9474,35.8339 264.6294,36.2049 C263.7874,37.1419 263.8654,40.8229 263.8654,44.1079 L263.8654,80.9929 C263.8654,88.1329 262.0254,94.3369 258.0304,99.6039 C254.0364,104.8739 248.9504,107.5659 242.7754,107.5099 C237.7114,107.4629 237.3364,104.3079 237.3364,103.0049 C237.3364,101.7579 237.8184,99.8939 240.3774,99.1159 C242.4164,98.4979 245.0394,99.6179 246.0464,100.5829 C247.3224,101.8009 248.3274,102.4099 249.0644,102.4099 C249.8574,102.4099 250.6654,102.0129 251.4874,101.2199 C252.3064,100.4259 253.1144,99.2659 253.9084,97.7349 C254.7014,96.2059 255.5734,94.0379 256.0834,91.2339 C256.5924,88.4299 256.8484,85.2429 256.8484,81.6729 L256.8484,43.7689 C256.8484,40.2559 256.9874,37.1109 256.2534,36.2049 C256.0834,35.7519 255.2764,35.3419 253.8314,34.9739 C252.3864,34.6049 250.3384,34.4209 250.3384,34.4209 L250.3384,31.9559 L270.3964,31.9559 Z" id="Fill-11" fill="#FFFFFE"></path>
            <path d="M306.5507,62.4764 L299.5647,43.5134 L292.2557,62.4664 L306.5507,62.4764 Z M302.4777,32.7114 L319.2807,76.9974 C320.3017,79.6624 321.1217,82.3604 321.7457,83.7764 C322.0867,84.6254 322.9637,85.3214 324.3807,85.8584 C325.7967,86.3984 327.5257,86.6654 327.5257,86.6654 L327.6957,88.4714 L308.4877,88.4714 L308.5727,86.6654 C308.5727,86.6654 310.1027,86.5264 311.1227,86.2414 C312.1427,85.9584 312.6467,85.5444 312.9077,85.1364 C314.0957,83.2794 311.8877,77.2534 311.8877,77.2534 L308.4017,67.6014 L290.3217,67.6014 L286.5627,77.0834 C285.5977,79.9174 285.1167,82.5314 285.1167,83.6064 C285.1167,84.4004 285.3417,84.9664 285.7967,85.3064 C286.3067,85.7044 287.1267,86.0294 288.2617,86.2834 C289.3937,86.5384 290.7267,86.6654 290.7267,86.6654 L290.8967,88.4714 L273.3037,88.4714 L273.3037,86.6654 C273.3037,86.6654 274.8607,86.5264 275.9387,86.2414 C277.0137,85.9584 277.7507,85.5614 278.1487,85.0504 C279.3367,83.5214 280.6687,80.2004 282.1427,76.4034 L296.9297,38.4144 C297.0427,38.1314 299.2077,33.1644 299.4047,32.8374 C300.0727,31.7264 301.0647,31.8204 301.4337,31.8704 C301.8117,31.9304 302.3057,32.2774 302.4777,32.7114 Z" id="Fill-13" fill="#FFFFFE"></path>
            <path d="M402.2343,62.4764 L395.2493,43.5134 L387.9393,62.4664 L402.2343,62.4764 Z M398.1623,32.7114 L414.9653,76.9974 C415.9853,79.6624 416.8063,82.4294 417.4303,83.8454 C417.7703,84.6954 418.6483,85.3904 420.0653,85.9274 C421.4813,86.4674 423.2093,86.7354 423.2093,86.7354 L423.3803,88.4714 L404.1713,88.4714 L404.2573,86.7354 C404.2573,86.7354 405.7873,86.5954 406.8063,86.3104 C407.8273,86.0284 408.3313,85.6144 408.5913,85.2054 C409.7793,83.3484 407.5723,77.2534 407.5723,77.2534 L404.0853,67.6014 L386.0053,67.6014 L382.2463,77.0834 C381.2823,79.9174 380.8013,82.6004 380.8013,83.6754 C380.8013,84.4694 381.0263,85.0364 381.4813,85.3754 C381.9903,85.7734 382.8113,86.0974 383.9453,86.3524 C385.0783,86.6084 386.4103,86.7354 386.4103,86.7354 L386.5803,88.4714 L368.9883,88.4714 L368.9883,86.7354 C368.9883,86.7354 370.5453,86.5954 371.6233,86.3104 C372.6983,86.0284 373.4353,85.6304 373.8323,85.1204 C375.0213,83.5904 376.3523,80.2004 377.8263,76.4034 L392.6143,38.4144 C392.7273,38.1314 394.8913,33.1644 395.0883,32.8374 C395.7563,31.7264 396.7483,31.8204 397.1173,31.8704 C397.4963,31.9304 397.9893,32.2774 398.1623,32.7114 Z" id="Fill-15" fill="#FFFFFE"></path>
            <path d="M332.2089,32.2957 C332.2089,32.2957 352.7569,32.1727 354.3989,32.2487 C360.5679,32.5327 363.7819,34.3927 365.5669,35.5247 C367.3519,36.6587 368.8099,38.2747 369.9429,40.3687 C371.0769,42.4657 371.7079,44.9027 371.6429,47.6777 C371.5769,50.4707 370.2549,59.0647 361.9969,62.9337 C358.2349,64.6957 354.8829,64.4447 351.6499,63.4197 C350.0329,62.9067 348.6879,62.1027 347.7649,61.1577 C347.3379,60.4927 347.9529,60.0497 348.3189,60.2907 C350.0189,60.9147 351.4549,61.1577 353.5529,61.1577 C356.3849,61.1577 358.8569,60.1857 361.0729,57.9687 C363.2229,55.8197 365.0939,51.8987 365.0939,48.6107 C365.0939,44.5887 364.0079,42.1607 362.2519,39.8087 C360.4959,37.4577 356.7139,35.8647 353.0309,35.8647 C350.4809,35.8647 348.4969,36.0647 347.0819,36.4597 C346.7979,36.5167 346.5999,36.7297 346.4869,37.0977 C346.3729,37.4667 346.2749,38.3297 346.1889,39.6907 C346.1049,41.0487 346.0629,43.0887 346.0629,45.8087 L346.0629,76.1487 C346.0629,79.9457 346.2879,83.0687 346.7419,84.2007 C347.0239,84.9387 348.0299,85.5337 349.7599,85.9857 C351.4859,86.4407 353.4559,86.6657 353.4559,86.6657 L353.6269,88.4717 L332.2089,88.4717 L332.2089,86.7157 C332.2089,86.7157 334.1059,86.5467 335.5229,86.2067 C336.9389,85.8657 337.7889,85.2217 338.0729,84.7117 C338.4699,84.0307 338.6689,80.7097 338.6689,76.0647 L338.6689,43.9387 C338.6689,40.5967 338.5889,37.7547 338.0729,36.6297 C337.9029,36.1767 337.0069,35.2497 335.5659,34.6717 C334.1159,34.0887 332.9449,34.0457 332.2089,34.0457 L332.2089,32.2957 Z" id="Fill-17" fill="#FFFFFE"></path>
            <path d="M471.8154,43.6834 C471.8154,40.2284 471.6164,37.7344 471.2204,36.2044 C470.9904,35.4174 470.0954,34.9314 468.3104,34.5064 C466.5254,34.0814 464.5064,34.0324 464.5064,34.0324 L464.5064,31.9554 L484.0534,31.9554 L484.0224,34.0324 C484.0224,34.0324 482.0844,34.1204 480.1864,34.5724 C478.2884,35.0274 477.4604,35.4644 477.1694,36.2044 C476.7154,37.9614 476.4904,40.5964 476.4904,44.1084 L476.4864,88.6244 L473.5744,88.6414 L472.1314,86.6874 L439.3504,39.9444 L439.3504,76.2344 C439.3504,79.9734 439.4134,82.6074 439.8094,84.1364 C440.2254,85.3144 441.0224,85.5124 442.7934,85.9944 C444.6344,86.4954 446.4814,86.7024 446.4814,86.7024 L446.4904,88.4714 L426.9434,88.4714 L426.9434,86.6894 C426.9434,86.6894 429.0254,86.4184 430.8084,85.9944 C432.5934,85.5694 433.4324,85.2804 433.9184,84.1364 C434.4834,82.6634 434.5914,79.8314 434.5914,75.9784 L434.5914,42.5794 C434.5914,39.8034 434.3924,37.6784 433.9964,36.2044 C433.8264,35.7514 432.8624,35.3414 431.1074,34.9734 C429.3494,34.6054 427.2824,34.4204 427.2824,34.4204 L427.2824,31.9554 L442.7514,31.9554 C442.7514,31.9554 454.4484,49.6894 471.5604,73.5994 C471.7314,72.6364 471.8154,71.4744 471.8154,70.1154 L471.8154,43.6834 Z" id="Fill-19" fill="#FFFFFE"></path>
            <path d="M386.4355,156.6746 L379.4495,137.7116 L372.1405,156.6636 L386.4355,156.6746 Z M382.3625,126.9096 L399.1665,171.1956 C400.1865,173.8606 401.3035,176.5586 401.9275,177.9746 C402.2675,178.8236 402.8485,179.5196 404.2655,180.0566 C405.6815,180.5956 407.4105,180.8636 407.4105,180.8636 L407.5805,182.6696 L388.3725,182.6696 L388.4575,180.8636 C388.4575,180.8636 389.9875,180.7236 391.0075,180.4396 C392.0275,180.1556 392.4585,179.6856 392.7925,179.3346 C394.3025,177.7436 391.7725,171.4516 391.7725,171.4516 L388.2865,161.7996 L370.2065,161.7996 L366.4475,171.2816 C365.4825,174.1156 365.0015,176.7286 365.0015,177.8046 C365.0015,178.5986 365.2265,179.1636 365.6815,179.5046 C366.1915,179.9016 367.0115,180.2266 368.1465,180.4816 C369.2785,180.7366 370.6115,180.8636 370.6115,180.8636 L370.7815,182.6696 L353.1885,182.6696 L353.1885,180.8636 C353.1885,180.8636 354.7465,180.7236 355.8235,180.4396 C356.8985,180.1556 357.6355,179.7596 358.0335,179.2486 C359.2225,177.7196 360.5535,174.3986 362.0275,170.6016 L376.8145,132.6126 C376.9285,132.3286 379.0925,127.3626 379.2895,127.0346 C379.9575,125.9246 380.9495,126.0186 381.3185,126.0686 C381.6965,126.1286 382.1905,126.4756 382.3625,126.9096 Z" id="Fill-21" fill="#FFFFFE"></path>
            <path d="M267.9013,141.2801 C267.9963,136.8761 269.5913,132.9561 272.9693,130.1241 C276.3443,127.2921 280.2613,126.1741 284.7243,126.1741 C285.9823,126.1741 288.7053,126.3971 289.8133,126.5891 C293.4183,127.2131 297.6843,128.5781 297.6843,128.5781 L298.7143,140.8511 L296.3293,140.7991 C296.3293,140.7991 295.9303,136.9831 292.6553,133.3131 C290.5253,130.9261 287.7343,129.8471 284.1243,129.6931 C280.6933,129.5471 277.9743,130.6941 276.5743,132.4121 C275.1713,134.1281 274.7653,136.1021 274.7673,138.6191 C274.7723,143.2951 277.6993,145.6571 278.7593,146.5151 C279.8183,147.3741 280.5893,147.9741 281.0773,148.3181 C281.5623,148.6621 282.5363,149.2921 283.9953,150.2071 C285.4543,151.1231 286.3823,151.6951 286.7843,151.9231 C287.0703,152.0941 288.0723,152.7101 289.7893,153.7681 C291.5053,154.8291 292.6773,155.5711 293.3073,156.0001 C293.9363,156.4291 294.9513,157.1701 296.2683,158.3171 C300.9043,162.3561 301.7183,167.1151 301.7183,168.4881 C301.7183,173.0671 300.0433,177.0161 296.4673,179.9631 C292.8903,182.9101 288.5873,184.1951 283.7803,184.1951 C282.4073,184.1951 280.9483,184.0951 279.4033,183.8951 C277.8573,183.6941 276.5703,183.4941 275.5413,183.2951 C274.5103,183.0941 273.2093,182.8091 271.6343,182.4361 C270.0613,182.0641 268.3313,181.7061 268.3313,181.7061 L266.3743,168.0591 L268.8613,168.0401 C268.8613,168.0401 269.2623,170.5791 271.3813,174.1091 C273.9033,178.3091 278.5633,180.6761 283.9523,180.6761 C286.8123,180.6761 289.2443,179.8181 291.2483,178.1011 C293.2513,176.3841 294.2513,173.9541 294.2513,170.8061 C294.2513,169.6621 293.9033,166.0301 290.6893,163.2101 C289.7993,162.4281 289.0153,161.9661 288.5023,161.6221 C287.9863,161.2791 287.0423,160.7351 285.6693,159.9911 C284.2953,159.2491 283.3513,158.7331 282.8363,158.4461 C281.1753,157.4731 280.0173,156.7871 279.3603,156.3861 C278.7473,156.0141 277.6583,155.3141 276.0983,154.2841 C274.5813,153.2831 273.4803,152.3951 272.7943,151.6231 C272.1083,150.8501 267.7713,147.3841 267.9013,141.2801" id="Fill-23" fill="#FFFFFE"></path>
            <path d="M314.0966,178.2508 L314.0966,130.4398 C314.1296,130.2518 313.1466,129.4658 311.2016,128.8348 C309.7256,128.3558 307.8456,128.2408 307.8456,128.2408 L307.8456,126.4938 L345.6036,126.5638 L347.8736,137.5408 L345.3326,137.5258 C345.3326,137.5258 344.4786,134.2128 341.5846,131.7678 C340.2386,130.6288 337.9576,130.4498 335.2956,130.4498 L321.2186,130.4568 L321.2456,152.0328 C321.2456,152.0328 334.1006,152.0268 334.8096,152.0268 C337.7636,152.0268 338.4996,151.2318 338.8526,150.5448 C339.4156,149.4488 340.0706,146.8138 340.0706,146.8138 L341.9256,146.8158 L341.9256,162.1768 L340.0706,162.1648 C340.0706,162.1648 339.9476,160.6238 339.0666,158.7458 C338.3496,157.2178 336.9486,156.5798 334.7376,156.5798 C332.4086,156.5798 321.2456,156.5958 321.2456,156.5958 L321.2366,178.1488 L332.3216,178.2238 C332.3216,178.2238 341.1176,178.1948 342.9886,177.2308 C343.8376,176.7778 344.5506,175.9878 345.5766,173.9548 C346.4226,172.2798 347.6316,168.6468 347.6316,168.6468 L350.3486,168.6468 L347.1096,182.7548 L307.8456,182.6698 L307.8456,180.9338 C310.6426,180.5518 312.9526,179.3938 314.0966,178.2508" id="Fill-25" fill="#FFFFFE"></path>
            <path d="M432.9355,130.0623 C430.3845,130.0623 429.3135,130.0383 428.0215,130.2663 C427.7945,130.3233 425.9645,130.4093 425.9645,133.2633 C425.9645,134.5983 425.9655,150.2893 425.9655,150.2893 C425.9655,151.9343 428.4305,152.7533 433.3605,152.7533 L435.4845,152.7533 C437.4675,152.7533 439.5215,151.7633 441.6455,149.7803 C443.7715,147.7963 444.8325,145.1633 444.8325,141.8753 C444.8325,134.0003 440.8665,130.0623 432.9355,130.0623 M434.1645,126.4533 C440.5715,126.4533 444.0955,128.5903 446.0235,129.7223 C447.9485,130.8573 449.5365,132.4713 450.7825,134.5673 C452.0285,136.6643 452.6525,139.1003 452.6525,141.8753 C452.6525,144.2553 451.7595,146.7493 449.9745,149.3553 C448.1905,151.9613 445.1105,154.2173 442.0505,155.6323 C441.4845,155.8593 441.3145,156.1433 441.5405,156.4823 C444.3735,162.4313 447.4475,168.1083 451.1305,172.1293 C457.3935,179.8613 461.5975,181.6953 466.1865,183.6093 C467.0855,183.9843 466.7985,184.5553 466.1045,184.5733 C464.8825,184.6043 463.2355,184.4953 461.5295,184.1973 C454.0295,182.8903 447.7285,177.9433 442.4765,170.6013 C441.5705,169.3553 440.5365,167.8683 439.3745,166.1403 C438.2135,164.4123 434.5285,158.3083 433.9905,157.8533 C433.4515,157.4003 433.3845,157.0063 432.2485,156.7493 C431.6005,156.6023 429.4785,156.4083 428.0055,156.4083 C427.5505,156.4083 427.2115,156.4223 426.9865,156.4513 C426.7585,156.4803 426.5325,156.6073 426.3065,156.8333 C426.0785,157.0613 425.9655,157.4003 425.9655,157.8533 C425.9655,157.8533 426.1925,176.8703 426.6455,178.0023 C426.9295,178.7403 428.0005,179.5233 429.7305,179.9763 C431.4565,180.4293 433.5255,180.8623 433.5255,180.8623 L433.5305,182.6693 L411.8545,182.6693 L411.8695,180.8733 C411.8695,180.8733 413.9645,180.4323 415.3455,180.0503 C417.6265,179.4213 418.3905,178.9183 418.5045,177.7593 L418.4945,130.8283 C418.4945,130.8283 418.0805,129.6113 415.4705,128.8533 C413.9925,128.4233 412.1125,128.2583 412.1125,128.2583 L412.1125,126.4943 C412.1125,126.4943 432.5215,126.4533 434.1645,126.4533" id="Fill-27" fill="#FFFFFE"></path>
            <path d="M511.8964,167.3436 L509.0464,179.4906 C509.0464,179.4906 506.8454,180.6436 505.5014,181.1046 C501.4704,182.4876 497.1464,183.5426 489.0264,183.1766 C481.6614,182.8446 475.3834,180.4686 470.2184,175.0506 C465.0514,169.6356 462.4684,163.1846 462.4684,155.6996 C462.4684,147.7706 465.3364,140.8546 470.4914,135.0456 C473.9454,131.1536 481.2434,126.7976 489.9474,126.7976 C501.6394,126.7976 508.6494,130.2306 508.6494,130.2306 L510.1364,140.9546 L507.2884,141.7926 C507.2884,141.7926 506.9114,140.3266 506.6604,139.5726 C506.4084,138.8186 504.9044,134.2726 497.2774,131.2796 C495.2384,130.4796 492.8224,130.3156 490.1984,130.3156 C486.2944,130.3156 480.6984,132.7326 476.8444,137.5626 C472.9914,142.3936 471.1274,148.1086 471.1274,154.1956 C471.1274,158.7186 471.8444,162.6246 473.4094,166.4226 C474.9724,170.2216 476.8714,173.1716 480.2504,175.6566 C483.6284,178.1426 487.5724,179.5746 492.2094,179.5746 C497.7384,179.5746 501.5584,178.2146 504.5754,174.9746 C505.3554,174.1376 506.3634,172.7766 506.9504,171.4066 C507.5364,170.0396 509.1314,166.5896 509.1314,166.5896 L511.8964,167.3436 Z" id="Fill-29" fill="#FFFFFE"></path>
            <g id="Group-33" transform="translate(517.000000, 126.618000)">
                <mask id="mask-6" fill="white">
                    <use xlink:href="#path-5"></use>
                </mask>
                <g id="Clip-32"></g>
                <path d="M47.9951,3.9453 L47.9951,52.0223 C48.0601,52.5583 48.9151,53.3683 50.6681,53.7233 C52.1391,54.0213 53.8591,54.2683 53.8591,54.2683 L53.8621,55.9913 L34.1091,55.9913 L34.1091,54.2683 C34.1091,54.2683 35.9061,54.0493 37.3461,53.7643 C39.2341,53.3903 40.3661,52.9983 40.3801,52.0223 L40.3291,29.3443 L14.7781,29.3883 L14.7681,51.9813 L14.7701,52.0223 C14.7821,52.6333 15.6901,53.3683 17.4431,53.7233 C18.9141,54.0213 20.6351,54.2683 20.6351,54.2683 L20.6381,55.9913 L0.8851,55.9913 L0.8851,54.2683 C0.8851,54.2683 2.6821,54.0493 4.1211,53.7643 C6.0101,53.3903 7.1201,52.9983 7.1341,52.0223 L7.1331,51.9813 L7.1331,3.9223 C7.1331,3.0673 5.9851,2.6053 4.4811,2.1813 C3.0621,1.7813 1.2451,1.6343 1.2451,1.6343 L1.2451,0.0983 L21.0821,0.0983 L21.0731,1.6343 C21.0731,1.6343 18.7391,1.7973 17.6311,2.0963 C16.3521,2.4433 14.7681,2.9743 14.7681,3.9223 L14.8181,24.8933 L40.2891,24.8933 L40.3801,3.9453 L40.3801,3.9213 C40.3801,3.0663 39.2111,2.6053 37.7071,2.1813 C36.2881,1.7813 34.4711,1.6343 34.4711,1.6343 L34.4711,0.0983 L54.3071,0.0983 L54.2991,1.6343 C54.2991,1.6343 51.9651,1.7973 50.8551,2.0963 C49.5781,2.4433 47.9941,2.9743 47.9941,3.9223 L47.9951,3.9453 Z" id="Fill-31" fill="#FFFFFE" mask="url(#mask-6)"></path>
            </g>
            <path d="M106.456,158.8348 C106.456,159.9708 107.261,160.4348 108.244,159.8668 L146.361,137.8598 C147.345,137.2918 148.149,135.8978 148.149,134.7628 L148.149,90.7488 C148.149,89.6128 147.345,89.1478 146.361,89.7168 L108.244,111.7238 C107.261,112.2908 106.456,113.6848 106.456,114.8198 L106.456,158.8348 Z" id="Fill-34" fill="#FFFFFE"></path>
            <path d="M53.2275,128.1034 C53.2275,129.2394 54.0325,129.7044 55.0165,129.1354 L93.1335,107.1284 C94.1175,106.5614 94.9215,105.1664 94.9215,104.0314 L94.9215,60.0174 C94.9215,58.8814 94.1175,58.4164 93.1335,58.9854 L55.0165,80.9924 C54.0325,81.5594 53.2275,82.9544 53.2275,84.0894 L53.2275,128.1034 Z" id="Fill-36" fill="#FFFFFE"></path>
            <path d="M196.5029,60.7664 C195.6549,61.2594 167.2379,77.6624 167.2379,77.6624 C166.2549,78.2304 166.2559,79.1604 167.2389,79.7274 L194.5289,95.4834 L199.5889,98.4044 C200.5719,98.9724 201.3769,98.5074 201.3769,97.3714 L201.3769,78.6904 C201.3769,72.5424 200.1999,66.6724 198.0699,61.2834 C197.9179,60.8974 197.4949,60.1904 196.5029,60.7664" id="Fill-38" fill-opacity="0.6" fill="#FFFFFE"></path>
            <path d="M4.874,60.7664 C5.722,61.2594 34.139,77.6624 34.139,77.6624 C35.122,78.2304 35.122,79.1604 34.139,79.7274 L6.848,95.4834 L1.788,98.4044 C0.805,98.9724 0,98.5074 0,97.3714 L0,78.6904 C0.001,72.5424 1.177,66.6724 3.307,61.2834 C3.459,60.8974 3.882,60.1904 4.874,60.7664" id="Fill-40" fill-opacity="0.6" fill="#FFFFFE"></path>
            <path d="M196.5029,158.0848 C195.6549,157.5928 167.2379,141.1888 167.2379,141.1888 C166.2549,140.6218 166.2559,139.6918 167.2389,139.1248 L194.5289,123.3688 L199.5889,120.4468 C200.5719,119.8798 201.3769,120.3448 201.3769,121.4808 L201.3769,140.1608 C201.3769,146.3098 200.1999,152.1798 198.0699,157.5688 C197.9179,157.9548 197.4949,158.6618 196.5029,158.0848" id="Fill-42" fill-opacity="0.6" fill="#FFFFFE"></path>
            <path d="M4.874,158.0848 C5.722,157.5928 34.139,141.1888 34.139,141.1888 C35.122,140.6218 35.122,139.6918 34.139,139.1248 L6.848,123.3688 L1.788,120.4468 C0.805,119.8798 0,120.3448 0,121.4808 L0,140.1608 C0.001,146.3098 1.177,152.1798 3.307,157.5688 C3.459,157.9548 3.882,158.6618 4.874,158.0848" id="Fill-44" fill-opacity="0.6" fill="#FFFFFE"></path>
            <path d="M10.6415,50.7782 C11.4915,51.2652 39.9055,67.6742 39.9055,67.6742 C40.8885,68.2412 41.6935,67.7772 41.6935,66.6412 L41.6935,35.1292 L41.6935,29.2872 C41.6935,28.1512 40.8885,27.6862 39.9055,28.2542 L23.7265,37.5942 C18.4035,40.6692 13.9075,44.6232 10.3045,49.1622 C10.0465,49.4872 9.6455,50.2072 10.6415,50.7782" id="Fill-46" fill-opacity="0.6" fill="#FFFFFE"></path>
            <path d="M106.456,216.7332 C106.458,215.7542 106.456,182.9412 106.456,182.9412 C106.456,181.8062 107.261,181.3412 108.244,181.9102 L135.534,197.6662 L140.594,200.5872 C141.577,201.1552 141.577,202.0842 140.594,202.6522 L124.415,211.9922 C119.091,215.0662 113.419,216.9822 107.686,217.8332 C107.276,217.8932 106.452,217.8812 106.456,216.7332" id="Fill-48" fill-opacity="0.6" fill="#FFFFFE"></path>
            <path d="M190.7353,168.0741 C189.8853,167.5871 161.4713,151.1781 161.4713,151.1781 C160.4883,150.6101 159.6833,151.0751 159.6833,152.2111 L159.6833,183.7231 L159.6833,189.5651 C159.6833,190.7011 160.4883,191.1661 161.4713,190.5971 L177.6503,181.2581 C182.9743,178.1821 187.4693,174.2291 191.0733,169.6891 C191.3303,169.3651 191.7313,168.6451 190.7353,168.0741" id="Fill-53" fill-opacity="0.6" fill="#FFFFFE"></path>
            <path d="M146.3613,190.5975 C147.3443,191.1655 148.1493,190.7015 148.1493,189.5655 L148.1493,152.2105 C148.1493,151.0755 147.3443,150.6105 146.3613,151.1785 L114.0103,169.8555 C113.0273,170.4235 113.0273,171.3525 114.0103,171.9205 L146.3613,190.5975 Z" id="Fill-55" fill-opacity="0.6" fill="#FFFFFE"></path>
            <path d="M161.4716,89.7166 C160.4886,89.1486 159.6836,89.6126 159.6836,90.7486 L159.6836,128.1036 C159.6836,129.2386 160.4886,129.7036 161.4716,129.1356 L193.8226,110.4586 C194.8056,109.8906 194.8056,108.9616 193.8226,108.3936 L161.4716,89.7166 Z" id="Fill-57" fill-opacity="0.6" fill="#FFFFFE"></path>
            <path d="M108.2441,58.9852 C107.2611,58.4172 106.4561,58.8812 106.4561,60.0172 L106.4561,97.3722 C106.4561,98.5072 107.2611,98.9722 108.2441,98.4042 L140.5941,79.7272 C141.5771,79.1592 141.5771,78.2302 140.5941,77.6622 L108.2441,58.9852 Z" id="Fill-59" fill-opacity="0.8" fill="#FFFFFE"></path>
            <path d="M55.0165,28.2537 C54.0325,27.6867 53.2275,28.1507 53.2275,29.2867 L53.2275,66.6417 C53.2275,67.7757 54.0325,68.2407 55.0165,67.6737 L87.3665,48.9957 C88.3495,48.4287 88.3495,47.4987 87.3665,46.9317 L55.0165,28.2537 Z" id="Fill-61" fill-opacity="0.6" fill="#FFFFFE"></path>
            <path d="M93.1337,159.867 C94.1167,160.434 94.9217,159.971 94.9217,158.835 L94.9217,121.479 C94.9217,120.344 94.1167,119.88 93.1337,120.447 L60.7827,139.125 C59.7997,139.692 59.7997,140.622 60.7827,141.189 L93.1337,159.867 Z" id="Fill-63" fill-opacity="0.3" fill="#FFFFFE"></path>
            <path d="M39.9052,129.1356 C40.8882,129.7036 41.6932,129.2396 41.6932,128.1036 L41.6932,90.7486 C41.6932,89.6136 40.8882,89.1486 39.9052,89.7166 L7.5552,108.3936 C6.5722,108.9616 6.5722,109.8906 7.5552,110.4586 L39.9052,129.1356 Z" id="Fill-65" fill-opacity="0.6" fill="#FFFFFE"></path>
            <path d="M94.9218,216.7332 C94.9188,215.7542 94.9218,182.9412 94.9218,182.9412 C94.9218,181.8062 94.1168,181.3412 93.1338,181.9102 L65.8428,197.6662 L60.7828,200.5872 C59.7998,201.1552 59.7998,202.0842 60.7828,202.6522 L76.9618,211.9922 C82.2858,215.0662 87.9578,216.9822 93.6908,217.8332 C94.1008,217.8932 94.9248,217.8812 94.9218,216.7332" id="Fill-67" fill-opacity="0.6" fill="#FFFFFE"></path>
            <path d="M94.9218,2.119 C94.9188,3.098 94.9218,35.91 94.9218,35.91 C94.9218,37.046 94.1168,37.511 93.1338,36.942 L65.8428,21.186 L60.7828,18.265 C59.7998,17.697 59.7998,16.768 60.7828,16.2 L76.9618,6.859 C82.2858,3.786 87.9578,1.87 93.6908,1.019 C94.1008,0.958 94.9248,0.971 94.9218,2.119" id="Fill-50" fill-opacity="0.6" fill="#FFFFFE"></path>
            <path d="M106.456,2.119 C106.458,3.098 106.456,35.91 106.456,35.91 C106.456,37.046 107.261,37.511 108.244,36.942 L135.534,21.186 L140.594,18.265 C141.577,17.697 141.577,16.768 140.594,16.2 L124.415,6.859 C119.091,3.786 113.419,1.87 107.686,1.019 C107.276,0.958 106.452,0.971 106.456,2.119" id="Fill-69" fill-opacity="0.6" fill="#FFFFFE"></path>
            <path d="M190.7363,50.7782 C191.4683,50.3572 191.4433,49.8582 191.2773,49.4932 C187.9233,45.2092 183.8703,41.5002 179.2603,38.5772 C179.0963,38.4722 178.9263,38.3742 178.7603,38.2712 C178.1853,37.9172 177.6083,37.5672 177.0173,37.2372 L177.0203,37.2312 L167.9833,32.0132 L155.7043,24.9242 C154.7203,24.3562 153.1113,24.3562 152.1293,24.9242 L114.0103,46.9312 C113.0273,47.4992 113.0273,48.4282 114.0103,48.9962 L133.0693,60.0002 L152.1283,71.0032 C153.1113,71.5712 154.7213,71.5712 155.7043,71.0032 L167.9833,63.9142 L167.9833,63.9132 C176.3663,59.0732 189.9393,51.2362 190.7063,50.7952 L190.7363,50.7782 Z" id="Fill-72" fill="#FFFFFE"></path>
            <path d="M87.3662,169.8553 L49.2492,147.8483 C48.2652,147.2813 46.6562,147.2813 45.6732,147.8483 L33.5832,154.8293 L33.5832,154.8303 C25.2392,159.6473 11.5182,167.5693 10.6812,168.0503 L10.6402,168.0743 C9.8382,168.5353 9.9452,169.0893 10.1522,169.4593 C10.4212,169.7993 10.6832,170.1453 10.9612,170.4793 C10.9682,170.4873 10.9742,170.4963 10.9812,170.5033 C12.4362,172.2513 14.0142,173.8933 15.7022,175.4173 C15.7062,175.4193 15.7092,175.4223 15.7132,175.4253 C16.2392,175.9003 16.7772,176.3603 17.3242,176.8113 C17.3902,176.8653 17.4552,176.9193 17.5212,176.9733 C17.9932,177.3573 18.4742,177.7293 18.9622,178.0953 C19.1182,178.2123 19.2722,178.3323 19.4302,178.4473 C19.8242,178.7363 20.2262,179.0143 20.6302,179.2923 C20.8912,179.4713 21.1532,179.6523 21.4202,179.8273 C21.7302,180.0313 22.0462,180.2273 22.3612,180.4243 C22.8132,180.7063 23.2622,180.9893 23.7262,181.2563 L33.5832,186.9473 L45.6732,193.9273 C46.6562,194.4953 48.2652,194.4953 49.2492,193.9273 L87.3662,171.9203 C88.3492,171.3523 88.3492,170.4233 87.3662,169.8553" id="Fill-74" fill="#FFFFFE"></path>
        </g>
    </g>
</svg>