<?xml version="1.0" encoding="UTF-8"?>
<svg width="800px" height="150px" viewBox="0 0 800 150" version="1.1" xmlns="http://www.w3.org/2000/svg" xmlns:xlink="http://www.w3.org/1999/xlink">
    <!-- Generator: Sketch 53 (72520) - https://sketchapp.com -->
    <title>brand/logo-color-is-dark</title>
    <desc>Created with Sketch.</desc>
    <defs>
        <polygon id="path-1" points="0.196 0.266 55.003 0.266 55.003 57.608 0.196 57.608"></polygon>
        <polygon id="path-3" points="0.21405 0.158 24.1523053 0.158 24.1523053 24.9942679 0.21405 24.9942679"></polygon>
        <polygon id="path-5" points="0.0683947043 0.158 24.00665 0.158 24.00665 24.9942679 0.0683947043 24.9942679"></polygon>
    </defs>
    <g id="brand/logo-color-is-dark" stroke="none" stroke-width="1" fill="none" fill-rule="evenodd">
        <g id="Group-76">
            <g id="Group-2" transform="translate(187.000000, 31.000000)" fill="#FFFFFE">
                <path d="M34.0722,0.2636 L34.0762,2.7926 C34.0762,2.7926 32.1072,2.9966 30.5962,3.4036 C29.0852,3.8106 28.4812,4.2426 28.1552,4.6236 C27.2912,5.5836 27.3712,9.3616 27.3712,12.7326 L27.3712,50.5726 C27.3712,57.8966 25.4832,64.2616 21.3842,69.6666 C17.2872,75.0726 12.0692,77.8336 5.7342,77.7756 C0.5402,77.7276 0.1552,74.4916 0.1552,73.1546 C0.1552,71.8756 0.6492,69.9616 3.2752,69.1646 C5.3662,68.5316 8.0572,69.6806 9.0922,70.6696 C10.3992,71.9186 11.4302,72.5436 12.1872,72.5436 C13.0012,72.5436 13.8292,72.1366 14.6722,71.3236 C15.5132,70.5086 16.3422,69.3186 17.1562,67.7476 C17.9692,66.1796 18.8642,63.9556 19.3872,61.0786 C19.9102,58.2016 20.1732,54.9326 20.1732,51.2696 L20.1732,12.3826 C20.1732,8.7796 20.3152,5.5536 19.5622,4.6236 C19.3872,4.1586 18.5592,3.7376 17.0772,3.3596 C15.5952,2.9826 13.4952,2.7926 13.4952,2.7926 L13.4952,0.2636 L34.0722,0.2636 Z" id="Fill-1"></path>
                <path d="M71.163,31.5761 L63.996,12.1221 L56.497,31.5651 L71.163,31.5761 Z M66.984,1.0401 L84.224,46.4741 C85.27,49.2071 86.112,51.9751 86.752,53.4281 C87.101,54.3001 88.002,55.0131 89.455,55.5641 C90.908,56.1171 92.682,56.3921 92.682,56.3921 L92.855,58.2451 L73.15,58.2451 L73.238,56.3921 C73.238,56.3921 74.808,56.2491 75.853,55.9561 C76.899,55.6671 77.417,55.2421 77.684,54.8231 C78.903,52.9181 76.639,46.7361 76.639,46.7361 L73.061,36.8341 L54.513,36.8341 L50.656,46.5621 C49.667,49.4701 49.174,52.1501 49.174,53.2531 C49.174,54.0681 49.404,54.6481 49.871,54.9981 C50.393,55.4051 51.236,55.7381 52.399,56.0001 C53.561,56.2631 54.929,56.3921 54.929,56.3921 L55.102,58.2451 L37.055,58.2451 L37.055,56.3921 C37.055,56.3921 38.651,56.2491 39.758,55.9561 C40.86,55.6671 41.617,55.2601 42.024,54.7351 C43.244,53.1671 44.61,49.7591 46.122,45.8631 L61.293,6.8891 C61.409,6.6001 63.63,1.5051 63.832,1.1691 C64.518,0.0291 65.534,0.1251 65.913,0.1771 C66.301,0.2381 66.808,0.5951 66.984,1.0401 L66.984,1.0401 Z" id="Fill-3"></path>
                <path d="M169.3261,31.5761 L162.1601,12.1221 L154.6611,31.5651 L169.3261,31.5761 Z M165.1481,1.0401 L182.3881,46.4741 C183.4341,49.2071 184.2761,52.0471 184.9161,53.4991 C185.2651,54.3711 186.1661,55.0841 187.6191,55.6351 C189.0721,56.1881 190.8451,56.4641 190.8451,56.4641 L191.0191,58.2451 L171.3141,58.2451 L171.4021,56.4641 C171.4021,56.4641 172.9711,56.3191 174.0171,56.0271 C175.0631,55.7371 175.5811,55.3131 175.8481,54.8941 C177.0671,52.9891 174.8031,46.7361 174.8031,46.7361 L171.2251,36.8341 L152.6771,36.8341 L148.8201,46.5621 C147.8311,49.4701 147.3381,52.2211 147.3381,53.3241 C147.3381,54.1391 147.5681,54.7201 148.0351,55.0691 C148.5571,55.4761 149.4001,55.8091 150.5631,56.0711 C151.7251,56.3331 153.0921,56.4641 153.0921,56.4641 L153.2661,58.2451 L135.2181,58.2451 L135.2181,56.4641 C135.2181,56.4641 136.8151,56.3191 137.9211,56.0271 C139.0241,55.7371 139.7811,55.3301 140.1881,54.8061 C141.4081,53.2381 142.7741,49.7591 144.2861,45.8631 L159.4571,6.8891 C159.5731,6.6001 161.7941,1.5051 161.9961,1.1691 C162.6811,0.0291 163.6981,0.1251 164.0771,0.1771 C164.4651,0.2381 164.9721,0.5951 165.1481,1.0401 L165.1481,1.0401 Z" id="Fill-5"></path>
                <path d="M404.1435,31.5761 L396.9775,12.1221 L389.4785,31.5651 L404.1435,31.5761 Z M399.9655,1.0401 L417.2055,46.4741 C418.2515,49.2071 419.3975,51.9751 420.0385,53.4281 C420.3865,54.3001 420.9835,55.0131 422.4365,55.5641 C423.8895,56.1171 425.6625,56.3921 425.6625,56.3921 L425.8365,58.2451 L406.1315,58.2451 L406.2195,56.3921 C406.2195,56.3921 407.7885,56.2491 408.8345,55.9561 C409.8805,55.6671 410.3235,55.1831 410.6655,54.8231 C412.2155,53.1921 409.6205,46.7361 409.6205,46.7361 L406.0425,36.8341 L387.4945,36.8341 L383.6375,46.5621 C382.6485,49.4701 382.1555,52.1501 382.1555,53.2531 C382.1555,54.0681 382.3855,54.6481 382.8525,54.9981 C383.3745,55.4051 384.2175,55.7381 385.3805,56.0001 C386.5425,56.2631 387.9095,56.3921 387.9095,56.3921 L388.0835,58.2451 L370.0355,58.2451 L370.0355,56.3921 C370.0355,56.3921 371.6325,56.2491 372.7385,55.9561 C373.8415,55.6671 374.5985,55.2601 375.0055,54.7351 C376.2255,53.1671 377.5915,49.7591 379.1035,45.8631 L394.2745,6.8891 C394.3905,6.6001 396.6115,1.5051 396.8135,1.1691 C397.4985,0.0291 398.5155,0.1251 398.8945,0.1771 C399.2825,0.2381 399.7895,0.5951 399.9655,1.0401 L399.9655,1.0401 Z" id="Fill-7"></path>
                <path d="M97.4863,0.6132 C97.4863,0.6132 118.5673,0.4872 120.2523,0.5642 C126.5803,0.8562 129.8783,2.7632 131.7093,3.9262 C133.5393,5.0902 135.0353,6.7462 136.1993,8.8952 C137.3613,11.0472 138.0083,13.5482 137.9423,16.3932 C137.8753,19.2592 136.5173,28.0752 128.0463,32.0452 C124.1863,33.8532 120.7483,33.5952 117.4313,32.5442 C115.7723,32.0172 114.3913,31.1922 113.4453,30.2222 C113.0073,29.5412 113.6383,29.0872 114.0143,29.3342 C115.7573,29.9742 117.2313,30.2222 119.3833,30.2222 C122.2883,30.2222 124.8253,29.2252 127.0983,26.9522 C129.3033,24.7472 131.2233,20.7232 131.2233,17.3512 C131.2233,13.2242 130.1093,10.7332 128.3073,8.3202 C126.5063,5.9092 122.6263,4.2742 118.8483,4.2742 C116.2323,4.2742 114.1963,4.4792 112.7453,4.8852 C112.4533,4.9432 112.2503,5.1612 112.1343,5.5392 C112.0173,5.9182 111.9173,6.8032 111.8293,8.1992 C111.7423,9.5922 111.6993,11.6852 111.6993,14.4752 L111.6993,45.6022 C111.6993,49.4982 111.9303,52.7022 112.3963,53.8642 C112.6853,54.6202 113.7173,55.2302 115.4913,55.6952 C117.2633,56.1612 119.2843,56.3922 119.2843,56.3922 L119.4593,58.2452 L97.4863,58.2452 L97.4863,56.4432 C97.4863,56.4432 99.4323,56.2702 100.8863,55.9212 C102.3393,55.5722 103.2113,54.9102 103.5033,54.3872 C103.9093,53.6892 104.1133,50.2822 104.1133,45.5152 L104.1133,12.5572 C104.1133,9.1292 104.0323,6.2142 103.5033,5.0592 C103.3283,4.5942 102.4083,3.6442 100.9303,3.0502 C99.4433,2.4522 98.2423,2.4092 97.4863,2.4092 L97.4863,0.6132 Z" id="Fill-9"></path>
                <path d="M240.7109,12.2958 C240.7109,8.7508 240.5069,6.1928 240.1009,4.6238 C239.8639,3.8168 238.9459,3.3168 237.1149,2.8818 C235.2829,2.4448 233.2129,2.3948 233.2129,2.3948 L233.2129,0.2638 L253.2669,0.2638 L253.2329,2.3948 C253.2329,2.3948 251.2459,2.4838 249.2989,2.9478 C247.3519,3.4148 246.5019,3.8638 246.2039,4.6238 C245.7379,6.4258 245.5069,9.1288 245.5069,12.7328 L245.5029,58.4008 L242.5159,58.4198 L241.0359,56.4148 L207.4039,8.4598 L207.4039,45.6908 C207.4039,49.5258 207.4689,52.2288 207.8759,53.7968 C208.3029,55.0058 209.1189,55.2088 210.9359,55.7028 C212.8249,56.2168 214.7209,56.4298 214.7209,56.4298 L214.7289,58.2448 L194.6759,58.2448 L194.6759,56.4158 C194.6759,56.4158 196.8119,56.1388 198.6419,55.7028 C200.4729,55.2678 201.3339,54.9708 201.8309,53.7968 C202.4109,52.2858 202.5229,49.3818 202.5229,45.4278 L202.5229,11.1628 C202.5229,8.3158 202.3179,6.1358 201.9119,4.6238 C201.7369,4.1578 200.7479,3.7368 198.9469,3.3588 C197.1449,2.9828 195.0229,2.7928 195.0229,2.7928 L195.0229,0.2638 L210.8929,0.2638 C210.8929,0.2638 222.8939,18.4578 240.4489,42.9868 C240.6239,41.9988 240.7109,40.8068 240.7109,39.4118 L240.7109,12.2958 Z" id="Fill-11"></path>
                <path d="M282.538,15.7831 C282.635,11.2641 284.272,7.2431 287.738,4.3381 C291.2,1.4311 295.219,0.2851 299.797,0.2851 C301.088,0.2851 303.881,0.5141 305.018,0.7111 C308.716,1.3511 313.094,2.7511 313.094,2.7511 L314.15,15.3431 L311.703,15.2891 C311.703,15.2891 311.294,11.3751 307.934,7.6091 C305.749,5.1601 302.885,4.0541 299.182,3.8951 C295.662,3.7451 292.873,4.9231 291.435,6.6841 C289.996,8.4451 289.58,10.4711 289.583,13.0531 C289.587,17.8491 292.59,20.2731 293.678,21.1541 C294.764,22.0341 295.555,22.6501 296.056,23.0041 C296.553,23.3561 297.552,24.0031 299.049,24.9401 C300.546,25.8811 301.499,26.4681 301.91,26.7011 C302.204,26.8781 303.232,27.5091 304.993,28.5951 C306.754,29.6821 307.956,30.4441 308.602,30.8851 C309.248,31.3241 310.289,32.0841 311.641,33.2621 C316.396,37.4051 317.231,42.2881 317.231,43.6961 C317.231,48.3931 315.513,52.4451 311.845,55.4681 C308.175,58.4911 303.76,59.8101 298.829,59.8101 C297.42,59.8101 295.923,59.7081 294.338,59.5031 C292.753,59.2961 291.432,59.0911 290.375,58.8861 C289.318,58.6801 287.983,58.3881 286.369,58.0061 C284.754,57.6241 282.978,57.2571 282.978,57.2571 L280.971,43.2561 L283.523,43.2361 C283.523,43.2361 283.934,45.8411 286.108,49.4621 C288.696,53.7721 293.476,56.2001 299.005,56.2001 C301.939,56.2001 304.434,55.3191 306.489,53.5581 C308.544,51.7971 309.571,49.3031 309.571,46.0741 C309.571,44.9001 309.214,41.1741 305.917,38.2811 C305.004,37.4791 304.2,37.0041 303.672,36.6511 C303.143,36.3001 302.175,35.7421 300.766,34.9781 C299.356,34.2171 298.389,33.6871 297.859,33.3941 C296.156,32.3961 294.969,31.6921 294.294,31.2801 C293.665,30.8981 292.548,30.1811 290.948,29.1231 C289.392,28.0961 288.262,27.1861 287.558,26.3931 C286.853,25.6001 282.404,22.0451 282.538,15.7831" id="Fill-13"></path>
                <path d="M329.9306,53.7118 L329.9306,4.6618 C329.9646,4.4688 328.9556,3.6628 326.9606,3.0158 C325.4466,2.5238 323.5176,2.4058 323.5176,2.4058 L323.5176,0.6128 L362.2536,0.6858 L364.5836,11.9468 L361.9766,11.9328 C361.9766,11.9328 361.1006,8.5318 358.1306,6.0238 C356.7496,4.8558 354.4096,4.6718 351.6786,4.6718 L337.2376,4.6788 L337.2646,26.8148 C337.2646,26.8148 350.4516,26.8088 351.1806,26.8088 C354.2106,26.8088 354.9656,25.9928 355.3276,25.2878 C355.9066,24.1638 356.5766,21.4598 356.5766,21.4598 L358.4806,21.4628 L358.4806,37.2208 L356.5766,37.2078 C356.5766,37.2078 356.4516,35.6278 355.5476,33.7008 C354.8116,32.1338 353.3736,31.4798 351.1066,31.4798 C348.7156,31.4798 337.2646,31.4958 337.2646,31.4958 L337.2546,53.6078 L348.6276,53.6838 C348.6276,53.6838 357.6526,53.6538 359.5716,52.6648 C360.4426,52.2008 361.1736,51.3898 362.2266,49.3048 C363.0946,47.5858 364.3346,43.8588 364.3346,43.8588 L367.1216,43.8588 L363.7986,58.3328 L323.5176,58.2448 L323.5176,56.4638 C326.3866,56.0718 328.7576,54.8838 329.9306,53.7118" id="Fill-15"></path>
                <path d="M451.8486,4.2743 C449.2326,4.2743 448.1336,4.2493 446.8076,4.4833 C446.5756,4.5423 444.6986,4.6293 444.6986,7.5573 C444.6986,8.9273 444.6996,25.0253 444.6996,25.0253 C444.6996,26.7123 447.2276,27.5533 452.2856,27.5533 L454.4636,27.5533 C456.4986,27.5533 458.6066,26.5383 460.7856,24.5033 C462.9656,22.4683 464.0556,19.7663 464.0556,16.3933 C464.0556,8.3153 459.9856,4.2743 451.8486,4.2743 M453.1106,0.5713 C459.6836,0.5713 463.2986,2.7633 465.2766,3.9253 C467.2516,5.0893 468.8796,6.7463 470.1596,8.8953 C471.4366,11.0463 472.0776,13.5463 472.0776,16.3933 C472.0776,18.8353 471.1616,21.3933 469.3296,24.0673 C467.4986,26.7413 464.3386,29.0553 461.2006,30.5073 C460.6196,30.7403 460.4456,31.0313 460.6776,31.3783 C463.5836,37.4823 466.7376,43.3063 470.5156,47.4323 C476.9416,55.3633 481.2536,57.2463 485.9616,59.2093 C486.8846,59.5933 486.5906,60.1803 485.8776,60.1983 C484.6236,60.2293 482.9346,60.1173 481.1846,59.8123 C473.4896,58.4713 467.0256,53.3963 461.6376,45.8633 C460.7076,44.5863 459.6466,43.0603 458.4556,41.2873 C457.2646,39.5133 453.4836,33.2523 452.9316,32.7853 C452.3786,32.3213 452.3096,31.9173 451.1436,31.6523 C450.4806,31.5023 448.3026,31.3033 446.7916,31.3033 C446.3256,31.3033 445.9776,31.3183 445.7456,31.3463 C445.5126,31.3773 445.2806,31.5073 445.0486,31.7393 C444.8146,31.9723 444.6996,32.3213 444.6996,32.7853 C444.6996,32.7853 444.9306,52.2953 445.3966,53.4573 C445.6876,54.2123 446.7866,55.0173 448.5606,55.4813 C450.3326,55.9473 452.4536,56.3903 452.4536,56.3903 L452.4586,58.2453 L430.2216,58.2453 L430.2376,56.4013 C430.2376,56.4013 432.3876,55.9493 433.8036,55.5583 C436.1446,54.9133 436.9276,54.3963 437.0446,53.2083 L437.0336,5.0593 C437.0336,5.0593 436.6096,3.8113 433.9316,3.0333 C432.4146,2.5923 430.4876,2.4233 430.4876,2.4233 L430.4876,0.6133 C430.4876,0.6133 451.4246,0.5713 453.1106,0.5713" id="Fill-17"></path>
                <path d="M532.8564,42.5224 L529.9334,54.9844 C529.9334,54.9844 527.6754,56.1674 526.2964,56.6394 C522.1604,58.0574 517.7244,59.1414 509.3934,58.7654 C501.8364,58.4244 495.3974,55.9874 490.0984,50.4284 C484.7974,44.8734 482.1474,38.2544 482.1474,30.5764 C482.1474,22.4414 485.0904,15.3464 490.3784,9.3864 C493.9214,5.3934 501.4084,0.9244 510.3374,0.9244 C522.3344,0.9244 529.5254,4.4464 529.5254,4.4464 L531.0514,15.4504 L528.1284,16.3084 C528.1284,16.3084 527.7424,14.8054 527.4844,14.0314 C527.2264,13.2574 525.6824,8.5924 517.8584,5.5224 C515.7664,4.7024 513.2884,4.5344 510.5954,4.5344 C506.5904,4.5344 500.8494,7.0124 496.8964,11.9684 C492.9424,16.9254 491.0324,22.7884 491.0324,29.0324 C491.0324,33.6724 491.7674,37.6814 493.3724,41.5774 C494.9764,45.4744 496.9234,48.5014 500.3914,51.0494 C503.8564,53.6004 507.9024,55.0704 512.6584,55.0704 C518.3324,55.0704 522.2514,53.6744 525.3454,50.3504 C526.1464,49.4914 527.1804,48.0944 527.7824,46.6904 C528.3834,45.2884 530.0194,41.7484 530.0194,41.7484 L532.8564,42.5224 Z" id="Fill-19"></path>
                <path d="M587.331,4.788 L587.331,54.111 C587.398,54.662 588.275,55.491 590.073,55.856 C591.583,56.162 593.348,56.416 593.348,56.416 L593.351,58.184 L573.086,58.184 L573.086,56.416 C573.086,56.416 574.929,56.191 576.406,55.899 C578.343,55.516 579.505,55.112 579.519,54.111 L579.467,30.846 L553.254,30.891 L553.244,54.069 L553.245,54.111 C553.258,54.739 554.189,55.491 555.988,55.856 C557.497,56.162 559.263,56.416 559.263,56.416 L559.265,58.184 L539,58.184 L539,56.416 C539,56.416 540.844,56.191 542.32,55.899 C544.258,55.516 545.396,55.112 545.411,54.111 L545.41,54.069 L545.41,4.765 C545.41,3.888 544.232,3.413 542.69,2.978 C541.234,2.568 539.37,2.418 539.37,2.418 L539.37,0.842 L559.721,0.842 L559.712,2.418 C559.712,2.418 557.317,2.584 556.18,2.892 C554.869,3.247 553.244,3.793 553.244,4.765 L553.295,26.279 L579.426,26.279 L579.519,4.788 L579.519,4.764 C579.519,3.887 578.319,3.413 576.776,2.978 C575.321,2.568 573.457,2.418 573.457,2.418 L573.457,0.842 L593.808,0.842 L593.798,2.418 C593.798,2.418 591.404,2.584 590.267,2.892 C588.955,3.247 587.33,3.793 587.33,4.765 L587.331,4.788 Z" id="Fill-21"></path>
            </g>
            <g id="Group" fill="#DA0340">
                <path d="M3.3457,42.0227 C3.9277,42.3607 23.4327,53.6197 23.4327,53.6197 C24.1077,54.0087 24.1077,54.6467 23.4317,55.0367 L4.6997,65.8507 L1.2277,67.8557 C0.5527,68.2457 -0.0003,67.9267 -0.0003,67.1477 L-0.0003,54.3247 C0.0007,50.1057 0.8077,46.0757 2.2697,42.3767 C2.3737,42.1117 2.6647,41.6267 3.3457,42.0227" id="Fill-38"></path>
                <path d="M3.3457,108.8195 C3.9277,108.4815 23.4327,97.2215 23.4327,97.2215 C24.1077,96.8325 24.1077,96.1945 23.4317,95.8045 L4.6997,84.9905 L1.2277,82.9855 C0.5527,82.5955 -0.0003,82.9145 -0.0003,83.6945 L-0.0003,96.5165 C0.0007,100.7365 0.8077,104.7655 2.2697,108.4655 C2.3737,108.7295 2.6647,109.2155 3.3457,108.8195" id="Fill-43"></path>
                <path d="M134.875,42.0227 C134.293,42.3607 114.789,53.6197 114.789,53.6197 C114.113,54.0087 114.114,54.6467 114.789,55.0367 L133.521,65.8507 L136.993,67.8557 C137.668,68.2457 138.221,67.9267 138.221,67.1477 L138.221,54.3247 C138.22,50.1057 137.413,46.0757 135.951,42.3767 C135.847,42.1117 135.557,41.6267 134.875,42.0227" id="Fill-36"></path>
                <path d="M134.875,108.8195 C134.293,108.4815 114.789,97.2215 114.789,97.2215 C114.113,96.8325 114.114,96.1945 114.789,95.8045 L133.521,84.9905 L136.993,82.9855 C137.668,82.5955 138.221,82.9145 138.221,83.6945 L138.221,96.5165 C138.22,100.7365 137.413,104.7655 135.951,108.4655 C135.847,108.7295 135.557,109.2155 134.875,108.8195" id="Fill-41"></path>
                <path d="M73.0684,149.0734 C73.0704,148.4014 73.0684,125.8804 73.0684,125.8804 C73.0684,125.1004 73.6214,124.7814 74.2964,125.1724 L93.0274,135.9864 L96.5004,137.9914 C97.1754,138.3814 97.1754,139.0184 96.5004,139.4084 L85.3954,145.8194 C81.7414,147.9284 77.8484,149.2444 73.9134,149.8284 C73.6314,149.8704 73.0664,149.8614 73.0684,149.0734" id="Fill-48"></path>
                <path d="M130.917,115.675 C130.333,115.341 110.83,104.078 110.83,104.078 C110.155,103.689 109.604,104.008 109.604,104.787 L109.604,126.416 L109.604,130.427 C109.604,131.206 110.155,131.525 110.831,131.135 L121.936,124.724 C125.589,122.613 128.675,119.9 131.147,116.784 C131.325,116.562 131.601,116.068 130.917,115.675" id="Fill-53"></path>
                <path d="M100.459,131.135 C101.134,131.525 101.687,131.206 101.687,130.426 L101.687,104.787 C101.687,104.008 101.134,103.689 100.459,104.078 L78.255,116.899 C77.58,117.288 77.58,117.926 78.255,118.316 L100.459,131.135 Z" id="Fill-55"></path>
                <path d="M110.8301,61.8928 C110.1551,61.5028 109.6031,61.8218 109.6031,62.6008 L109.6031,88.2408 C109.6031,89.0198 110.1551,89.3388 110.8301,88.9498 L133.0351,76.1288 C133.7101,75.7398 133.7101,75.1018 133.0351,74.7118 L110.8301,61.8928 Z" id="Fill-57"></path>
                <path d="M65.1523,149.0734 C65.1503,148.4014 65.1523,125.8804 65.1523,125.8804 C65.1523,125.1004 64.5993,124.7814 63.9243,125.1724 L45.1933,135.9864 L41.7203,137.9914 C41.0453,138.3814 41.0453,139.0184 41.7203,139.4084 L52.8253,145.8194 C56.4793,147.9284 60.3733,149.2444 64.3073,149.8284 C64.5893,149.8704 65.1543,149.8614 65.1523,149.0734" id="Fill-67"></path>
                <path d="M73.0684,1.7678 C73.0704,2.4408 73.0684,24.9608 73.0684,24.9608 C73.0684,25.7408 73.6214,26.0598 74.2964,25.6698 L93.0274,14.8548 L96.5004,12.8498 C97.1754,12.4598 97.1754,11.8228 96.5004,11.4328 L85.3954,5.0218 C81.7414,2.9128 77.8484,1.5968 73.9134,1.0128 C73.6314,0.9708 73.0664,0.9798 73.0684,1.7678" id="Fill-69"></path>
                <path d="M7.3047,35.1662 C7.8877,35.5012 27.3907,46.7632 27.3907,46.7632 C28.0657,47.1522 28.6177,46.8342 28.6177,46.0542 L28.6177,24.4252 L28.6177,20.4152 C28.6177,19.6362 28.0657,19.3162 27.3907,19.7062 L16.2857,26.1172 C12.6317,28.2282 9.5457,30.9412 7.0737,34.0572 C6.8967,34.2802 6.6207,34.7742 7.3047,35.1662" id="Fill-46"></path>
                <path d="M37.7617,19.7063 C37.0867,19.3163 36.5337,19.6363 36.5337,20.4153 L36.5337,46.0543 C36.5337,46.8333 37.0867,47.1523 37.7617,46.7633 L59.9657,33.9433 C60.6417,33.5543 60.6417,32.9153 59.9657,32.5253 L37.7617,19.7063 Z" id="Fill-61"></path>
                <path d="M65.1523,1.7678 C65.1503,2.4408 65.1523,24.9608 65.1523,24.9608 C65.1523,25.7408 64.5993,26.0598 63.9243,25.6698 L45.1933,14.8548 L41.7203,12.8498 C41.0453,12.4598 41.0453,11.8228 41.7203,11.4328 L52.8253,5.0218 C56.4793,2.9128 60.3733,1.5968 64.3073,1.0128 C64.5893,0.9708 65.1543,0.9798 65.1523,1.7678" id="Fill-50"></path>
                <path d="M27.3906,88.9494 C28.0656,89.3394 28.6186,89.0194 28.6186,88.2404 L28.6186,62.6004 C28.6186,61.8214 28.0656,61.5034 27.3906,61.8924 L5.1866,74.7124 C4.5106,75.1014 4.5106,75.7394 5.1866,76.1294 L27.3906,88.9494 Z" id="Fill-65"></path>
            </g>
            <g id="Group-23" transform="translate(726.000000, 31.842000)">
                <mask id="mask-2" fill="white">
                    <use xlink:href="#path-1"></use>
                </mask>
                <g id="Clip-22"></g>
            </g>
            <path d="M73.0693,109.3332 C73.0693,110.1122 73.6213,110.4322 74.2963,110.0422 L100.4593,94.9372 C101.1333,94.5472 101.6863,93.5912 101.6863,92.8112 L101.6863,62.6012 C101.6863,61.8212 101.1333,61.5032 100.4593,61.8932 L74.2963,76.9972 C73.6213,77.3872 73.0693,78.3442 73.0693,79.1232 L73.0693,109.3332 Z" id="Fill-32" fill="#D1C116"></path>
            <path d="M36.5342,88.2404 C36.5342,89.0194 37.0872,89.3394 37.7622,88.9494 L63.9252,73.8444 C64.5992,73.4544 65.1522,72.4974 65.1522,71.7184 L65.1522,41.5084 C65.1522,40.7284 64.5992,40.4094 63.9252,40.7994 L37.7622,55.9044 C37.0872,56.2944 36.5342,57.2514 36.5342,58.0304 L36.5342,88.2404 Z" id="Fill-34" fill="#6D37B8"></path>
            <g id="Group-52" transform="translate(41.000000, 0.842000)">
                <mask id="mask-4" fill="white">
                    <use xlink:href="#path-3"></use>
                </mask>
                <g id="Clip-51"></g>
            </g>
            <path d="M74.2959,40.799 C73.6209,40.409 73.0689,40.729 73.0689,41.508 L73.0689,67.148 C73.0689,67.927 73.6209,68.245 74.2959,67.856 L96.5009,55.036 C97.1759,54.647 97.1759,54.009 96.5009,53.619 L74.2959,40.799 Z" id="Fill-59" fill="#FFFFFE"></path>
            <path d="M63.9248,110.0422 C64.5998,110.4322 65.1528,110.1122 65.1528,109.3332 L65.1528,83.6942 C65.1528,82.9142 64.5998,82.5962 63.9248,82.9852 L41.7208,95.8052 C41.0448,96.1942 41.0448,96.8322 41.7208,97.2232 L63.9248,110.0422 Z" id="Fill-63" fill="#595A59"></path>
            <g id="Group-71" transform="translate(73.000000, 0.842000)">
                <mask id="mask-6" fill="white">
                    <use xlink:href="#path-5"></use>
                </mask>
                <g id="Clip-70"></g>
            </g>
            <path d="M130.917,35.1662 C131.42,34.8772 131.402,34.5342 131.288,34.2842 C128.986,31.3442 126.204,28.7982 123.04,26.7912 C122.928,26.7202 122.812,26.6522 122.697,26.5822 C122.303,26.3392 121.906,26.0992 121.501,25.8722 L115.3,22.2872 L106.872,17.4212 C106.197,17.0312 105.093,17.0312 104.418,17.4212 L78.255,32.5262 C77.579,32.9162 77.58,33.5542 78.255,33.9432 L91.336,41.4952 L104.417,49.0482 C105.093,49.4372 106.197,49.4372 106.872,49.0482 L115.3,44.1832 C121.054,40.8592 130.37,35.4802 130.896,35.1782 L130.917,35.1662 Z" id="Fill-72" fill="#D1C116"></path>
            <path d="M59.9658,116.8986 L33.8038,101.7936 C33.1288,101.4036 32.0238,101.4036 31.3488,101.7936 L23.0508,106.5846 C17.3228,109.8916 7.9058,115.3296 7.3318,115.6596 L7.3038,115.6746 C6.7528,115.9926 6.8268,116.3726 6.9688,116.6256 C7.1528,116.8596 7.3328,117.0966 7.5238,117.3266 C7.5278,117.3326 7.5328,117.3366 7.5378,117.3426 C8.5368,118.5426 9.6188,119.6696 10.7778,120.7146 C10.7798,120.7166 10.7828,120.7186 10.7848,120.7206 C11.1468,121.0466 11.5158,121.3626 11.8918,121.6716 L12.0268,121.7836 C12.3508,122.0466 12.6808,122.3016 13.0148,122.5536 C13.1218,122.6336 13.2288,122.7156 13.3368,122.7946 C13.6078,122.9936 13.8828,123.1846 14.1598,123.3756 C14.3398,123.4986 14.5198,123.6226 14.7018,123.7426 C14.9148,123.8816 15.1328,124.0166 15.3488,124.1526 C15.6588,124.3456 15.9668,124.5406 16.2858,124.7236 L23.0508,128.6286 L31.3488,133.4196 C32.0238,133.8096 33.1288,133.8096 33.8038,133.4196 L59.9658,118.3156 C60.6418,117.9256 60.6418,117.2886 59.9658,116.8986" id="Fill-74" fill="#6D37B8"></path>
            <g id="beta" transform="translate(446.000000, 117.000000)" fill="#FFFFFE">
                <path d="M3.44273837,17.2244185 C3.44273837,17.961504 3.59259756,18.1101099 4.34189352,18.1101099 L7.15602789,18.1101099 C9.64127665,18.1101099 11.4677484,16.9589093 11.4677484,14.5118649 C11.4677484,12.2698967 10.001341,11.4149172 7.69511868,11.4149172 L4.34189352,11.4149172 C3.59259756,11.4149172 3.44273837,11.5615417 3.44273837,12.2986272 L3.44273837,17.2244185 Z M3.44273837,7.69877813 C3.44273837,8.43586357 3.59259756,8.58248809 4.34189352,8.58248809 L6.73662331,8.58248809 C8.95333244,8.58248809 10.539426,7.7572298 10.539426,5.39736755 C10.539426,3.45162051 8.92215368,2.95032316 7.09668768,2.95032316 L4.34189352,2.95032316 C3.59259756,2.95032316 3.44273837,3.09694768 3.44273837,3.83403312 L3.44273837,7.69877813 Z M4.82063833,20.9405576 C3.41357114,20.9405576 1.04800858,21 0.837803406,21 C0.20919941,21 0,20.7939331 0,20.1747417 C0,19.9676841 0.0603459836,16.7825636 0.0603459836,15.1310563 L0.0603459836,5.86993442 C0.0603459836,4.42449403 0,1.44544039 0,0.944143039 C0,0.236778789 0.180032185,0 0.837803406,0 C1.16769478,0 3.41357114,0.0594423739 4.82063833,0.0594423739 L7.1258549,0.0594423739 C11.4375754,0.0594423739 13.9821644,1.18092183 13.9821644,4.77817616 C13.9821644,6.48912582 13.5939386,8.11091192 12.0370122,9.23239138 C11.7976398,9.40873709 11.6467748,9.52663113 11.6467748,9.61480398 C11.6467748,9.76340992 11.7976398,9.85158277 12.1265254,9.96947681 C13.8624782,10.6471199 15,12.1222815 15,14.5405954 C15,18.9353682 12.0370122,20.9405576 7.21637388,20.9405576 L4.82063833,20.9405576 Z" id="Fill-24"></path>
                <path d="M27.9998353,17.8436099 C29.4116582,17.8436099 32.0584555,17.7554371 32.2639552,17.7554371 C32.8814425,17.7554371 33,17.9327735 33,18.6104166 L33,20.1440298 C33,20.8226636 32.8814425,21 32.2639552,21 C32.0584555,21 29.4116582,20.9405576 27.9998353,20.9405576 L25.7353861,20.9405576 C24.3532027,20.9405576 22.0294747,21 21.822987,21 C21.1768483,21 21,20.7632212 21,20.055857 C21.0286514,18.403359 21.0592788,16.5457848 21.0592788,15.1310563 L21.0592788,5.86993442 C21.0592788,4.42449403 21.0286514,2.4480351 21,0.944143039 C21,0.236778789 21.1768483,0 21.822987,0 C22.0294747,0 24.3532027,0.0594423739 25.7353861,0.0594423739 L27.3823481,0.0594423739 C28.7941709,0.0594423739 31.4409682,0 31.646468,0 C32.2639552,0 32.3825128,0.177336416 32.3825128,0.855970184 L32.3825128,2.4480351 C32.3825128,3.12765957 32.2639552,3.30301458 31.646468,3.30301458 C31.4409682,3.30301458 28.7941709,3.21484172 27.3823481,3.21484172 L25.2937593,3.21484172 C24.5587025,3.21484172 24.4114935,3.36245695 24.4114935,4.10053309 L24.4114935,7.46199934 C24.4114935,8.20007548 24.5587025,8.3467 25.2937593,8.3467 L26.7648609,8.3467 C28.1460563,8.3467 30.823481,8.28725763 31.0289807,8.28725763 C31.646468,8.28725763 31.7650255,8.46459405 31.7650255,9.14322782 L31.7650255,10.5886682 C31.7650255,11.2663113 31.646468,11.4436477 31.0289807,11.4436477 C30.823481,11.4436477 28.1460563,11.3842053 26.7648609,11.3842053 L25.2937593,11.3842053 C24.5587025,11.3842053 24.4114935,11.5328112 24.4114935,12.2698967 L24.4114935,16.9589093 C24.4114935,17.6969854 24.5587025,17.8436099 25.2937593,17.8436099 L27.9998353,17.8436099 Z" id="Fill-26"></path>
                <path d="M47.6344811,15.084591 C47.6344811,16.8003974 47.7211654,20.0541704 47.7211654,20.2608223 C47.7211654,20.8817713 47.5487599,21 46.8899591,21 L45.0830725,21 C44.4233085,21 44.250903,20.8817713 44.250903,20.2608223 C44.250903,20.0541704 44.3366241,16.8003974 44.3366241,15.084591 L44.3366241,4.140985 C44.3366241,3.40180726 44.1940766,3.25476652 43.4774862,3.25476652 L42.5884902,3.25476652 C41.3845413,3.25476652 38.9178907,3.34318967 38.7175536,3.34318967 C38.1146159,3.34318967 38,3.16534986 38,2.48478971 L38,0.858399962 C38,0.177839807 38.1146159,0 38.7175536,0 C38.9178907,0 41.5270889,0.0596111085 42.8755117,0.0596111085 L49.1254515,0.0596111085 C50.4729111,0.0596111085 53.0821093,0 53.2834096,0 C53.8853841,0 54,0.177839807 54,0.858399962 L54,2.48478971 C54,3.16534986 53.8853841,3.34318967 53.2834096,3.34318967 C53.0821093,3.34318967 50.617385,3.25476652 49.4124729,3.25476652 L48.4955454,3.25476652 C47.7779918,3.25476652 47.6344811,3.40180726 47.6344811,4.140985 L47.6344811,15.084591 Z" id="Fill-28"></path>
                <path d="M62.8701621,12.3686483 C62.7825325,12.5768848 62.7542963,12.7542345 62.7542963,12.8727997 C62.7542963,13.1398207 62.9568181,13.1996015 63.4202814,13.1996015 L68.3771968,13.1996015 C68.8416338,13.1996015 69.0441556,13.1398207 69.0441556,12.8727997 C69.0441556,12.7542345 69.0159194,12.5768848 68.9282898,12.3686483 L66.2322185,5.57655264 C66.1163527,5.27964132 66.0296967,5.10129525 65.9138309,5.10129525 C65.8262013,5.10129525 65.7103354,5.24975091 65.5944696,5.57655264 L62.8701621,12.3686483 Z M62.3482791,16.0461641 C61.5946643,16.0461641 61.3911689,16.1059449 61.131201,16.758552 C60.7251838,17.7379608 60.3483764,18.7452674 59.8557032,20.1700432 C59.5947617,20.8814347 59.449686,21 58.6960713,21 L56.6669588,21 C56.2034954,21 56,20.9412155 56,20.7030887 C56,20.5845234 56.0584197,20.4370641 56.1742856,20.1989372 C57.072976,18.1225506 57.7107249,16.6399867 58.3192639,15.1863168 L62.4641449,5.13118565 C62.9860279,3.85586184 63.594567,2.43208236 64.203106,0.830953172 C64.4650212,0.118565261 64.6091232,0 65.3637116,0 L66.6090259,0 C67.3626406,0 67.5077163,0.118565261 67.7686578,0.830953172 C68.3771968,2.43208236 68.9574996,3.85586184 69.478409,5.10129525 L73.6524999,15.1275324 C74.2902488,16.6688808 74.9279977,18.1534374 75.8266881,20.1989372 C75.9425539,20.4370641 76,20.5845234 76,20.7030887 C76,20.9412155 75.7974782,21 75.3340149,21 L73.1023806,21 C72.3477922,21 72.2036902,20.8814347 71.9427486,20.1700432 C71.4500755,18.7452674 71.0732681,17.7379608 70.6672509,16.758552 C70.4063093,16.1059449 70.2329974,16.0461641 69.4501728,16.0461641 L62.3482791,16.0461641 Z" id="Fill-30"></path>
            </g>
        </g>
    </g>
</svg>