<?xml version="1.0" encoding="UTF-8"?>
<svg width="260px" height="304px" viewBox="0 0 260 304" version="1.1" xmlns="http://www.w3.org/2000/svg" xmlns:xlink="http://www.w3.org/1999/xlink">
    <!-- Generator: Sketch 52.6 (67491) - http://www.bohemiancoding.com/sketch -->
    <title>brand/logo-square-color</title>
    <desc>Created with Sketch.</desc>
    <defs>
        <polygon id="path-1" points="0.3317 0.12415 6.2257 0.12415 6.2257 8.5 0.3317 8.5"></polygon>
        <polygon id="path-3" points="0.17375 0.1242 4.97425 0.1242 4.97425 8.5 0.17375 8.5"></polygon>
    </defs>
    <g id="brand/logo-square-color" stroke="none" stroke-width="1" fill="none" fill-rule="evenodd">
        <g id="Group-75" transform="translate(10.000000, 36.000000)">
            <path d="M13.4791,184.0002 L13.4811,185.0052 C13.4811,185.0052 12.6986,185.0862 12.0981,185.2477 C11.4976,185.4092 11.2576,185.5817 11.1281,185.7332 C10.7846,186.1147 10.8166,187.6157 10.8166,188.9552 L10.8166,203.9937 C10.8166,206.9052 10.0661,209.4342 8.4371,211.5822 C6.8086,213.7307 4.7351,214.8282 2.2176,214.8052 C0.1531,214.7862 0.0001,213.4997 0.0001,212.9687 C0.0001,212.4602 0.1966,211.6997 1.2396,211.3832 C2.0711,211.1312 3.1406,211.5877 3.5516,211.9812 C4.0716,212.4777 4.4811,212.7257 4.7816,212.7257 C5.1051,212.7257 5.4341,212.5642 5.7696,212.2407 C6.1036,211.9172 6.4326,211.4442 6.7566,210.8202 C7.0801,210.1967 7.4356,209.3127 7.6436,208.1697 C7.8511,207.0262 7.9556,205.7267 7.9556,204.2712 L7.9556,188.8167 C7.9556,187.3847 8.0121,186.1022 7.7131,185.7332 C7.6436,185.5482 7.3146,185.3807 6.7251,185.2307 C6.1361,185.0802 5.3016,185.0052 5.3016,185.0052 L5.3016,184.0002 L13.4791,184.0002 Z" id="Fill-1" fill="#343534"></path>
            <path d="M28.2203,196.44405 L25.3718,188.71255 L22.3918,196.44005 L28.2203,196.44405 Z M26.5598,184.30855 L33.4108,202.36505 C33.8268,203.45155 34.1613,204.55155 34.4158,205.12855 C34.5548,205.47505 34.9123,205.75855 35.4898,205.97755 C36.0673,206.19755 36.7723,206.30705 36.7723,206.30705 L36.8413,207.04305 L29.0098,207.04305 L29.0448,206.30705 C29.0448,206.30705 29.6683,206.24955 30.0843,206.13355 C30.5003,206.01805 30.7058,205.85005 30.8123,205.68355 C31.2963,204.92605 30.3963,202.46955 30.3963,202.46955 L28.9748,198.53405 L21.6033,198.53405 L20.0703,202.40005 C19.6773,203.55555 19.4813,204.62105 19.4813,205.05905 C19.4813,205.38305 19.5728,205.61405 19.7583,205.75255 C19.9658,205.91455 20.3008,206.04705 20.7633,206.15105 C21.2248,206.25505 21.7683,206.30705 21.7683,206.30705 L21.8373,207.04305 L14.6648,207.04305 L14.6648,206.30705 C14.6648,206.30705 15.2993,206.24955 15.7388,206.13355 C16.1773,206.01805 16.4783,205.85655 16.6398,205.64855 C17.1248,205.02505 17.6678,203.67055 18.2683,202.12255 L24.2973,186.63355 C24.3438,186.51805 25.2263,184.49355 25.3068,184.36005 C25.5793,183.90705 25.9828,183.94505 26.1338,183.96555 C26.2878,183.99005 26.4893,184.13155 26.5598,184.30855 Z" id="Fill-3" fill="#343534"></path>
            <path d="M67.23255,196.44405 L64.38455,188.71255 L61.40455,196.44005 L67.23255,196.44405 Z M65.57205,184.30855 L72.42355,202.36505 C72.83955,203.45155 73.17405,204.57955 73.42855,205.15705 C73.56705,205.50355 73.92505,205.78705 74.50255,206.00605 C75.08005,206.22555 75.78455,206.33505 75.78455,206.33505 L75.85405,207.04305 L68.02255,207.04305 L68.05755,206.33505 C68.05755,206.33505 68.68105,206.27805 69.09705,206.16205 C69.51305,206.04655 69.71855,205.87805 69.82505,205.71155 C70.30905,204.95455 69.40905,202.46955 69.40905,202.46955 L67.98755,198.53405 L60.61605,198.53405 L59.08305,202.40005 C58.69005,203.55555 58.49355,204.64905 58.49355,205.08755 C58.49355,205.41155 58.58555,205.64205 58.77105,205.78105 C58.97855,205.94305 59.31355,206.07555 59.77605,206.17955 C60.23755,206.28355 60.78105,206.33505 60.78105,206.33505 L60.85005,207.04305 L53.67755,207.04305 L53.67755,206.33505 C53.67755,206.33505 54.31205,206.27805 54.75155,206.16205 C55.19005,206.04655 55.49105,205.88505 55.65255,205.67705 C56.13755,205.05355 56.68055,203.67055 57.28105,202.12255 L63.31005,186.63355 C63.35655,186.51805 64.23905,184.49355 64.31955,184.36005 C64.59205,183.90705 64.99555,183.94505 65.14605,183.96555 C65.30055,183.99005 65.50205,184.13155 65.57205,184.30855 Z" id="Fill-5" fill="#343534"></path>
            <path d="M160.5548,196.44405 L157.7068,188.71255 L154.7263,196.44005 L160.5548,196.44405 Z M158.8943,184.30855 L165.7458,202.36505 C166.1613,203.45155 166.6168,204.55155 166.8713,205.12855 C167.0098,205.47505 167.2473,205.75855 167.8248,205.97755 C168.4018,206.19755 169.1068,206.30705 169.1068,206.30705 L169.1758,207.04305 L161.3448,207.04305 L161.3793,206.30705 C161.3793,206.30705 162.0028,206.24955 162.4193,206.13355 C162.8348,206.01805 163.0108,205.82705 163.1468,205.68355 C163.7623,205.03505 162.7313,202.46955 162.7313,202.46955 L161.3093,198.53405 L153.9378,198.53405 L152.4048,202.40005 C152.0118,203.55555 151.8158,204.62105 151.8158,205.05905 C151.8158,205.38305 151.9073,205.61405 152.0928,205.75255 C152.3008,205.91455 152.6353,206.04705 153.0978,206.15105 C153.5598,206.25505 154.1028,206.30705 154.1028,206.30705 L154.1718,207.04305 L146.9993,207.04305 L146.9993,206.30705 C146.9993,206.30705 147.6338,206.24955 148.0733,206.13355 C148.5118,206.01805 148.8128,205.85655 148.9748,205.64855 C149.4593,205.02505 150.0023,203.67055 150.6033,202.12255 L156.6323,186.63355 C156.6783,186.51805 157.5608,184.49355 157.6413,184.36005 C157.9138,183.90705 158.3178,183.94505 158.4683,183.96555 C158.6228,183.99005 158.8238,184.13155 158.8943,184.30855 Z" id="Fill-7" fill="#343534"></path>
            <path d="M38.68175,184.1389 C38.68175,184.1389 47.05975,184.0884 47.72925,184.1199 C50.24425,184.2354 51.55475,184.9939 52.28225,185.4554 C53.00975,185.9184 53.60475,186.5764 54.06725,187.4309 C54.52875,188.2854 54.78625,189.2794 54.75975,190.4104 C54.73325,191.5489 54.19375,195.0529 50.82675,196.6304 C49.29325,197.3494 47.92625,197.2469 46.60875,196.8289 C45.94925,196.6199 45.40075,196.2919 45.02425,195.9064 C44.85025,195.6354 45.10075,195.4549 45.25025,195.5534 C45.94325,195.8079 46.52875,195.9064 47.38375,195.9064 C48.53875,195.9064 49.54675,195.5104 50.45025,194.6069 C51.32675,193.7304 52.08925,192.1309 52.08925,190.7914 C52.08925,189.1509 51.64725,188.1609 50.93075,187.2019 C50.21475,186.2439 48.67275,185.5939 47.17125,185.5939 C46.13175,185.5939 45.32275,185.6754 44.74575,185.8369 C44.62975,185.8599 44.54875,185.9464 44.50375,186.0964 C44.45675,186.2474 44.41675,186.5989 44.38175,187.1534 C44.34725,187.7079 44.33025,188.5394 44.33025,189.6484 L44.33025,202.0189 C44.33025,203.5669 44.42175,204.8404 44.60725,205.3019 C44.72225,205.6029 45.13225,205.8454 45.83775,206.0299 C46.54175,206.2149 47.34475,206.3069 47.34475,206.3069 L47.41425,207.0434 L38.68175,207.0434 L38.68175,206.3274 C38.68175,206.3274 39.45525,206.2584 40.03275,206.1194 C40.61025,205.9809 40.95675,205.7179 41.07275,205.5099 C41.23425,205.2329 41.31575,203.8784 41.31575,201.9839 L41.31575,188.8859 C41.31575,187.5234 41.28325,186.3649 41.07275,185.9059 C41.00375,185.7209 40.63775,185.3434 40.05075,185.1074 C39.45975,184.8699 38.98225,184.8529 38.68175,184.8529 L38.68175,184.1389 Z" id="Fill-9" fill="#343534"></path>
            <path d="M95.60265,188.78195 C95.60265,187.37345 95.52115,186.35645 95.36015,185.73295 C95.26615,185.41195 94.90165,185.21345 94.17365,185.04045 C93.44565,184.86745 92.62265,184.84695 92.62265,184.84695 L92.62265,184.00045 L100.59215,184.00045 L100.57915,184.84695 C100.57915,184.84695 99.78915,184.88245 99.01565,185.06695 C98.24165,185.25245 97.90415,185.43095 97.78515,185.73295 C97.60065,186.44895 97.50865,187.52295 97.50865,188.95545 L97.50715,207.10495 L96.32015,207.11245 L95.73165,206.31545 L82.36565,187.25745 L82.36565,202.05345 C82.36565,203.57845 82.39115,204.65195 82.55315,205.27545 C82.72265,205.75595 83.04765,205.83645 83.76915,206.03295 C84.52015,206.23695 85.27365,206.32145 85.27365,206.32145 L85.27665,207.04295 L77.30665,207.04295 L77.30665,206.31595 C77.30665,206.31595 78.15565,206.20645 78.88365,206.03295 C79.61115,205.85945 79.95315,205.74195 80.15115,205.27545 C80.38165,204.67495 80.42565,203.52095 80.42565,201.94945 L80.42565,188.33195 C80.42565,187.19995 80.34415,186.33395 80.18265,185.73295 C80.11315,185.54795 79.72015,185.38045 79.00465,185.23045 C78.28815,185.08045 77.44565,185.00495 77.44565,185.00495 L77.44565,184.00045 L83.75215,184.00045 C83.75215,184.00045 88.52165,191.23045 95.49865,200.97945 C95.56815,200.58645 95.60265,200.11295 95.60265,199.55895 L95.60265,188.78195 Z" id="Fill-11" fill="#343534"></path>
            <path d="M112.2257,190.1677 C112.2642,188.3722 112.9152,186.7737 114.2922,185.6192 C115.6687,184.4642 117.2652,184.0087 119.0847,184.0087 C119.5977,184.0087 120.7077,184.0997 121.1597,184.1782 C122.6297,184.4322 124.3692,184.9887 124.3692,184.9887 L124.7892,189.9927 L123.8167,189.9712 C123.8167,189.9712 123.6537,188.4157 122.3187,186.9192 C121.4497,185.9462 120.3122,185.5062 118.8402,185.4437 C117.4417,185.3837 116.3327,185.8517 115.7617,186.5522 C115.1897,187.2517 115.0247,188.0562 115.0257,189.0827 C115.0272,190.9892 116.2202,191.9522 116.6527,192.3027 C117.0842,192.6522 117.3992,192.8972 117.5977,193.0372 C117.7957,193.1777 118.1927,193.4342 118.7872,193.8072 C119.3822,194.1807 119.7607,194.4137 119.9242,194.5072 C120.0412,194.5767 120.4497,194.8277 121.1497,195.2597 C121.8492,195.6917 122.3277,195.9942 122.5847,196.1697 C122.8407,196.3447 123.2547,196.6462 123.7917,197.1142 C125.6817,198.7612 126.0137,200.7012 126.0137,201.2612 C126.0137,203.1282 125.3307,204.7387 123.8727,205.9397 C122.4142,207.1412 120.6597,207.6652 118.6997,207.6652 C118.1397,207.6652 117.5452,207.6247 116.9152,207.5432 C116.2852,207.4612 115.7602,207.3797 115.3402,207.2982 C114.9207,207.2167 114.3897,207.1002 113.7482,206.9482 C113.1067,206.7967 112.4007,206.6507 112.4007,206.6507 L111.6027,201.0862 L112.6172,201.0782 C112.6172,201.0782 112.7802,202.1137 113.6447,203.5532 C114.6732,205.2652 116.5727,206.2307 118.7702,206.2307 C119.9362,206.2307 120.9272,205.8807 121.7447,205.1807 C122.5612,204.4807 122.9692,203.4897 122.9692,202.2062 C122.9692,201.7397 122.8272,200.2592 121.5167,199.1092 C121.1537,198.7907 120.8347,198.6017 120.6247,198.4617 C120.4147,198.3222 120.0297,198.1002 119.4697,197.7967 C118.9097,197.4937 118.5252,197.2832 118.3152,197.1667 C117.6377,196.7702 117.1657,196.4907 116.8982,196.3267 C116.6477,196.1752 116.2037,195.8897 115.5682,195.4697 C114.9492,195.0617 114.5007,194.6997 114.2207,194.3847 C113.9412,194.0697 112.1727,192.6567 112.2257,190.1677" id="Fill-13" fill="#343534"></path>
            <path d="M131.06065,205.2414 L131.06065,185.7484 C131.07365,185.6714 130.67365,185.3509 129.88065,185.0934 C129.27865,184.8979 128.51165,184.8514 128.51165,184.8514 L128.51165,184.1389 L143.90665,184.1679 L144.83265,188.6434 L143.79665,188.6374 C143.79665,188.6374 143.44765,187.2864 142.26815,186.2894 C141.71865,185.8249 140.78915,185.7519 139.70365,185.7519 L133.96465,185.7544 L133.97515,194.5519 C133.97515,194.5519 139.21665,194.5494 139.50615,194.5494 C140.71015,194.5494 141.01015,194.2254 141.15415,193.9449 C141.38365,193.4989 141.65065,192.4239 141.65065,192.4239 L142.40665,192.4249 L142.40665,198.6879 L141.65065,198.6829 C141.65065,198.6829 141.60065,198.0544 141.24115,197.2894 C140.94865,196.6659 140.37765,196.4059 139.47615,196.4059 C138.52665,196.4059 133.97515,196.4124 133.97515,196.4124 L133.97115,205.1999 L138.49115,205.2309 C138.49115,205.2309 142.07765,205.2189 142.84065,204.8259 C143.18665,204.6414 143.47715,204.3189 143.89565,203.4899 C144.24065,202.8074 144.73365,201.3259 144.73365,201.3259 L145.84165,201.3259 L144.52065,207.0779 L128.51165,207.0434 L128.51165,206.3354 C129.65265,206.1799 130.59415,205.7079 131.06065,205.2414" id="Fill-15" fill="#343534"></path>
            <path d="M179.5138,185.59395 C178.4738,185.59395 178.0373,185.58345 177.5103,185.67695 C177.4178,185.70045 176.6718,185.73495 176.6718,186.89895 C176.6718,187.44345 176.6723,193.84095 176.6723,193.84095 C176.6723,194.51145 177.6773,194.84595 179.6873,194.84595 L180.5533,194.84595 C181.3613,194.84595 182.1993,194.44195 183.0658,193.63295 C183.9318,192.82495 184.3648,191.75045 184.3648,190.41045 C184.3648,187.19995 182.7478,185.59395 179.5138,185.59395 M180.0153,184.12245 C182.6273,184.12245 184.0643,184.99395 184.8503,185.45545 C185.6348,185.91795 186.2823,186.57645 186.7908,187.43095 C187.2983,188.28545 187.5528,189.27895 187.5528,190.41045 C187.5528,191.38095 187.1893,192.39745 186.4618,193.45995 C185.7333,194.52295 184.4778,195.44245 183.2303,196.01995 C182.9998,196.11195 182.9298,196.22795 183.0228,196.36595 C184.1773,198.79195 185.4308,201.10595 186.9328,202.74595 C189.4858,205.89795 191.1998,206.64595 193.0708,207.42645 C193.4378,207.57945 193.3208,207.81245 193.0378,207.81945 C192.5393,207.83245 191.8678,207.78745 191.1723,207.66645 C188.1143,207.13345 185.5453,205.11645 183.4038,202.12295 C183.0348,201.61445 182.6128,201.00845 182.1393,200.30395 C181.6663,199.59895 180.1633,197.11045 179.9438,196.92495 C179.7243,196.74045 179.6968,196.57995 179.2333,196.47495 C178.9698,196.41495 178.1048,196.33545 177.5038,196.33545 C177.3183,196.33545 177.1803,196.34195 177.0878,196.35345 C176.9958,196.36545 176.9028,196.41695 176.8113,196.50895 C176.7183,196.60245 176.6723,196.74045 176.6723,196.92495 C176.6723,196.92495 176.7643,204.67845 176.9493,205.14045 C177.0653,205.44095 177.5023,205.76045 178.2073,205.94495 C178.9113,206.12995 179.7543,206.30645 179.7543,206.30645 L179.7563,207.04295 L170.9188,207.04295 L170.9248,206.31095 C170.9248,206.31095 171.7793,206.13095 172.3423,205.97595 C173.2728,205.71895 173.5838,205.51395 173.6298,205.04145 L173.6258,185.90595 C173.6258,185.90595 173.4573,185.40995 172.3933,185.10095 C171.7903,184.92595 171.0243,184.85845 171.0243,184.85845 L171.0243,184.13895 C171.0243,184.13895 179.3448,184.12245 180.0153,184.12245" id="Fill-17" fill="#343534"></path>
            <path d="M211.7081,200.79465 L210.5466,205.74715 C210.5466,205.74715 209.6491,206.21715 209.1011,206.40515 C207.4571,206.96865 205.6946,207.39915 202.3836,207.25015 C199.3806,207.11465 196.8211,206.14615 194.7151,203.93665 C192.6086,201.72865 191.5551,199.09865 191.5551,196.04715 C191.5551,192.81365 192.7246,189.99415 194.8261,187.62565 C196.2346,186.03865 199.2101,184.26315 202.7591,184.26315 C207.5261,184.26315 210.3846,185.66215 210.3846,185.66215 L210.9906,190.03515 L209.8291,190.37665 C209.8291,190.37665 209.6756,189.77915 209.5731,189.47165 C209.4701,189.16415 208.8571,187.31015 205.7471,186.09015 C204.9161,185.76365 203.9311,185.69765 202.8611,185.69765 C201.2696,185.69765 198.9881,186.68215 197.4166,188.65215 C195.8451,190.62165 195.0861,192.95165 195.0861,195.43315 C195.0861,197.27765 195.3781,198.87065 196.0161,200.41915 C196.6536,201.96815 197.4271,203.17065 198.8056,204.18365 C200.1826,205.19765 201.7906,205.78165 203.6806,205.78165 C205.9356,205.78165 207.4931,205.22665 208.7226,203.90615 C209.0411,203.56415 209.4521,203.00965 209.6916,202.45115 C209.9301,201.89365 210.5806,200.48715 210.5806,200.48715 L211.7081,200.79465 Z" id="Fill-19" fill="#343534"></path>
            <path d="M233.35755,185.79805 L233.35755,205.40005 C233.38455,205.61955 233.73255,205.94905 234.44755,206.09405 C235.04755,206.21555 235.74855,206.31605 235.74855,206.31605 L235.74955,207.01855 L227.69655,207.01855 L227.69655,206.31605 C227.69655,206.31605 228.42905,206.22705 229.01555,206.11105 C229.78555,205.95805 230.24705,205.79805 230.25255,205.40005 L230.23205,196.15405 L219.81455,196.17205 L219.81005,205.38355 L219.81105,205.40005 C219.81605,205.64955 220.18605,205.94905 220.90105,206.09405 C221.50105,206.21555 222.20205,206.31605 222.20205,206.31605 L222.20305,207.01855 L214.14955,207.01855 L214.14955,206.31605 C214.14955,206.31605 214.88255,206.22705 215.46955,206.11105 C216.23905,205.95805 216.69205,205.79805 216.69755,205.40005 L216.69705,205.38355 L216.69705,185.78855 C216.69705,185.44005 216.22905,185.25155 215.61655,185.07955 C215.03755,184.91605 214.29705,184.85605 214.29705,184.85605 L214.29705,184.22955 L222.38455,184.22955 L222.38105,184.85605 C222.38105,184.85605 221.42955,184.92205 220.97705,185.04455 C220.45605,185.18555 219.81055,185.40255 219.81055,185.78855 L219.83055,194.33905 L230.21605,194.33905 L230.25255,185.79805 L230.25305,185.78805 C230.25305,185.44005 229.77605,185.25155 229.16305,185.07955 C228.58455,184.91605 227.84405,184.85605 227.84405,184.85605 L227.84405,184.22955 L235.93105,184.22955 L235.92805,184.85605 C235.92805,184.85605 234.97605,184.92205 234.52405,185.04455 C234.00305,185.18555 233.35705,185.40255 233.35705,185.78855 L233.35755,185.79805 Z" id="Fill-21" fill="#343534"></path>
            <g id="Group-25" transform="translate(105.000000, 223.050500)">
                <mask id="mask-2" fill="white">
                    <use xlink:href="#path-1"></use>
                </mask>
                <g id="Clip-24"></g>
                <path d="M1.6847,6.99415 C1.6847,7.28865 1.7437,7.34715 2.0377,7.34715 L3.1437,7.34715 C4.1197,7.34715 4.8377,6.88865 4.8377,5.91215 C4.8377,5.01815 4.2612,4.67665 3.3552,4.67665 L2.0377,4.67665 C1.7437,4.67665 1.6847,4.73515 1.6847,5.02965 L1.6847,6.99415 Z M1.6847,3.19415 C1.6847,3.48865 1.7437,3.54715 2.0377,3.54715 L2.9787,3.54715 C3.8492,3.54715 4.4727,3.21765 4.4727,2.27665 C4.4727,1.50065 3.8377,1.30015 3.1202,1.30015 L2.0377,1.30015 C1.7437,1.30015 1.6847,1.35915 1.6847,1.65315 L1.6847,3.19415 Z M2.2257,8.47665 C1.6732,8.47665 0.7437,8.50015 0.6612,8.50015 C0.4142,8.50015 0.3317,8.41815 0.3317,8.17115 C0.3317,8.08815 0.3552,6.81765 0.3552,6.15915 L0.3552,2.46465 C0.3552,1.88865 0.3317,0.70015 0.3317,0.50065 C0.3317,0.21765 0.4027,0.12415 0.6612,0.12415 C0.7907,0.12415 1.6732,0.14765 2.2257,0.14765 L3.1322,0.14765 C4.8257,0.14765 5.8257,0.59415 5.8257,2.02965 C5.8257,2.71215 5.6732,3.35865 5.0612,3.80615 C4.9667,3.87715 4.9082,3.92365 4.9082,3.95915 C4.9082,4.01815 4.9667,4.05315 5.0962,4.10015 C5.7787,4.37115 6.2257,4.95915 6.2257,5.92365 C6.2257,7.67665 5.0612,8.47665 3.1672,8.47665 L2.2257,8.47665 Z" id="Fill-23" fill="#343534" mask="url(#mask-2)"></path>
            </g>
            <g id="Group-28" transform="translate(113.500000, 223.050500)">
                <mask id="mask-4" fill="white">
                    <use xlink:href="#path-3"></use>
                </mask>
                <g id="Clip-27"></g>
                <path d="M2.97425,7.2412 C3.53875,7.2412 4.59775,7.2062 4.67975,7.2062 C4.92675,7.2062 4.97425,7.2767 4.97425,7.5472 L4.97425,8.1592 C4.97425,8.4297 4.92675,8.5002 4.67975,8.5002 C4.59775,8.5002 3.53875,8.4767 2.97425,8.4767 L2.06825,8.4767 C1.51525,8.4767 0.58625,8.5002 0.50375,8.5002 C0.24475,8.5002 0.17375,8.4062 0.17375,8.1237 C0.18575,7.4647 0.19775,6.7237 0.19775,6.1592 L0.19775,2.4647 C0.19775,1.8887 0.18575,1.1002 0.17375,0.5007 C0.17375,0.2177 0.24475,0.1242 0.50375,0.1242 C0.58625,0.1242 1.51525,0.1472 2.06825,0.1472 L2.72725,0.1472 C3.29175,0.1472 4.35075,0.1242 4.43275,0.1242 C4.67975,0.1242 4.72725,0.1942 4.72725,0.4647 L4.72725,1.1002 C4.72725,1.3712 4.67975,1.4412 4.43275,1.4412 C4.35075,1.4412 3.29175,1.4062 2.72725,1.4062 L1.89175,1.4062 C1.59775,1.4062 1.53875,1.4647 1.53875,1.7592 L1.53875,3.1002 C1.53875,3.3947 1.59775,3.4532 1.89175,3.4532 L2.48025,3.4532 C3.03275,3.4532 4.10375,3.4297 4.18575,3.4297 C4.43275,3.4297 4.48025,3.5007 4.48025,3.7712 L4.48025,4.3472 C4.48025,4.6177 4.43275,4.6887 4.18575,4.6887 C4.10375,4.6887 3.03275,4.6652 2.48025,4.6652 L1.89175,4.6652 C1.59775,4.6652 1.53875,4.7237 1.53875,5.0182 L1.53875,6.8887 C1.53875,7.1827 1.59775,7.2412 1.89175,7.2412 L2.97425,7.2412 Z" id="Fill-26" fill="#343534" mask="url(#mask-4)"></path>
            </g>
            <path d="M124.03915,229.17405 C124.03915,229.85655 124.07415,231.15055 124.07415,231.23305 C124.07415,231.48005 124.00415,231.52705 123.73365,231.52705 L122.99215,231.52705 C122.72165,231.52705 122.65115,231.48005 122.65115,231.23305 C122.65115,231.15055 122.68615,229.85655 122.68615,229.17405 L122.68615,224.82155 C122.68615,224.52705 122.62765,224.46855 122.33315,224.46855 L121.96865,224.46855 C121.47465,224.46855 120.46315,224.50355 120.38065,224.50355 C120.13315,224.50355 120.08665,224.43355 120.08665,224.16305 L120.08665,223.51555 C120.08665,223.24505 120.13315,223.17455 120.38065,223.17455 C120.46315,223.17455 121.53315,223.19805 122.08665,223.19805 L124.65115,223.19805 C125.20365,223.19805 126.27465,223.17455 126.35715,223.17455 C126.60415,223.17455 126.65115,223.24505 126.65115,223.51555 L126.65115,224.16305 C126.65115,224.43355 126.60415,224.50355 126.35715,224.50355 C126.27465,224.50355 125.26265,224.46855 124.76865,224.46855 L124.39215,224.46855 C124.09815,224.46855 124.03915,224.52705 124.03915,224.82155 L124.03915,229.17405 Z" id="Fill-29" fill="#343534"></path>
            <path d="M130.15735,228.1037 C130.12235,228.1862 130.11035,228.2567 130.11035,228.3037 C130.11035,228.4092 130.19285,228.4332 130.38085,228.4332 L132.39285,228.4332 C132.58135,228.4332 132.66335,228.4092 132.66335,228.3037 C132.66335,228.2567 132.65135,228.1862 132.61635,228.1037 L131.52185,225.4092 C131.47535,225.2922 131.43985,225.2212 131.39285,225.2212 C131.35735,225.2212 131.31085,225.2802 131.26335,225.4092 L130.15735,228.1037 Z M129.94585,229.5627 C129.63985,229.5627 129.55785,229.5862 129.45185,229.8447 C129.28685,230.2332 129.13385,230.6332 128.93435,231.1977 C128.82835,231.4802 128.76935,231.5272 128.46335,231.5272 L127.63985,231.5272 C127.45185,231.5272 127.36935,231.5037 127.36935,231.4092 C127.36935,231.3627 127.39285,231.3032 127.43985,231.2097 C127.80485,230.3857 128.06385,229.7977 128.31085,229.2212 L129.99285,225.2332 C130.20485,224.7272 130.45185,224.1627 130.69885,223.5277 C130.80485,223.2447 130.86335,223.1977 131.16885,223.1977 L131.67485,223.1977 C131.98085,223.1977 132.03985,223.2447 132.14585,223.5277 C132.39285,224.1627 132.62785,224.7272 132.83985,225.2212 L134.53385,229.1977 C134.79285,229.8097 135.05135,230.3977 135.41635,231.2097 C135.46335,231.3032 135.48685,231.3627 135.48685,231.4092 C135.48685,231.5037 135.40435,231.5272 135.21635,231.5272 L134.31035,231.5272 C134.00435,231.5272 133.94585,231.4802 133.83985,231.1977 C133.63985,230.6332 133.48685,230.2332 133.32235,229.8447 C133.21635,229.5862 133.14585,229.5627 132.82835,229.5627 L129.94585,229.5627 Z" id="Fill-31" fill="#343534"></path>
            <path d="M124.7505,110.32785 C124.7505,111.11835 125.3105,111.44185 125.9945,111.04635 L152.518,95.73335 C153.2025,95.33785 153.7625,94.36785 153.7625,93.57785 L153.7625,62.95085 C153.7625,62.16085 153.2025,61.83785 152.518,62.23285 L125.9945,77.54635 C125.3105,77.94135 124.7505,78.91085 124.7505,79.70135 L124.7505,110.32785 Z" id="Fill-33" fill="#E6C620"></path>
            <path d="M87.7124,88.94405 C87.7124,89.73405 88.2724,90.05755 88.9564,89.66255 L115.4799,74.34905 C116.1644,73.95405 116.7244,72.98405 116.7244,72.19355 L116.7244,41.56705 C116.7244,40.77655 116.1644,40.45355 115.4799,40.84855 L88.9564,56.16205 C88.2724,56.55705 87.7124,57.52705 87.7124,58.31705 L87.7124,88.94405 Z" id="Fill-35" fill="#6941A0"></path>
            <g id="Group" transform="translate(50.000000, 0.000000)" fill="#CA1B4D">
                <path d="M102.51805,132.4304 C103.20255,132.8254 103.76255,132.5024 103.76255,131.7119 L103.76255,105.7189 C103.76255,104.9289 103.20255,104.6054 102.51805,105.0009 L80.00755,117.9969 C79.32305,118.3924 79.32305,119.0389 80.00755,119.4339 L102.51805,132.4304 Z" id="Fill-37"></path>
                <path d="M113.0332,62.23265 C112.3487,61.83765 111.7887,62.16065 111.7887,62.95115 L111.7887,88.94415 C111.7887,89.73415 112.3487,90.05715 113.0332,89.66215 L135.5437,76.66565 C136.2282,76.27065 136.2282,75.62415 135.5437,75.22915 L113.0332,62.23265 Z" id="Fill-39"></path>
                <path d="M38.95655,19.46455 C38.27255,19.06955 37.71255,19.39255 37.71255,20.18305 L37.71255,46.17605 C37.71255,46.96605 38.27255,47.28905 38.95655,46.89405 L61.46705,33.89755 C62.15155,33.50255 62.15155,32.85605 61.46705,32.46105 L38.95655,19.46455 Z" id="Fill-43"></path>
                <path d="M28.4419,89.6623 C29.1264,90.0573 29.6864,89.7343 29.6864,88.9438 L29.6864,62.9508 C29.6864,62.1608 29.1264,61.8378 28.4419,62.2328 L5.9314,75.2293 C5.2469,75.6243 5.2469,76.2708 5.9314,76.6658 L28.4419,89.6623 Z" id="Fill-47"></path>
                <path d="M66.7246,150.6164 C66.7226,149.9344 66.7246,127.1029 66.7246,127.1029 C66.7246,126.3129 66.1646,125.9894 65.4801,126.3844 L46.4901,137.3484 L42.9696,139.3809 C42.2851,139.7759 42.2851,140.4224 42.9696,140.8179 L54.2276,147.3174 C57.9321,149.4564 61.8791,150.7899 65.8681,151.3814 C66.1531,151.4239 66.7266,151.4154 66.7246,150.6164" id="Fill-49"></path>
                <path d="M137.4092,42.0886 C136.8192,42.4311 117.0457,53.8451 117.0457,53.8451 C116.3612,54.2406 116.3617,54.8871 117.0457,55.2821 L136.0357,66.2456 L139.5567,68.2781 C140.2407,68.6736 140.8007,68.3501 140.8007,67.5596 L140.8007,54.5606 C140.8002,50.2831 139.9822,46.1981 138.5002,42.4476 C138.3942,42.1796 138.0997,41.6866 137.4092,42.0886" id="Fill-58"></path>
                <path d="M4.0659,42.0886 C4.6554,42.4311 24.4294,53.8451 24.4294,53.8451 C25.1134,54.2406 25.1134,54.8871 24.4289,55.2821 L5.4389,66.2456 L1.9184,68.2781 C1.2339,68.6736 0.6744,68.3501 0.6744,67.5596 L0.6744,54.5606 C0.6744,50.2831 1.4929,46.1981 2.9749,42.4476 C3.0809,42.1796 3.3749,41.6866 4.0659,42.0886" id="Fill-60"></path>
                <path d="M137.4092,109.80635 C136.8192,109.46385 117.0457,98.04985 117.0457,98.04985 C116.3612,97.65435 116.3617,97.00785 117.0457,96.61285 L136.0357,85.64935 L139.5567,83.61685 C140.2407,83.22135 140.8007,83.54485 140.8007,84.33535 L140.8007,97.33435 C140.8002,101.61185 139.9822,105.69685 138.5002,109.44735 C138.3942,109.71535 138.0997,110.20835 137.4092,109.80635" id="Fill-62"></path>
                <path d="M4.0659,109.80635 C4.6554,109.46385 24.4294,98.04985 24.4294,98.04985 C25.1134,97.65435 25.1134,97.00785 24.4289,96.61285 L5.4389,85.64935 L1.9184,83.61685 C1.2339,83.22135 0.6744,83.54485 0.6744,84.33535 L0.6744,97.33435 C0.6744,101.61185 1.4929,105.69685 2.9749,109.44735 C3.0809,109.71535 3.3749,110.20835 4.0659,109.80635" id="Fill-64"></path>
                <path d="M8.0786,35.1379 C8.6706,35.4769 28.4421,46.8944 28.4421,46.8944 C29.1266,47.2894 29.6861,46.9659 29.6861,46.1759 L29.6861,24.2484 L29.6861,20.1829 C29.6861,19.3929 29.1266,19.0694 28.4421,19.4644 L17.1841,25.9639 C13.4796,28.1039 10.3511,30.8549 7.8441,34.0134 C7.6651,34.2394 7.3856,34.7404 8.0786,35.1379" id="Fill-66"></path>
                <path d="M74.7505,150.6164 C74.7525,149.9344 74.7505,127.1029 74.7505,127.1029 C74.7505,126.3129 75.3105,125.9894 75.9945,126.3844 L94.9845,137.3484 L98.5055,139.3809 C99.1895,139.7759 99.1895,140.4224 98.5055,140.8179 L87.2475,147.3174 C83.5425,149.4564 79.5955,150.7899 75.607,151.3814 C75.3215,151.4239 74.748,151.4154 74.7505,150.6164" id="Fill-68"></path>
                <path d="M74.7505,1.27855 C74.7525,1.96055 74.7505,24.79205 74.7505,24.79205 C74.7505,25.58205 75.3105,25.90555 75.9945,25.51055 L94.9845,14.54655 L98.5055,12.51405 C99.1895,12.11905 99.1895,11.47255 98.5055,11.07705 L87.2475,4.57755 C83.5425,2.43855 79.5955,1.10505 75.607,0.51355 C75.3215,0.47105 74.748,0.47955 74.7505,1.27855" id="Fill-51"></path>
                <path d="M66.7246,1.27855 C66.7226,1.96055 66.7246,24.79205 66.7246,24.79205 C66.7246,25.58205 66.1646,25.90555 65.4801,25.51055 L46.4901,14.54655 L42.9696,12.51405 C42.2851,12.11905 42.2851,11.47255 42.9696,11.07705 L54.2276,4.57755 C57.9321,2.43855 61.8791,1.10505 65.8681,0.51355 C66.1531,0.47105 66.7266,0.47955 66.7246,1.27855" id="Fill-70"></path>
                <path d="M133.396,116.75705 C132.8045,116.41805 113.0325,105.00055 113.0325,105.00055 C112.3485,104.60555 111.7885,104.92905 111.7885,105.71905 L111.7885,127.64655 L111.7885,131.71205 C111.7885,132.50205 112.3485,132.82555 113.033,132.43055 L124.2905,125.93105 C127.995,123.79105 131.1235,121.04005 133.6305,117.88155 C133.81,117.65555 134.089,117.15455 133.396,116.75705" id="Fill-73"></path>
            </g>
            <path d="M125.99465,40.84835 C125.31065,40.45335 124.75065,40.77635 124.75065,41.56685 L124.75065,67.55985 C124.75065,68.35035 125.31065,68.67335 125.99465,68.27835 L148.50515,55.28185 C149.18965,54.88685 149.18965,54.23985 148.50515,53.84485 L125.99465,40.84835 Z" id="Fill-41" fill="#D7D8D6"></path>
            <path d="M115.48,111.0461 C116.1645,111.4416 116.7245,111.1186 116.7245,110.3276 L116.7245,84.3351 C116.7245,83.5446 116.1645,83.2216 115.48,83.6166 L92.9695,96.6131 C92.285,97.0081 92.285,97.6546 92.9695,98.0501 L115.48,111.0461 Z" id="Fill-45" fill="#343534"></path>
            <path d="M183.3965,35.1374 C183.906,34.8449 183.8885,34.4974 183.773,34.2439 C181.439,31.2624 178.6185,28.6814 175.411,26.6479 C175.297,26.5754 175.1785,26.5064 175.063,26.4354 C174.663,26.1889 174.2615,25.9449 173.8505,25.7149 L173.8525,25.7109 L167.564,22.0809 L159.0195,17.1479 C158.3355,16.7524 157.216,16.7524 156.5315,17.1479 L130.0075,32.4609 C129.3235,32.8564 129.3235,33.5024 130.008,33.8979 L143.2695,41.5544 L156.5315,49.2109 C157.216,49.6064 158.3355,49.6064 159.02,49.2109 L167.564,44.2779 C173.397,40.9099 182.842,35.4564 183.3755,35.1494 L183.3965,35.1374 Z" id="Fill-54" fill="#E6C620"></path>
            <path d="M111.4673,117.9968 L84.9438,102.6838 C84.2593,102.2883 83.1393,102.2883 82.4553,102.6838 L74.0418,107.5408 L74.0418,107.5413 C68.2363,110.8938 58.6893,116.4058 58.1068,116.7408 L58.0788,116.7573 C57.5193,117.0783 57.5948,117.4643 57.7383,117.7203 C57.9253,117.9583 58.1083,118.1988 58.3013,118.4308 C58.3063,118.4368 58.3108,118.4423 58.3153,118.4478 C59.3283,119.6643 60.4258,120.8068 61.6008,121.8663 C61.6028,121.8683 61.6053,121.8708 61.6078,121.8728 C61.9738,122.2028 62.3488,122.5233 62.7293,122.8368 C62.7748,122.8743 62.8203,122.9123 62.8663,122.9493 C63.1943,123.2168 63.5298,123.4758 63.8683,123.7308 C63.9773,123.8123 64.0848,123.8948 64.1948,123.9753 C64.4688,124.1763 64.7483,124.3703 65.0288,124.5633 C65.2113,124.6883 65.3933,124.8138 65.5793,124.9353 C65.7948,125.0773 66.0148,125.2143 66.2343,125.3513 C66.5483,125.5473 66.8613,125.7438 67.1843,125.9303 L74.0418,129.8903 L82.4553,134.7473 C83.1393,135.1423 84.2593,135.1423 84.9438,134.7473 L111.4673,119.4338 C112.1513,119.0388 112.1513,118.3923 111.4673,117.9968" id="Fill-56" fill="#6941A0"></path>
        </g>
    </g>
</svg>