<?xml version="1.0" encoding="UTF-8"?>
<svg width="180px" height="180px" viewBox="0 0 180 180" version="1.1" xmlns="http://www.w3.org/2000/svg" xmlns:xlink="http://www.w3.org/1999/xlink">
    <!-- Generator: Sketch 53.1 (72631) - https://sketchapp.com -->
    <title>safari-icon</title>
    <desc>Created with Sketch.</desc>
    <g id="safari-icon" stroke="none" stroke-width="1" fill="none" fill-rule="evenodd">
        <g id="eyecatch" transform="translate(14.000000, 8.000000)" fill="#000000">
            <path d="M80.7452101,119.043431 C80.7452101,119.900261 81.3493231,120.250905 82.0872039,119.822219 L110.700045,103.224335 C111.438465,102.79565 112.042578,101.744259 112.042578,100.887972 L112.042578,67.6911199 C112.042578,66.8348325 111.438465,66.4847302 110.700045,66.9128739 L82.0872039,83.5112998 C81.3493231,83.9394434 80.7452101,84.9902923 80.7452101,85.8471216 L80.7452101,119.043431 Z" id="Fill-33"></path>
            <path d="M40.7895002,95.8653585 C40.7895002,96.7216459 41.3936132,97.0722901 42.1314941,96.6441464 L70.7443352,80.0457206 C71.4827554,79.6175769 72.0868684,78.5661861 72.0868684,77.7093568 L72.0868684,44.513047 C72.0868684,43.6562177 71.4827554,43.3061154 70.7443352,43.7342591 L42.1314941,60.3326849 C41.3936132,60.7608286 40.7895002,61.8122194 40.7895002,62.6685068 L40.7895002,95.8653585 Z" id="Fill-35"></path>
            <path d="M110.700099,143.000563 C111.438519,143.428707 112.042632,143.078605 112.042632,142.221775 L112.042632,114.047753 C112.042632,113.191466 111.438519,112.840822 110.700099,113.269507 L86.4163747,127.355976 C85.6779545,127.784662 85.6779545,128.485409 86.4163747,128.913552 L110.700099,143.000563 Z" id="Fill-37"></path>
            <path d="M122.043561,66.9126571 C121.305141,66.4845134 120.701028,66.8346157 120.701028,67.6914451 L120.701028,95.8654669 C120.701028,96.7217543 121.305141,97.0718566 122.043561,96.6437129 L146.327285,82.556702 C147.065705,82.1285583 147.065705,81.4278117 146.327285,80.999668 L122.043561,66.9126571 Z" id="Fill-39"></path>
            <path d="M42.1316559,20.5559694 C41.3937751,20.1278257 40.7896621,20.477928 40.7896621,21.3347574 L40.7896621,49.5087792 C40.7896621,50.3650666 41.3937751,50.7151688 42.1316559,50.2870252 L66.4153801,36.2000143 C67.1538004,35.7718706 67.1538004,35.071124 66.4153801,34.6429803 L42.1316559,20.5559694 Z" id="Fill-43"></path>
            <path d="M30.7887333,96.6438755 C31.5271535,97.0720191 32.1312665,96.7219168 32.1312665,95.8650875 L32.1312665,67.6910657 C32.1312665,66.8347783 31.5271535,66.484676 30.7887333,66.9128197 L6.50500904,80.9998306 C5.76658878,81.4279743 5.76658878,82.1287209 6.50500904,82.5568645 L30.7887333,96.6438755 Z" id="Fill-47"></path>
            <path d="M72.0870842,162.712515 C72.0849267,161.97329 72.0870842,137.226043 72.0870842,137.226043 C72.0870842,136.369756 71.4829712,136.019111 70.7445509,136.447255 L50.2586478,148.331223 L46.4608267,150.534266 C45.7224065,150.96241 45.7224065,151.663156 46.4608267,152.091842 L58.6056555,159.136702 C62.6019708,161.455182 66.8598886,162.900573 71.1631149,163.541705 C71.4705653,163.587771 72.0892417,163.578557 72.0870842,162.712515" id="Fill-49"></path>
            <path d="M148.339737,45.0783593 C147.70326,45.4495978 126.372138,57.8213242 126.372138,57.8213242 C125.633718,58.2500098 125.634258,58.9507564 126.372138,59.3789001 L146.858042,71.2623259 L150.656402,73.465369 C151.394283,73.8940547 151.998396,73.5434104 151.998396,72.6865811 L151.998396,58.5968604 C151.997857,53.9604437 151.11542,49.5326794 149.516678,45.4674822 C149.402328,45.1769949 149.08463,44.6426282 148.339737,45.0783593" id="Fill-58"></path>
            <path d="M4.49255763,45.0783593 C5.12849443,45.4495978 26.4601558,57.8213242 26.4601558,57.8213242 C27.1980366,58.2500098 27.1980366,58.9507564 26.4596164,59.3789001 L5.97371324,71.2623259 L2.17589217,73.465369 C1.43747191,73.8940547 0.833898305,73.5434104 0.833898305,72.6865811 L0.833898305,58.5968604 C0.833898305,53.9604437 1.71687417,49.5326794 3.31561606,45.4674822 C3.42996602,45.1769949 3.74712534,44.6426282 4.49255763,45.0783593" id="Fill-60"></path>
            <path d="M148.339737,118.478173 C147.70326,118.106935 126.372138,105.735208 126.372138,105.735208 C125.633718,105.306523 125.634258,104.605776 126.372138,104.177633 L146.858042,92.2942067 L150.656402,90.0911636 C151.394283,89.6624779 151.998396,90.0131222 151.998396,90.8699515 L151.998396,104.959672 C151.997857,109.596089 151.11542,114.023853 149.516678,118.08905 C149.402328,118.379538 149.08463,118.913904 148.339737,118.478173" id="Fill-62"></path>
            <path d="M4.49255763,118.478173 C5.12849443,118.106935 26.4601558,105.735208 26.4601558,105.735208 C27.1980366,105.306523 27.1980366,104.605776 26.4596164,104.177633 L5.97371324,92.2942067 L2.17589217,90.0911636 C1.43747191,89.6624779 0.833898305,90.0131222 0.833898305,90.8699515 L0.833898305,104.959672 C0.833898305,109.596089 1.71687417,114.023853 3.31561606,118.08905 C3.42996602,118.379538 3.74712534,118.913904 4.49255763,118.478173" id="Fill-64"></path>
            <path d="M8.82135086,37.5444396 C9.4599846,37.9118844 30.788949,50.2874045 30.788949,50.2874045 C31.5273693,50.7155482 32.1309429,50.364904 32.1309429,49.5086166 L32.1309429,25.7412229 L32.1309429,21.3345948 C32.1309429,20.4783074 31.5273693,20.1276632 30.788949,20.5558068 L18.6441203,27.6006672 C14.6478049,29.9202304 11.272863,32.9020614 8.56837855,36.325585 C8.37527814,36.5705482 8.07376103,37.1135861 8.82135086,37.5444396" id="Fill-66"></path>
            <path d="M80.7452101,162.712515 C80.7473676,161.97329 80.7452101,137.226043 80.7452101,137.226043 C80.7452101,136.369756 81.3493231,136.019111 82.0872039,136.447255 L102.573107,148.331223 L106.371468,150.534266 C107.109348,150.96241 107.109348,151.663156 106.371468,152.091842 L94.2266388,159.136702 C90.2297841,161.455182 85.9718662,162.900573 81.6691793,163.541705 C81.3611896,163.587771 80.7425131,163.578557 80.7452101,162.712515" id="Fill-68"></path>
            <path d="M80.7452101,0.8440177 C80.7473676,1.58324299 80.7452101,26.3304895 80.7452101,26.3304895 C80.7452101,27.1867769 81.3493231,27.5374211 82.0872039,27.1092775 L102.573107,15.2253097 L106.371468,13.0222666 C107.109348,12.5941229 107.109348,11.8933763 106.371468,11.4646907 L94.2266388,4.41983034 C90.2297841,2.10135103 85.9718662,0.655959654 81.6691793,0.0148280444 C81.3611896,-0.0312380476 80.7425131,-0.0220248292 80.7452101,0.8440177" id="Fill-51"></path>
            <path d="M72.0870842,0.8440177 C72.0849267,1.58324299 72.0870842,26.3304895 72.0870842,26.3304895 C72.0870842,27.1867769 71.4829712,27.5374211 70.7445509,27.1092775 L50.2586478,15.2253097 L46.4608267,13.0222666 C45.7224065,12.5941229 45.7224065,11.8933763 46.4608267,11.4646907 L58.6056555,4.41983034 C62.6019708,2.10135103 66.8598886,0.655959654 71.1631149,0.0148280444 C71.4705653,-0.0312380476 72.0892417,-0.0220248292 72.0870842,0.8440177" id="Fill-70"></path>
            <path d="M144.010404,126.012093 C143.37231,125.644648 122.042806,113.269128 122.042806,113.269128 C121.304925,112.840984 120.700812,113.191629 120.700812,114.047916 L120.700812,137.81531 L120.700812,142.221938 C120.700812,143.078225 121.304925,143.428869 122.043345,143.000726 L134.187635,135.955865 C138.18395,133.636302 141.558892,130.654471 144.263376,127.230948 C144.457016,126.985984 144.757994,126.442946 144.010404,126.012093" id="Fill-73"></path>
            <path d="M82.0873657,43.7340423 C81.3494849,43.3058986 80.7453719,43.6560009 80.7453719,44.5128302 L80.7453719,72.6868521 C80.7453719,73.5436814 81.3494849,73.8937837 82.0873657,73.46564 L106.37109,59.3786291 C107.10951,58.9504854 107.10951,58.2491969 106.37109,57.8210532 L82.0873657,43.7340423 Z" id="Fill-41"></path>
            <path d="M70.7444431,119.821948 C71.4828633,120.250634 72.0869763,119.900532 72.0869763,119.04316 L72.0869763,90.8696805 C72.0869763,90.0128512 71.4828633,89.6627489 70.7444431,90.0908926 L46.4607189,104.177904 C45.7222986,104.606047 45.7222986,105.306794 46.4607189,105.735479 L70.7444431,119.821948 Z" id="Fill-45"></path>
            <path d="M144.010943,37.5438976 C144.560578,37.2268545 144.5417,36.8501965 144.417102,36.5754258 C141.899245,33.343754 138.856565,30.5461873 135.3964,28.3420603 C135.27342,28.263477 135.145585,28.1886873 135.020987,28.1117298 C134.589478,27.8445465 134.15635,27.5800729 133.712974,27.3307741 L133.715132,27.3264384 L126.931267,23.3918522 L117.713689,18.0449338 C116.975808,17.6162482 115.768122,17.6162482 115.029701,18.0449338 L86.4163208,34.6428178 C85.6784399,35.0715034 85.6784399,35.771708 86.4168602,36.2003936 L100.723011,44.4993356 L115.029701,52.7982775 C115.768122,53.2269632 116.975808,53.2269632 117.714228,52.7982775 L126.931267,47.4513591 C133.223751,43.8007568 143.412764,37.8896643 143.988289,37.5569045 L144.010943,37.5438976 Z" id="Fill-54"></path>
            <path d="M66.4156498,127.355868 L37.8028087,110.757984 C37.0643885,110.329298 35.8561625,110.329298 35.1182816,110.757984 L26.0420233,116.022525 L26.0420233,116.023067 C19.7792054,119.656869 9.48015766,125.63137 8.85177227,125.994479 L8.82156662,126.012364 C8.21799301,126.360298 8.29944039,126.778687 8.45424434,127.056167 C8.65597493,127.314138 8.85339043,127.574817 9.06159366,127.826284 C9.06698752,127.832788 9.071842,127.838749 9.07669648,127.844711 C10.1694937,129.163285 11.3534473,130.40165 12.6210058,131.55005 C12.6231634,131.552218 12.6258603,131.554928 12.6285573,131.557096 C13.0233882,131.914785 13.4279282,132.262178 13.8384014,132.601983 C13.8874856,132.642629 13.9365698,132.683818 13.9861933,132.723923 C14.3400309,133.013868 14.7019594,133.2946 15.0671241,133.570997 C15.1847104,133.659335 15.3006785,133.748758 15.4193435,133.836012 C15.7149274,134.053878 16.0164445,134.264156 16.3190404,134.47335 C16.5159165,134.608839 16.7122532,134.744869 16.912905,134.876564 C17.1453807,135.030479 17.3827108,135.178974 17.6195015,135.32747 C17.9582363,135.539916 18.2958923,135.752904 18.644336,135.955052 L26.0420233,140.247328 L35.1182816,145.51187 C35.8561625,145.940013 37.0643885,145.940013 37.8028087,145.51187 L66.4156498,128.913444 C67.1535307,128.4853 67.1535307,127.784554 66.4156498,127.355868" id="Fill-56"></path>
        </g>
    </g>
</svg>