<?xml version="1.0" encoding="UTF-8"?>
<svg width="67px" height="114px" viewBox="0 0 67 114" version="1.1" xmlns="http://www.w3.org/2000/svg" xmlns:xlink="http://www.w3.org/1999/xlink">
    <!-- Generator: Sketch 52.5 (67469) - http://www.bohemiancoding.com/sketch -->
    <title>BGpattern_02</title>
    <desc>Created with Sketch.</desc>
    <g id="Pattern_02" stroke="none" stroke-width="1" fill="none" fill-rule="evenodd">
        <path d="M65.7993342,1.09227982 C64.7382926,2.88334307 62.7474655,6.17703453 62.0845,6.84 C61.1645,7.76 60.0645,7.735 59.3705,7.041 C58.6765,6.348 58.6515,5.248 59.5715,4.328 C60.2365,3.663 63.5485,1.662 65.3355,0.603 C65.4272762,0.776355095 65.5573251,0.920103031 65.7139874,1.03424381 C65.5575632,0.919513499 65.4276838,0.77588053 65.336,0.6027 C65.536,0.4847 65.722,0.3747 65.878,0.2827 C65.9188337,0.258548362 65.9609073,0.25181704 65.9995746,0.257859907 C65.9608581,0.251724913 65.9188098,0.258462475 65.878,0.2826 C65.722,0.3746 65.536,0.4846 65.336,0.6026 C65.285,0.5076 65.256,0.4056 65.23,0.2976 C65.2185181,0.248617769 65.2035247,0.200637585 65.1914144,0.151654912 C65.1790363,0.102097398 65.1701,0.0525139722 65.1701,0.0002 L65.1701,-0.0008 L56.4611,-0.0008 C56.4801,0.9642 57.2341,1.7402 58.5191,1.7402 C59.4591,1.7402 63.2181,0.8122 65.2301,0.2982 C65.2180575,0.248524602 65.2029937,0.200108079 65.1909726,0.150929094 C65.1793192,0.102733271 65.1701,0.052811638 65.1701,-0.0001 L65.9649427,-0.0001 L66.488,-0.0004 L66.488,0.4696 C66.4756647,0.46913157 66.4632562,0.469809034 66.451003,0.471647618 C66.4633154,0.469920138 66.4758199,0.469375994 66.4883,0.47 L66.4883,1.31 L66.4882,9.9857 C66.4862,9.9857 66.4832,9.9867 66.4802,9.9867 C65.4992,9.9867 64.7032,9.2257 64.7032,7.9257 C64.7032,6.9887 65.6232,3.2597 66.1392,1.2417 C66.1993402,1.00584356 66.2553169,0.787934697 66.3023,0.606 C66.308999,0.580275825 66.319719,0.558285387 66.3333632,0.539951726 C66.3195653,0.558199061 66.3087221,0.580055898 66.302,0.6056 C66.255,0.7876 66.199,1.0056 66.139,1.2416 C66.0160168,1.20760464 65.9050303,1.15861338 65.800043,1.09262703 Z M65.7253461,1.0424345 C65.7215536,1.03970996 65.7177762,1.0369687 65.7140142,1.0342107 Z M1.30237715,113.002968 C1.30372728,112.974612 1.31209623,112.945249 1.3291,112.9165 C1.4231,112.7555 1.5371,112.5645 1.6591,112.3575 C2.72047759,110.566575 4.71116287,107.273137 5.3741,106.6102 C6.2941,105.6902 7.3941,105.7152 8.0881,106.4092 C8.7821,107.1022 8.8071,108.2022 7.8871,109.1222 C7.2221,109.7872 3.9101,111.7882 2.1231,112.8472 C2.06091537,112.729164 1.98115982,112.625384 1.88746022,112.535287 C1.98112826,112.625643 2.06090307,112.729441 2.1231,112.8475 C2.17372102,112.942674 2.20270942,113.044639 2.2287,113.1516 C2.14187584,113.173981 2.0574342,113.195767 1.97646684,113.21667 C2.05740373,113.1959 2.14181159,113.174272 2.2286,113.1519 C2.2516,113.2509 2.2886,113.3439 2.2886,113.4499 C2.2886,113.459391 2.28646778,113.467284 2.28531683,113.475523 C2.28685778,113.467028 2.289,113.458782 2.289,113.45 C2.289,113.344 2.252,113.251 2.229,113.152 C4.24,112.638 7.999,111.71 8.94,111.71 C10.24,111.71 11,112.504 11.001,113.485 L2.284,113.485 L1.4826,113.4849 L0.9997,113.4846 L0.9997,112.9756 C1.02551873,112.972607 1.05091742,112.965133 1.07374803,112.952602 C1.05111069,112.964952 1.02591202,112.97233 1.0003,112.9753 L1.0003,112.142911 L1,103.4659 C1.971,103.4779 2.755,104.2339 2.755,105.5249 C2.755,106.461801 1.8361936,110.189115 1.31916339,112.208262 C1.2593,112.4443 1.2033,112.6623 1.1563,112.8443 C1.14602364,112.884916 1.12497139,112.915235 1.0980649,112.936546 C1.12484579,112.915231 1.14598834,112.885012 1.1567,112.8446 C1.2037,112.6626 1.2597,112.4446 1.3197,112.2086 C1.4427,112.2426 1.5537,112.2916 1.6587,112.3576 C1.5367,112.5646 1.4237,112.7556 1.3287,112.9156 C1.31170983,112.944625 1.30348989,112.974308 1.30237715,113.002968 Z M1.6591,112.3582 C1.72356057,112.398529 1.78430581,112.443229 1.84064939,112.492409 Z M1.48496398,113.455131 C1.48655138,113.445201 1.48893823,113.43538 1.49212452,113.425792 C1.48895581,113.435383 1.48658582,113.445208 1.4850151,113.455138 Z M1.49222745,113.425483 C1.51010901,113.371991 1.55289987,113.325825 1.6206,113.3089 C1.64100605,113.303505 1.66189348,113.298014 1.68323165,113.29243 C1.66192823,113.297938 1.64107417,113.303331 1.6207,113.3086 C1.55287334,113.325557 1.51004915,113.371864 1.49222745,113.425483 Z M65.9187326,0.891377227 C65.9953743,0.761642023 66.0666848,0.641236074 66.13,0.5346 C66.2021113,0.410658677 66.1162352,0.275996781 65.9995222,0.257764736 Z M66.3333632,0.539951726 C66.3346204,0.538288998 66.3359023,0.53665624 66.3372077,0.535053394 Z M1.4673,-0.0004 L2.3073,-0.0004 L2.3072,-0.0009 L10.9712,-0.0009 C10.9522,0.9641 10.1982,1.7401 8.9132,1.7401 C7.97922528,1.7401 4.26740093,0.826149474 2.24536418,0.309141979 C1.27843679,0.479649728 1.28665016,0.507094023 1.3024,0.534 C1.4004,0.7 1.5174,0.899 1.6454,1.114 C1.5494,1.17 1.4484,1.211 1.3384,1.242 C1.2784,1.006 1.2224,0.788 1.1754,0.606 C1.1514,0.515 1.0764,0.469 1.0004,0.468 L1.0004,0 L1.46738287,0 Z M1.46812626,0.00340170102 C1.46860466,0.00556930355 1.46911196,0.00773139709 1.46964881,0.00988654546 C1.46910829,0.00773223209 1.46859737,0.00557088448 1.46811538,0.00340393888 Z M2.24537247,0.308397177 C2.27036978,0.206649727 2.3072,0.108849625 2.3072,0.0001 Z M1.3384,1.242 C1.24228169,1.26821408 1.14692692,1.30053642 1.04499674,1.30827692 C1.14735877,1.30003409 1.2419164,1.2683781 1.338,1.2413 C1.855,3.2593 2.774,6.9883 2.774,7.9253 C2.774,9.2253 1.98,9.9843 1,9.9863 L1,1.3103 C1.01518153,1.31017349 1.030171,1.30947078 1.04499674,1.30827692 Z M1.95050228,0.516222256 C2.00836359,0.550509744 2.06792842,0.585905679 2.1288,0.6222 C3.92373292,1.68638034 7.19961341,3.66631341 7.8606,4.3273 C8.7806,5.2473 8.7556,6.3473 8.0616,7.0413 C7.3676,7.7353 6.2676,7.7603 5.3486,6.8403 C4.6876,6.1793 2.7106,2.9093 1.6456,1.1143 C1.51779551,0.899192357 1.40079812,0.700196812 1.3028,0.5342 C1.28691467,0.507178561 1.27856559,0.479674372 1.27643513,0.452996285 C1.27160172,0.388636229 1.3029874,0.328887459 1.35194016,0.292464141 C1.30249173,0.328809172 1.27128359,0.388487661 1.27643513,0.452996285 Z M1.5486719,0.279730047 C1.50612538,0.256550959 1.46256736,0.251650215 1.42310192,0.259957753 C1.462612,0.251487134 1.50619299,0.256347821 1.5486719,0.279730047 Z M1.6458,1.1142 C1.64792011,1.11295717 1.65003619,1.11170922 1.65214822,1.11045615 C1.65590607,1.1082364 1.65965054,1.1060006 1.66338154,1.10374877 C1.81119101,1.01413815 1.93873026,0.899186626 2.04001123,0.761262193 Z M66.1909268,112.947877 C66.186588,112.930891 66.1795894,112.913789 66.1696,112.8969 C66.0796,112.7439 65.9716,112.5619 65.8556,112.3659 C65.9496,112.3129 66.0476,112.2759 66.1536,112.2479 C66.2636,112.2179 66.3696,112.1799 66.4886,112.1799 L66.4886,112.9959 L66.4886,113.4849 L65.9746,113.4849 C65.9766457,113.473171 65.9777056,113.461275 65.9777443,113.449405 C65.9776086,113.461108 65.9764516,113.472835 65.9743,113.4844 L65.1793,113.4844 C65.1793,113.46255 65.1804248,113.440996 65.1824657,113.419687 C65.1803278,113.441266 65.1790733,113.463118 65.1789,113.4853 L56.4689,113.4853 C56.4689,113.4743 56.4659,113.4653 56.4659,113.4543 C56.4659,112.4723 57.2259,111.6773 58.5269,111.6773 C59.4699,111.6773 63.2439,112.6103 65.2519,113.1233 C65.2836,113.0179 65.3266,112.9239 65.3816,112.8319 C65.4735035,112.886207 65.5623907,112.93879 65.6466618,112.988649 C65.7440626,113.046093 65.8354446,113.099774 65.9185,113.148 C65.9696618,113.17826 66.0227699,113.181174 66.0686861,113.165878 C66.0224828,113.181573 65.9690096,113.178993 65.9176,113.1489 C65.8350805,113.100138 65.7439472,113.046209 65.6466618,112.988649 Z M65.6466618,112.988649 C65.5622907,112.93889 65.4734035,112.886307 65.3815,112.832 C65.3947192,112.809855 65.4084746,112.788195 65.4227619,112.767032 C65.4084644,112.788111 65.3947143,112.809676 65.3815,112.8317 C63.5965,111.7737 60.2775,109.7687 59.6115,109.1037 C58.6915,108.1837 58.7165,107.0837 59.4105,106.3897 C60.1045,105.6957 61.2045,105.6707 62.1245,106.5907 C62.7915,107.2577 64.7985,110.5817 65.8555,112.3657 C65.7738041,112.411912 65.6987477,112.466125 65.6305415,112.527567 Z M65.422746,112.767022 C65.4820527,112.679443 65.5505239,112.600057 65.6278501,112.529999 Z M65.9178348,113.312211 C65.8988827,113.296153 65.8752324,113.283535 65.8466,113.2759 C65.7146849,113.241957 65.5631311,113.202658 65.3997433,113.161216 C65.5627325,113.203132 65.7143419,113.242446 65.8463,113.2764 C65.8750015,113.28378 65.8987716,113.296242 65.9178348,113.312211 Z M65.2517121,113.123928 C65.2335115,113.184758 65.2147886,113.245593 65.2008839,113.30798 C65.2149074,113.24572 65.2339055,113.184872 65.2521121,113.124028 Z M34.0816,55.5064 C33.9726,55.4764 33.8656,55.4384 33.7466,55.4384 C33.6276,55.4384 33.5216,55.4764 33.4126,55.5064 C32.8976,53.4944 31.9706,49.7374 31.9706,48.7964 C31.9706,47.4954 32.7656,46.7354 33.7466,46.7354 C34.7276,46.7354 35.5236,47.4954 35.5236,48.7964 C35.5236,49.7374 34.5966,53.4944 34.0816,55.5064 Z M35.5235,64.6743 C35.5235,65.9753 34.7285,66.7353 33.7465,66.7353 C32.7655,66.7353 31.9705,65.9753 31.9705,64.6743 C31.9705,63.7373 32.8895,60.0093 33.4055,57.9903 C33.5165,58.0213 33.6255,58.0593 33.7465,58.0593 C33.8675,58.0593 33.9775,58.0213 34.0885,57.9903 C34.6045,60.0093 35.5235,63.7373 35.5235,64.6743 Z M33.1143,55.6245 C32.9163,55.7365 32.7563,55.8955 32.6393,56.0905 C30.8543,55.0325 27.5363,53.0275 26.8703,52.3625 C25.9503,51.4425 25.9753,50.3425 26.6693,49.6485 C27.3633,48.9545 28.4633,48.9295 29.3833,49.8495 C30.0493,50.5165 32.0563,53.8405 33.1143,55.6245 Z M34.3951,57.8633 C34.5991,57.7443 34.7641,57.5783 34.8791,57.3713 C36.6731,58.4353 39.9491,60.4163 40.6101,61.0763 C41.5301,61.9963 41.5051,63.0963 40.8111,63.7903 C40.1171,64.4843 39.0181,64.5093 38.0981,63.5893 C37.4371,62.9293 35.4601,59.6583 34.3951,57.8633 Z M25.7853,54.9359 C26.7283,54.9359 30.5023,55.8679 32.5103,56.3819 C32.4753,56.5009 32.4363,56.6189 32.4363,56.7489 C32.4363,56.8549 32.4723,56.9489 32.4963,57.0479 C30.4853,57.5619 26.7263,58.4899 25.7853,58.4899 C24.4843,58.4899 23.7243,57.6939 23.7243,56.7129 C23.7243,55.7319 24.4843,54.9359 25.7853,54.9359 Z M34.9952,57.0581 C35.0202,56.9561 35.0572,56.8591 35.0572,56.7491 C35.0572,56.6151 35.0182,56.4931 34.9812,56.3711 C36.9992,55.8551 40.7272,54.9361 41.6632,54.9361 C42.9642,54.9361 43.7242,55.7311 43.7242,56.7131 C43.7242,57.6941 42.9642,58.4901 41.6632,58.4901 C40.7292,58.4901 37.0172,57.5751 34.9952,57.0581 Z M26.8381,61.0771 C27.5031,60.4121 30.8151,58.4111 32.6021,57.3521 C32.7101,57.5571 32.8711,57.7191 33.0661,57.8421 C32.0041,59.6321 30.0141,62.9261 29.3511,63.5891 C28.4311,64.5091 27.3311,64.4841 26.6371,63.7901 C25.9431,63.0971 25.9181,61.9971 26.8381,61.0771 Z M34.8409,56.0708 C34.7179,55.8738 34.5539,55.7118 34.3469,55.6028 C35.4079,53.8138 37.4019,50.5128 38.0659,49.8498 C38.9859,48.9298 40.0859,48.9548 40.7789,49.6488 C41.4729,50.3418 41.4979,51.4428 40.5779,52.3628 C39.9169,53.0238 36.6339,55.0078 34.8409,56.0708 Z M36.5216,98.4746 L49.5136,105.9756 L49.5136,113.4846 L48.2136,113.4846 L48.2136,106.7256 L37.8216,100.7256 L37.8216,113.4846 L36.5216,113.4846 L36.5216,98.4746 Z M63.2169,94.273 L63.2169,82.273 L41.1319,95.023 L51.5249,101.024 L63.2169,94.273 Z M51.5249,102.525 L38.5319,95.023 L64.5169,80.022 L64.5169,95.023 L51.5249,102.525 Z M53.4737,105.9756 L66.4657,98.4746 L66.4887,98.4876 L66.4887,99.9886 L66.4657,99.9756 L54.7737,106.7256 L54.7737,113.4846 L53.4737,113.4846 L53.4737,105.9756 Z M64.712,105.5376 C64.712,104.2366 65.507,103.4766 66.488,103.4766 L66.488,112.1796 C66.37,112.1796 66.263,112.2176 66.154,112.2476 C65.639,110.2356 64.712,106.4786 64.712,105.5376 Z M30.9376,14.9888 L17.9446,7.4878 L17.9446,-0.0002 L19.2456,-0.0002 L19.2456,6.7368 L29.6376,12.7368 L29.6376,-0.0002 L30.9376,-0.0002 L30.9376,14.9888 Z M13.9669,-0.0005 L13.9669,7.4875 L0.9999,14.9745 L0.9999,13.4725 L12.6669,6.7365 L12.6669,-0.0005 L13.9669,-0.0005 Z M4.2945,19.1626 L4.2945,31.1626 L26.3785,18.4126 L15.9865,12.4126 L4.2945,19.1626 Z M15.9865,10.9106 L28.9795,18.4126 L2.9945,33.4146 L2.9945,18.4126 L15.9865,10.9106 Z M49.5059,7.4873 L36.5129,14.9883 L36.5129,-0.0007 L37.8139,-0.0007 L37.8139,12.7373 L48.2059,6.7373 L48.2059,-0.0007 L49.5059,-0.0007 L49.5059,7.4873 Z M63.1998,31.1773 L63.1998,19.1773 L51.5078,12.4263 L41.1148,18.4263 L63.1998,31.1773 Z M64.4998,18.4263 L64.4998,33.4283 L38.5148,18.4263 L51.5078,10.9253 L64.4998,18.4263 Z M66.4581,14.9888 L53.4651,7.4878 L53.4651,-0.0002 L54.7661,-0.0002 L54.7661,6.7368 L66.4581,13.4878 L66.4881,13.4698 L66.4881,14.9708 L66.4581,14.9888 Z M30.9454,98.4614 L30.9454,113.4844 L29.6454,113.4844 L29.6454,100.7134 L19.2534,106.7134 L19.2534,113.4844 L17.9534,113.4844 L17.9534,105.9624 L30.9454,98.4614 Z M4.2589,94.273 L15.9509,101.024 L26.3439,95.023 L4.2589,82.273 L4.2589,94.273 Z M2.9589,80.022 L28.9439,95.023 L15.9509,102.525 L2.9589,95.023 L2.9589,80.022 Z M1.0011,98.4614 L13.9931,105.9624 L13.9931,113.4844 L12.6931,113.4844 L12.6931,106.7134 L1.0011,99.9624 L1.0001,99.9624 L1.0001,98.4614 L1.0011,98.4614 Z M15.4722,63.4859 L15.4722,49.9849 L5.0792,43.9849 L5.0792,69.4859 L15.4722,63.4859 Z M3.7802,41.7339 L16.7722,49.2349 L16.7722,64.2369 L3.7802,71.7379 L3.7802,41.7339 Z M62.3868,69.4863 L62.3868,43.9853 L51.9948,49.9853 L51.9948,63.4863 L62.3868,69.4863 Z M63.6868,41.7333 L63.6868,71.7373 L50.6948,64.2363 L50.6948,49.2343 L63.6868,41.7333 Z M30.4659,87.9263 L30.4659,75.9263 L18.7739,69.1763 L8.3819,75.1763 L30.4659,87.9263 Z M5.7809,75.1763 L18.7739,67.6743 L31.7659,75.1763 L31.7659,90.1773 L5.7809,75.1763 Z M37.0347,25.5459 L37.0347,37.5459 L48.7267,44.2969 L59.1197,38.2969 L37.0347,25.5459 Z M61.7197,38.2969 L48.7267,45.7979 L35.7347,38.2969 L35.7347,23.2949 L61.7197,38.2969 Z M37.044,75.9116 L37.044,87.9116 L59.129,75.1616 L48.736,69.1616 L37.044,75.9116 Z M48.736,67.6606 L61.729,75.1616 L35.744,90.1636 L35.744,75.1616 L48.736,67.6606 Z M30.4752,37.5318 L30.4752,25.5318 L8.3912,38.2818 L18.7832,44.2818 L30.4752,37.5318 Z M18.7832,45.7838 L5.7902,38.2818 L31.7752,23.2798 L31.7752,38.2818 L18.7832,45.7838 Z M22.0318,49.9849 L22.0318,63.4859 L33.7238,70.2369 L45.4168,63.4859 L45.4168,49.9849 L33.7238,43.2349 L22.0318,49.9849 Z M20.7318,64.2369 L20.7318,49.2349 L33.7238,41.7339 L46.7168,49.2349 L46.7168,64.2369 L33.7238,71.7379 L20.7318,64.2369 Z" id="BGpattern_02" fill="#1D1D1D"></path>
    </g>
</svg>