<?xml version="1.0" encoding="UTF-8"?>
<svg width="135px" height="72px" viewBox="0 0 135 72" version="1.1" xmlns="http://www.w3.org/2000/svg" xmlns:xlink="http://www.w3.org/1999/xlink">
    <!-- Generator: Sketch 53 (72520) - https://sketchapp.com -->
    <title>BGpattern_05_greylightest</title>
    <desc>Created with Sketch.</desc>
    <g id="背景パターン" stroke="none" stroke-width="1" fill="none" fill-rule="evenodd">
        <g id="Group" transform="translate(-264.000000, -250.000000)" fill="#F2F2F2">
            <path d="M303.8902,301.445 L303.8902,301.445 L303.8902,305.16 C303.2662,304.288 302.6832,303.385 302.1442,302.454 C302.1442,302.454 302.1442,302.453 302.1432,302.453 C302.1422,302.451 302.1402,302.448 302.1392,302.445 L331.0602,285.748 L331.0552,285.746 L330.0592,285.171 L301.6442,301.576 C301.3422,301.016 301.0602,300.445 300.7892,299.866 L328.1522,284.07 L327.1522,283.492 L300.3752,298.951 C300.1212,298.362 299.8812,297.766 299.6612,297.161 L325.2442,282.391 L324.2442,281.813 L299.3332,296.195 C299.1292,295.576 298.9402,294.951 298.7712,294.318 L322.3372,280.712 L321.3372,280.134 L298.5262,293.305 C298.3742,292.653 298.2422,291.996 298.1292,291.331 L319.4302,279.033 L319.0822,278.832 L318.4302,278.456 L297.9682,290.269 C297.8752,289.583 297.8042,288.89 297.7532,288.191 L316.5232,277.355 L315.5232,276.777 L315.5222,276.777 L297.6892,287.073 C297.6722,286.636 297.6562,286.2 297.6562,285.759 C297.6562,285.463 297.6702,285.171 297.6782,284.877 L313.6162,275.676 L312.6162,275.098 L312.6152,275.099 L297.7262,283.695 C297.7742,282.909 297.8522,282.131 297.9542,281.361 L310.7072,273.997 L310.7082,273.997 L309.7072,273.42 L309.7072,273.42 L298.1462,280.095 C298.2902,279.25 298.4622,278.413 298.6692,277.591 L307.8002,272.319 L307.8012,272.319 L306.8012,271.741 L306.8002,271.741 L299.0522,276.215 C299.3312,275.278 299.6542,274.36 300.0112,273.459 L304.8932,270.64 L304.8942,270.64 L303.8942,270.063 L303.8932,270.063 L300.6652,271.926 C301.1152,270.943 301.6102,269.986 302.1492,269.055 C302.1512,269.052 302.1522,269.049 302.1542,269.047 L331.0722,285.743 L331.0722,285.739 L331.0722,284.588 L302.6652,268.187 C303.0012,267.645 303.3562,267.116 303.7222,266.595 L331.0722,282.386 L331.0722,281.231 L304.3042,265.776 C304.6902,265.261 305.0952,264.761 305.5092,264.27 L331.0722,279.028 L331.0722,277.874 L306.1762,263.5 C306.6122,263.012 307.0602,262.536 307.5232,262.075 L331.0722,275.672 L331.0722,274.517 L308.2782,261.356 C308.7672,260.898 309.2662,260.45 309.7832,260.023 L331.0732,272.315 L331.0732,271.16 L310.6262,259.355 C311.1752,258.929 311.7332,258.515 312.3082,258.124 L331.0732,268.957 L331.0732,268.958 L331.0732,267.802 L313.2502,257.513 C313.8662,257.123 314.4902,256.746 315.1312,256.396 L331.0732,265.6 L331.0732,264.445 L316.1892,255.852 C316.8852,255.504 317.5932,255.178 318.3162,254.878 L331.0732,262.243 L331.0732,261.089 L331.0732,261.088 L319.5042,254.409 C320.3042,254.113 321.1212,253.854 321.9502,253.618 L331.0732,258.885 L331.0732,258.886 L331.0732,257.731 L331.0732,257.731 L323.3272,253.258 C324.2642,253.035 325.2142,252.846 326.1802,252.704 L331.0732,255.528 L331.0732,255.529 L331.0732,254.374 L331.0732,254.374 L327.8302,252.502 C328.8982,252.399 329.9792,252.342 331.0732,252.342 L331.0822,252.342 L331.0822,285.752 L331.0862,285.749 L332.0822,285.174 L332.0822,252.368 C332.7232,252.387 333.3592,252.423 333.9902,252.477 L333.9902,284.073 L334.9902,283.496 L334.9902,252.58 C335.6322,252.655 336.2672,252.75 336.8982,252.861 L336.8982,282.394 L337.8982,281.817 L337.8982,253.046 C338.5412,253.179 339.1752,253.337 339.8052,253.507 L339.8042,280.716 L340.8042,280.139 L340.8052,253.792 C341.4502,253.988 342.0852,254.203 342.7122,254.437 L342.7122,279.038 L343.2252,278.741 L343.7122,278.46 L343.7122,254.832 C344.3582,255.097 344.9952,255.377 345.6192,255.68 L345.6192,277.359 L346.6192,276.782 L346.6192,256.193 C347.2682,256.535 347.9052,256.894 348.5272,257.277 L348.5272,275.68 L348.5272,275.681 L349.5272,275.104 L349.5272,275.103 L349.5272,257.919 C350.1802,258.353 350.8152,258.811 351.4342,259.289 L351.4342,274.002 L352.4342,273.425 L352.4342,273.424 L352.4342,260.085 C353.0932,260.634 353.7272,261.211 354.3422,261.808 L354.3422,272.323 L354.3422,272.324 L355.3422,271.747 L355.3422,271.746 L355.3422,262.824 C356.0092,263.529 356.6452,264.263 357.2492,265.024 L357.2492,270.645 L357.2492,270.645 L358.2492,270.068 L358.2492,270.068 L358.2492,266.35 C358.8742,267.223 359.4572,268.126 359.9972,269.058 L360.0032,269.067 L331.0802,285.765 L331.0842,285.767 L332.0802,286.342 L360.4972,269.936 C360.7992,270.496 361.0812,271.067 361.3522,271.645 L333.9882,287.444 L334.9882,288.021 L361.7672,272.561 C362.0212,273.149 362.2612,273.745 362.4822,274.35 L336.8952,289.122 L337.8952,289.7 L362.8092,275.316 C363.0132,275.935 363.2032,276.559 363.3712,277.194 L339.8022,290.801 L340.8022,291.379 L363.6182,278.206 C363.7692,278.857 363.9022,279.514 364.0142,280.179 L342.7092,292.48 L343.7092,293.057 L364.1752,281.241 C364.2692,281.928 364.3392,282.621 364.3902,283.32 L345.6172,294.158 L346.6172,294.736 L346.6172,294.736 L364.4552,284.437 C364.4732,284.876 364.4892,285.316 364.4892,285.759 C364.4892,286.052 364.4742,286.341 364.4672,286.633 L348.5252,295.837 L348.5242,295.837 L349.5252,296.415 L349.5252,296.414 L364.4192,287.815 C364.3712,288.601 364.2932,289.378 364.1922,290.149 L351.4312,297.515 L352.4312,298.093 L352.4322,298.093 L364.0002,291.414 C363.8562,292.259 363.6852,293.095 363.4772,293.918 L354.3392,299.194 L354.3392,299.195 L355.3392,299.772 L363.0952,295.294 C362.8162,296.231 362.4942,297.149 362.1372,298.049 L357.2462,300.873 L357.2462,300.873 L358.2462,301.45 L361.4842,299.581 C361.0342,300.568 360.5372,301.528 359.9972,302.461 L359.9962,302.461 C359.9952,302.464 359.9942,302.466 359.9922,302.469 L331.0682,285.77 L331.0682,285.774 L331.0682,286.924 L359.4802,303.329 C359.1442,303.871 358.7902,304.401 358.4242,304.922 L331.0682,289.127 L331.0682,290.282 L357.8412,305.74 C357.4552,306.256 357.0512,306.755 356.6372,307.247 L331.0682,292.484 L331.0682,293.639 L355.9702,308.017 C355.5342,308.504 355.0862,308.98 354.6222,309.441 L331.0682,295.841 L331.0682,296.996 L353.8692,310.161 C353.3782,310.618 352.8802,311.066 352.3642,311.494 L331.0672,299.198 L331.0672,300.353 L351.5192,312.162 C350.9712,312.588 350.4122,313.002 349.8372,313.393 L331.0672,302.555 L331.0672,303.71 L331.0672,303.711 L348.8962,314.004 C348.2812,314.394 347.6572,314.771 347.0152,315.12 L331.0672,305.913 L331.0672,307.068 L345.9572,315.665 C345.2612,316.012 344.5532,316.339 343.8302,316.639 L331.0672,309.27 L331.0672,309.27 L331.0672,310.424 L331.0672,310.425 L342.6422,317.108 C341.8422,317.404 341.0252,317.663 340.1972,317.899 L331.0672,312.627 L331.0672,312.627 L331.0672,313.782 L338.8212,318.258 C337.8832,318.482 336.9332,318.671 335.9672,318.814 L331.0672,315.985 L331.0672,315.984 L331.0672,317.139 L331.0672,317.139 L334.3162,319.015 C333.2482,319.119 332.1672,319.175 331.0732,319.175 C331.0712,319.175 331.0692,319.175 331.0672,319.175 L331.0562,319.175 L331.0572,285.761 L331.0532,285.763 L330.0572,286.339 L330.0562,319.15 C329.4162,319.13 328.7802,319.095 328.1492,319.04 L328.1502,287.44 L327.1502,288.017 L327.1492,318.937 C326.5072,318.862 325.8722,318.767 325.2422,318.655 L325.2422,289.118 L324.2422,289.696 L324.2422,318.471 C323.5982,318.337 322.9642,318.179 322.3342,318.008 L322.3342,290.797 L321.3342,291.374 L321.3342,317.724 C320.6902,317.528 320.0542,317.312 319.4272,317.078 L319.4272,292.475 L318.4272,293.052 L318.4272,316.683 C317.7822,316.418 317.1442,316.138 316.5202,315.835 L316.5202,294.154 L315.5202,294.731 L315.5202,315.322 C314.8712,314.98 314.2352,314.62 313.6132,314.237 L313.6132,295.833 L313.6132,295.832 L312.6132,296.409 L312.6132,296.41 L312.6132,313.595 C311.9592,313.161 311.3252,312.702 310.7052,312.224 L310.7052,297.511 L310.7052,297.51 L309.7052,298.088 L309.7052,311.428 C309.0462,310.879 308.4122,310.301 307.7972,309.704 L307.7972,299.19 L307.7972,299.189 L306.7972,299.766 L306.7972,299.767 L306.7972,308.688 C306.1302,307.982 305.4942,307.248 304.8902,306.487 L304.8902,300.868 L304.8902,300.867 L303.8902,301.445 Z M331.0732,320.175 C312.0952,320.175 296.6562,304.737 296.6562,285.759 C296.6562,266.781 312.0952,251.342 331.0732,251.342 C350.0502,251.342 365.4892,266.781 365.4892,285.759 C365.4892,304.737 350.0502,320.175 331.0732,320.175 Z M273.7466,255.612 L272.7456,255.035 L281.4656,250.001 L283.4656,250.001 L273.7466,255.612 Z M278.5601,258.3918 L293.0951,250.0008 L295.0951,250.0008 L279.5611,258.9698 L279.5601,258.9698 L278.5601,258.3918 Z M267.9312,252.2546 L266.9312,251.6776 L269.8352,250.0006 L271.8352,250.0006 L267.9312,252.2546 Z M298.4322,250.0007 C298.4282,268.9747 282.9912,284.4087 264.0162,284.4087 C264.0112,284.4087 264.0052,284.4087 263.9992,284.4087 L263.9992,250.0007 L264.0002,250.0007 L264.0002,283.4087 C264.0032,283.4087 264.0062,283.4087 264.0102,283.4087 L264.0162,283.4087 C265.1112,283.4087 266.1922,283.3527 267.2602,283.2487 L264.0102,281.3727 L264.0102,280.2177 L264.0112,280.2177 L268.9112,283.0467 C269.8762,282.9047 270.8272,282.7157 271.7642,282.4927 L264.0112,278.0157 L264.0102,278.0157 L264.0102,276.8607 L264.0112,276.8607 L273.1412,282.1317 C273.9682,281.8967 274.7862,281.6377 275.5862,281.3417 L264.0112,274.6587 L264.0102,274.6587 L264.0102,273.5037 L264.0112,273.5037 L276.7742,280.8727 C277.4962,280.5727 278.2042,280.2467 278.9012,279.8977 L264.0112,271.3017 L264.0102,271.3007 L264.0102,270.1467 L264.0112,270.1467 L279.9582,279.3547 C280.6002,279.0047 281.2242,278.6277 281.8392,278.2377 L264.0112,267.9437 L264.0102,267.9437 L264.0112,266.7897 L282.7822,277.6267 C283.3562,277.2347 283.9142,276.8207 284.4632,276.3957 L264.0112,264.5867 L264.0112,263.4327 L285.3072,275.7277 C285.8242,275.2997 286.3232,274.8527 286.8122,274.3947 L264.0112,261.2297 L264.0112,260.0747 L287.5672,273.6747 C288.0302,273.2137 288.4772,272.7377 288.9132,272.2507 L264.0112,257.8727 L264.0112,256.7177 L289.5802,271.4807 C289.9942,270.9887 290.4002,270.4887 290.7852,269.9737 L264.0112,254.5157 L264.0112,253.3607 L291.3682,269.1547 C291.7342,268.6347 292.0872,268.1047 292.4242,267.5627 L264.0112,251.1587 L264.0112,250.0077 L264.0112,250.0027 L292.9362,266.7037 C292.9372,266.7007 292.9392,266.6977 292.9402,266.6947 C292.9412,266.6947 292.9412,266.6947 292.9412,266.6947 C293.4812,265.7617 293.9782,264.8017 294.4272,263.8147 L291.1912,265.6837 L291.1902,265.6847 L290.1902,265.1067 L295.0802,262.2827 C295.4382,261.3827 295.7592,260.4637 296.0392,259.5267 L288.2832,264.0047 L288.2832,264.0057 L287.2832,263.4277 L296.4212,258.1517 C296.6282,257.3297 296.7992,256.4927 296.9452,255.6467 L285.3752,262.3267 L285.3742,262.3267 L284.3742,261.7497 L284.3752,261.7497 L297.1352,254.3827 C297.2372,253.6117 297.3152,252.8347 297.3632,252.0487 L282.4682,260.6477 L281.4682,260.0707 L297.4112,250.8667 C297.4182,250.5777 297.4322,250.2917 297.4322,250.0007 L298.4322,250.0007 Z M266.0211,250.0007 L265.0241,250.5757 L264.0281,250.0007 L266.0211,250.0007 Z M276.6529,257.2907 L275.6529,256.7127 L287.2789,250.0007 L289.2799,250.0007 L276.6529,257.2907 Z M270.8384,253.9333 L269.8384,253.3553 L275.6504,250.0003 L277.6504,250.0003 L270.8384,253.9333 Z M263.9996,321.6467 L264.0036,321.6477 L263.9996,321.6497 L263.9996,321.6467 Z M264.0162,310.4167 L264.0162,311.5717 L263.9992,311.5627 L263.9992,310.4077 L264.0162,310.4167 Z M264.0162,304.8576 L263.9992,304.8486 L263.9992,303.6936 L264.0162,303.7026 L264.0162,304.8576 Z M264.0162,298.1437 L263.9992,298.1347 L263.9992,296.9787 L264.0162,296.9887 L264.0162,298.1437 Z M264.0162,301.5007 L263.9992,301.4917 L263.9992,300.3367 L264.0162,300.3457 L264.0162,301.5007 Z M264.0162,288.2429 L263.9992,288.2429 L263.9992,287.2429 L264.0162,287.2429 C282.9922,287.2429 298.4292,302.6789 298.4332,321.6529 L297.4332,321.6529 C297.4322,321.2119 297.4162,320.7749 297.3992,320.3369 L295.1202,321.6529 L293.1202,321.6529 L297.3342,319.2199 C297.2842,318.5209 297.2122,317.8279 297.1192,317.1409 L289.3042,321.6529 L287.3042,321.6529 L296.9572,316.0799 C296.8452,315.4149 296.7122,314.7579 296.5612,314.1069 L283.4902,321.6529 L281.4902,321.6529 L296.3152,313.0939 C296.1472,312.4599 295.9562,311.8349 295.7522,311.2169 L277.6742,321.6529 L275.6742,321.6529 L295.4252,310.2509 C295.2042,309.6449 294.9642,309.0499 294.7102,308.4609 L271.8612,321.6529 L269.8602,321.6529 L294.2962,307.5459 C294.0252,306.9679 293.7442,306.3959 293.4412,305.8369 L266.0452,321.6529 L264.0442,321.6529 L292.9472,304.9679 C292.9452,304.9649 292.9432,304.9619 292.9422,304.9589 L292.9412,304.9579 C292.4012,304.0269 291.8182,303.1229 291.1932,302.2509 L291.1932,305.9679 L291.1932,305.9689 L290.1932,306.5459 L290.1932,306.5449 L290.1932,300.9249 C289.5882,300.1629 288.9532,299.4299 288.2862,298.7239 L288.2862,307.6459 L288.2862,307.6469 L287.2862,308.2239 L287.2862,297.7089 C286.6712,297.1119 286.0372,296.5349 285.3782,295.9849 L285.3782,309.3249 L285.3782,309.3259 L284.3782,309.9029 L284.3782,309.9019 L284.3782,295.1899 C283.7582,294.7119 283.1232,294.2529 282.4712,293.8189 L282.4702,311.0039 L281.4702,311.5809 L281.4712,293.1779 C280.8492,292.7949 280.2112,292.4349 279.5642,292.0929 L279.5632,312.6819 L278.5632,313.2599 L278.5642,291.5799 C277.9392,291.2769 277.3012,290.9969 276.6562,290.7329 L276.6562,314.3609 L276.1682,314.6419 L275.6562,314.9379 L275.6562,290.3379 C275.0292,290.1039 274.3932,289.8889 273.7482,289.6929 L273.7482,316.0389 L272.7482,316.6169 L272.7482,289.4079 C272.1202,289.2369 271.4852,289.0799 270.8412,288.9459 L270.8412,317.7179 L269.8412,318.2949 L269.8412,288.7619 C269.2112,288.6499 268.5762,288.5549 267.9342,288.4799 L267.9332,319.3959 L266.9332,319.9729 L266.9342,288.3779 C266.3032,288.3229 265.6662,288.2869 265.0272,288.2679 L265.0262,321.0749 L264.0302,321.6499 L264.0262,321.6519 L264.0272,288.2429 L264.0172,288.2429 L264.0162,288.2429 Z M264.0162,291.4294 L263.9992,291.4194 L263.9992,290.2644 L264.0162,290.2744 L264.0162,291.4294 Z M264.0162,294.7863 L263.9992,294.7763 L263.9992,293.6213 L264.0162,293.6313 L264.0162,294.7863 Z M264.0152,317.1315 L264.0152,318.2865 L263.9992,318.2775 L263.9992,317.1225 L264.0152,317.1315 Z M264.0152,321.6393 L264.0162,321.6433 L263.9992,321.6343 L263.9992,320.4793 L264.0152,320.4883 L264.0152,321.6393 Z M264.0162,313.7741 L264.0152,314.9291 L263.9992,314.9201 L263.9992,313.7651 L264.0162,313.7741 Z M264.0162,307.0602 L264.0162,308.2152 L263.9992,308.2062 L263.9992,307.0512 L264.0162,307.0602 Z M398.1129,284.4084 C379.1459,284.3994 363.7169,268.9694 363.7129,250.0004 L364.7129,250.0004 C364.7129,250.4394 364.7289,250.8734 364.7459,251.3074 L367.0089,250.0004 L369.0089,250.0004 L364.8099,252.4244 C364.8609,253.1234 364.9319,253.8164 365.0249,254.5024 L372.8229,250.0004 L374.8229,250.0004 L365.1859,255.5644 C365.2979,256.2294 365.4309,256.8874 365.5819,257.5384 L378.6379,250.0004 L380.6379,250.0004 L365.8279,258.5514 C365.9959,259.1854 366.1859,259.8104 366.3899,260.4294 L384.4529,250.0004 L386.4529,250.0004 L366.7169,261.3944 C366.9379,262.0004 367.1769,262.5964 367.4319,263.1844 L390.2669,250.0004 L392.2679,250.0004 L367.8459,264.1004 C368.1169,264.6784 368.3989,265.2494 368.7009,265.8094 L396.0829,250.0004 L398.0829,250.0004 L369.1949,266.6794 C369.1969,266.6814 369.1989,266.6844 369.1999,266.6874 C369.1999,266.6874 369.2009,266.6874 369.2009,266.6874 C369.7399,267.6184 370.3229,268.5214 370.9469,269.3934 L370.9469,265.6794 L370.9469,265.6784 L371.9469,265.1014 L371.9469,270.7204 C372.5509,271.4814 373.1869,272.2164 373.8539,272.9224 L373.8539,264.0004 L374.8539,263.4224 L374.8539,263.4234 L374.8539,273.9374 C375.4679,274.5354 376.1029,275.1124 376.7609,275.6614 L376.7619,262.3224 L376.7619,262.3214 L377.7619,261.7444 L377.7609,276.4574 C378.3819,276.9354 379.0159,277.3944 379.6689,277.8294 L379.6699,260.6434 L380.6699,260.0664 L380.6689,278.4714 C381.2909,278.8534 381.9279,279.2134 382.5769,279.5554 L382.5769,258.9654 L382.5769,258.9644 L383.5769,258.3874 L383.5769,280.0684 C384.2009,280.3724 384.8389,280.6524 385.4839,280.9164 L385.4839,257.2864 L386.4839,256.7084 L386.4839,281.3114 C387.1109,281.5454 387.7469,281.7614 388.3909,281.9574 L388.3909,255.6084 L389.3909,255.0304 L389.3909,282.2424 C390.0199,282.4124 390.6549,282.5704 391.2989,282.7044 L391.2989,253.9294 L392.2989,253.3524 L392.2989,282.8894 C392.9289,283.0004 393.5639,283.0954 394.2059,283.1714 L394.2069,252.2504 L395.2069,251.6734 L395.2059,283.2734 C395.8369,283.3284 396.4729,283.3644 397.1129,283.3834 L397.1139,250.5724 L398.1039,250.0004 L398.1129,250.0004 L398.1129,284.4084 Z M391.3013,317.7136 L392.3013,318.2906 L386.4773,321.6526 L384.4773,321.6526 L391.3013,317.7136 Z M363.7125,321.653 C363.7155,302.684 379.1455,287.252 398.1125,287.243 L398.1125,288.243 C397.0255,288.244 395.9495,288.299 394.8875,288.403 L398.1125,290.265 L398.1125,291.42 L393.2365,288.604 C392.2715,288.747 391.3195,288.935 390.3825,289.159 L398.1125,293.622 L398.1125,294.777 L389.0065,289.519 C388.1785,289.754 387.3605,290.013 386.5605,290.309 L398.1125,296.979 L398.1125,298.134 L385.3725,290.778 C384.6495,291.078 383.9415,291.404 383.2455,291.753 L398.1125,300.337 L398.1125,301.491 L382.1885,292.297 C381.5465,292.647 380.9225,293.023 380.3075,293.413 L398.1125,303.694 L398.1125,304.848 L379.3645,294.024 C378.7895,294.416 378.2325,294.83 377.6835,295.256 L398.1125,307.051 L398.1125,308.206 L376.8385,295.923 C376.3225,296.351 375.8235,296.799 375.3345,297.256 L398.1125,310.408 L398.1125,311.563 L374.5795,297.975 C374.1155,298.436 373.6685,298.913 373.2325,299.4 L398.1125,313.765 L398.1125,314.92 L372.5655,300.17 C372.1505,300.662 371.7465,301.161 371.3605,301.676 L398.1125,317.123 L398.1125,318.278 L370.7775,302.495 C370.4115,303.016 370.0585,303.546 369.7225,304.088 L398.1125,320.48 L398.1125,321.634 L369.2105,304.947 C369.2085,304.95 369.2065,304.953 369.2055,304.955 C369.2055,304.956 369.2045,304.956 369.2045,304.956 C368.6655,305.886 368.1715,306.843 367.7225,307.827 L370.9495,305.963 L371.9495,306.54 L371.9495,306.541 L367.0675,309.359 C366.7105,310.26 366.3885,311.178 366.1085,312.115 L373.8575,307.642 L374.8585,308.219 L374.8575,308.219 L365.7265,313.491 C365.5185,314.314 365.3475,315.15 365.2015,315.995 L376.7645,309.32 L377.7645,309.898 L365.0115,317.261 C364.9085,318.031 364.8305,318.809 364.7825,319.595 L379.6715,310.999 L380.6725,311.576 L380.6715,311.576 L364.7345,320.778 C364.7275,321.07 364.7125,321.36 364.7125,321.653 L363.7125,321.653 Z M397.1158,321.071 L398.1118,321.646 L398.1128,321.647 L398.1128,321.65 L398.1078,321.653 L396.1068,321.653 L397.1158,321.071 Z M383.5797,313.2551 L383.5787,313.2551 L369.0327,321.6531 L367.0327,321.6531 L382.5787,312.6771 L383.5797,313.2551 Z M386.1382,314.7326 L386.4872,314.9336 L374.8472,321.6526 L372.8472,321.6526 L385.4862,314.3566 L386.1382,314.7326 Z M388.3941,316.0349 L389.3941,316.6129 L380.6631,321.6529 L378.6631,321.6529 L388.3941,316.0349 Z" id="BGpattern_05_greylightest"></path>
        </g>
    </g>
</svg>