<?xml version="1.0" encoding="UTF-8"?>
<svg width="58px" height="95px" viewBox="0 0 58 95" version="1.1" xmlns="http://www.w3.org/2000/svg" xmlns:xlink="http://www.w3.org/1999/xlink">
    <!-- Generator: Sketch 52.5 (67469) - http://www.bohemiancoding.com/sketch -->
    <title>BGpattern_03@2x</title>
    <desc>Created with Sketch.</desc>
    <g id="Pattern_03" stroke="none" stroke-width="1" fill="none" fill-rule="evenodd">
        <path d="M27.9960522,70.2067293 C28.1866944,64.7904185 30.3866443,59.7370719 34.2549652,55.8812056 C38.1232861,52.0253392 43.1929552,49.8324724 48.6267609,49.642444 C48.325163,44.9450235 46.3440985,40.5663279 42.986174,37.2182093 C39.6282495,33.8710961 35.2344018,31.8964099 30.5218085,31.5957831 C30.3301577,37.0120939 28.1312165,42.0654405 24.2628956,45.9213068 C20.3955833,49.7771731 15.3259143,51.97004 9.89109989,52.1600683 C10.1926978,56.8574888 12.1727536,61.2371899 15.5316867,64.5843031 C18.8896112,67.9314162 23.2834589,69.9061024 27.9960522,70.2067293 Z M49.6616754,51.6412608 C44.4074163,51.5879724 39.4133989,53.5837728 35.6812509,57.3028992 C31.9501117,61.0220255 29.9327344,65.9708062 30.0013252,71.2373063 L30.0154468,72.2698942 L28.9805323,72.2568235 C23.3591105,72.1834263 18.0766082,69.964418 14.105401,66.0059967 C10.1341938,62.0475754 7.90700934,56.7820807 7.83539245,51.1797633 L7.8222795,50.1481808 L8.85618535,50.1612516 C8.94293257,50.162257 9.02967979,50.1632625 9.11541833,50.1632625 C14.3041127,50.1632625 19.1670006,48.1574076 22.8366098,44.4996132 C26.5677491,40.7804868 28.5851264,35.8317061 28.5165355,30.565206 L28.5024139,29.5326181 L29.5373284,29.5466943 C35.1597589,29.619086 40.4422613,31.8380944 44.4124597,35.7965157 C48.3836669,39.754937 50.6108514,45.0204316 50.6824683,50.622749 L50.6955812,51.6543315 L49.6616754,51.6412608 Z M21.6828718,74.9330059 C21.6112549,80.5363287 19.3840704,85.8018233 15.4128632,89.7592392 C12.9617498,92.2024609 10.0083095,93.9780697 6.78655801,94.9995978 L0.000100868863,94.9995978 L0.000100868863,86.8112861 C0.902877197,89.0664903 1.43445611,91.4715053 1.52221202,93.9599718 C6.23480532,93.6593449 10.628653,91.6846588 13.9865775,88.3375456 C17.344502,84.9904324 19.3255664,80.6107313 19.6271643,75.9143163 C14.19235,75.7232825 9.12368957,73.5304156 5.25536866,69.6755548 C2.80022052,67.2273059 1.02391983,64.2964453 0.000100868863,61.0981374 L0.000100868863,53.2989314 L1.01585032,53.2868661 L1.00172868,54.3184486 C0.933137856,59.5849487 2.95051513,64.5337294 6.68165439,68.2528557 C10.4138023,71.9729875 15.416898,73.9858804 20.6610702,73.9144941 L21.6959847,73.9014234 L21.6828718,74.9330059 Z M15.413065,42.2522514 C11.4408491,46.2106727 6.15834672,48.4306865 0.537933649,48.5030782 L0.000302606591,48.5101163 L0.000302606591,39.3042983 C0.903078935,41.5595025 1.43465785,43.9645175 1.52241376,46.452984 C6.23399837,46.1523571 10.6288548,44.177671 13.9867792,40.8305578 C17.3447037,37.4834446 19.3257682,33.1037435 19.6273661,28.4063231 C14.1925517,28.2162947 9.12389131,26.0234278 5.2555704,22.1675615 C2.80042226,19.7203181 1.02412157,16.7894575 0.000302606591,13.5911496 L0.000302606591,5.79194356 L1.01605206,5.77987827 L1.00193042,6.81146076 C0.933339594,12.0779608 2.95071686,17.0267416 6.68185613,20.7458679 C10.4140041,24.4649942 15.4170997,26.463811 20.6612719,26.4075063 L21.6961865,26.3944356 L21.6830735,27.4260181 C21.6114566,33.0293409 19.3842721,38.2938301 15.413065,42.2522514 Z M29.537631,77.0538832 C35.1580441,77.1262749 40.4415552,79.3462887 44.4127623,83.3037046 C47.6324965,86.5140778 49.6811431,90.5891302 50.3892425,95 L48.3537088,95 C47.6657832,91.1270412 45.8249264,87.5557147 42.9864766,84.7253982 C39.6275435,81.3792905 35.2336958,79.4046043 30.5221112,79.1039774 C30.3304603,84.5192828 28.1305104,89.5726294 24.2631982,93.4295011 C23.6973238,93.9925481 23.1001802,94.5093448 22.4858888,95 L18.9302614,95 C20.3333472,94.1755384 21.652712,93.1871898 22.8359038,92.0078075 C26.5680517,88.2876757 28.585429,83.338895 28.5158295,78.0723949 L28.5027165,77.0408124 L29.537631,77.0538832 Z M43.1057036,59.5499593 C47.0759021,55.591538 52.3584045,53.3725297 57.9798262,53.3001379 L58,53.2991325 L58,61.097333 C57.4109258,59.2563705 57.0659543,57.3279346 56.9963548,55.3492267 C52.2837615,55.650859 47.8889051,57.6245397 44.5319893,60.9716529 C41.1750736,64.3187661 39.1930004,68.6984672 38.8903938,73.3958876 C44.3252082,73.585916 49.3938686,75.7787829 53.2631982,79.6346492 C55.3542097,81.717923 56.9368422,84.1581284 58,86.8094763 L58,94.9997989 L57.5168381,94.9997989 L57.5168381,94.9917554 C57.585429,89.7242499 55.5680517,84.7754691 51.8369124,81.0563428 C48.1673032,77.3985484 43.3034066,75.3926935 38.1177383,75.3926935 C38.0309911,75.3926935 37.9442439,75.393699 37.856488,75.3947044 L36.8215734,75.4077751 L36.8346864,74.3761926 C36.9073119,68.7738753 39.1344965,63.5083806 43.1057036,59.5499593 Z M43.1057036,12.0428709 C47.0759021,8.08444964 52.3584045,5.8654413 57.9798262,5.79304954 L58,5.7920441 L58,13.5902447 C57.4109258,11.7492822 57.0659543,9.82084629 56.9963548,7.84213835 C52.2837615,8.14377066 47.8889051,10.1174514 44.5319893,13.4645646 C41.1750736,16.8116777 39.1930004,21.1913788 38.8903938,25.8887993 C44.3252082,26.0788276 49.3938686,28.2716945 53.2631982,32.1275608 C55.3542097,34.2108346 56.9368422,36.65104 58,39.302388 L58,48.5102169 L57.5027165,48.5162495 L57.5168381,47.484667 C57.585429,42.2171615 55.5680517,37.2683808 51.8369124,33.5492544 C48.1673032,29.89146 43.3034066,27.8856052 38.1177383,27.8856052 C38.0309911,27.8856052 37.9442439,27.8866106 37.856488,27.887616 L36.8215734,27.9006868 L36.8346864,26.8691043 C36.9073119,21.2667869 39.1344965,16.0012923 43.1057036,12.0428709 Z M7.8222795,2.64772839 L8.85618535,2.66079912 C12.4743515,2.70403309 15.909945,1.76595661 18.9178545,0.000402176409 L22.476508,0.000402176409 C18.8906199,2.86691453 14.5270329,4.49773987 9.89109989,4.65961588 C10.1926978,9.35703634 12.1727536,13.7367374 15.5316867,17.0838506 C18.8896112,20.4309638 23.2834589,22.4056499 27.9960522,22.7062768 C28.1866944,17.289966 30.3866443,12.2376249 34.2549652,8.38075311 C38.1232861,4.52488678 43.1919465,2.33302535 48.6267609,2.14199156 C48.5803612,1.41807402 48.480501,0.706221775 48.3554236,0.000402176409 L50.3899486,0.000402176409 C50.5543648,1.02695746 50.6693553,2.06557804 50.6824683,3.123302 L50.6955812,4.15488449 L49.6616754,4.14080831 C44.3388255,4.09053626 39.4123902,6.08432581 35.6812509,9.80244671 C31.9501117,13.5215731 29.9327344,18.4703538 30.0013252,23.7378593 L30.0154468,24.7694418 L28.9805323,24.7563711 C23.3581019,24.6839793 18.0755995,22.4639655 14.105401,18.5055442 C10.1341938,14.5471229 7.90700934,9.28162826 7.83539245,3.67931088 L7.8222795,2.64772839 Z M6.76830074,0.000100544102 C4.77614069,0.629506625 2.68311177,0.974372896 0.537631043,1.00252524 L0,1.00956333 L0,0.000100544102 L6.76830074,0.000100544102 Z M57.9995965,1.00946279 L57.5033217,1.01549543 L57.5164347,0 L57.9995965,0 L57.9995965,1.00946279 Z" id="BGpattern_03" fill="#1D1D1D"></path>
    </g>
</svg>