<?xml version="1.0" encoding="UTF-8"?>
<svg width="135px" height="72px" viewBox="0 0 135 72" version="1.1" xmlns="http://www.w3.org/2000/svg" xmlns:xlink="http://www.w3.org/1999/xlink">
    <!-- Generator: Sketch 52.5 (67469) - http://www.bohemiancoding.com/sketch -->
    <title>BGpattern_05</title>
    <desc>Created with Sketch.</desc>
    <g id="Pattern_05" stroke="none" stroke-width="1" fill="none" fill-rule="evenodd">
        <path d="M39.8902,51.4441 L39.8902,55.1591 C39.2662,54.2871 38.6832,53.3841 38.1442,52.4531 C38.1442,52.4531 38.1442,52.4521 38.1432,52.4521 C38.1422,52.4501 38.1402,52.4471 38.1392,52.4441 L67.0602,35.7471 L67.0552,35.7451 L66.0592,35.1701 L37.6442,51.5751 C37.3422,51.0151 37.0602,50.4441 36.7892,49.8651 L64.1522,34.0691 L63.1522,33.4911 L36.3752,48.9501 C36.1212,48.3611 35.8812,47.7651 35.6612,47.1601 L61.2442,32.3901 L60.2442,31.8121 L35.3332,46.1941 C35.1292,45.5751 34.9402,44.9501 34.7712,44.3171 L58.3372,30.7111 L57.3372,30.1331 L34.5262,43.3041 C34.3742,42.6521 34.2422,41.9951 34.1292,41.3301 L55.4302,29.0321 L55.0822,28.8311 L54.4302,28.4551 L33.9682,40.2681 C33.8752,39.5821 33.8042,38.8891 33.7532,38.1901 L52.5232,27.3541 L51.5232,26.7761 L51.5222,26.7761 L33.6892,37.0721 C33.6722,36.6351 33.6562,36.1991 33.6562,35.7581 C33.6562,35.4621 33.6702,35.1701 33.6782,34.8761 L49.6162,25.6751 L48.6162,25.0971 L48.6152,25.0981 L33.7262,33.6941 C33.7742,32.9081 33.8522,32.1301 33.9542,31.3601 L46.7072,23.9961 L46.7082,23.9961 L45.7072,23.4191 L34.1462,30.0941 C34.2902,29.2491 34.4622,28.4121 34.6692,27.5901 L43.8002,22.3181 L43.8012,22.3181 L42.8012,21.7401 L42.8002,21.7401 L35.0522,26.2141 C35.3312,25.2771 35.6542,24.3591 36.0112,23.4581 L40.8932,20.6391 L40.8942,20.6391 L39.8942,20.0621 L39.8932,20.0621 L36.6652,21.9251 C37.1152,20.9421 37.6102,19.9851 38.1492,19.0541 C38.1512,19.0511 38.1522,19.0481 38.1542,19.0461 L67.0722,35.7421 L67.0722,35.7381 L67.0722,34.5871 L38.6652,18.1861 C39.0012,17.6441 39.3562,17.1151 39.7222,16.5941 L67.0722,32.3851 L67.0722,31.2301 L40.3042,15.7751 C40.6902,15.2601 41.0952,14.7601 41.5092,14.2691 L67.0722,29.0271 L67.0722,27.8731 L42.1762,13.4991 C42.6122,13.0111 43.0602,12.5351 43.5232,12.0741 L67.0722,25.6711 L67.0722,24.5161 L44.2782,11.3551 C44.7672,10.8971 45.2662,10.4491 45.7832,10.0221 L67.0732,22.3141 L67.0732,21.1591 L46.6262,9.3541 C47.1752,8.9281 47.7332,8.5141 48.3082,8.1231 L67.0732,18.9561 L67.0732,18.9571 L67.0732,17.8011 L49.2502,7.5121 C49.8662,7.1221 50.4902,6.7451 51.1312,6.3951 L67.0732,15.5991 L67.0732,14.4441 L52.1892,5.8511 C52.8852,5.5031 53.5932,5.1771 54.3162,4.8771 L67.0732,12.2421 L67.0732,11.0881 L67.0732,11.0871 L55.5042,4.4081 C56.3042,4.1121 57.1212,3.8531 57.9502,3.6171 L67.0732,8.8841 L67.0732,8.8851 L67.0732,7.7301 L59.3272,3.2571 C60.2642,3.0341 61.2142,2.8451 62.1802,2.7031 L67.0732,5.5271 L67.0732,5.5281 L67.0732,4.3731 L63.8302,2.5011 C64.8982,2.3981 65.9792,2.3411 67.0732,2.3411 L67.0822,2.3411 L67.0822,35.7511 L67.0862,35.7481 L68.0822,35.1731 L68.0822,2.3671 C68.7232,2.3861 69.3592,2.4221 69.9902,2.4761 L69.9902,34.0721 L70.9902,33.4951 L70.9902,2.5791 C71.6322,2.6541 72.2672,2.7491 72.8982,2.8601 L72.8982,32.3931 L73.8982,31.8161 L73.8982,3.0451 C74.5412,3.1781 75.1752,3.3361 75.8052,3.5061 L75.8042,30.7151 L76.8042,30.1381 L76.8052,3.7911 C77.4502,3.9871 78.0852,4.2021 78.7122,4.4361 L78.7122,29.0371 L79.2252,28.7401 L79.7122,28.4591 L79.7122,4.8311 C80.3582,5.0961 80.9952,5.3761 81.6192,5.6791 L81.6192,27.3581 L82.6192,26.7811 L82.6192,6.1921 C83.2682,6.5341 83.9052,6.8931 84.5272,7.2761 L84.5272,25.6791 L84.5272,25.6801 L85.5272,25.1031 L85.5272,25.1021 L85.5272,7.9181 C86.1802,8.3521 86.8152,8.8101 87.4342,9.2881 L87.4342,24.0011 L88.4342,23.4241 L88.4342,23.4231 L88.4342,10.0841 C89.0932,10.6331 89.7272,11.2101 90.3422,11.8071 L90.3422,22.3221 L90.3422,22.3231 L91.3422,21.7461 L91.3422,21.7451 L91.3422,12.8231 C92.0092,13.5281 92.6452,14.2621 93.2492,15.0231 L93.2492,20.6441 L94.2492,20.0671 L94.2492,16.3491 C94.8742,17.2221 95.4572,18.1251 95.9972,19.0571 L96.0032,19.0661 L67.0802,35.7641 L67.0842,35.7661 L68.0802,36.3411 L96.4972,19.9351 C96.7992,20.4951 97.0812,21.0661 97.3522,21.6441 L69.9882,37.4431 L70.9882,38.0201 L97.7672,22.5601 C98.0212,23.1481 98.2612,23.7441 98.4822,24.3491 L72.8952,39.1211 L73.8952,39.6991 L98.8092,25.3151 C99.0132,25.9341 99.2032,26.5581 99.3712,27.1931 L75.8022,40.8001 L76.8022,41.3781 L99.6182,28.2051 C99.7692,28.8561 99.9022,29.5131 100.0142,30.1781 L78.7092,42.4791 L79.7092,43.0561 L100.1752,31.2401 C100.2692,31.9271 100.3392,32.6201 100.3902,33.3191 L81.6172,44.1571 L82.6172,44.7351 L100.4552,34.4361 C100.4732,34.8751 100.4892,35.3151 100.4892,35.7581 C100.4892,36.0511 100.4742,36.3401 100.4672,36.6321 L84.5252,45.8361 L84.5242,45.8361 L85.5252,46.4141 L85.5252,46.4131 L100.4192,37.8141 C100.3712,38.6001 100.2932,39.3771 100.1922,40.1481 L87.4312,47.5141 L88.4312,48.0921 L88.4322,48.0921 L100.0002,41.4131 C99.8562,42.2581 99.6852,43.0941 99.4772,43.9171 L90.3392,49.1931 L90.3392,49.1941 L91.3392,49.7711 L99.0952,45.2931 C98.8162,46.2301 98.4942,47.1481 98.1372,48.0481 L93.2462,50.8721 L94.2462,51.4491 L97.4842,49.5801 C97.0342,50.5671 96.5372,51.5271 95.9972,52.4601 L95.9962,52.4601 C95.9952,52.4631 95.9942,52.4651 95.9922,52.4681 L67.0682,35.7691 L67.0682,35.7731 L67.0682,36.9231 L95.4802,53.3281 C95.1442,53.8701 94.7902,54.4001 94.4242,54.9211 L67.0682,39.1261 L67.0682,40.2811 L93.8412,55.7391 C93.4552,56.2551 93.0512,56.7541 92.6372,57.2461 L67.0682,42.4831 L67.0682,43.6381 L91.9702,58.0161 C91.5342,58.5031 91.0862,58.9791 90.6222,59.4401 L67.0682,45.8401 L67.0682,46.9951 L89.8692,60.1601 C89.3782,60.6171 88.8802,61.0651 88.3642,61.4931 L67.0672,49.1971 L67.0672,50.3521 L87.5192,62.1611 C86.9712,62.5871 86.4122,63.0011 85.8372,63.3921 L67.0672,52.5541 L67.0672,53.7091 L67.0672,53.7101 L84.8962,64.0031 C84.2812,64.3931 83.6572,64.7701 83.0152,65.1191 L67.0672,55.9121 L67.0672,57.0671 L81.9572,65.6641 C81.2612,66.0111 80.5532,66.3381 79.8302,66.6381 L67.0672,59.2691 L67.0672,60.4231 L67.0672,60.4241 L78.6422,67.1071 C77.8422,67.4031 77.0252,67.6621 76.1972,67.8981 L67.0672,62.6261 L67.0672,63.7811 L74.8212,68.2571 C73.8832,68.4811 72.9332,68.6701 71.9672,68.8131 L67.0672,65.9841 L67.0672,65.9831 L67.0672,67.1381 L70.3162,69.0141 C69.2482,69.1181 68.1672,69.1741 67.0732,69.1741 C67.0712,69.1741 67.0692,69.1741 67.0672,69.1741 L67.0562,69.1741 L67.0572,35.7601 L67.0532,35.7621 L66.0572,36.3381 L66.0562,69.1491 C65.4162,69.1291 64.7802,69.0941 64.1492,69.0391 L64.1502,37.4391 L63.1502,38.0161 L63.1492,68.9361 C62.5072,68.8611 61.8722,68.7661 61.2422,68.6541 L61.2422,39.1171 L60.2422,39.6951 L60.2422,68.4701 C59.5982,68.3361 58.9642,68.1781 58.3342,68.0071 L58.3342,40.7961 L57.3342,41.3731 L57.3342,67.7231 C56.6902,67.5271 56.0542,67.3111 55.4272,67.0771 L55.4272,42.4741 L54.4272,43.0511 L54.4272,66.6821 C53.7822,66.4171 53.1442,66.1371 52.5202,65.8341 L52.5202,44.1531 L51.5202,44.7301 L51.5202,65.3211 C50.8712,64.9791 50.2352,64.6191 49.6132,64.2361 L49.6132,45.8321 L49.6132,45.8311 L48.6132,46.4081 L48.6132,46.4091 L48.6132,63.5941 C47.9592,63.1601 47.3252,62.7011 46.7052,62.2231 L46.7052,47.5101 L46.7052,47.5091 L45.7052,48.0871 L45.7052,61.4271 C45.0462,60.8781 44.4122,60.3001 43.7972,59.7031 L43.7972,49.1891 L43.7972,49.1881 L42.7972,49.7651 L42.7972,49.7661 L42.7972,58.6871 C42.1302,57.9811 41.4942,57.2471 40.8902,56.4861 L40.8902,50.8671 L40.8902,50.8661 L39.8902,51.4441 Z M67.0732,70.1741 C48.0952,70.1741 32.6562,54.7361 32.6562,35.7581 C32.6562,16.7801 48.0952,1.3411 67.0732,1.3411 C86.0502,1.3411 101.4892,16.7801 101.4892,35.7581 C101.4892,54.7361 86.0502,70.1741 67.0732,70.1741 Z M9.7466,5.6111 L8.7456,5.0341 L17.4656,0.0001 L19.4656,0.0001 L9.7466,5.6111 Z M14.5601,8.3909 L29.0951,-0.0001 L31.0951,-0.0001 L15.5611,8.9689 L15.5601,8.9689 L14.5601,8.3909 Z M3.9312,2.2537 L2.9312,1.6767 L5.8352,-0.0003 L7.8352,-0.0003 L3.9312,2.2537 Z M34.4322,-0.0002 C34.4282,18.9738 18.9912,34.4078 0.0162,34.4078 C0.0112,34.4078 0.0052,34.4078 -0.0008,34.4078 L-0.0008,-0.0002 L0.0002,-0.0002 L0.0002,33.4078 C0.0032,33.4078 0.0062,33.4078 0.0102,33.4078 L0.0162,33.4078 C1.1112,33.4078 2.1922,33.3518 3.2602,33.2478 L0.0102,31.3718 L0.0102,30.2168 L0.0112,30.2168 L4.9112,33.0458 C5.8762,32.9038 6.8272,32.7148 7.7642,32.4918 L0.0112,28.0148 L0.0102,28.0148 L0.0102,26.8598 L0.0112,26.8598 L9.1412,32.1308 C9.9682,31.8958 10.7862,31.6368 11.5862,31.3408 L0.0112,24.6578 L0.0102,24.6578 L0.0102,23.5028 L0.0112,23.5028 L12.7742,30.8718 C13.4962,30.5718 14.2042,30.2458 14.9012,29.8968 L0.0112,21.3008 L0.0102,21.2998 L0.0102,20.1458 L0.0112,20.1458 L15.9582,29.3538 C16.6002,29.0038 17.2242,28.6268 17.8392,28.2368 L0.0112,17.9428 L0.0102,17.9428 L0.0112,16.7888 L18.7822,27.6258 C19.3562,27.2338 19.9142,26.8198 20.4632,26.3948 L0.0112,14.5858 L0.0112,13.4318 L21.3072,25.7268 C21.8242,25.2988 22.3232,24.8518 22.8122,24.3938 L0.0112,11.2288 L0.0112,10.0738 L23.5672,23.6738 C24.0302,23.2128 24.4772,22.7368 24.9132,22.2498 L0.0112,7.8718 L0.0112,6.7168 L25.5802,21.4798 C25.9942,20.9878 26.4002,20.4878 26.7852,19.9728 L0.0112,4.5148 L0.0112,3.3598 L27.3682,19.1538 C27.7342,18.6338 28.0872,18.1038 28.4242,17.5618 L0.0112,1.1578 L0.0112,0.0068 L0.0112,0.0018 L28.9362,16.7028 C28.9372,16.6998 28.9392,16.6968 28.9402,16.6938 C28.9412,16.6938 28.9412,16.6938 28.9412,16.6938 C29.4812,15.7608 29.9782,14.8008 30.4272,13.8138 L27.1912,15.6828 L27.1902,15.6838 L26.1902,15.1058 L31.0802,12.2818 C31.4382,11.3818 31.7592,10.4628 32.0392,9.5258 L24.2832,14.0038 L24.2832,14.0048 L23.2832,13.4268 L32.4212,8.1508 C32.6282,7.3288 32.7992,6.4918 32.9452,5.6458 L21.3752,12.3258 L21.3742,12.3258 L20.3742,11.7488 L20.3752,11.7488 L33.1352,4.3818 C33.2372,3.6108 33.3152,2.8338 33.3632,2.0478 L18.4682,10.6468 L17.4682,10.0698 L33.4112,0.8658 C33.4182,0.5768 33.4322,0.2908 33.4322,-0.0002 L34.4322,-0.0002 Z M2.0211,-0.0002 L1.0241,0.5748 L0.0281,-0.0002 L2.0211,-0.0002 Z M12.6529,7.2898 L11.6529,6.7118 L23.2789,-0.0002 L25.2799,-0.0002 L12.6529,7.2898 Z M6.8384,3.9324 L5.8384,3.3544 L11.6504,-0.0006 L13.6504,-0.0006 L6.8384,3.9324 Z M-0.0004,71.6458 L0.0036,71.6468 L-0.0004,71.6488 L-0.0004,71.6458 Z M0.0162,60.4158 L0.0162,61.5708 L-0.0008,61.5618 L-0.0008,60.4068 L0.0162,60.4158 Z M0.0162,54.8567 L-0.0008,54.8477 L-0.0008,53.6927 L0.0162,53.7017 L0.0162,54.8567 Z M0.0162,48.1428 L-0.0008,48.1338 L-0.0008,46.9778 L0.0162,46.9878 L0.0162,48.1428 Z M0.0162,51.4998 L-0.0008,51.4908 L-0.0008,50.3358 L0.0162,50.3448 L0.0162,51.4998 Z M0.0162,38.242 L-0.0008,38.242 L-0.0008,37.242 L0.0162,37.242 C18.9922,37.242 34.4292,52.678 34.4332,71.652 L33.4332,71.652 C33.4322,71.211 33.4162,70.774 33.3992,70.336 L31.1202,71.652 L29.1202,71.652 L33.3342,69.219 C33.2842,68.52 33.2122,67.827 33.1192,67.14 L25.3042,71.652 L23.3042,71.652 L32.9572,66.079 C32.8452,65.414 32.7122,64.757 32.5612,64.106 L19.4902,71.652 L17.4902,71.652 L32.3152,63.093 C32.1472,62.459 31.9562,61.834 31.7522,61.216 L13.6742,71.652 L11.6742,71.652 L31.4252,60.25 C31.2042,59.644 30.9642,59.049 30.7102,58.46 L7.8612,71.652 L5.8602,71.652 L30.2962,57.545 C30.0252,56.967 29.7442,56.395 29.4412,55.836 L2.0452,71.652 L0.0442,71.652 L28.9472,54.967 C28.9452,54.964 28.9432,54.961 28.9422,54.958 L28.9412,54.957 C28.4012,54.026 27.8182,53.122 27.1932,52.25 L27.1932,55.967 L27.1932,55.968 L26.1932,56.545 L26.1932,56.544 L26.1932,50.924 C25.5882,50.162 24.9532,49.429 24.2862,48.723 L24.2862,57.645 L24.2862,57.646 L23.2862,58.223 L23.2862,47.708 C22.6712,47.111 22.0372,46.534 21.3782,45.984 L21.3782,59.324 L21.3782,59.325 L20.3782,59.902 L20.3782,59.901 L20.3782,45.189 C19.7582,44.711 19.1232,44.252 18.4712,43.818 L18.4702,61.003 L17.4702,61.58 L17.4712,43.177 C16.8492,42.794 16.2112,42.434 15.5642,42.092 L15.5632,62.681 L14.5632,63.259 L14.5642,41.579 C13.9392,41.276 13.3012,40.996 12.6562,40.732 L12.6562,64.36 L12.1682,64.641 L11.6562,64.937 L11.6562,40.337 C11.0292,40.103 10.3932,39.888 9.7482,39.692 L9.7482,66.038 L8.7482,66.616 L8.7482,39.407 C8.1202,39.236 7.4852,39.079 6.8412,38.945 L6.8412,67.717 L5.8412,68.294 L5.8412,38.761 C5.2112,38.649 4.5762,38.554 3.9342,38.479 L3.9332,69.395 L2.9332,69.972 L2.9342,38.377 C2.3032,38.322 1.6662,38.286 1.0272,38.267 L1.0262,71.074 L0.0302,71.649 L0.0262,71.651 L0.0272,38.242 L0.0172,38.242 L0.0162,38.242 Z M0.0162,41.4285 L-0.0008,41.4185 L-0.0008,40.2635 L0.0162,40.2735 L0.0162,41.4285 Z M0.0162,44.7854 L-0.0008,44.7754 L-0.0008,43.6204 L0.0162,43.6304 L0.0162,44.7854 Z M0.0152,67.1306 L0.0152,68.2856 L-0.0008,68.2766 L-0.0008,67.1216 L0.0152,67.1306 Z M0.0152,71.6384 L0.0162,71.6424 L-0.0008,71.6334 L-0.0008,70.4784 L0.0152,70.4874 L0.0152,71.6384 Z M0.0162,63.7732 L0.0152,64.9282 L-0.0008,64.9192 L-0.0008,63.7642 L0.0162,63.7732 Z M0.0162,57.0593 L0.0162,58.2143 L-0.0008,58.2053 L-0.0008,57.0503 L0.0162,57.0593 Z M134.1129,34.4075 C115.1459,34.3985 99.7169,18.9685 99.7129,-0.0005 L100.7129,-0.0005 C100.7129,0.4385 100.7289,0.8725 100.7459,1.3065 L103.0089,-0.0005 L105.0089,-0.0005 L100.8099,2.4235 C100.8609,3.1225 100.9319,3.8155 101.0249,4.5015 L108.8229,-0.0005 L110.8229,-0.0005 L101.1859,5.5635 C101.2979,6.2285 101.4309,6.8865 101.5819,7.5375 L114.6379,-0.0005 L116.6379,-0.0005 L101.8279,8.5505 C101.9959,9.1845 102.1859,9.8095 102.3899,10.4285 L120.4529,-0.0005 L122.4529,-0.0005 L102.7169,11.3935 C102.9379,11.9995 103.1769,12.5955 103.4319,13.1835 L126.2669,-0.0005 L128.2679,-0.0005 L103.8459,14.0995 C104.1169,14.6775 104.3989,15.2485 104.7009,15.8085 L132.0829,-0.0005 L134.0829,-0.0005 L105.1949,16.6785 C105.1969,16.6805 105.1989,16.6835 105.1999,16.6865 C105.1999,16.6865 105.2009,16.6865 105.2009,16.6865 C105.7399,17.6175 106.3229,18.5205 106.9469,19.3925 L106.9469,15.6785 L106.9469,15.6775 L107.9469,15.1005 L107.9469,20.7195 C108.5509,21.4805 109.1869,22.2155 109.8539,22.9215 L109.8539,13.9995 L110.8539,13.4215 L110.8539,13.4225 L110.8539,23.9365 C111.4679,24.5345 112.1029,25.1115 112.7609,25.6605 L112.7619,12.3215 L112.7619,12.3205 L113.7619,11.7435 L113.7609,26.4565 C114.3819,26.9345 115.0159,27.3935 115.6689,27.8285 L115.6699,10.6425 L116.6699,10.0655 L116.6689,28.4705 C117.2909,28.8525 117.9279,29.2125 118.5769,29.5545 L118.5769,8.9645 L118.5769,8.9635 L119.5769,8.3865 L119.5769,30.0675 C120.2009,30.3715 120.8389,30.6515 121.4839,30.9155 L121.4839,7.2855 L122.4839,6.7075 L122.4839,31.3105 C123.1109,31.5445 123.7469,31.7605 124.3909,31.9565 L124.3909,5.6075 L125.3909,5.0295 L125.3909,32.2415 C126.0199,32.4115 126.6549,32.5695 127.2989,32.7035 L127.2989,3.9285 L128.2989,3.3515 L128.2989,32.8885 C128.9289,32.9995 129.5639,33.0945 130.2059,33.1705 L130.2069,2.2495 L131.2069,1.6725 L131.2059,33.2725 C131.8369,33.3275 132.4729,33.3635 133.1129,33.3825 L133.1139,0.5715 L134.1039,-0.0005 L134.1129,-0.0005 L134.1129,34.4075 Z M127.3013,67.7127 L128.3013,68.2897 L122.4773,71.6517 L120.4773,71.6517 L127.3013,67.7127 Z M99.7125,71.6521 C99.7155,52.6831 115.1455,37.2511 134.1125,37.2421 L134.1125,38.2421 C133.0255,38.2431 131.9495,38.2981 130.8875,38.4021 L134.1125,40.2641 L134.1125,41.4191 L129.2365,38.6031 C128.2715,38.7461 127.3195,38.9341 126.3825,39.1581 L134.1125,43.6211 L134.1125,44.7761 L125.0065,39.5181 C124.1785,39.7531 123.3605,40.0121 122.5605,40.3081 L134.1125,46.9781 L134.1125,48.1331 L121.3725,40.7771 C120.6495,41.0771 119.9415,41.4031 119.2455,41.7521 L134.1125,50.3361 L134.1125,51.4901 L118.1885,42.2961 C117.5465,42.6461 116.9225,43.0221 116.3075,43.4121 L134.1125,53.6931 L134.1125,54.8471 L115.3645,44.0231 C114.7895,44.4151 114.2325,44.8291 113.6835,45.2551 L134.1125,57.0501 L134.1125,58.2051 L112.8385,45.9221 C112.3225,46.3501 111.8235,46.7981 111.3345,47.2551 L134.1125,60.4071 L134.1125,61.5621 L110.5795,47.9741 C110.1155,48.4351 109.6685,48.9121 109.2325,49.3991 L134.1125,63.7641 L134.1125,64.9191 L108.5655,50.1691 C108.1505,50.6611 107.7465,51.1601 107.3605,51.6751 L134.1125,67.1221 L134.1125,68.2771 L106.7775,52.4941 C106.4115,53.0151 106.0585,53.5451 105.7225,54.0871 L134.1125,70.4791 L134.1125,71.6331 L105.2105,54.9461 C105.2085,54.9491 105.2065,54.9521 105.2055,54.9541 C105.2055,54.9551 105.2045,54.9551 105.2045,54.9551 C104.6655,55.8851 104.1715,56.8421 103.7225,57.8261 L106.9495,55.9621 L107.9495,56.5391 L107.9495,56.5401 L103.0675,59.3581 C102.7105,60.2591 102.3885,61.1771 102.1085,62.1141 L109.8575,57.6411 L110.8585,58.2181 L110.8575,58.2181 L101.7265,63.4901 C101.5185,64.3131 101.3475,65.1491 101.2015,65.9941 L112.7645,59.3191 L113.7645,59.8971 L101.0115,67.2601 C100.9085,68.0301 100.8305,68.8081 100.7825,69.5941 L115.6715,60.9981 L116.6725,61.5751 L116.6715,61.5751 L100.7345,70.7771 C100.7275,71.0691 100.7125,71.3591 100.7125,71.6521 L99.7125,71.6521 Z M133.1158,71.0701 L134.1118,71.6451 L134.1128,71.6461 L134.1128,71.6491 L134.1078,71.6521 L132.1068,71.6521 L133.1158,71.0701 Z M119.5797,63.2542 L119.5787,63.2542 L105.0327,71.6522 L103.0327,71.6522 L118.5787,62.6762 L119.5797,63.2542 Z M122.1382,64.7317 L122.4872,64.9327 L110.8472,71.6517 L108.8472,71.6517 L121.4862,64.3557 L122.1382,64.7317 Z M124.3941,66.034 L125.3941,66.612 L116.6631,71.652 L114.6631,71.652 L124.3941,66.034 Z" id="BGpattern_05" fill="#1D1D1D"></path>
    </g>
</svg>