<?xml version="1.0" encoding="UTF-8"?>
<svg width="58px" height="95px" viewBox="0 0 58 95" version="1.1" xmlns="http://www.w3.org/2000/svg" xmlns:xlink="http://www.w3.org/1999/xlink">
    <!-- Generator: Sketch 52.5 (67469) - http://www.bohemiancoding.com/sketch -->
    <title>BGpattern_03_greylighter</title>
    <desc>Created with Sketch.</desc>
    <g id="背景パターン" stroke="none" stroke-width="1" fill="none" fill-rule="evenodd">
        <g id="Group" transform="translate(-260.000000, -123.000000)" fill="#E7E7E7">
            <path d="M287.996052,193.207629 C288.186694,187.791318 290.386644,182.737972 294.254965,178.882106 C298.123286,175.026239 303.192955,172.833372 308.626761,172.643344 C308.325163,167.945924 306.344098,163.567228 302.986174,160.219109 C299.62825,156.871996 295.234402,154.89731 290.521809,154.596683 C290.330158,160.012994 288.131216,165.06634 284.262896,168.922207 C280.395583,172.778073 275.325914,174.97094 269.8911,175.160968 C270.192698,179.858389 272.172754,184.23809 275.531687,187.585203 C278.889611,190.932316 283.283459,192.907002 287.996052,193.207629 Z M309.661675,174.642161 C304.407416,174.588872 299.413399,176.584673 295.681251,180.303799 C291.950112,184.022926 289.932734,188.971706 290.001325,194.238206 L290.015447,195.270794 L288.980532,195.257724 C283.359111,195.184326 278.076608,192.965318 274.105401,189.006897 C270.134194,185.048475 267.907009,179.782981 267.835392,174.180663 L267.822279,173.149081 L268.856185,173.162152 C268.942933,173.163157 269.02968,173.164162 269.115418,173.164162 C274.304113,173.164162 279.167001,171.158308 282.83661,167.500513 C286.567749,163.781387 288.585126,158.832606 288.516536,153.566106 L288.502414,152.533518 L289.537328,152.547594 C295.159759,152.619986 300.442261,154.838994 304.41246,158.797416 C308.383667,162.755837 310.610851,168.021332 310.682468,173.623649 L310.695581,174.655231 L309.661675,174.642161 Z M281.682872,197.933906 C281.611255,203.537229 279.38407,208.802723 275.412863,212.760139 C272.96175,215.203361 270.00831,216.97897 266.786558,218.000498 L260.000101,218.000498 L260.000101,209.812186 C260.902877,212.06739 261.434456,214.472405 261.522212,216.960872 C266.234805,216.660245 270.628653,214.685559 273.986577,211.338446 C277.344502,207.991332 279.325566,203.611631 279.627164,198.915216 C274.19235,198.724183 269.12369,196.531316 265.255369,192.676455 C262.800221,190.228206 261.02392,187.297345 260.000101,184.099037 L260.000101,176.299831 L261.01585,176.287766 L261.001729,177.319349 C260.933138,182.585849 262.950515,187.534629 266.681654,191.253756 C270.413802,194.973888 275.416898,196.98678 280.66107,196.915394 L281.695985,196.902323 L281.682872,197.933906 Z M275.413065,165.253151 C271.440849,169.211573 266.158347,171.431586 260.537934,171.503978 L260.000303,171.511016 L260.000303,162.305198 C260.903079,164.560403 261.434658,166.965417 261.522414,169.453884 C266.233998,169.153257 270.628855,167.178571 273.986779,163.831458 C277.344704,160.484345 279.325768,156.104644 279.627366,151.407223 C274.192552,151.217195 269.123891,149.024328 265.25557,145.168462 C262.800422,142.721218 261.024122,139.790357 260.000303,136.59205 L260.000303,128.792844 L261.016052,128.780778 L261.00193,129.812361 C260.93334,135.078861 262.950717,140.027642 266.681856,143.746768 C270.414004,147.465894 275.4171,149.464711 280.661272,149.408406 L281.696186,149.395336 L281.683074,150.426918 C281.611457,156.030241 279.384272,161.29473 275.413065,165.253151 Z M289.537631,200.054783 C295.158044,200.127175 300.441555,202.347189 304.412762,206.304605 C307.632496,209.514978 309.681143,213.59003 310.389243,218.0009 L308.353709,218.0009 C307.665783,214.127941 305.824926,210.556615 302.986477,207.726298 C299.627543,204.38019 295.233696,202.405504 290.522111,202.104877 C290.33046,207.520183 288.13051,212.573529 284.263198,216.430401 C283.697324,216.993448 283.10018,217.510245 282.485889,218.0009 L278.930261,218.0009 C280.333347,217.176438 281.652712,216.18809 282.835904,215.008708 C286.568052,211.288576 288.585429,206.339795 288.515829,201.073295 L288.502717,200.041712 L289.537631,200.054783 Z M303.105704,182.550859 C307.075902,178.592438 312.358404,176.37343 317.979826,176.301038 L318,176.300032 L318,184.098233 C317.410926,182.257271 317.065954,180.328835 316.996355,178.350127 C312.283762,178.651759 307.888905,180.62544 304.531989,183.972553 C301.175074,187.319666 299.193,191.699367 298.890394,196.396788 C304.325208,196.586816 309.393869,198.779683 313.263198,202.635549 C315.35421,204.718823 316.936842,207.159028 318,209.810376 L318,218.000699 L317.516838,218.000699 L317.516838,217.992655 C317.585429,212.72515 315.568052,207.776369 311.836912,204.057243 C308.167303,200.399448 303.303407,198.393594 298.117738,198.393594 C298.030991,198.393594 297.944244,198.394599 297.856488,198.395604 L296.821573,198.408675 L296.834686,197.377093 C296.907312,191.774775 299.134496,186.509281 303.105704,182.550859 Z M303.105704,135.043771 C307.075902,131.08535 312.358404,128.866341 317.979826,128.79395 L318,128.792944 L318,136.591145 C317.410926,134.750182 317.065954,132.821746 316.996355,130.843038 C312.283762,131.144671 307.888905,133.118351 304.531989,136.465465 C301.175074,139.812578 299.193,144.192279 298.890394,148.889699 C304.325208,149.079728 309.393869,151.272595 313.263198,155.128461 C315.35421,157.211735 316.936842,159.65194 318,162.303288 L318,171.511117 L317.502717,171.51715 L317.516838,170.485567 C317.585429,165.218062 315.568052,160.269281 311.836912,156.550154 C308.167303,152.89236 303.303407,150.886505 298.117738,150.886505 C298.030991,150.886505 297.944244,150.887511 297.856488,150.888516 L296.821573,150.901587 L296.834686,149.870004 C296.907312,144.267687 299.134496,139.002192 303.105704,135.043771 Z M267.822279,125.648628 L268.856185,125.661699 C272.474351,125.704933 275.909945,124.766857 278.917854,123.001302 L282.476508,123.001302 C278.89062,125.867815 274.527033,127.49864 269.8911,127.660516 C270.192698,132.357936 272.172754,136.737637 275.531687,140.084751 C278.889611,143.431864 283.283459,145.40655 287.996052,145.707177 C288.186694,140.290866 290.386644,135.238525 294.254965,131.381653 C298.123286,127.525787 303.191946,125.333925 308.626761,125.142892 C308.580361,124.418974 308.480501,123.707122 308.355424,123.001302 L310.389949,123.001302 C310.554365,124.027857 310.669355,125.066478 310.682468,126.124202 L310.695581,127.155784 L309.661675,127.141708 C304.338825,127.091436 299.41239,129.085226 295.681251,132.803347 C291.950112,136.522473 289.932734,141.471254 290.001325,146.738759 L290.015447,147.770342 L288.980532,147.757271 C283.358102,147.684879 278.075599,145.464866 274.105401,141.506444 C270.134194,137.548023 267.907009,132.282528 267.835392,126.680211 L267.822279,125.648628 Z M266.768301,123.001001 C264.776141,123.630407 262.683112,123.975273 260.537631,124.003425 L260,124.010463 L260,123.001001 L266.768301,123.001001 Z M317.999597,124.010363 L317.503322,124.016395 L317.516435,123.0009 L317.999597,123.0009 L317.999597,124.010363 Z" id="BGpattern_03_greylighter"></path>
        </g>
    </g>
</svg>