<?xml version="1.0" encoding="UTF-8"?>
<svg width="50px" height="47px" viewBox="0 0 50 47" version="1.1" xmlns="http://www.w3.org/2000/svg" xmlns:xlink="http://www.w3.org/1999/xlink">
    <!-- Generator: Sketch 52.5 (67469) - http://www.bohemiancoding.com/sketch -->
    <title>BGpattern_01</title>
    <desc>Created with Sketch.</desc>
    <g id="Pattern_01" stroke="none" stroke-width="1" fill="none" fill-rule="evenodd">
        <path d="M2,14.19 L14,14.19 L14,2 L13.85,2 L8,2 L8,0 L13.85,0 L16.85,0 L24.93,0 L27.07,0 L35.15,0 L38.15,0 L44,0 L44,2 L38.15,2 L38,2 L38,14.19 L50,14.19 L50,17.17 L35,17.17 L35,2 L27.07,2 L27,2 L27,18 L25,18 L25,2 L24.93,2 L17.06,2 L17.06,17.17 L2,17.17 L2,31.69 L2,31.83 L17.01,31.83 L17.01,47 L14,47 L14,34.81 L2,34.81 L2,40.41 L0,40.41 L0,34.65 L0,31.69 L0,17.13 L0,14.17 L0,8.41 L2,8.41 L2,14.17 L2,14.19 Z M35,47 L35,31.83 L49.95,31.83 L49.95,34.81 L37.9,34.81 L37.9,47 L35,47 Z M25,31 L27,31 L27,47 L25,47 L25,31 Z M26.08,27.32 C24.4231458,27.32 23.08,25.9768542 23.08,24.32 C23.08,22.6631458 24.4231458,21.32 26.08,21.32 C27.7368542,21.32 29.08,22.6631458 29.08,24.32 C29.08,25.9768542 27.7368542,27.32 26.08,27.32 Z" id="BGpattern_01" fill="#1D1D1D"></path>
    </g>
</svg>