<?xml version="1.0" encoding="UTF-8"?>
<svg width="67px" height="114px" viewBox="0 0 67 114" version="1.1" xmlns="http://www.w3.org/2000/svg" xmlns:xlink="http://www.w3.org/1999/xlink">
    <!-- Generator: Sketch 52.5 (67469) - http://www.bohemiancoding.com/sketch -->
    <title>BGpattern_02_greylighter</title>
    <desc>Created with Sketch.</desc>
    <g id="背景パターン" stroke="none" stroke-width="1" fill="none" fill-rule="evenodd">
        <g id="Group" transform="translate(-169.000000, -123.000000)" fill="#E7E7E7">
            <path d="M234.799334,124.09318 C233.738293,125.884243 231.747465,129.177935 231.0845,129.8409 C230.1645,130.7609 229.0645,130.7359 228.3705,130.0419 C227.6765,129.3489 227.6515,128.2489 228.5715,127.3289 C229.2365,126.6639 232.5485,124.6629 234.3355,123.6039 C234.427276,123.777255 234.557325,123.921003 234.713987,124.035144 C234.557563,123.920413 234.427684,123.776781 234.336,123.6036 C234.536,123.4856 234.722,123.3756 234.878,123.2836 C234.918834,123.259448 234.960907,123.252717 234.999575,123.25876 C234.960858,123.252625 234.91881,123.259362 234.878,123.2835 C234.722,123.3755 234.536,123.4855 234.336,123.6035 C234.285,123.5085 234.256,123.4065 234.23,123.2985 C234.218518,123.249518 234.203525,123.201538 234.191414,123.152555 C234.179036,123.102997 234.1701,123.053414 234.1701,123.0011 L234.1701,123.0001 L225.4611,123.0001 C225.4801,123.9651 226.2341,124.7411 227.5191,124.7411 C228.4591,124.7411 232.2181,123.8131 234.2301,123.2991 C234.218057,123.249425 234.202994,123.201008 234.190973,123.151829 C234.179319,123.103633 234.1701,123.053712 234.1701,123.0008 L234.964943,123.0008 L235.488,123.0005 L235.488,123.4705 C235.475665,123.470032 235.463256,123.470709 235.451003,123.472548 C235.463315,123.47082 235.47582,123.470276 235.4883,123.4709 L235.4883,124.3109 L235.4882,132.9866 C235.4862,132.9866 235.4832,132.9876 235.4802,132.9876 C234.4992,132.9876 233.7032,132.2266 233.7032,130.9266 C233.7032,129.9896 234.6232,126.2606 235.1392,124.2426 C235.19934,124.006744 235.255317,123.788835 235.3023,123.6069 C235.308999,123.581176 235.319719,123.559185 235.333363,123.540852 C235.319565,123.559099 235.308722,123.580956 235.302,123.6065 C235.255,123.7885 235.199,124.0065 235.139,124.2425 C235.016017,124.208505 234.90503,124.159513 234.800043,124.093527 Z M234.725346,124.043335 C234.721554,124.04061 234.717776,124.037869 234.714014,124.035111 Z M170.302377,236.003868 C170.303727,235.975512 170.312096,235.946149 170.3291,235.9174 C170.4231,235.7564 170.5371,235.5654 170.6591,235.3584 C171.720478,233.567475 173.711163,230.274037 174.3741,229.6111 C175.2941,228.6911 176.3941,228.7161 177.0881,229.4101 C177.7821,230.1031 177.8071,231.2031 176.8871,232.1231 C176.2221,232.7881 172.9101,234.7891 171.1231,235.8481 C171.060915,235.730064 170.98116,235.626284 170.88746,235.536187 C170.981128,235.626543 171.060903,235.730341 171.1231,235.8484 C171.173721,235.943574 171.202709,236.045539 171.2287,236.1525 C171.141876,236.174881 171.057434,236.196667 170.976467,236.21757 C171.057404,236.1968 171.141812,236.175172 171.2286,236.1528 C171.2516,236.2518 171.2886,236.3448 171.2886,236.4508 C171.2886,236.460291 171.286468,236.468184 171.285317,236.476423 C171.286858,236.467928 171.289,236.459682 171.289,236.4509 C171.289,236.3449 171.252,236.2519 171.229,236.1529 C173.24,235.6389 176.999,234.7109 177.94,234.7109 C179.24,234.7109 180,235.5049 180.001,236.4859 L171.284,236.4859 L170.4826,236.4858 L169.9997,236.4855 L169.9997,235.9765 C170.025519,235.973507 170.050917,235.966033 170.073748,235.953502 C170.051111,235.965852 170.025912,235.97323 170.0003,235.9762 L170.0003,235.143811 L170,226.4668 C170.971,226.4788 171.755,227.2348 171.755,228.5258 C171.755,229.462701 170.836194,233.190015 170.319163,235.209162 C170.2593,235.4452 170.2033,235.6632 170.1563,235.8452 C170.146024,235.885816 170.124971,235.916135 170.098065,235.937446 C170.124846,235.916131 170.145988,235.885912 170.1567,235.8455 C170.2037,235.6635 170.2597,235.4455 170.3197,235.2095 C170.4427,235.2435 170.5537,235.2925 170.6587,235.3585 C170.5367,235.5655 170.4237,235.7565 170.3287,235.9165 C170.31171,235.945525 170.30349,235.975208 170.302377,236.003868 Z M170.6591,235.3591 C170.723561,235.399429 170.784306,235.444129 170.840649,235.493309 Z M170.484964,236.456031 C170.486551,236.446101 170.488938,236.43628 170.492125,236.426692 C170.488956,236.436283 170.486586,236.446108 170.485015,236.456038 Z M170.492227,236.426383 C170.510109,236.372891 170.5529,236.326725 170.6206,236.3098 C170.641006,236.304405 170.661893,236.298914 170.683232,236.29333 C170.661928,236.298838 170.641074,236.304231 170.6207,236.3095 C170.552873,236.326457 170.510049,236.372764 170.492227,236.426383 Z M234.918733,123.892277 C234.995374,123.762542 235.066685,123.642136 235.13,123.5355 C235.202111,123.411559 235.116235,123.276897 234.999522,123.258665 Z M235.333363,123.540852 C235.33462,123.539189 235.335902,123.537556 235.337208,123.535953 Z M170.4673,123.0005 L171.3073,123.0005 L171.3072,123 L179.9712,123 C179.9522,123.965 179.1982,124.741 177.9132,124.741 C176.979225,124.741 173.267401,123.827049 171.245364,123.310042 C170.278437,123.48055 170.28665,123.507994 170.3024,123.5349 C170.4004,123.7009 170.5174,123.8999 170.6454,124.1149 C170.5494,124.1709 170.4484,124.2119 170.3384,124.2429 C170.2784,124.0069 170.2224,123.7889 170.1754,123.6069 C170.1514,123.5159 170.0764,123.4699 170.0004,123.4689 L170.0004,123.0009 L170.467383,123.0009 Z M170.468126,123.004302 C170.468605,123.006469 170.469112,123.008631 170.469649,123.010787 C170.469108,123.008632 170.468597,123.006471 170.468115,123.004304 Z M171.245372,123.309297 C171.27037,123.20755 171.3072,123.10975 171.3072,123.001 Z M170.3384,124.2429 C170.242282,124.269114 170.146927,124.301436 170.044997,124.309177 C170.147359,124.300934 170.241916,124.269278 170.338,124.2422 C170.855,126.2602 171.774,129.9892 171.774,130.9262 C171.774,132.2262 170.98,132.9852 170,132.9872 L170,124.3112 C170.015182,124.311073 170.030171,124.310371 170.044997,124.309177 Z M170.950502,123.517122 C171.008364,123.55141 171.067928,123.586806 171.1288,123.6231 C172.923733,124.68728 176.199613,126.667213 176.8606,127.3282 C177.7806,128.2482 177.7556,129.3482 177.0616,130.0422 C176.3676,130.7362 175.2676,130.7612 174.3486,129.8412 C173.6876,129.1802 171.7106,125.9102 170.6456,124.1152 C170.517796,123.900092 170.400798,123.701097 170.3028,123.5351 C170.286915,123.508079 170.278566,123.480574 170.276435,123.453896 C170.271602,123.389536 170.302987,123.329787 170.35194,123.293364 C170.302492,123.329709 170.271284,123.389388 170.276435,123.453896 Z M170.548672,123.28063 C170.506125,123.257451 170.462567,123.25255 170.423102,123.260858 C170.462612,123.252387 170.506193,123.257248 170.548672,123.28063 Z M170.6458,124.1151 C170.64792,124.113857 170.650036,124.112609 170.652148,124.111356 C170.655906,124.109136 170.659651,124.106901 170.663382,124.104649 C170.811191,124.015038 170.93873,123.900087 171.040011,123.762162 Z M235.190927,235.948777 C235.186588,235.931791 235.179589,235.914689 235.1696,235.8978 C235.0796,235.7448 234.9716,235.5628 234.8556,235.3668 C234.9496,235.3138 235.0476,235.2768 235.1536,235.2488 C235.2636,235.2188 235.3696,235.1808 235.4886,235.1808 L235.4886,235.9968 L235.4886,236.4858 L234.9746,236.4858 C234.976646,236.474071 234.977706,236.462175 234.977744,236.450305 C234.977609,236.462008 234.976452,236.473735 234.9743,236.4853 L234.1793,236.4853 C234.1793,236.46345 234.180425,236.441896 234.182466,236.420587 C234.180328,236.442166 234.179073,236.464018 234.1789,236.4862 L225.4689,236.4862 C225.4689,236.4752 225.4659,236.4662 225.4659,236.4552 C225.4659,235.4732 226.2259,234.6782 227.5269,234.6782 C228.4699,234.6782 232.2439,235.6112 234.2519,236.1242 C234.2836,236.0188 234.3266,235.9248 234.3816,235.8328 C234.473503,235.887107 234.562391,235.93969 234.646662,235.989549 C234.744063,236.046993 234.835445,236.100674 234.9185,236.1489 C234.969662,236.17916 235.02277,236.182074 235.068686,236.166778 C235.022483,236.182473 234.96901,236.179893 234.9176,236.1498 C234.83508,236.101038 234.743947,236.047109 234.646662,235.989549 Z M234.646662,235.989549 C234.562291,235.93979 234.473403,235.887207 234.3815,235.8329 C234.394719,235.810755 234.408475,235.789095 234.422762,235.767932 C234.408464,235.789011 234.394714,235.810576 234.3815,235.8326 C232.5965,234.7746 229.2775,232.7696 228.6115,232.1046 C227.6915,231.1846 227.7165,230.0846 228.4105,229.3906 C229.1045,228.6966 230.2045,228.6716 231.1245,229.5916 C231.7915,230.2586 233.7985,233.5826 234.8555,235.3666 C234.773804,235.412812 234.698748,235.467025 234.630541,235.528467 Z M234.422746,235.767922 C234.482053,235.680343 234.550524,235.600957 234.62785,235.530899 Z M234.917835,236.313111 C234.898883,236.297053 234.875232,236.284435 234.8466,236.2768 C234.714685,236.242857 234.563131,236.203558 234.399743,236.162116 C234.562732,236.204032 234.714342,236.243346 234.8463,236.2773 C234.875001,236.28468 234.898772,236.297142 234.917835,236.313111 Z M234.251712,236.124828 C234.233511,236.185658 234.214789,236.246493 234.200884,236.30888 C234.214907,236.24662 234.233905,236.185772 234.252112,236.124928 Z M203.0816,178.5073 C202.9726,178.4773 202.8656,178.4393 202.7466,178.4393 C202.6276,178.4393 202.5216,178.4773 202.4126,178.5073 C201.8976,176.4953 200.9706,172.7383 200.9706,171.7973 C200.9706,170.4963 201.7656,169.7363 202.7466,169.7363 C203.7276,169.7363 204.5236,170.4963 204.5236,171.7973 C204.5236,172.7383 203.5966,176.4953 203.0816,178.5073 Z M204.5235,187.6752 C204.5235,188.9762 203.7285,189.7362 202.7465,189.7362 C201.7655,189.7362 200.9705,188.9762 200.9705,187.6752 C200.9705,186.7382 201.8895,183.0102 202.4055,180.9912 C202.5165,181.0222 202.6255,181.0602 202.7465,181.0602 C202.8675,181.0602 202.9775,181.0222 203.0885,180.9912 C203.6045,183.0102 204.5235,186.7382 204.5235,187.6752 Z M202.1143,178.6254 C201.9163,178.7374 201.7563,178.8964 201.6393,179.0914 C199.8543,178.0334 196.5363,176.0284 195.8703,175.3634 C194.9503,174.4434 194.9753,173.3434 195.6693,172.6494 C196.3633,171.9554 197.4633,171.9304 198.3833,172.8504 C199.0493,173.5174 201.0563,176.8414 202.1143,178.6254 Z M203.3951,180.8642 C203.5991,180.7452 203.7641,180.5792 203.8791,180.3722 C205.6731,181.4362 208.9491,183.4172 209.6101,184.0772 C210.5301,184.9972 210.5051,186.0972 209.8111,186.7912 C209.1171,187.4852 208.0181,187.5102 207.0981,186.5902 C206.4371,185.9302 204.4601,182.6592 203.3951,180.8642 Z M194.7853,177.9368 C195.7283,177.9368 199.5023,178.8688 201.5103,179.3828 C201.4753,179.5018 201.4363,179.6198 201.4363,179.7498 C201.4363,179.8558 201.4723,179.9498 201.4963,180.0488 C199.4853,180.5628 195.7263,181.4908 194.7853,181.4908 C193.4843,181.4908 192.7243,180.6948 192.7243,179.7138 C192.7243,178.7328 193.4843,177.9368 194.7853,177.9368 Z M203.9952,180.059 C204.0202,179.957 204.0572,179.86 204.0572,179.75 C204.0572,179.616 204.0182,179.494 203.9812,179.372 C205.9992,178.856 209.7272,177.937 210.6632,177.937 C211.9642,177.937 212.7242,178.732 212.7242,179.714 C212.7242,180.695 211.9642,181.491 210.6632,181.491 C209.7292,181.491 206.0172,180.576 203.9952,180.059 Z M195.8381,184.078 C196.5031,183.413 199.8151,181.412 201.6021,180.353 C201.7101,180.558 201.8711,180.72 202.0661,180.843 C201.0041,182.633 199.0141,185.927 198.3511,186.59 C197.4311,187.51 196.3311,187.485 195.6371,186.791 C194.9431,186.098 194.9181,184.998 195.8381,184.078 Z M203.8409,179.0717 C203.7179,178.8747 203.5539,178.7127 203.3469,178.6037 C204.4079,176.8147 206.4019,173.5137 207.0659,172.8507 C207.9859,171.9307 209.0859,171.9557 209.7789,172.6497 C210.4729,173.3427 210.4979,174.4437 209.5779,175.3637 C208.9169,176.0247 205.6339,178.0087 203.8409,179.0717 Z M205.5216,221.4755 L218.5136,228.9765 L218.5136,236.4855 L217.2136,236.4855 L217.2136,229.7265 L206.8216,223.7265 L206.8216,236.4855 L205.5216,236.4855 L205.5216,221.4755 Z M232.2169,217.2739 L232.2169,205.2739 L210.1319,218.0239 L220.5249,224.0249 L232.2169,217.2739 Z M220.5249,225.5259 L207.5319,218.0239 L233.5169,203.0229 L233.5169,218.0239 L220.5249,225.5259 Z M222.4737,228.9765 L235.4657,221.4755 L235.4887,221.4885 L235.4887,222.9895 L235.4657,222.9765 L223.7737,229.7265 L223.7737,236.4855 L222.4737,236.4855 L222.4737,228.9765 Z M233.712,228.5385 C233.712,227.2375 234.507,226.4775 235.488,226.4775 L235.488,235.1805 C235.37,235.1805 235.263,235.2185 235.154,235.2485 C234.639,233.2365 233.712,229.4795 233.712,228.5385 Z M199.9376,137.9897 L186.9446,130.4887 L186.9446,123.0007 L188.2456,123.0007 L188.2456,129.7377 L198.6376,135.7377 L198.6376,123.0007 L199.9376,123.0007 L199.9376,137.9897 Z M182.9669,123.0004 L182.9669,130.4884 L169.9999,137.9754 L169.9999,136.4734 L181.6669,129.7374 L181.6669,123.0004 L182.9669,123.0004 Z M173.2945,142.1635 L173.2945,154.1635 L195.3785,141.4135 L184.9865,135.4135 L173.2945,142.1635 Z M184.9865,133.9115 L197.9795,141.4135 L171.9945,156.4155 L171.9945,141.4135 L184.9865,133.9115 Z M218.5059,130.4882 L205.5129,137.9892 L205.5129,123.0002 L206.8139,123.0002 L206.8139,135.7382 L217.2059,129.7382 L217.2059,123.0002 L218.5059,123.0002 L218.5059,130.4882 Z M232.1998,154.1782 L232.1998,142.1782 L220.5078,135.4272 L210.1148,141.4272 L232.1998,154.1782 Z M233.4998,141.4272 L233.4998,156.4292 L207.5148,141.4272 L220.5078,133.9262 L233.4998,141.4272 Z M235.4581,137.9897 L222.4651,130.4887 L222.4651,123.0007 L223.7661,123.0007 L223.7661,129.7377 L235.4581,136.4887 L235.4881,136.4707 L235.4881,137.9717 L235.4581,137.9897 Z M199.9454,221.4623 L199.9454,236.4853 L198.6454,236.4853 L198.6454,223.7143 L188.2534,229.7143 L188.2534,236.4853 L186.9534,236.4853 L186.9534,228.9633 L199.9454,221.4623 Z M173.2589,217.2739 L184.9509,224.0249 L195.3439,218.0239 L173.2589,205.2739 L173.2589,217.2739 Z M171.9589,203.0229 L197.9439,218.0239 L184.9509,225.5259 L171.9589,218.0239 L171.9589,203.0229 Z M170.0011,221.4623 L182.9931,228.9633 L182.9931,236.4853 L181.6931,236.4853 L181.6931,229.7143 L170.0011,222.9633 L170.0001,222.9633 L170.0001,221.4623 L170.0011,221.4623 Z M184.4722,186.4868 L184.4722,172.9858 L174.0792,166.9858 L174.0792,192.4868 L184.4722,186.4868 Z M172.7802,164.7348 L185.7722,172.2358 L185.7722,187.2378 L172.7802,194.7388 L172.7802,164.7348 Z M231.3868,192.4872 L231.3868,166.9862 L220.9948,172.9862 L220.9948,186.4872 L231.3868,192.4872 Z M232.6868,164.7342 L232.6868,194.7382 L219.6948,187.2372 L219.6948,172.2352 L232.6868,164.7342 Z M199.4659,210.9272 L199.4659,198.9272 L187.7739,192.1772 L177.3819,198.1772 L199.4659,210.9272 Z M174.7809,198.1772 L187.7739,190.6752 L200.7659,198.1772 L200.7659,213.1782 L174.7809,198.1772 Z M206.0347,148.5468 L206.0347,160.5468 L217.7267,167.2978 L228.1197,161.2978 L206.0347,148.5468 Z M230.7197,161.2978 L217.7267,168.7988 L204.7347,161.2978 L204.7347,146.2958 L230.7197,161.2978 Z M206.044,198.9125 L206.044,210.9125 L228.129,198.1625 L217.736,192.1625 L206.044,198.9125 Z M217.736,190.6615 L230.729,198.1625 L204.744,213.1645 L204.744,198.1625 L217.736,190.6615 Z M199.4752,160.5327 L199.4752,148.5327 L177.3912,161.2827 L187.7832,167.2827 L199.4752,160.5327 Z M187.7832,168.7847 L174.7902,161.2827 L200.7752,146.2807 L200.7752,161.2827 L187.7832,168.7847 Z M191.0318,172.9858 L191.0318,186.4868 L202.7238,193.2378 L214.4168,186.4868 L214.4168,172.9858 L202.7238,166.2358 L191.0318,172.9858 Z M189.7318,187.2378 L189.7318,172.2358 L202.7238,164.7348 L215.7168,172.2358 L215.7168,187.2378 L202.7238,194.7388 L189.7318,187.2378 Z" id="BGpattern_02_greylighter"></path>
        </g>
    </g>
</svg>