<?xml version="1.0" encoding="UTF-8"?>
<svg width="50px" height="47px" viewBox="0 0 50 47" version="1.1" xmlns="http://www.w3.org/2000/svg" xmlns:xlink="http://www.w3.org/1999/xlink">
    <!-- Generator: Sketch 52.5 (67469) - http://www.bohemiancoding.com/sketch -->
    <title>BGpattern_01_greylighter</title>
    <desc>Created with Sketch.</desc>
    <g id="背景パターン" stroke="none" stroke-width="1" fill="none" fill-rule="evenodd">
        <g id="Group" transform="translate(-113.000000, -136.000000)" fill="#E7E7E7">
            <path d="M115,150.1909 L127,150.1909 L127,138.0009 L126.85,138.0009 L121,138.0009 L121,136.0009 L126.85,136.0009 L129.85,136.0009 L137.93,136.0009 L140.07,136.0009 L148.15,136.0009 L151.15,136.0009 L157,136.0009 L157,138.0009 L151.15,138.0009 L151,138.0009 L151,150.1909 L163,150.1909 L163,153.1709 L148,153.1709 L148,138.0009 L140.07,138.0009 L140,138.0009 L140,154.0009 L138,154.0009 L138,138.0009 L137.93,138.0009 L130.06,138.0009 L130.06,153.1709 L115,153.1709 L115,167.6909 L115,167.8309 L130.01,167.8309 L130.01,183.0009 L127,183.0009 L127,170.8109 L115,170.8109 L115,176.4109 L113,176.4109 L113,170.6509 L113,167.6909 L113,153.1309 L113,150.1709 L113,144.4109 L115,144.4109 L115,150.1709 L115,150.1909 Z M148,183.0009 L148,167.8309 L162.95,167.8309 L162.95,170.8109 L150.9,170.8109 L150.9,183.0009 L148,183.0009 Z M138,167.0009 L140,167.0009 L140,183.0009 L138,183.0009 L138,167.0009 Z M139.08,163.3209 C137.423146,163.3209 136.08,161.977754 136.08,160.3209 C136.08,158.664046 137.423146,157.3209 139.08,157.3209 C140.736854,157.3209 142.08,158.664046 142.08,160.3209 C142.08,161.977754 140.736854,163.3209 139.08,163.3209 Z" id="BGpattern_01_greylighter"></path>
        </g>
    </g>
</svg>