<?xml version="1.0" encoding="UTF-8"?>
<svg width="65px" height="56px" viewBox="0 0 65 56" version="1.1" xmlns="http://www.w3.org/2000/svg" xmlns:xlink="http://www.w3.org/1999/xlink">
    <!-- Generator: Sketch 53 (72520) - https://sketchapp.com -->
    <title>BGpattern_04_greylightest</title>
    <desc>Created with Sketch.</desc>
    <g id="背景パターン" stroke="none" stroke-width="1" fill="none" fill-rule="evenodd">
        <g id="Group" transform="translate(-344.000000, -123.000000)" fill="#F2F2F2">
            <path d="M376.502145,148.2514 C378.017263,148.2514 379.245118,149.4824 379.245118,151.0014 C379.245118,152.5204 378.017263,153.7514 376.502145,153.7514 C374.987026,153.7514 373.759171,152.5204 373.759171,151.0014 C373.759171,149.4824 374.987026,148.2514 376.502145,148.2514 Z M369.932573,144.8222 L369.133619,145.7172 L349.657508,128.2462 L350.456462,127.3522 L369.932573,144.8222 Z M369.133819,156.2802 L369.932772,157.1752 L350.455664,174.6452 L349.657708,173.7502 L369.133819,156.2802 Z M383.86658,145.7167 L383.067627,144.8217 L402.545733,127.3517 L403.343689,128.2467 L383.86658,145.7167 Z M383.067926,157.1748 L383.866879,156.2798 L403.343988,173.7508 L402.545035,174.6448 L383.067926,157.1748 Z M344.220136,145.8139 C344.190213,145.9289 344.095455,145.9859 344.000698,145.9859 L344.000698,134.1989 C345.212594,134.1989 346.19408,135.1399 346.19408,136.7509 C346.19408,138.0459 344.77671,143.6629 344.220136,145.8139 Z M346.194579,165.1884 C346.194579,166.7994 345.212095,167.7404 344.000199,167.7404 L344.000199,155.9534 C344.095954,155.9534 344.190711,156.0104 344.220635,156.1254 C344.776212,158.2764 346.194579,163.8934 346.194579,165.1884 Z M355.828601,162.8286 C354.971795,163.6876 353.613275,163.7186 352.477185,162.5796 C351.563526,161.6636 348.605104,156.6866 347.480983,154.7706 C347.36129,154.5676 347.588707,154.3396 347.792186,154.4596 C349.702293,155.5866 354.666577,158.5526 355.580237,159.4686 C356.716327,160.6076 356.685406,161.9696 355.828601,162.8286 Z M349.142527,150.7495 C351.289029,150.1915 356.89068,148.7695 358.182371,148.7695 C359.789255,148.7695 360.727851,149.7545 360.727851,150.9695 C360.727851,152.1845 359.789255,153.1695 358.182371,153.1695 C356.89068,153.1695 351.289029,151.7475 349.142527,151.1895 C348.914112,151.1305 348.914112,150.8085 349.142527,150.7495 Z M347.791987,147.4799 C347.588508,147.5999 347.36109,147.3719 347.480784,147.1679 C348.604904,145.2529 351.563326,140.2759 352.476986,139.3599 C353.613076,138.2209 354.971596,138.2519 355.828401,139.1109 C356.686204,139.9699 356.716127,141.3319 355.580037,142.4709 C354.667375,143.3869 349.703091,146.3529 347.791987,147.4799 Z M346.057729,151.0009 C346.057729,152.1399 345.13609,153.0639 344,153.0639 L344,148.9379 C345.13609,148.9379 346.057729,149.8619 346.057729,151.0009 Z M346.743472,123.0014 C346.743472,124.5204 345.515618,125.7514 344.000499,125.7514 L344.000499,123.0014 L346.743472,123.0014 Z M344.000499,176.2514 C345.515618,176.2514 346.743472,177.4824 346.743472,179.0014 C346.743472,179.0014 346.743472,179.0024 346.743472,179.0024 L344.000499,179.0024 L344.000499,176.2514 Z M406.80592,136.7509 C406.80592,135.1409 407.787406,134.1989 408.999302,134.1989 L408.999302,145.9849 C408.904545,145.9849 408.809787,145.9279 408.780861,145.8139 C408.224287,143.6629 406.80592,138.0459 406.80592,136.7509 Z M408.780363,156.1254 C408.810286,156.0114 408.905043,155.9544 408.999801,155.9544 L408.999801,167.7404 C407.787905,167.7404 406.805421,166.7984 406.805421,165.1884 C406.805421,163.8934 408.223788,158.2764 408.780363,156.1254 Z M405.208412,154.4594 C405.411891,154.3394 405.639309,154.5674 405.519615,154.7714 C404.395495,156.6874 401.437073,161.6634 400.523413,162.5794 C399.387323,163.7184 398.028803,163.6874 397.171,162.8284 C396.314195,161.9694 396.284272,160.6074 397.419364,159.4684 C398.333024,158.5524 403.297308,155.5864 405.208412,154.4594 Z M403.857872,151.1899 C401.71137,151.7479 396.109719,153.1699 394.818028,153.1699 C393.211144,153.1699 392.272548,152.1849 392.272548,150.9699 C392.272548,149.7549 393.211144,148.7699 394.818028,148.7699 C396.109719,148.7699 401.71137,150.1919 403.857872,150.7499 C404.086287,150.8089 404.086287,151.1309 403.857872,151.1899 Z M397.171399,139.1108 C398.028205,138.2518 399.387722,138.2208 400.522815,139.3598 C401.436474,140.2758 404.394896,145.2528 405.519017,147.1688 C405.63871,147.3718 405.411293,147.5998 405.208811,147.4798 C403.297707,146.3528 398.333423,143.3868 397.419763,142.4708 C396.283673,141.3318 396.314594,139.9698 397.171399,139.1108 Z M406.94277,151.0009 C406.94277,149.8619 407.863411,148.9389 408.999501,148.9379 L408.999501,153.0639 C407.863411,153.0629 406.94277,152.1399 406.94277,151.0009 Z M408.999501,125.7509 C407.484382,125.7509 406.256528,124.5199 406.256528,123.0009 L408.999501,123.0009 L408.999501,125.7509 Z M406.257026,179.0014 C406.257026,177.4824 407.484881,176.2514 409,176.2514 L409,179.0024 L406.257026,179.0024 C406.257026,179.0024 406.257026,179.0014 406.257026,179.0014 Z M376.501247,162.1977 C377.713142,162.1977 378.695626,163.1387 378.695626,164.7497 C378.695626,166.0447 377.277259,171.6607 376.720685,173.8127 C376.661835,174.0417 376.340658,174.0417 376.281809,173.8127 C375.725235,171.6607 374.306868,166.0447 374.306868,164.7497 C374.306868,163.1387 375.289351,162.1977 376.501247,162.1977 Z M388.329748,167.1098 C389.186553,167.9688 389.217474,169.3308 388.081384,170.4698 C387.167724,171.3858 382.20344,174.3518 380.292336,175.4788 C380.089854,175.5988 379.862437,175.3708 379.98213,175.1678 C381.106251,173.2518 384.064673,168.2748 384.978332,167.3588 C386.114422,166.2198 387.472942,166.2508 388.329748,167.1098 Z M393.229397,178.9687 C393.229397,178.9807 393.226405,178.9907 393.226405,179.0027 L381.483485,179.0027 C381.467525,178.8967 381.515403,178.7817 381.644073,178.7477 C383.789577,178.1907 389.392226,176.7687 390.683917,176.7687 C392.290801,176.7687 393.229397,177.7537 393.229397,178.9687 Z M371.35862,178.748 C371.48729,178.782 371.535168,178.896 371.519208,179.003 L359.776288,179.003 C359.776288,178.991 359.773296,178.98 359.773296,178.969 C359.773296,177.753 360.711892,176.769 362.318776,176.769 C363.610467,176.769 369.213116,178.191 371.35862,178.748 Z M368.024361,167.3588 C368.93802,168.2748 371.895445,173.2518 373.020563,175.1678 C373.140256,175.3708 372.912839,175.5988 372.70936,175.4788 C370.799253,174.3518 365.834969,171.3858 364.921309,170.4698 C363.785219,169.3308 363.81614,167.9688 364.672945,167.1098 C365.529751,166.2508 366.888271,166.2198 368.024361,167.3588 Z M376.501247,176.9374 C377.637337,176.9374 378.558976,177.8604 378.558976,179.0004 L378.558976,179.0024 L374.444515,179.0024 C374.444515,179.0014 374.443518,179.0004 374.443518,179.0004 C374.443518,177.8604 375.365157,176.9374 376.501247,176.9374 Z M376.501247,139.7407 C375.289351,139.7407 374.306868,138.7997 374.306868,137.1887 C374.306868,135.8937 375.725235,130.2777 376.281809,128.1257 C376.340658,127.8967 376.661835,127.8967 376.720685,128.1257 C377.277259,130.2777 378.695626,135.8937 378.695626,137.1887 C378.695626,138.7997 377.713142,139.7407 376.501247,139.7407 Z M372.709659,126.4599 C372.913138,126.3399 373.140555,126.5679 373.020862,126.7719 C371.895744,128.6869 368.93832,133.6639 368.02466,134.5799 C366.88857,135.7189 365.53005,135.6879 364.672247,134.8289 C363.815442,133.9699 363.784521,132.6069 364.920611,131.4689 C365.834271,130.5529 370.798554,127.5869 372.709659,126.4599 Z M381.643774,123.1904 C381.543032,123.1644 381.494157,123.0854 381.482188,123.0014 L393.226105,123.0014 C393.210146,124.2014 392.276538,125.1694 390.683618,125.1694 C389.391927,125.1694 383.789278,123.7484 381.643774,123.1904 Z M362.318776,125.1699 C360.725856,125.1699 359.792248,124.2019 359.776288,123.0009 L371.520206,123.0009 C371.508237,123.0849 371.460359,123.1639 371.35862,123.1909 C369.213116,123.7479 363.610467,125.1699 362.318776,125.1699 Z M384.978033,134.58 C384.064374,133.664 381.106949,128.687 379.981831,126.771 C379.863135,126.568 380.089555,126.34 380.293034,126.46 C382.204139,127.587 387.167425,130.553 388.081085,131.469 C389.217174,132.607 389.186254,133.97 388.329448,134.829 C387.472643,135.688 386.114123,135.719 384.978033,134.58 Z M376.501247,125.0639 C375.365157,125.0639 374.443518,124.1409 374.443518,123.0009 L378.558976,123.0009 C378.558976,124.1409 377.637337,125.0639 376.501247,125.0639 Z" id="BGpattern_04_greylightest"></path>
        </g>
    </g>
</svg>