<?xml version="1.0" encoding="UTF-8"?>
<svg width="65px" height="56px" viewBox="0 0 65 56" version="1.1" xmlns="http://www.w3.org/2000/svg" xmlns:xlink="http://www.w3.org/1999/xlink">
    <!-- Generator: Sketch 52.5 (67469) - http://www.bohemiancoding.com/sketch -->
    <title>BGpattern_04</title>
    <desc>Created with Sketch.</desc>
    <g id="Pattern_04" stroke="none" stroke-width="1" fill="none" fill-rule="evenodd">
        <path d="M32.5017445,25.2502 C34.0168635,25.2502 35.2447183,26.4812 35.2447183,28.0002 C35.2447183,29.5192 34.0168635,30.7502 32.5017445,30.7502 C30.9866255,30.7502 29.7587707,29.5192 29.7587707,28.0002 C29.7587707,26.4812 30.9866255,25.2502 32.5017445,25.2502 Z M25.9321727,21.821 L25.1332193,22.716 L5.65710808,5.245 L6.45606153,4.351 L25.9321727,21.821 Z M25.1334188,33.279 L25.9323722,34.174 L6.45526357,51.644 L5.65730756,50.749 L25.1334188,33.279 Z M39.8661802,22.7155 L39.0672268,21.8205 L58.5453329,4.3505 L59.3432889,5.2455 L39.8661802,22.7155 Z M39.067526,34.1736 L39.8664795,33.2786 L59.3435881,50.7496 L58.5446346,51.6436 L39.067526,34.1736 Z M0.219736113,22.8127 C0.189812763,22.9277 0.0950554871,22.9847 0.000298211504,22.9847 L0.000298211504,11.1977 C1.21219389,11.1977 2.19367978,12.1387 2.19367978,13.7497 C2.19367978,15.0447 0.776310426,20.6617 0.219736113,22.8127 Z M2.1941785,42.1872 C2.1941785,43.7982 1.21169517,44.7392 -0.000200510999,44.7392 L-0.000200510999,32.9522 C0.0955542096,32.9522 0.190311485,33.0092 0.220234835,33.1242 C0.775811704,35.2752 2.1941785,40.8922 2.1941785,42.1872 Z M11.8282006,39.8274 C10.9713953,40.6864 9.61287523,40.7174 8.47678536,39.5784 C7.56312574,38.6624 4.60470385,33.6854 3.48058333,31.7694 C3.36088993,31.5664 3.58830739,31.3384 3.79178617,31.4584 C5.70189336,32.5854 10.6661772,35.5514 11.5798368,36.4674 C12.7159266,37.6064 12.6850058,38.9684 11.8282006,39.8274 Z M5.14212722,27.7483 C7.28862887,27.1903 12.89028,25.7683 14.1819713,25.7683 C15.7888552,25.7683 16.727451,26.7533 16.727451,27.9683 C16.727451,29.1833 15.7888552,30.1683 14.1819713,30.1683 C12.89028,30.1683 7.28862887,28.7463 5.14212722,28.1883 C4.91371231,28.1293 4.91371231,27.8073 5.14212722,27.7483 Z M3.79158668,24.4787 C3.5881079,24.5987 3.36069044,24.3707 3.48038384,24.1667 C4.60450436,22.2517 7.56292625,17.2747 8.47658587,16.3587 C9.61267574,15.2197 10.9711958,15.2507 11.8280011,16.1097 C12.6858038,16.9687 12.7157272,18.3307 11.5796373,19.4697 C10.6669751,20.3857 5.70269131,23.3517 3.79158668,24.4787 Z M2.05732905,27.9997 C2.05732905,29.1387 1.13568986,30.0627 -0.0004,30.0627 L-0.0004,25.9367 C1.13568986,25.9367 2.05732905,26.8607 2.05732905,27.9997 Z M2.74307249,0.0002 C2.74307249,1.5192 1.51521769,2.7502 9.87225031e-05,2.7502 L9.87225031e-05,0.0002 L2.74307249,0.0002 Z M9.87225031e-05,53.2502 C1.51521769,53.2502 2.74307249,54.4812 2.74307249,56.0002 C2.74307249,56.0002 2.74307249,56.0012 2.74307249,56.0012 L9.87225031e-05,56.0012 L9.87225031e-05,53.2502 Z M62.8055202,13.7497 C62.8055202,12.1397 63.7870061,11.1977 64.9989018,11.1977 L64.9989018,22.9837 C64.9041445,22.9837 64.8093872,22.9267 64.7804613,22.8127 C64.223887,20.6617 62.8055202,15.0447 62.8055202,13.7497 Z M64.7799626,33.1242 C64.809886,33.0102 64.9046432,32.9532 64.9994005,32.9532 L64.9994005,44.7392 C63.7875048,44.7392 62.8050215,43.7972 62.8050215,42.1872 C62.8050215,40.8922 64.2233883,35.2752 64.7799626,33.1242 Z M61.2080123,31.4582 C61.4114911,31.3382 61.6389085,31.5662 61.5192151,31.7702 C60.3950946,33.6862 57.4366727,38.6622 56.5230131,39.5782 C55.3869232,40.7172 54.0284031,40.6862 53.1706004,39.8272 C52.3137952,38.9682 52.2838718,37.6062 53.4189642,36.4672 C54.3326239,35.5512 59.2969077,32.5852 61.2080123,31.4582 Z M59.8574718,28.1887 C57.7109701,28.7467 52.109319,30.1687 50.8176277,30.1687 C49.2107438,30.1687 48.272148,29.1837 48.272148,27.9687 C48.272148,26.7537 49.2107438,25.7687 50.8176277,25.7687 C52.109319,25.7687 57.7109701,27.1907 59.8574718,27.7487 C60.0858867,27.8077 60.0858867,28.1297 59.8574718,28.1887 Z M53.1709994,16.1096 C54.0278047,15.2506 55.3873222,15.2196 56.5224146,16.3586 C57.4360743,17.2746 60.3944962,22.2516 61.5186167,24.1676 C61.6383101,24.3706 61.4108926,24.5986 61.2084113,24.4786 C59.2973066,23.3516 54.3330228,20.3856 53.4193632,19.4696 C52.2832734,18.3306 52.3141942,16.9686 53.1709994,16.1096 Z M62.9423697,27.9997 C62.9423697,26.8607 63.8630114,25.9377 64.9991013,25.9367 L64.9991013,30.0627 C63.8630114,30.0617 62.9423697,29.1387 62.9423697,27.9997 Z M64.9991013,2.7497 C63.4839823,2.7497 62.2561275,1.5187 62.2561275,-0.0003 L64.9991013,-0.0003 L64.9991013,2.7497 Z M62.2566262,56.0002 C62.2566262,54.4812 63.484481,53.2502 64.9996,53.2502 L64.9996,56.0012 L62.2566262,56.0012 C62.2566262,56.0012 62.2566262,56.0002 62.2566262,56.0002 Z M32.5008468,39.1965 C33.7127425,39.1965 34.6952258,40.1375 34.6952258,41.7485 C34.6952258,43.0435 33.276859,48.6595 32.7202847,50.8115 C32.6614355,51.0405 32.3402582,51.0405 32.2814089,50.8115 C31.7248346,48.6595 30.3064678,43.0435 30.3064678,41.7485 C30.3064678,40.1375 31.2889511,39.1965 32.5008468,39.1965 Z M44.3293476,44.1086 C45.1861529,44.9676 45.2170737,46.3296 44.0809838,47.4686 C43.1673242,48.3846 38.2030404,51.3506 36.2919358,52.4776 C36.0894544,52.5976 35.862037,52.3696 35.9817304,52.1666 C37.1058509,50.2506 40.0642728,45.2736 40.9779324,44.3576 C42.1140223,43.2186 43.4725424,43.2496 44.3293476,44.1086 Z M49.228997,55.9675 C49.228997,55.9795 49.2260047,55.9895 49.2260047,56.0015 L37.4830846,56.0015 C37.4671255,55.8955 37.5150029,55.7805 37.6436733,55.7465 C39.7891775,55.1895 45.3918261,53.7675 46.6835174,53.7675 C48.2904013,53.7675 49.228997,54.7525 49.228997,55.9675 Z M27.3582198,55.7468 C27.4868902,55.7808 27.5347676,55.8948 27.5188085,56.0018 L15.7758884,56.0018 C15.7758884,55.9898 15.7728961,55.9788 15.7728961,55.9678 C15.7728961,54.7518 16.7114918,53.7678 18.3183758,53.7678 C19.610067,53.7678 25.2127156,55.1898 27.3582198,55.7468 Z M24.0239607,44.3576 C24.9376203,45.2736 27.8950447,50.2506 29.0201627,52.1666 C29.1398561,52.3696 28.9124387,52.5976 28.7089599,52.4776 C26.7988527,51.3506 21.8345689,48.3846 20.9209093,47.4686 C19.7848194,46.3296 19.8157402,44.9676 20.6725455,44.1086 C21.5293507,43.2496 22.8878708,43.2186 24.0239607,44.3576 Z M32.5008468,53.9362 C33.6369367,53.9362 34.5585759,54.8592 34.5585759,55.9992 L34.5585759,56.0012 L30.4441152,56.0012 C30.4441152,56.0002 30.4431178,55.9992 30.4431178,55.9992 C30.4431178,54.8592 31.3647569,53.9362 32.5008468,53.9362 Z M32.5008468,16.7395 C31.2889511,16.7395 30.3064678,15.7985 30.3064678,14.1875 C30.3064678,12.8925 31.7248346,7.2765 32.2814089,5.1245 C32.3402582,4.8955 32.6614355,4.8955 32.7202847,5.1245 C33.276859,7.2765 34.6952258,12.8925 34.6952258,14.1875 C34.6952258,15.7985 33.7127425,16.7395 32.5008468,16.7395 Z M28.7092591,3.4587 C28.9127379,3.3387 29.1401553,3.5667 29.0204619,3.7707 C27.895344,5.6857 24.9379195,10.6627 24.0242599,11.5787 C22.88817,12.7177 21.5296499,12.6867 20.6718472,11.8277 C19.815042,10.9687 19.7841212,9.6057 20.9202111,8.4677 C21.8338707,7.5517 26.7981545,4.5857 28.7092591,3.4587 Z M37.643374,0.1892 C37.5426321,0.1632 37.4937573,0.0842 37.4817879,0.0002 L49.2257054,0.0002 C49.2097463,1.2002 48.2761378,2.1682 46.6832181,2.1682 C45.3915268,2.1682 39.7888782,0.7472 37.643374,0.1892 Z M18.3183758,2.1687 C16.7254561,2.1687 15.7918476,1.2007 15.7758884,-0.0003 L27.5198059,-0.0003 C27.5078366,0.0837 27.4599592,0.1627 27.3582198,0.1897 C25.2127156,0.7467 19.610067,2.1687 18.3183758,2.1687 Z M40.9776332,11.5788 C40.0639736,10.6628 37.1065491,5.6858 35.9814312,3.7698 C35.8627352,3.5668 36.0891552,3.3388 36.292634,3.4588 C38.2037386,4.5858 43.167025,7.5518 44.0806846,8.4678 C45.2167745,9.6058 45.1858537,10.9688 44.3290484,11.8278 C43.4722432,12.6868 42.1137231,12.7178 40.9776332,11.5788 Z M32.5008468,2.0627 C31.3647569,2.0627 30.4431178,1.1397 30.4431178,-0.0003 L34.5585759,-0.0003 C34.5585759,1.1397 33.6369367,2.0627 32.5008468,2.0627 Z" id="BGpattern_04" fill="#1D1D1D"></path>
    </g>
</svg>