<?xml version="1.0" encoding="UTF-8"?>
<svg width="678px" height="680px" viewBox="0 0 678 680" version="1.1" xmlns="http://www.w3.org/2000/svg" xmlns:xlink="http://www.w3.org/1999/xlink">
    <!-- Generator: Sketch 53 (72520) - https://sketchapp.com -->
    <title>curation-oval-logo</title>
    <desc>Created with Sketch.</desc>
    <defs>
        <radialGradient cx="50%" cy="50%" fx="50%" fy="50%" r="51.5556066%" gradientTransform="translate(0.500000,0.500000),rotate(90.000000),scale(1.000000,0.967393),translate(-0.500000,-0.500000)" id="radialGradient-1">
            <stop stop-color="#FFFFFF" stop-opacity="0.400704764" offset="0%"></stop>
            <stop stop-color="#FFFFFF" stop-opacity="0.374207823" offset="62.0158666%"></stop>
            <stop stop-color="#FFFFFF" stop-opacity="0" offset="100%"></stop>
        </radialGradient>
    </defs>
    <g id="Page-1" stroke="none" stroke-width="1" fill="none" fill-rule="evenodd">
        <g id="Artboard" transform="translate(-408.000000, -809.000000)" fill="url(#radialGradient-1)">
            <g id="curation-oval-logo" transform="translate(407.000000, 809.000000)">
                <path d="M340,680 C152.223185,680 0,527.776815 0,340 C0,152.223185 152.223185,0 340,0 C527.776815,0 680,152.223185 680,340 C680,527.776815 527.776815,680 340,680 Z M449.692419,535.417065 C452.061675,536.782713 454,535.665993 454,532.932968 L454,443.066413 C454,440.333388 452.061675,439.216668 449.692419,440.584045 L371.776942,485.515594 C369.407686,486.882971 369.407686,489.118139 371.776942,490.483787 L449.692419,535.417065 Z M485.307581,292.583695 C482.938325,291.216314 481,292.334766 481,295.067801 L481,384.932957 C481,387.665992 482.938325,388.782716 485.307581,387.417063 L563.223058,342.48362 C565.592314,341.117967 565.592314,338.882791 563.223058,337.515409 L485.307581,292.583695 Z M358.307581,218.582937 C355.938325,217.217285 354,218.334008 354,221.067042 L354,310.933887 C354,313.665192 355.938325,314.783644 358.307581,313.416263 L436.223058,268.484569 C438.592314,267.117188 438.592314,264.882012 436.223058,263.51636 L358.307581,218.582937 Z M354,458.932033 C354,461.664437 355.930236,462.783339 358.289604,461.417137 L449.712119,408.453464 C452.069764,407.085533 454,403.730556 454,400.996423 L454,295.067347 C454,292.334943 452.069764,291.216041 449.712119,292.583972 L358.289604,345.547645 C355.930236,346.915577 354,350.268824 354,353.001228 L354,458.932033 Z M226,384.930971 C226,387.6651 227.930236,388.784 230.289604,387.416071 L321.712119,334.452481 C324.069764,333.086281 326,329.731309 326,326.99718 L326,221.068271 C326,218.334142 324.069764,217.216971 321.712119,218.583171 L230.289604,271.54849 C227.930236,272.91469 226,276.269662 226,279.002061 L226,384.930971 Z M229.307581,144.582942 C226.938325,143.217279 225,144.334011 225,147.067066 L225,236.934621 C225,239.665947 226.938325,240.782679 229.307581,239.417016 L307.223058,194.483239 C309.592314,193.117576 309.592314,190.882382 307.223058,189.516719 L229.307581,144.582942 Z M321.692419,461.417058 C324.061675,462.782721 326,461.665989 326,458.932934 L326,369.065379 C326,366.334053 324.061675,365.217321 321.692419,366.582984 L243.776942,411.516761 C241.407686,412.882424 241.407686,415.117618 243.776942,416.485009 L321.692419,461.417058 Z M193.692419,387.417063 C196.061675,388.782715 198,387.665992 198,384.932958 L198,295.066113 C198,292.334808 196.061675,291.216356 193.692419,292.583737 L115.776942,337.515431 C113.407686,338.882812 113.407686,341.117988 115.776942,342.48364 L193.692419,387.417063 Z M123.532425,198.771194 C125.570956,199.943231 193.712708,239.417374 193.712708,239.417374 C196.070029,240.783022 198,239.664573 198,236.933277 L198,161.122525 L198,147.066723 C198,144.335427 196.070029,143.216978 193.710985,144.582626 L154.911681,167.053587 C142.146303,174.450559 131.364315,183.963421 122.724249,194.883419 C122.105625,195.664777 121.144086,197.395174 123.532425,198.771194 Z M570.259318,222.526459 C568.21889,223.716783 499.775423,263.327139 499.775423,263.327139 C497.407904,264.697919 497.407904,266.943223 499.777154,268.314004 L565.506973,306.359241 L577.69243,313.414423 C580.06168,314.786939 582,313.662552 582,310.92099 L582,265.808425 C581.998269,250.964085 579.165207,236.789519 574.035581,223.774043 C573.668685,222.842259 572.651067,221.133121 570.259318,222.526459 Z M109.740682,222.526459 C107.348933,221.133121 106.331315,222.842259 105.964419,223.774043 C100.834793,236.789519 98.0017306,250.964085 98,265.808425 L98,310.92099 C98,313.662552 99.9383201,314.786939 102.30757,313.414423 L114.493027,306.359241 L180.222846,268.314004 C182.592096,266.943223 182.592096,264.697919 180.224577,263.327139 C180.224577,263.327139 111.78111,223.716783 109.740682,222.526459 Z M570.259318,456.473502 C572.651067,457.866852 573.668685,456.157699 574.035581,455.227643 C579.165207,442.212059 581.998269,428.035639 582,413.191175 L582,368.079967 C582,365.336648 580.06168,364.213987 577.69243,365.584779 L565.506973,372.64002 L499.777154,410.68731 C497.407904,412.058102 497.407904,414.30169 499.775423,415.672482 C499.775423,415.672482 568.21889,455.284904 570.259318,456.473502 Z M109.740682,456.473502 C111.78111,455.284904 180.224577,415.672482 180.224577,415.672482 C182.592096,414.30169 182.592096,412.058102 180.222846,410.68731 L114.493027,372.64002 L102.30757,365.584779 C99.9383201,364.213987 98,365.336648 98,368.079967 L98,413.191175 C98.0017306,428.035639 100.834793,442.212059 105.964419,455.227643 C106.331315,456.157699 107.348933,457.866852 109.740682,456.473502 Z M353.000028,597.309479 C352.991375,600.07021 354.976462,600.099579 355.962949,599.952732 C369.770298,597.908961 383.43227,593.301408 396.256594,585.910665 L435.22281,563.453378 C437.592108,562.086833 437.592108,559.853025 435.224541,558.488208 L423.037106,551.465447 L357.305955,513.582272 C354.938388,512.217455 353.000028,513.335223 353.000028,516.064857 C353.000028,516.064857 353.006951,594.95301 353.000028,597.309479 Z M325.999982,81.6905406 C326.006905,78.9297897 324.021837,78.9004201 323.035361,79.0472685 C309.228152,81.0910534 295.56805,85.6986394 282.742125,93.0894355 L243.776307,115.546882 C241.408763,116.911709 241.407033,119.145533 243.776307,120.512088 L255.961886,127.534899 L321.692368,165.416616 C324.061642,166.78317 325.999982,165.665394 325.999982,162.935741 C325.999982,162.935741 325.993059,84.0452987 325.999982,81.6905406 Z M555.467541,481.22961 C553.428963,480.055861 485.285667,440.582267 485.285667,440.582267 C482.928292,439.216638 480.998278,440.3368 481.000001,443.068058 L481.000001,518.877755 L481.000001,532.931633 C481.000001,535.66462 482.928292,536.783053 485.28739,535.417424 L524.087574,512.945048 C536.854964,505.548178 547.635473,496.037177 556.275734,485.117331 C556.894373,484.335984 557.855933,482.603882 555.467541,481.22961 Z M325.999982,597.309479 C325.993059,594.95301 325.999982,516.064857 325.999982,516.064857 C325.999982,513.335223 324.061642,512.217455 321.692368,513.582272 L255.961886,551.465447 L243.776307,558.488208 C241.407033,559.853025 241.408763,562.086833 243.776307,563.453378 L282.742125,585.910665 C295.56805,593.301408 309.228152,597.908961 323.035361,599.952732 C324.021837,600.099579 326.006905,600.07021 325.999982,597.309479 Z M354.000028,81.6905406 C354.006951,84.0452987 354.000028,162.935741 354.000028,162.935741 C354.000028,165.665394 355.938388,166.78317 358.305955,165.416616 L424.037106,127.534899 L436.224541,120.512088 C438.592108,119.145533 438.592108,116.911709 436.22281,115.546882 L397.256594,93.0894355 C384.43227,85.6986394 370.770298,81.0910534 356.962949,79.0472685 C355.976462,78.9004201 353.991375,78.9297897 354.000028,81.6905406 Z M556.464747,198.275969 C558.229009,197.263823 558.16847,196.06136 557.767187,195.184167 C549.694825,184.867202 539.937765,175.936099 528.841942,168.899524 C528.445847,168.648651 528.037646,168.409888 527.638092,168.164205 C526.254358,167.311234 524.863704,166.465184 523.441917,165.671039 L523.450565,165.657198 L501.696525,153.096212 L472.13822,136.026419 C469.770304,134.65786 465.897576,134.65786 463.53139,136.026419 L371.775937,189.014404 C369.408021,190.382963 369.408021,192.618334 371.775937,193.986894 L417.653664,220.480886 L463.53139,246.974878 C465.897576,248.341707 469.772034,248.341707 472.13822,246.974878 L501.696525,229.905086 L501.696525,229.903356 C521.874837,218.248975 554.546545,199.379813 556.392101,198.317493 L556.464747,198.275969 Z M308.224058,485.013577 L216.470058,432.026404 C214.102135,430.657865 210.229395,430.657865 207.861472,432.026404 L178.757983,448.832954 L178.757983,448.834684 C158.674742,460.435252 125.648353,479.508281 123.633283,480.667473 L123.534691,480.724568 C121.600916,481.835315 121.860367,483.170981 122.356784,484.056811 C123.003681,484.880356 123.636742,485.710822 124.304396,486.515336 C124.321693,486.536097 124.33726,486.555129 124.354557,486.57416 C127.857146,490.783584 131.655509,494.736946 135.718513,498.403107 C135.727161,498.410027 135.735809,498.418678 135.742728,498.425598 C137.010579,499.567489 138.306105,500.676507 139.622386,501.761302 C139.781516,501.891063 139.937187,502.022553 140.096317,502.150583 C141.232712,503.076206 142.391594,503.972417 143.564312,504.854787 C143.939652,505.136799 144.311532,505.422272 144.693789,505.700824 C145.641651,506.396339 146.608538,507.067632 147.578885,507.735465 C148.210216,508.166269 148.839817,508.602264 149.481526,509.022687 C150.228745,509.514046 150.989802,509.988103 151.749128,510.462161 C152.835363,511.140375 153.918139,511.820318 155.033779,512.465659 L178.757983,526.166614 L207.861472,542.974894 C210.229395,544.341702 214.102135,544.341702 216.470058,542.974894 L308.224058,489.98599 C310.591981,488.619182 310.591981,486.380385 308.224058,485.013577 Z" id="Combined-Shape"></path>
            </g>
        </g>
    </g>
</svg>