<?xml version="1.0" encoding="UTF-8"?>
<svg width="1200px" height="425px" viewBox="0 0 1200 425" version="1.1" xmlns="http://www.w3.org/2000/svg" xmlns:xlink="http://www.w3.org/1999/xlink">
    <!-- Generator: Sketch 52.6 (67491) - http://www.bohemiancoding.com/sketch -->
    <title>fuji</title>
    <desc>Created with Sketch.</desc>
    <g id="Page-1" stroke="none" stroke-width="1" fill="none" fill-rule="evenodd" opacity="0.597005208">
        <g id="fuji" fill="#000000">
            <g id="Group">
                <path d="M66.3032159,343.57121 C46.8606432,343.810107 6.02756508,344.177642 0.863705972,344.012251 L0.863705972,345.666156 C4.30015314,345.905054 47.4486983,346.143951 79.8101072,346.732006 C87.4915773,346.87902 129.078101,346.015314 136.245023,346.143951 C154.529862,346.456355 185.218989,345.335375 203.503828,345.464012 C217.525268,345.574273 259.038285,342.67075 273.059724,342.468606 C293.770291,342.156202 304.189893,341.366003 327.914242,341.200613 C330.799387,341.182236 304.520674,353.807044 308.104135,353.807044 C303.399694,357.8683 298.860643,359.173047 293.108729,359.007657 C282.45023,358.676876 271.773354,359.650842 261.096478,359.779479 C256.20827,359.852986 251.301685,359.04441 246.3951,359.007657 C242.058193,358.970904 237.721286,359.614089 233.402757,359.632466 C195.41807,359.834609 157.415008,359.981623 119.430322,360.147014 C117.298622,360.165391 115.185299,360.330781 113.090352,361.249617 C141.886677,361.764165 170.683002,362.444104 199.479326,362.738132 C228.091884,363.032159 256.759571,362.058193 285.280245,365.696784 C264.091884,367.093415 242.866769,366.56049 221.531394,366.909648 C223.332312,368.912711 224.967841,370.732006 226.805513,372.808576 C229.653905,372.477795 233.145482,372.073507 237.078101,371.614089 C237.739663,372.459418 238.676876,373.617152 239.816233,375.032159 C241.892802,370.125574 245.641654,375.013783 248.398162,373.06585 C248.067381,372.330781 247.699847,371.485452 246.725881,369.261868 C249.8683,370.897397 251.816233,372.422665 253.984686,372.900459 C256.042879,373.359877 260.104135,372.128637 260.269525,372.643185 C261.519142,376.42879 265.304747,371.908116 266.683002,375.712098 C258.762634,377.660031 253.782542,386.627871 243.712098,384.349158 C242.756508,391.534456 235.295559,391.405819 232.098009,396.514548 C234.229709,395.614089 236.434916,394.842266 238.474732,393.776417 C262.254211,381.427259 286.162328,369.316998 309.721286,356.563553 C324.771822,348.422665 339.491577,339.675345 354.137825,330.817764 C370.787136,320.74732 387.675345,311.062787 405.206738,302.609495 C413.035222,298.842266 420.183767,293.715161 427.663093,289.249617 C441.078101,281.237366 454.640123,273.500766 467.908116,265.249617 C478.143951,258.891271 487.901991,251.797856 498.045942,245.274119 C507.620214,239.117917 517.506891,233.457887 527.062787,227.283308 C530.774885,224.894334 533.935681,221.660031 537.390505,218.866769 C539.117917,217.470138 540.753446,215.595712 542.738132,215.007657 C550.235835,212.728943 556.024502,207.822358 562.162328,203.338438 C572.618683,195.693721 583.222052,188.269525 593.660031,180.606432 C595.718224,179.099541 597.316998,176.949464 599.117917,175.093415 C597.721286,175.644717 596.159265,175.957121 594.964778,176.80245 C581.49464,186.339969 568.061256,195.969372 554.627871,205.562021 C553.911179,206.07657 553.304747,206.921899 552.514548,207.19755 C540.312404,211.240429 531.803982,220.998469 521.145482,227.485452 C505.047473,237.280245 489.261868,247.534456 473.54977,257.935681 C470.352221,260.049005 467.742726,260.784074 463.240429,262.915773 C461.145482,263.908116 451.975498,269.788668 440.012251,276.422665 C435.969372,278.664625 426.725881,285.666156 409.672282,294.909648 C405.298622,297.280245 398.058193,291.822358 393.188361,292.777948 C389.182236,293.568147 383.026034,296.85758 378.744257,298.419602 C378.137825,298.640123 374.113323,296.931087 369.243492,293.6049 C364.37366,290.278714 354.891271,284.765697 354.891271,281.623277 C349.911179,281.513017 346.474732,281.38438 343.148545,281.274119 C343.148545,281.274119 310.070444,303.087289 280.042879,311.94487 C279.30781,312.05513 272.931087,313.212864 266.29709,313.359877 C261.390505,317.990812 245.43951,328.061256 229.617152,332.012251 C224.453292,333.298622 212.912711,337.543645 204.808576,336.918836 C197.237366,336.330781 174.891271,328.134763 168.294028,326.480858 C165.133231,325.690658 159.859112,321.849923 158.18683,321.739663 C152.967841,321.372129 153.206738,324.661562 148.079632,325.212864 C145.212864,325.525268 140.324655,323.650842 137.49464,323.94487 C131.375191,324.588055 126.339969,328.741194 120.588055,329.310873 C110.07657,330.358346 97.3598775,329.788668 94.0336907,331.369066 C79.0015314,338.535988 66.3032159,343.57121 66.3032159,343.57121 Z" id="Path"></path>
                <path d="M728.967841,69.2434916 C716.416539,80.5084227 709.470138,87.7304747 707.558959,89.43951 C698.572741,97.4333844 689.660031,105.555896 680.287902,113.090352 C671.081164,120.496172 661.304747,127.203675 651.877489,134.315467 C642.799387,141.169985 633.886677,148.245023 624.771822,155.026034 C617.807044,160.20827 610.584992,165.022971 603.601838,170.168453 C601.947933,171.381317 600.790199,173.255743 599.393568,174.836141 C608.710567,171.840735 615.730475,165.261868 623.356815,159.601838 C636.422665,149.898928 649.617152,140.379786 662.535988,130.474732 C681.280245,116.085758 699.601838,101.218989 716.471669,84.5513017 C728.673813,72.4961715 741.721286,61.2679939 754.548239,49.8376723 C767.393568,38.3705972 779.081164,25.9479326 788.067381,11.136294 C793.304747,2.4992343 794.811639,2.02143951 804.202144,5.31087289 C805.635528,5.80704441 807.509954,6.63399694 808.667688,6.13782542 C814.290965,3.69372129 819.546708,6.24808576 824.85758,7.03828484 C829.617152,7.75497703 834.101072,8.26952527 838.695253,4.63093415 C840.091884,7.11179173 841.249617,9.18836141 842.388974,11.2649311 C847.883614,21.1883614 853.212864,31.2036753 858.928025,41.0168453 C868.2634,57.0781011 880.31853,71.136294 892.336907,85.1761103 C900.735069,94.9892802 910.309342,103.240429 924.128637,104.324655 C925.323124,104.416539 926.719755,105.243492 927.528331,106.162328 C933.353752,112.888208 938.995406,119.761103 942.689127,127.975498 C948.183767,131.558959 951.271057,136.961715 954.45023,142.640123 C948.422665,143.228178 946.437979,141.776417 937.359877,130.640123 C936.514548,130.750383 935.650842,130.842266 933.81317,131.081164 C937.653905,138.192956 946.033691,141.519142 946.915773,150.045942 C941.090352,146.352221 935.338438,142.640123 930.725881,135.932619 C930.376723,137.825421 930.211332,138.744257 930.009188,139.846861 C924.165391,138.50536 920.140888,134.278714 917.421133,129.739663 C914.113323,124.245023 908.416539,122.315467 904.171516,118.364472 C902.701378,116.986217 900.900459,115.975498 898.76876,114.468606 C900.036753,118.327718 901.17611,121.745789 902.29709,125.182236 C902.333844,125.218989 902.370597,125.255743 902.425727,125.310873 C902.425727,125.310873 902.444104,125.32925 902.444104,125.32925 C903.987749,123.748851 905.6049,123.050536 907.460949,124.961715 C913.947933,131.650842 921.574273,137.531394 923.724349,147.822358 C918.633997,142.419602 913.856049,137.310873 909.059724,132.220521 C906.872894,129.905054 904.649311,127.62634 902.444104,125.32925 C902.425727,125.347626 902.407351,125.366003 902.370597,125.402757 C902.352221,125.32925 902.333844,125.274119 902.29709,125.200613 C898.952527,121.800919 895.424196,118.548239 892.355283,114.909648 C889.543645,111.583461 887.062787,107.926493 884.820827,104.177642 C881.071975,97.8928025 877.451761,91.4977029 874.107198,84.9739663 C871.497703,79.8652374 869.43951,74.4624809 867.050536,69.2434916 C866.425727,67.9019908 865.415008,66.7258806 863.687596,64.1163859 C863.834609,66.7258806 863.595712,67.8284839 863.981623,68.6554364 C869.807044,80.7840735 875.834609,92.8024502 881.568147,104.986217 C884.58193,111.41807 887.375191,117.960184 889.782542,124.649311 C893.163859,134.058193 896.361409,143.540582 899.136294,153.133231 C901.856049,162.523737 904.098009,172.042879 906.321593,181.562021 C908.894334,192.588055 911.209801,203.669219 916.447167,213.8683 C917.49464,215.926493 919.332312,218.150077 916.061256,221.035222 C911.283308,207.19755 906.652374,193.709035 901.672282,179.283308 C898.76876,183.859112 903.234303,187.148545 901.359877,191.94487 C899.338438,188.030628 897.519142,185.016845 896.196018,181.800919 C895.019908,178.93415 894.542113,175.773354 893.476263,172.851455 C892.980092,171.509954 891.748851,169.378254 890.903522,169.396631 C882.946401,169.617152 885.427259,162.891271 883.773354,158.995406 C883.038285,157.249617 882.689127,155.356815 882.174579,153.537519 C878.554364,154.437979 876.147014,153.831547 875.926493,149.366003 C875.816233,147.25268 874.842266,145.17611 874.272588,143.081164 C872.784074,143.871363 871.277182,144.643185 870.045942,145.286371 C868.980092,141.206738 867.914242,137.053599 866.738132,132.569678 C863.356815,133.800919 863.448698,135.895865 864.036753,138.156202 C868.079632,153.372129 869.274119,169.01072 871.056662,184.575804 C871.203675,185.843798 870.909648,187.148545 870.762634,189.427259 C869.421133,187.938744 868.704441,187.130168 867.160796,185.402757 C867.932619,190.346095 868.539051,194.205207 869.127106,198.064319 C868.796325,198.192956 868.48392,198.339969 868.153139,198.468606 C865.378254,192.771822 862.603369,187.075038 859.222052,180.165391 C860.140888,178.474732 861.81317,175.424196 864.165391,171.087289 C863.632466,168.091884 862.750383,163.295559 861.886677,158.499234 C861.684533,158.499234 861.482389,158.480858 861.280245,158.480858 C861.280245,160.851455 861.280245,163.222052 861.280245,165.666156 C857.641654,165.941807 859.258806,159.601838 855.473201,161.182236 C856.042879,167.981623 856.594181,174.633997 857.163859,181.286371 C856.594181,181.415008 856.024502,181.562021 855.454824,181.690658 C854.664625,179.871363 853.874426,178.052067 852.882083,175.810107 C851.797856,176.967841 850.860643,177.996937 849.592649,179.375191 C847.607963,175.7366 845.733538,172.336907 843.399694,168.036753 C843.914242,172.630934 844.447167,176.306279 844.741194,180 C844.998469,183.215926 846.689127,186.101072 845.218989,189.776417 C843.987749,192.882083 844.980092,196.814701 844.704441,200.361409 C844.410413,204.128637 843.785605,207.895865 843.25268,211.644717 C842.866769,214.474732 842.407351,217.286371 842.039816,219.748851 C836.177642,211.313936 833.32925,201.70291 832.520674,190.860643 C831.859112,181.984686 831.932619,173.32925 832.37366,164.508423 C832.594181,160.281776 831.30781,155.669219 829.562021,151.7366 C827.614089,147.36294 827.705972,143.228178 828.05513,138.744257 C828.845329,128.58193 829.323124,118.401225 829.359877,108.018377 C828.937213,109.525268 828.514548,111.032159 827.705972,113.917305 C827.356815,109.947933 827.117917,107.301685 826.87902,104.655436 C825.059724,125.347626 825.372129,146.1317 823.056662,166.695253 C822.303216,166.676876 821.54977,166.658499 820.777948,166.640123 C820.777948,162.137825 820.777948,157.653905 820.777948,153.151608 C820.281776,153.133231 819.785605,153.114855 819.289433,153.078101 C819.068913,164.85758 820.079632,176.784074 815.173047,188.931087 C814.235835,184.833078 813.464012,181.506891 812.69219,178.180704 C812.508423,178.217458 812.324655,178.235835 812.140888,178.272588 C812.140888,193.837672 812.140888,209.402757 812.140888,225.464012 C810.689127,224.931087 809.696784,224.820827 809.623277,224.508423 C807.822358,216.992343 804.918836,209.513017 804.661562,201.941807 C804.275651,191.081164 805.764165,180.147014 806.609495,169.267994 C806.738132,167.742726 807.840735,166.290965 808.465544,164.80245 C808.777948,164.049005 809.32925,163.258806 809.255743,162.523737 C808.924962,159.25268 808.410413,156.018377 808.006126,153.096478 C801.408882,165.206738 803.852986,179.301685 800.74732,193.249617 C799.350689,191.669219 798.542113,190.750383 797.751914,189.849923 C797.733538,189.8683 797.733538,189.886677 797.715161,189.905054 C800.196018,199.51608 797.660031,209.016845 796.961715,218.554364 C796.869832,219.767228 795.583461,220.888208 794.848392,222.045942 C794.352221,221.917305 793.837672,221.788668 793.341501,221.660031 C793.727412,213.133231 793.892802,204.606432 794.609495,196.098009 C794.793262,193.966309 796.612557,191.963247 797.696784,189.905054 C797.678407,189.8683 797.678407,189.831547 797.678407,189.776417 C797.678407,189.776417 797.733538,189.831547 797.733538,189.831547 C798.707504,182.921899 799.699847,175.993874 800.673813,169.084227 C800.343032,169.047473 800.012251,168.992343 799.68147,168.95559 C797.218989,178.566616 794.756508,188.177642 792.294028,197.788668 C791.88974,197.751914 791.485452,197.715161 791.081164,197.678407 C789.886677,194.1317 788.232772,190.676876 787.607963,187.038285 C787.019908,183.546708 787.479326,179.871363 787.479326,175.51608 C783.41807,177.445636 783.712098,180.275651 784.20827,182.352221 C786.009188,190.033691 783.969372,197.38438 783.032159,204.863706 C782.278714,210.781011 781.929556,216.771822 781.359877,223.111792 C779.816233,222.689127 778.272588,222.284839 777.684533,222.119449 C777.684533,213.408882 777.70291,205.286371 777.666156,197.182236 C777.666156,195.859112 777.188361,194.499234 777.390505,193.23124 C778.621746,185.788668 779.871363,178.364472 781.378254,170.977029 C782.848392,163.773354 784.686064,156.643185 786.229709,149.43951 C786.725881,147.105666 786.836141,144.698315 786.50536,142.162328 C780.165391,169.267994 772.392037,195.785605 757.764165,219.932619 C757.580398,218.223583 757.396631,216.422665 757.194487,214.640123 C757.470138,228.073507 747.509954,237.188361 742.787136,248.490046 C742.915773,236.655436 748.520674,226.309342 752.067381,215.411945 C747.987749,217.433384 747.932619,221.972435 746.003063,225.335375 C744.826953,227.393568 744.367534,229.874426 743.099541,233.6049 C743.356815,215.173047 748.42879,199.663093 756.882083,183.638591 C758.370597,193.690658 756.036753,201.849923 753.445636,209.972435 C756.679939,209.237366 758.02144,207.656968 758.094946,203.908116 C758.223583,197.54977 759.620214,191.228178 760.116386,184.851455 C760.410413,181.139357 760.006126,177.372129 759.877489,172.189893 C757.543645,176.140888 755.705972,179.228178 753.886677,182.315467 C753.445636,182.1317 752.986217,181.947933 752.545176,181.764165 C753.537519,178.603369 754.511485,175.460949 755.614089,171.950995 C751.938744,170.977029 750.946401,173.421133 749.935681,175.479326 C747.124043,181.304747 744.330781,187.148545 741.776417,193.102603 C735.656968,207.344564 727.497703,220.355283 718.511485,232.906585 C718.143951,233.421133 717.555896,233.788668 716.58193,234.633997 C716.361409,232.851455 716.177642,231.509954 715.79173,228.477795 C709.433384,241.598775 704.306279,253.782542 694.970904,264.202144 C694.143951,254.958652 697.506891,247.332312 700.134763,239.467075 C698.278714,241.378254 696.404288,243.30781 694.548239,245.218989 C696.569678,231.326187 698.866769,217.984686 706.732006,206.02144 C704.361409,205.396631 702.983155,205.047473 700.594181,204.422665 C702.082695,202.566616 702.909648,200.471669 704.177642,200.159265 C709.323124,198.891271 710.168453,193.929556 712.888208,190.658499 C713.531394,189.886677 712.851455,188.030628 712.777948,186.67075 C711.344564,186.891271 708.753446,186.872894 708.643185,187.387443 C707.540582,192.257274 700.998469,192.95559 700.649311,198.67075 C700.48392,201.316998 697.635528,203.797856 695.503828,207.124043 C694.474732,206.07657 693.114855,204.679939 691.754977,203.283308 C691.754977,203.283308 691.754977,203.283308 691.754977,203.301685 C691.185299,204.863706 690.61562,206.407351 690.009188,208.098009 C688.869832,207.583461 687.050536,206.756508 685.23124,205.929556 C685.06585,206.260337 684.882083,206.609495 684.716692,206.940276 C685.451761,207.473201 686.18683,208.006126 686.554364,208.281776 C684.661562,213.408882 682.842266,218.388974 681.004594,223.387443 C684.771822,220.024502 688.465544,216.588055 692.306279,213.335375 C693.960184,211.938744 695.908116,210.872894 697.727412,209.660031 C698.223583,210.119449 698.719755,210.56049 699.19755,211.019908 C697.617152,214.033691 696.238897,217.194487 694.401225,220.024502 C688.355283,229.341501 682.309342,238.658499 675.950995,247.754977 C670.033691,256.245023 663.730475,264.477795 657.041348,273.574273 C656.379786,269.035222 658.584992,266.388974 660.202144,263.485452 C664.079632,256.557427 668.049005,249.647779 671.522205,242.499234 C672.716692,240.036753 672.551302,236.894334 673.01072,234.064319 C670.346095,235.497703 666.872894,236.343032 665.237366,238.548239 C663.859112,240.404288 662.517611,241.617152 660.588055,242.499234 C655.240429,244.961715 651.087289,248.912711 647.04441,253.06585 C644.471669,255.712098 641.531394,257.990812 638.260337,260.85758 C637.984686,259.258806 637.580398,258.486983 637.800919,258.045942 C642.009188,250.327718 646.621746,242.830015 652.006126,235.901991 C654.009188,233.32925 657.261868,231.491577 660.275651,229.984686 C662.977029,228.624809 664.48392,226.87902 664.980092,224.012251 C665.513017,220.833078 666.836141,218.462481 670.676876,218.958652 C670.87902,218.977029 671.173047,218.940276 671.320061,218.811639 C674.333844,215.834609 677.715161,213.133231 680.196018,209.751914 C681.427259,208.098009 680.986217,205.212864 681.500766,201.482389 C672.863706,208.777948 666.3951,216.036753 660,223.405819 C656.416539,227.540582 652.098009,231.050536 647.834609,235.093415 C646.474732,233.145482 645.684533,232.006126 645.114855,231.19755 C631.277182,242.554364 617.715161,253.709035 603.013783,265.764165 C603.895865,263.191424 604.31853,261.941807 604.741194,260.673813 C604.465544,260.398162 604.20827,260.140888 603.932619,259.865237 C600.441041,262.915773 596.949464,265.984686 593.457887,269.035222 C593.071975,268.649311 592.704441,268.2634 592.31853,267.877489 C599.007657,261.739663 602.480858,252.771822 611.04441,248.232772 C613.470138,246.946401 616.777948,245.954058 614.683002,241.892802 C614.480858,241.525268 614.958652,240.514548 615.399694,240.147014 C620.067381,236.232772 622.787136,230.058193 629.641654,228.624809 C631.258806,228.294028 632.453292,225.886677 634.787136,223.424196 C630.781011,223.424196 628.410413,223.424196 626.921899,223.424196 C624.735069,226.493109 623.283308,229.17611 621.243492,231.271057 C612.11026,240.716692 602.352221,249.629403 593.770291,259.534456 C590.1317,263.724349 585.537519,266.425727 581.825421,270.321593 C578.701378,273.611026 574.970904,275.136294 569.898928,271.993874 C568.906585,275.338438 568.134763,278.150077 567.215926,280.906585 C566.958652,281.696784 566.425727,282.578867 565.764165,283.001531 C556.998469,288.551302 548.655436,295.111792 539.246554,299.228178 C531.215926,302.738132 522.854518,305.457887 515.595712,310.93415 C514.511485,309.133231 513.905054,308.104135 513.280245,307.075038 C504.11026,312.716692 495.14242,318.248086 485.623277,324.11026 C485.402757,323.908116 484.465544,323.062787 482.958652,321.684533 C507.14242,302.903522 533.38438,287.797856 558.027565,270.431853 C557.807044,269.972435 557.586524,269.513017 557.366003,269.053599 C554.885145,270.009188 552.385911,270.964778 549.519142,272.049005 C548.067381,267.381317 551.94487,266.352221 554.223583,264.477795 C556.741194,262.382848 559.424196,260.508423 561.500766,257.751914 C551.871363,263.154671 542.205207,268.502297 532.612557,273.960184 C522.799387,279.546708 511.754977,280.575804 500.343032,283.277182 C501.886677,278.425727 505.359877,276.257274 508.245023,273.721286 C511.222052,271.111792 514.511485,268.869832 517.672282,266.462481 C517.488515,266.003063 517.304747,265.543645 517.12098,265.06585 C515.522205,265.653905 513.70291,265.929556 512.379786,266.903522 C508.814701,269.568147 505.378254,272.416539 502.052067,275.393568 C492.532925,283.938744 482.885145,292.079632 469.709035,294.67075 C466.382848,295.332312 463.460949,297.941807 460.2634,299.467075 C452.63706,303.105666 444.918836,306.56049 437.292496,310.199081 C435.399694,311.099541 433.690658,312.404288 431.88974,313.525268 C432.165391,314.039816 432.422665,314.554364 432.698315,315.068913 C446.02144,309.022971 459.14242,302.499234 472.722818,297.096478 C486.339969,291.675345 500.416539,287.393568 515.301685,282.248086 C514.254211,285.8683 511.993874,286.82389 510.082695,287.908116 C502.548239,292.189893 495.105666,296.69219 487.332312,300.514548 C478.970904,304.630934 470.370597,308.269525 461.733538,311.742726 C446.646248,317.843798 431.558959,323.926493 416.287902,329.531394 C396.95559,336.624809 379.130168,346.658499 361.378254,356.820827 C347.485452,364.759571 332.563553,369.941807 317.402757,374.646248 C311.503828,376.465544 305.715161,378.542113 299.650842,383.467075 C302.039816,383.467075 303.087289,383.742726 303.914242,383.430322 C315.583461,379.075038 327.436447,375.105666 338.830015,370.088821 C352.061256,364.245023 364.998469,357.647779 377.862175,351.032159 C391.148545,344.196018 404.067381,336.808576 418.750383,332.875957 C429.243492,330.064319 439.258806,325.415008 449.476263,321.611026 C450.652374,321.169985 451.865237,320.875957 453.721286,321.519142 C443.356815,330.61562 432.992343,339.712098 421.598775,349.727412 C424.171516,350.29709 425.127106,350.517611 426.082695,350.719755 C430.658499,347.981623 434.535988,344.361409 438.872894,341.421133 C445.470138,336.918836 452.251149,332.655436 459.19755,328.704441 C468.973966,323.136294 478.970904,317.954058 489.849923,312.091884 C480.863706,321.335375 432.147014,350.572741 427.313936,350.683002 C423.822358,352.31853 421.709035,354.321593 419.228178,355.497703 C402.946401,363.30781 386.572741,370.93415 370.254211,378.652374 C369.169985,379.166922 368.214395,379.920368 367.754977,381.611026 C379.865237,376.336907 391.975498,371.04441 405.004594,365.38438 C403.332312,368.287902 402.192956,370.272588 400.539051,373.12098 C408.477795,372.588055 413.917305,367.699847 421.782542,366.064319 C420.698315,369.316998 419.816233,371.981623 418.621746,375.528331 C422.18683,373.102603 423.730475,370.070444 424.906585,366.891271 C428.398162,357.445636 434.315467,350.738132 443.871363,346.658499 C455.117917,341.843798 465.776417,335.650842 476.894334,330.542113 C483.36294,327.565084 490.327718,325.727412 496.924962,323.026034 C502.052067,320.912711 506.958652,318.266462 511.957121,315.859112 C515.099541,314.977029 518.24196,314.094946 521.402757,313.212864 C524.379786,312.385911 527.356815,311.595712 530.333844,310.732006 C530.921899,310.566616 531.785605,310.199081 531.895865,309.75804 C533.678407,303.473201 540.312404,303.399694 544.37366,300.036753 C548.453292,296.63706 553.194487,294.027565 557.715161,291.19755 C560.361409,289.543645 563.136294,288.11026 565.856049,286.584992 C567.877489,285.464012 569.880551,284.508423 572.361409,287.871363 C569.660031,290.554364 567.25268,293.751914 564.11026,295.901991 C555.087289,302.039816 545.678407,307.62634 536.600306,313.690658 C533.163859,315.987749 530.425727,319.332312 527.026034,321.70291 C523.57121,324.11026 519.675345,325.892802 515.963247,327.950995 C517.084227,328.557427 518.352221,329.807044 519.289433,329.6049 C520.924962,329.218989 522.413476,328.024502 523.865237,327.032159 C530.903522,322.143951 537.886677,317.145482 544.943338,312.275651 C551.375191,307.846861 557.898928,303.528331 564.385911,299.173047 C567.289433,297.225115 570.211332,295.295559 573.114855,293.366003 C573.849923,292.686064 574.584992,292.006126 575.320061,291.326187 C576.551302,290.683002 577.782542,290.039816 579.013783,289.378254 C582.707504,287.411945 586.382848,285.408882 590.18683,283.68147 C599.981623,279.234303 609.261868,273.97856 617.715161,267.271057 C619.699847,265.690658 621.537519,263.375191 624.643185,265.947933 C625.341501,266.535988 627.620214,265.23124 630.578867,264.385911 C623.430322,271.920368 617.310873,278.425727 611.099541,284.875957 C608.875957,287.191424 606.542113,287.099541 604.079632,283.828484 C600.973966,289.470138 598.162328,294.542113 595.369066,299.614089 C594.891271,299.430322 594.431853,299.228178 593.954058,299.04441 C593.623277,297.482389 593.292496,295.938744 592.906585,294.064319 C592.171516,294.744257 591.25268,295.258806 591.30781,295.607963 C592.042879,299.94487 587.154671,302.260337 587.614089,306.854518 C587.88974,309.647779 585.059724,309.611026 583.019908,307.865237 C582.633997,308.214395 582.082695,308.490046 582.027565,308.820827 C581.218989,315.068913 575.88974,317.182236 571.699847,320.434916 C569.770291,321.941807 568.2634,323.577335 565.359877,323.007657 C564.220521,322.787136 562.254211,323.963247 561.500766,325.084227 C559.222052,328.42879 556.612557,328.502297 553.488515,326.664625 C553.470138,326.683002 553.451761,326.701378 553.433384,326.701378 C553.433384,326.683002 553.451761,326.664625 553.451761,326.646248 C550.529862,327.436447 547.589587,328.961715 544.704441,328.869832 C539.558959,328.722818 539.761103,328.465544 536.471669,332.673813 C534.872894,334.713629 532.48392,336.183767 530.29709,337.653905 C523.663093,342.101072 516.992343,346.493109 510.229709,350.774885 C508.888208,351.620214 507.087289,351.748851 505.562021,352.31853 C504.790199,352.612557 503.834609,352.998469 503.467075,353.641654 C501.464012,357.022971 498.836141,359.154671 494.646248,358.787136 C494.113323,358.732006 493.17611,358.805513 493.029096,359.099541 C490.272588,364.649311 484.594181,364.980092 479.687596,366.67075 C477.445636,368.122511 475.865237,371.430322 472.31853,369.280245 C472.098009,369.151608 471.36294,369.408882 471.179173,369.684533 C465.298622,378.174579 455.007657,379.754977 447.050536,384.992343 C438.854518,390.376723 429.97856,394.695253 421.580398,399.785605 C412.079632,405.537519 402.781011,411.620214 393.390505,417.555896 C393.70291,418.180704 394.015314,418.787136 394.327718,419.411945 C396.091884,418.584992 397.947933,417.905054 399.583461,416.894334 C411.730475,409.396631 423.803982,401.733538 436.006126,394.327718 C440.251149,391.754977 444.937213,389.898928 449.237366,387.41807 C453.298622,385.06585 457.929556,383.742726 461.807044,381.574273 C467.467075,378.431853 473.366003,375.748851 478.98928,372.569678 C480.735069,371.577335 481.874426,369.537519 483.675345,367.552833 C484.48392,369.298622 484.998469,370.401225 485.825421,372.165391 C487.828484,369.8683 489.629403,367.810107 491.448698,365.733538 C493.029096,363.914242 494.168453,362.29709 497.43951,363.25268 C500.80245,364.226646 502.382848,360.661562 503.540582,357.70291 C506.444104,358.787136 508.722818,359.632466 511.534456,360.661562 C512.526799,358.87902 513.133231,356.434916 514.713629,355.313936 C516.202144,354.248086 518.683002,354.542113 520.594181,354.266462 C522.064319,351.271057 523.62634,348.11026 525.243492,344.839204 C526.125574,345.519142 526.952527,346.143951 527.871363,346.842266 C528.826953,345.75804 529.727412,344.710567 530.352221,343.993874 C530.352221,348.496172 530.701378,353.071975 530.260337,357.555896 C529.819296,361.947933 528.918836,366.376723 527.558959,370.566616 C522.248086,386.921899 516.95559,403.277182 508.226646,418.254211 C507.565084,419.393568 507.179173,420.716692 506.793262,421.984686 C506.701378,422.29709 507.068913,422.756508 507.656968,424.171516 C514.750383,413.751914 518.388974,402.3951 523.056662,391.607963 C524.214395,391.754977 525.206738,391.883614 526.750383,392.085758 C526.897397,389.218989 528.036753,386.02144 526.915773,384.202144 C525.574273,382.015314 526.217458,380.269525 527.191424,379.497703 C531.712098,375.840735 532.37366,371.209801 531.712098,365.788668 C534.266462,373.249617 533.935681,381.059724 534.891271,388.686064 C540.128637,388.134763 536.63706,384.588055 537.574273,382.732006 C538.584992,380.765697 539.871363,378.964778 540.973966,377.200613 C541.378254,377.935681 542.039816,379.148545 543.14242,381.151608 C545.053599,375.950995 544.410413,369.75804 552.11026,369.353752 C552.11026,373.451761 552.11026,377.531394 552.11026,381.592649 C552.459418,381.647779 552.808576,381.70291 553.157734,381.75804 C553.525268,378.266462 554.07657,374.793262 554.18683,371.283308 C554.278714,368.361409 554.003063,365.825421 558.376723,366.909648 C559.148545,367.093415 560.58193,365.200613 561.482389,364.079632 C562.254211,363.14242 562.695253,361.929556 563.94487,359.650842 C564.992343,362.756508 565.635528,364.667688 566.866769,368.269525 C567.950995,363.19755 568.722818,359.595712 569.586524,355.589587 C571.203675,356.490046 572.140888,357.004594 573.684533,357.886677 C574.143951,355.387443 574.566616,353.108729 575.081164,350.223583 C576.018377,351.785605 576.716692,352.924962 577.984686,355.056662 C580.741194,350.738132 583.056662,347.117917 585.243492,343.68147 C585.500766,344.471669 585.905054,345.684533 586.493109,347.485452 C588.404288,345.022971 590.07657,342.872894 591.767228,340.722818 C592.245023,341.016845 592.722818,341.32925 593.182236,341.623277 C593.366003,343.865237 593.568147,346.107198 593.807044,348.973966 C594.872894,347.209801 595.644717,345.92343 596.416539,344.618683 C598.640123,344.618683 600.900459,344.618683 603.41807,344.618683 C604.833078,346.162328 606.597243,348.11026 608.490046,350.18683 C608.177642,351.914242 607.810107,354.064319 607.203675,357.464012 C608.673813,356.140888 609.372129,355.644717 609.905054,355.001531 C610.364472,354.45023 610.621746,353.733538 611.467075,352.171516 C611.871363,358.87902 612.257274,364.37366 612.496172,369.886677 C612.551302,371.117917 612.294028,372.496172 611.779479,373.617152 C610.529862,376.392037 609.188361,379.148545 607.589587,381.721286 C606.082695,384.147014 604.20827,386.333844 601.819296,389.513017 C603.730475,388.741194 604.943338,388.539051 605.770291,387.877489 C627.050536,370.860643 648.312404,353.825421 669.519142,336.735069 C675.601838,331.828484 681.408882,326.572741 687.528331,321.721286 C689.32925,320.287902 691.773354,319.056662 694.015314,318.872894 C712.245023,317.366003 730.493109,316.20827 748.722818,314.811639 C763.865237,313.653905 778.584992,310.713629 793.139357,306.045942 C807.344564,301.488515 822.064319,298.566616 836.526799,294.817764 C844.024502,292.869832 851.448698,290.664625 859.258806,289.635528 C855.859112,290.774885 852.459418,291.932619 848.545176,293.237366 C848.434916,295.038285 848.287902,297.151608 848.140888,299.411945 C847.111792,298.290965 846.174579,297.445636 845.274119,296.875957 C842.572741,295.203675 840.220521,296.085758 837.096478,299.503828 C836.563553,298.915773 836.030628,298.309342 835.203675,297.390505 C834.928025,297.078101 834.61562,296.728943 834.266462,296.343032 C833.788668,299.062787 833.476263,300.845329 833.071975,303.179173 C832.520674,302.535988 832.042879,302.205207 831.914242,301.764165 C830.903522,298.640123 829.139357,298.088821 826.290965,299.705972 C823.975498,301.01072 821.457887,301.966309 818.535988,303.30781 C818.664625,304.869832 818.793262,306.707504 818.977029,308.949464 C815.283308,307.62634 812.343032,302.866769 808.594181,306.486983 C807.160796,307.865237 807.675345,311.246554 807.215926,314.260337 C807.14242,314.278714 807.013783,314.333844 806.830015,314.370597 C806.315467,314.535988 805.470138,314.793262 804.606432,315.068913 C804.606432,315.068913 804.606432,315.068913 804.606432,315.068913 C804.606432,315.068913 804.606432,315.068913 804.606432,315.068913 C804.588055,313.984686 804.441041,313.029096 804.165391,312.202144 C803.908116,311.448698 803.540582,310.82389 803.062787,310.309342 C803.026034,310.272588 802.98928,310.217458 802.952527,310.180704 C802.143951,309.372129 801.059724,308.85758 799.663093,308.655436 C799.203675,308.58193 798.707504,308.545176 798.174579,308.545176 C795.087289,308.545176 793.911179,310.474732 793.745789,314.627871 C793.653905,317.237366 792.863706,319.810107 792.385911,322.401225 C791.871363,322.346095 791.375191,322.272588 790.860643,322.217458 C790.603369,319.001531 790.364472,315.785605 790.088821,312.147014 C784.189893,312.147014 786.156202,318.67075 782.039816,320.69219 C781.359877,318.652374 780.716692,316.722818 779.926493,314.352221 C777.721286,314.756508 775.258806,315.19755 772.48392,315.693721 C772.245023,321.022971 772.630934,326.462481 771.105666,331.57121 C770.609495,331.552833 770.113323,331.534456 769.598775,331.497703 C769.396631,328.833078 769.212864,326.18683 769.01072,323.522205 C768.496172,323.393568 767.981623,323.246554 767.485452,323.117917 C764.085758,327.638591 764.067381,333.666156 761.218989,339.840735 C758.646248,334.052067 763.754977,328.961715 760.814701,324.330781 C758.407351,323.742726 757.653905,325.102603 757.415008,327.179173 C756.863706,331.883614 756.294028,336.588055 755.742726,341.163859 C753.133231,341.32925 750.689127,340.777948 749.696784,341.751914 C748.465544,342.928025 748.171516,345.335375 747.987749,347.264931 C747.693721,350.260337 748.667688,353.513017 744.643185,355.075038 C743.963247,355.332312 744.165391,357.886677 743.908116,359.724349 C749.715161,355.497703 750.156202,355.479326 754.952527,359.301685 C756.735069,357.133231 755.430322,352.134763 759.859112,352.686064 C761.366003,352.869832 762.578867,355.497703 764.122511,357.225115 C765.666156,356.710567 767.94487,355.938744 771.087289,354.872894 C772.502297,351.050536 774.248086,346.309342 775.993874,341.54977 C776.379786,341.568147 776.784074,341.6049 777.169985,341.623277 C777.519142,343.332312 777.8683,345.041348 778.254211,346.87902 C780.845329,346.125574 783.344564,345.390505 785.880551,344.655436 C788.159265,339.950995 781.800919,335.04441 787.350689,329.770291 C787.663093,332.177642 787.957121,333.886677 788.104135,335.632466 C788.710567,342.872894 789.8683,343.773354 797.274119,342.928025 C798.101072,342.836141 798.983155,343.056662 800.159265,344.159265 C798.597243,344.80245 797.035222,345.445636 795.473201,346.107198 C795.436447,346.437979 795.381317,346.750383 795.344564,347.081164 C798.983155,347.503828 802.640123,347.926493 806.977029,348.422665 C807.068913,348.679939 807.473201,349.874426 807.987749,351.41807 C809.163859,350.609495 810.248086,349.874426 812.74732,348.165391 C812.269525,352.226646 811.975498,354.854518 811.644717,357.592649 C808.961715,357.592649 806.866769,357.592649 804.477795,357.592649 C804.165391,360.165391 803.88974,362.535988 803.577335,365.182236 C802.125574,365.182236 800.912711,365.182236 799.130168,365.182236 C798.137825,370.088821 797.108729,375.179173 796.042879,380.453292 C795.14242,379.277182 794.113323,377.935681 792.973966,376.42879 C791.871363,377.292496 790.897397,378.064319 789.592649,379.093415 C787.993874,376.961715 786.468606,374.940276 784.410413,372.202144 C783.969372,373.966309 783.19755,375.326187 783.565084,375.822358 C786.119449,379.203675 785.237366,384.330781 789.684533,386.903522 C791.099541,387.730475 791.338438,390.744257 791.908116,392.820827 C792.459418,394.805513 792.735069,396.863706 793.249617,399.473201 C799.148545,395.852986 794.150077,392.287902 794.517611,388.557427 C795.546708,388.722818 796.594181,388.557427 796.998469,388.998469 C800.287902,392.69219 801.482389,397.451761 801.721286,402.064319 C801.81317,403.901991 798.836141,406.088821 796.961715,407.779479 C794.756508,409.764165 792.202144,411.399694 789.81317,413.182236 C790.125574,413.641654 790.456355,414.101072 790.76876,414.56049 C792.569678,413.49464 794.480858,412.594181 796.153139,411.344564 C814.970904,397.359877 833.715161,383.264931 852.569678,369.335375 C860.618683,363.381317 868.281776,356.74732 878.223583,353.917305 C878.572741,353.733538 878.940276,353.623277 879.326187,353.6049 C881.54977,354.358346 883.773354,355.148545 886.015314,355.883614 C887.816233,356.471669 890.554364,358.052067 891.271057,357.408882 C894.156202,354.762634 900.018377,356.398162 900.826953,350.995406 C900.826953,350.940276 900.826953,350.903522 900.808576,350.848392 C900.826953,350.830015 900.826953,350.811639 900.845329,350.793262 C899.246554,350.664625 897.482389,350.903522 896.085758,350.29709 C894.339969,349.562021 892.888208,348.147014 890.407351,346.382848 C894.725881,346.511485 897.133231,344.526799 898.787136,341.255743 C900.808576,342.413476 902.499234,343.387443 905.476263,345.096478 C905.531394,345.059724 905.586524,345.004594 905.641654,344.967841 C904.520674,342.376723 903.987749,341.127106 903.215926,339.30781 C905.38438,339.803982 907.166922,340.189893 909.151608,340.649311 C908.967841,341.513017 909.059724,342.358346 908.69219,342.652374 C907.718224,343.479326 906.67075,344.196018 905.641654,344.949464 C905.678407,345.059724 905.715161,345.133231 905.770291,345.243492 C905.660031,345.188361 905.586524,345.133231 905.476263,345.078101 C904.796325,345.592649 904.116386,346.125574 903.528331,346.713629 C902.407351,347.834609 901.727412,349.396631 900.845329,350.774885 C900.845329,350.774885 900.863706,350.774885 900.863706,350.774885 C900.863706,350.848392 900.826953,350.903522 900.826953,350.977029 C901.157734,354.431853 901.451761,357.905054 901.856049,361.359877 C902.1317,363.730475 902.591118,366.082695 903.14242,369.519142 C906.137825,366.082695 908.526799,363.36294 910.897397,360.661562 C911.411945,361.580398 911.816233,362.315467 912.973966,364.410413 C914.830015,359.062787 916.281776,354.854518 917.751914,350.646248 C918.027565,350.719755 918.321593,350.774885 918.597243,350.848392 C918.3951,353.090352 918.192956,355.332312 917.954058,358.052067 C920.655436,358.052067 922.98928,358.052067 925.506891,358.052067 C925.966309,359.650842 926.315467,360.900459 926.701378,362.278714 C928.722818,361.764165 930.762634,361.23124 933.592649,360.514548 C932.049005,359.136294 930.909648,358.107198 929.641654,356.967841 C930.064319,356.563553 930.486983,355.828484 930.983155,355.773354 C943.79173,354.192956 956.618683,352.722818 969.445636,351.160796 C981.611026,349.672282 993.75804,348.091884 1005.90505,346.566616 C1014.52374,345.482389 1023.10567,343.920368 1031.7611,343.460949 C1036.5023,343.222052 1040.71057,345.81317 1043.17305,350.425727 C1046.31547,356.324655 1049.71516,362.094946 1052.71057,368.067381 C1055.41194,373.451761 1058.05819,378.891271 1060.09801,384.532925 C1064.19602,395.94487 1069.8193,406.456355 1077.84992,415.901991 C1076.67381,413.292496 1075.7366,410.535988 1074.26646,408.091884 C1072.06126,404.416539 1070.1317,400.851455 1070.05819,396.330781 C1070.00306,392.343032 1063.60796,378.578867 1061.0536,375.381317 C1064.96784,371.926493 1067.50383,371.669219 1070.42573,375.032159 C1072.15314,376.998469 1073.49464,379.460949 1074.48698,381.905054 C1078.43798,391.79173 1084.96172,400.042879 1090.98928,408.624809 C1091.79786,409.782542 1093.04747,410.646248 1095.03216,410.921899 C1089.88668,403.111792 1084.74119,395.301685 1079.4487,387.271057 C1087.86524,385.06585 1088.72894,385.764165 1092.33078,392.177642 C1094.683,396.349158 1097.86217,400.189893 1101.24349,403.607963 C1104.7902,407.173047 1109.03522,410.039816 1113.48239,412.833078 C1109.20061,408.716692 1110.96478,401.715161 1105.56202,397.984686 C1102.64012,395.981623 1103.48545,392.232772 1107.01378,391.68147 C1112.03063,390.872894 1111.51608,387.803982 1111.46095,384.385911 C1111.36907,378.744257 1109.18224,375.344564 1103.59571,372.790199 C1098.02757,370.254211 1095.08729,364.48392 1094.22358,358.162328 C1093.8928,355.79173 1093.76417,353.38438 1093.43338,349.653905 C1109.40276,372.183767 1127.46708,391.332312 1145.42113,410.609495 C1140.07351,399.987749 1131.2343,392.159265 1123.84686,383.411945 C1124.36141,381.298622 1125.04135,379.479326 1125.13323,377.641654 C1125.16998,376.796325 1123.99387,375.914242 1122.87289,374.352221 C1122.24809,376.245023 1121.88055,377.402757 1121.49464,378.578867 C1117.63553,379.479326 1114.56662,371.375191 1116.01838,363.509954 C1117.83767,363.730475 1119.69372,363.932619 1121.9173,364.189893 C1122.11945,361.745789 1124.98622,358.493109 1119.28943,358.456355 C1119.05054,358.456355 1118.81164,356.177642 1118.55436,354.946401 C1119.25268,354.946401 1120.15314,355.222052 1120.63093,354.909648 C1121.45789,354.339969 1122.04594,353.402757 1123.03828,352.281776 C1123.36907,354.542113 1123.60796,356.269525 1123.9755,358.750383 C1124.87596,357.151608 1125.48239,356.049005 1126.40123,354.413476 C1126.69525,357.611026 1126.93415,360.257274 1127.22818,363.583461 C1130.07657,362.260337 1132.17152,361.304747 1134.22971,360.349158 C1134.26646,360.294028 1134.28484,360.257274 1134.30322,360.202144 C1134.30322,360.202144 1134.30322,360.202144 1134.30322,360.202144 C1132.85145,358.327718 1131.38132,356.453292 1129.43338,353.954058 C1134.43185,351.179173 1138.69525,356.269525 1143.08729,354.431853 C1143.08729,357.298622 1143.08729,359.173047 1143.08729,361.947933 C1140.18377,361.359877 1137.24349,360.790199 1134.32159,360.202144 C1134.33997,360.220521 1134.35835,360.257274 1134.37672,360.275651 C1134.32159,360.294028 1134.28484,360.312404 1134.22971,360.349158 C1131.10567,365.54977 1135.46095,369.372129 1136.67381,374.701378 C1137.92343,372.790199 1138.67688,371.632466 1139.7611,369.960184 C1140.14701,371.558959 1140.38591,372.532925 1140.62481,373.506891 C1140.99234,373.359877 1141.48851,373.304747 1141.65391,373.029096 C1142.02144,372.477795 1142.46248,371.797856 1142.40735,371.209801 C1141.8193,363.987749 1147.03828,361.672282 1151.92649,359.246554 C1156.11639,360.312404 1155.74885,368.343032 1162.43798,365.182236 C1160.61868,363.638591 1159.00153,362.278714 1157.40276,360.918836 C1159.31394,358.970904 1159.47933,357.482389 1155.67534,356.931087 C1160.7657,355.68147 1162.01531,358.309342 1162.9709,362.24196 C1163.83461,360.404288 1164.67994,358.566616 1165.69066,356.398162 C1169.18224,358.364472 1165.04747,365.218989 1171.20368,365.145482 C1170.54211,362.903522 1169.8438,360.569678 1168.86983,357.225115 C1179.4732,359.467075 1189.17611,354.248086 1197.5559,359.081164 C1197.11485,359.724349 1199.52221,191.742726 1199.52221,191.742726 C1196.12251,188.710567 1193.03522,186.009188 1190.1317,183.14242 C1182.87289,175.975498 1178.97703,175.277182 1170.00919,179.834609 C1168.64931,180.514548 1167.17917,180.973966 1165.32312,181.709035 C1161.81317,174.229709 1155.14242,170.701378 1148.45329,167.136294 C1145.21899,165.408882 1142.62787,165.92343 1140.05513,168.532925 C1136.8392,171.803982 1133.38438,174.817764 1129.15773,178.750383 C1125.05972,172.116386 1121.42113,166.584992 1118.18683,160.796325 C1116.3124,157.451761 1114.27259,155.191424 1110.17458,154.603369 C1108.42879,154.346095 1107.05054,151.938744 1105.41501,150.61562 C1103.77948,149.274119 1102.21746,147.41807 1100.30628,146.903522 C1093.67228,145.102603 1086.81776,144.073507 1080.22052,142.143951 C1076.49005,141.041348 1074.21133,141.97856 1072.28178,144.973966 C1069.28637,149.660031 1066.25421,154.327718 1063.29556,159.013783 C1060.28178,163.810107 1058.22358,169.506891 1051.7366,170.921899 C1052.96784,173.917305 1046.18683,172.980092 1048.85145,176.765697 C1048.98009,176.949464 1048.2634,177.905054 1047.7856,178.309342 C1040.39816,184.741194 1032.99234,191.136294 1024.70444,198.303216 C1016.89433,192.661562 1009.52527,188.306279 1003.33231,182.664625 C992.490046,172.759571 982.474732,161.954058 971.926493,151.7366 C968.765697,148.667688 964.520674,146.683002 961.562021,143.467075 C953.457887,134.609495 944.361409,126.61562 938.756508,115.589587 C936.404288,110.958652 932.69219,106.805513 928.869832,103.203675 C926.866769,101.32925 925.084227,100.134763 920.434916,99.7488515 C915.785605,99.3445636 913.304747,98.9035222 909.555896,97.3047473 C906.762634,96.1286371 902.150077,92.2511485 896.085758,86.2970904 C887.871363,78.2480858 880.153139,68.2695253 872.894334,58.1255743 C865.653905,47.9816233 860.784074,41.568147 857.733538,35.5957121 C857.32925,34.805513 856.796325,34.0704441 856.392037,33.280245 C852.128637,24.6983155 847.7366,16.1898928 843.656968,7.51607963 C841.029096,1.94793262 840.018377,1.56202144 834.707504,3.82235835 C832.447167,4.79632466 829.488515,5.29249617 827.173047,4.68606432 C820.998469,3.10566616 815.062787,0.992343032 808.704441,3.96937213 C807.767228,4.41041348 806.150077,3.6202144 804.937213,3.17917305 C794.462481,-0.735068913 791.448698,-0.202143951 785.788668,9.55589587 C779.191424,20.9127106 770.24196,31.1485452 761.6049,39.8039816 C753.114855,48.3124043 740.030628,59.3016845 728.967841,69.2434916 Z M458.1317,323.430322 C458.150077,320.012251 460.042879,317.715161 462.358346,316.355283 C467.908116,313.102603 473.715161,310.290965 479.467075,307.387443 C480.330781,306.946401 481.415008,307.001531 482.921899,306.744257 C477.408882,314.866769 471.528331,318.781011 458.1317,323.430322 Z M609.078101,267.013783 C608.74732,266.535988 608.416539,266.058193 608.085758,265.580398 C618.266462,257.274119 628.42879,248.967841 639.528331,239.908116 C640.281776,247.79173 635.761103,251.062787 631.277182,254.517611 C631.497703,253.525268 631.699847,252.532925 632.214395,250.162328 C624.716692,257.476263 618.45023,264.735069 609.078101,267.013783 Z M642.045942,264.11026 C648.514548,252.735069 661.23124,248.967841 669.8683,239.871363 C668.177642,243.528331 667.148545,247.754977 664.649311,250.732006 C659.595712,256.759571 655.424196,263.301685 651.454824,270.027565 C648.532925,274.970904 647.430322,275.411945 642.725881,272.820827 C638.903522,283.313936 630.119449,288.753446 621.151608,294.082695 C624.973966,281.807044 636.036753,274.640123 642.045942,264.11026 Z M590.094946,316.649311 C586.254211,320.931087 584.159265,321.629403 580.153139,319.019908 C584.85758,314.18683 588.882083,308.784074 595.699847,305.476263 C596.490046,307.975498 597.041348,309.75804 597.206738,310.327718 C594.303216,312.882083 591.969372,314.554364 590.094946,316.649311 Z M612.514548,297.280245 C608.673813,300.735069 604.833078,304.20827 601.01072,307.68147 C600.532925,307.295559 600.073507,306.891271 599.595712,306.50536 C603.344564,301.506891 601.562021,293.402757 610.493109,291.087289 C613.617152,290.278714 615.950995,286.346095 618.983155,283.51608 C619.846861,288.385911 617.623277,292.686064 612.514548,297.280245 Z M644.618683,332.214395 C644.618683,329.660031 644.618683,327.491577 644.618683,325.341501 C643.497703,325.580398 642.358346,325.800919 641.218989,326.039816 C639.693721,323.117917 645.390505,320.104135 641.54977,317.660031 C639.41807,316.31853 636.238897,316.630934 632.80245,316.079632 C631.589587,314.352221 630.174579,312.349158 628.759571,310.346095 C628.245023,310.456355 627.748851,310.566616 627.234303,310.695253 C626.499234,313.304747 625.764165,315.932619 624.863706,319.093415 C621.482389,317.788668 618.303216,317.32925 616.686064,321.500766 C616.37366,317.476263 616.061256,313.470138 615.675345,308.63706 C619.185299,306.50536 623.320061,304.006126 626.315467,302.18683 C634.033691,305.38438 640.741194,308.140888 647.797856,311.062787 C645.133231,319.313936 650.830015,326.480858 652.079632,335.320061 C649.470138,333.574273 648.514548,328.2634 644.618683,332.214395 Z M669.280245,296.967841 C667.938744,295.038285 667.258806,294.045942 666.468606,292.924962 C671.301685,286.235835 676.245023,279.583461 678.413476,271.405819 C675.234303,275.558959 672.05513,279.712098 668.85758,283.865237 C673.488515,270.781011 677.402757,257.347626 687.473201,246.689127 C685.304747,253.672282 683.117917,260.655436 680.949464,267.638591 C681.75804,267.344564 682.548239,267.050536 683.356815,266.756508 C683.705972,267.013783 684.073507,267.25268 684.422665,267.509954 C679.552833,277.01072 674.664625,286.511485 669.280245,296.967841 Z M695.411945,308.490046 C693.316998,307.424196 691.240429,306.358346 689.218989,305.310873 C681.427259,307.57121 684.588055,314.609495 683.04441,319.62634 C678.284839,316.42879 678.284839,316.42879 681.97856,309.335375 C681.647779,308.74732 681.225115,307.993874 680.80245,307.258806 C679.479326,304.943338 679.773354,302.572741 682.015314,301.488515 C683.742726,300.643185 686.554364,300.257274 688.042879,301.102603 C690.983155,302.793262 693.316998,305.49464 695.926493,307.773354 C695.742726,308.012251 695.577335,308.251149 695.411945,308.490046 Z M693.206738,287.981623 C697.451761,273.096478 701.917305,258.321593 712.447167,244.410413 C712.851455,263.136294 701.090352,274.676876 693.206738,287.981623 Z M723.969372,253.580398 C723.528331,253.543645 723.087289,253.488515 722.646248,253.451761 C722.756508,251.209801 723.068913,248.949464 722.885145,246.725881 C722.719755,244.686064 722.003063,242.683002 721.525268,240.606432 C722.352221,238.805513 724.079632,236.673813 724.20827,234.431853 C724.502297,229.341501 726.854518,226.015314 732.441041,222.928025 C729.372129,233.990812 726.67075,243.785605 723.969372,253.580398 Z M733.525268,216.918836 C732.973966,215.320061 735.032159,212.839204 735.895865,210.744257 C736.502297,211.056662 737.090352,211.369066 737.696784,211.699847 C737.127106,213.078101 736.557427,214.456355 735.914242,216 C737.071975,216 737.917305,216 738.872894,216 C738.872894,221.476263 738.872894,226.805513 738.872894,232.116386 C734.168453,231.895865 737.825421,238.290965 733.892802,239.264931 C733.672282,238.970904 732.95559,238.437979 733.029096,238.033691 C734.168453,231.032159 735.987749,224.159265 733.525268,216.918836 Z M759.234303,295.019908 C752.820827,290.940276 752.820827,290.940276 748.594181,294.431853 C748.594181,290.591118 748.594181,287.522205 748.594181,284.471669 C748.2634,284.232772 747.932619,284.012251 747.583461,283.773354 C745.488515,286.309342 743.375191,288.863706 740.306279,292.594181 C740.526799,287.797856 740.710567,284.085758 740.875957,280.37366 C740.416539,280.189893 739.957121,280.006126 739.497703,279.840735 C737.788668,283.148545 736.079632,286.456355 734.407351,289.672282 C732.716692,279.289433 733.911179,273.445636 739.056662,267.087289 C754.346095,270.358346 764.490046,284.416539 759.234303,295.019908 Z M774.689127,236.526799 C773.751914,242.407351 772.153139,248.196018 770.848392,254.003063 C770.388974,254.058193 769.929556,254.113323 769.488515,254.168453 C768.477795,250.732006 767.448698,247.295559 766.199081,243.013783 C769.378254,240.349158 770.150077,236.104135 768.257274,231.326187 C768.238897,231.326187 768.238897,231.326187 768.220521,231.326187 C768.220521,231.30781 768.238897,231.30781 768.238897,231.289433 C765.75804,232.116386 763.277182,232.961715 760.777948,233.788668 C754.87902,241.451761 753.353752,251.963247 746.572741,259.865237 C748.557427,247.699847 753.353752,236.618683 759.41807,225.886677 C761.053599,226.474732 762.486983,226.98928 764.343032,227.650842 C765.445636,224.324655 767.228178,221.090352 767.485452,217.745789 C768.349158,206.462481 768.128637,206.444104 773.862175,198.946401 C773.862175,205.047473 774.542113,211.957121 773.623277,218.646248 C773.016845,223.019908 770.113323,227.062787 768.238897,231.25268 C768.238897,231.25268 768.238897,231.25268 768.257274,231.25268 C768.257274,231.271057 768.257274,231.271057 768.275651,231.289433 C774.156202,230.315467 775.534456,231.234303 774.689127,236.526799 Z M786.744257,250.290965 C786.578867,250.713629 784.502297,250.346095 784.281776,250.346095 C782.260337,234.119449 783.41807,218.572741 787.277182,201.666156 C789.004594,213.75804 790.474732,224.287902 792,234.799387 C792.863706,240.845329 788.80245,245.237366 786.744257,250.290965 Z M803.246554,267.473201 C800.343032,265.139357 800.122511,264 799.332312,252.036753 C798.983155,246.707504 798.027565,241.378254 798.137825,236.067381 C798.248086,230.591118 799.332312,225.151608 800.067381,219.032159 C809.6049,235.240429 806.774885,251.117917 803.246554,267.473201 Z M822.45023,226.033691 C818.444104,229.782542 818.205207,234.56049 817.396631,239.264931 C815.981623,247.589587 814.750383,255.932619 813.372129,264.808576 C810.56049,257.310873 810.67075,250.437979 812.69219,243.36294 C814.217458,238.015314 815.081164,232.48392 816.202144,227.026034 C816.551302,225.298622 817.084227,223.332312 814.088821,223.607963 C814.107198,221.825421 814.107198,220.042879 814.143951,218.278714 C814.419602,205.047473 817.470138,192.349158 821.476263,179.816233 C822.523737,176.526799 823.148545,173.108729 824.324655,168.367534 C826.98928,174.836141 826.87902,179.797856 826.272588,185.200613 C825.004594,196.42879 824.894334,207.785605 824.140888,219.087289 C823.938744,221.476263 823.901991,224.673813 822.45023,226.033691 Z M838.750383,248.655436 C835.644717,244.392037 831.767228,242.683002 826.640123,244.447167 C825.390505,240.95559 826.640123,238.529862 829.396631,236.361409 C831.840735,234.431853 834.009188,232.153139 837.225115,229.194487 C839.209801,233.715161 841.378254,238.695253 843.546708,243.656968 C841.745789,245.531394 840.422665,246.909648 838.750383,248.655436 Z M1163.66922,301.157734 C1169.86217,304.447167 1176.7902,306.56049 1180.8147,313.194487 C1182.61562,316.153139 1185.72129,318.303216 1188.05513,320.967841 C1189.35988,322.437979 1190.29709,324.238897 1191.39969,325.874426 C1191.01378,326.168453 1190.60949,326.462481 1190.22358,326.738132 C1188.67994,325.506891 1186.40123,324.569678 1185.73966,322.952527 C1183.60796,317.770291 1179.7856,314.664625 1174.73201,313.212864 C1171.64472,312.330781 1172.14089,310.088821 1171.9755,306.946401 C1169.64165,307.920368 1168.28178,308.490046 1167.39969,308.875957 C1163.81623,308.471669 1163.87136,302.260337 1158.83614,304.37366 C1158.90965,301.23124 1160.10413,299.264931 1163.66922,301.157734 Z M1109.80704,270.376723 C1120.33691,273.408882 1124.72894,282.50536 1130.38897,290.333844 C1130.40735,290.315467 1130.42573,290.315467 1130.4441,290.315467 C1130.4441,290.352221 1130.46248,290.388974 1130.46248,290.407351 C1143.34456,302.260337 1154.95865,315.289433 1166.00306,328.814701 C1165.67228,329.127106 1165.35988,329.43951 1165.0291,329.770291 C1162.34609,326.811639 1159.64472,323.852986 1156.99847,320.85758 C1155.82236,319.534456 1154.99541,317.788668 1153.59877,316.777948 C1149.96018,314.150077 1146.79939,311.338438 1144.90658,307.056662 C1143.82236,304.612557 1142.66462,304.594181 1138.51149,304.888208 C1137.66616,299.117917 1130.77489,296.655436 1130.4441,290.407351 C1130.42573,290.388974 1130.40735,290.370597 1130.38897,290.352221 C1130.38897,290.333844 1130.3706,290.333844 1130.3706,290.315467 C1128.01838,291.491577 1127.50383,289.267994 1126.27259,288.183767 C1125.24349,287.264931 1123.84686,286.750383 1121.62328,285.500766 C1121.40276,279.289433 1115.55896,277.782542 1109.78867,275.834609 C1109.80704,274.070444 1109.80704,272.196018 1109.80704,270.376723 Z M935.908116,169.617152 C938.1317,171.950995 940.980092,173.917305 942.431853,176.655436 C946.897397,185.090352 950.591118,193.911179 952.814701,203.283308 C953.016845,204.147014 953.862175,204.863706 954.725881,206.07657 C951.601838,206.756508 951.124043,205.047473 950.554364,203.411945 C949.12098,199.313936 948.220521,195.271057 944.067381,192.312404 C941.366003,190.401225 940.336907,186.137825 938.554364,182.940276 C939.454824,186.119449 940.2634,189.335375 941.255743,192.496172 C942.045942,194.977029 943.038285,197.38438 943.460949,200.012251 C939.234303,193.139357 933.611026,187.111792 933.335375,178.217458 C933.206738,174.192956 930.872894,170.223583 930.211332,165.298622 C932.104135,166.732006 934.015314,168.183767 935.908116,169.617152 Z M894.045942,120.459418 C897.151608,126.707504 900.202144,132.992343 903.473201,139.166922 C903.859112,139.901991 905.402757,140.012251 906.413476,140.416539 C916.906585,142.511485 920.526799,151.075038 924.036753,159.509954 C925.084227,162.027565 924.900459,165.078101 924.496172,168.257274 C921.169985,163.222052 915.124043,160.961715 913.653905,154.107198 C912.771822,149.954058 908.912711,146.444104 906.3951,142.640123 C907.479326,145.892802 908.563553,149.127106 909.647779,152.379786 C899.724349,143.908116 893.678407,133.745789 894.045942,120.459418 Z M913.139357,188.379786 C917.770291,194.977029 922.401225,201.574273 927.050536,208.171516 C927.803982,209.255743 928.410413,210.946401 929.421133,211.240429 C937.451761,213.592649 940.189893,221.090352 944.728943,226.76876 C947.191424,229.856049 949.157734,233.402757 951.013783,236.912711 C952.079632,238.915773 952.502297,241.267994 953.200613,243.473201 C952.667688,243.767228 952.134763,244.061256 951.601838,244.355283 C950.094946,242.627871 948.790199,240.698315 947.062787,239.228178 C944.784074,237.280245 944.986217,232.42879 939.969372,233.310873 C939.344564,233.421133 937.874426,229.672282 937.102603,227.614089 C935.522205,223.369066 934.125574,219.050536 932.655436,214.76876 C932.343032,214.860643 932.030628,214.970904 931.718224,215.062787 C932.343032,218.701378 932.986217,222.339969 933.70291,226.437979 C921.647779,217.470138 916.153139,204.882083 913.139357,188.379786 Z M869.843798,152.820827 C875.356815,155.650842 875.834609,160.2634 877.727412,163.846861 C880.42879,168.973966 882.909648,174.156202 888.404288,177.041348 C889.470138,177.592649 890.535988,178.676876 890.977029,179.779479 C895.075038,189.960184 901.323124,199.001531 906.266462,208.722818 C913.653905,223.240429 921.059724,237.75804 928.336907,252.330781 C929.274119,254.205207 929.531394,256.410413 929.32925,258.799387 C923.650842,255.932619 925.084227,249.078101 921.408882,244.888208 C917.733538,240.679939 915.693721,235.056662 911.724349,230.499234 C912.257274,232.281776 912.698315,234.082695 913.323124,235.828484 C915.859112,242.940276 918.431853,250.033691 920.986217,257.127106 C921.280245,257.972435 921.831547,258.909648 921.666156,259.68147 C921.427259,260.784074 920.655436,261.776417 920.104135,262.82389 C919.277182,262.217458 917.954058,261.75804 917.678407,260.949464 C915.234303,253.543645 912.569678,246.192956 910.750383,238.621746 C908.784074,230.388974 907.718224,221.935681 906.101072,213.611026 C905.733538,211.68147 904.722818,209.898928 904.006126,208.042879 C903.454824,208.226646 902.903522,208.410413 902.352221,208.594181 C903.656968,215.026034 904.961715,221.457887 906.248086,227.908116 C903.785605,222.156202 897.75804,217.653905 898.952527,209.715161 C895.920368,208.098009 893.917305,204.294028 893.053599,199.957121 C892.447167,196.906585 891.124043,195.050536 888.532925,193.12098 C885.905054,191.154671 884.379786,187.589587 882.652374,184.557427 C881.715161,182.921899 881.38438,180.937213 880.777948,179.099541 C880.300153,179.246554 879.803982,179.393568 879.326187,179.540582 C881.292496,186.192956 883.258806,192.845329 885.225115,199.497703 C884.74732,199.644717 884.269525,199.810107 883.79173,199.957121 C882.413476,195.509954 881.127106,191.026034 879.638591,186.61562 C878.664625,183.748851 878.554364,180.312404 875.04441,178.87902 C874.511485,178.658499 873.849923,178.015314 873.75804,177.500766 C872.490046,169.672282 871.258806,161.825421 869.843798,152.820827 Z M849.81317,188.839204 C849.849923,187.975498 850.235835,187.148545 850.640123,185.531394 C856.31853,195.969372 859.258806,206.113323 856.833078,217.433384 C854.995406,210.67075 853.139357,203.908116 851.062787,196.2634 C848.80245,201.941807 850.603369,206.444104 851.632466,210.983155 C853.323124,218.462481 855.013783,225.941807 855.785605,233.696784 C853.488515,230.039816 851.136294,226.401225 848.912711,222.707504 C848.471669,221.990812 848.269525,220.998469 848.306279,220.134763 C848.765697,209.715161 849.280245,199.277182 849.81317,188.839204 Z M846.872894,231.969372 C848.986217,237.574273 850.93415,242.995406 853.12098,248.306279 C853.580398,249.408882 855.877489,250.713629 855.730475,250.970904 C852.882083,255.785605 858.413476,259.644717 857.127106,264.165391 C856.300153,267.087289 855.381317,269.972435 854.094946,274.199081 C852.624809,271.644717 851.117917,270.248086 851.338438,269.200613 C852.606432,263.117917 849.81317,257.807044 848.269525,252.367534 C846.3951,245.641654 844.649311,239.099541 846.872894,231.969372 Z M860.655436,285.335375 C857.513017,286.180704 854.388974,287.026034 851.191424,287.871363 C849.280245,285.427259 847.552833,283.222052 845.035222,280.006126 C851.136294,281.402757 855.987749,282.50536 860.820827,283.607963 C860.765697,284.159265 860.710567,284.74732 860.655436,285.335375 Z M868.796325,253.911179 C864.459418,244.134763 862.493109,233.972435 862.290965,222.817764 C868.37366,227.099541 871.644717,242.885145 868.796325,253.911179 Z M866.407351,211.332312 C868.980092,218.223583 871.552833,225.114855 874.548239,233.108729 C868.796325,229.966309 864.716692,219.032159 866.407351,211.332312 Z M887.04441,223.203675 C886.897397,220.42879 885.647779,217.690658 884.894334,214.952527 C884.894334,220.888208 884.894334,226.805513 884.894334,233.237366 C881.402757,228.367534 879.840735,223.111792 879.215926,216.459418 C877.929556,218.793262 877.01072,220.410413 875.963247,222.321593 C871.203675,208.704441 872.526799,199.901991 875.228178,186.983155 C878.425727,196.006126 881.660031,205.102603 884.875957,214.217458 C886.143951,215.540582 888.091884,216.643185 888.551302,218.205207 C891.013783,226.695253 893.127106,235.295559 895.075038,243.950995 C891.381317,237.445636 887.448698,231.105666 887.04441,223.203675 Z M909.059724,259.773354 C908.067381,258.542113 906.964778,257.38438 906.119449,256.079632 C905.163859,254.609495 904.42879,252.992343 903.36294,251.007657 C902.701378,252.183767 902.315467,252.882083 901.359877,254.646248 C897.464012,241.709035 893.807044,229.562021 890.1317,217.433384 C890.609495,217.212864 891.087289,216.992343 891.565084,216.790199 C899.007657,230.333844 905.954058,244.116386 910.199081,259.056662 C909.81317,259.277182 909.445636,259.534456 909.059724,259.773354 Z M1025.45789,280.686064 C1021.76417,284.416539 1029.83155,288.624809 1023.54671,292.796325 C1023.10567,289.745789 1022.75651,287.283308 1022.18683,283.332312 C1020.77182,286.640123 1019.87136,288.735069 1018.34609,292.31853 C1018.34609,288.220521 1018.34609,285.739663 1018.34609,282.909648 C1012.79632,284.600306 1017.35375,289.856049 1014.1562,292.061256 C1009.0291,293.108729 1003.75498,294.192956 997.562021,295.460949 C997.856049,291.950995 998.07657,289.286371 998.29709,286.621746 C997.911179,286.529862 997.506891,286.437979 997.12098,286.346095 C996,288.257274 994.87902,290.150077 993.206738,293.016845 C993.169985,292.447167 993.133231,291.969372 993.114855,291.546708 C993.022971,290.260337 992.967841,289.488515 992.912711,288.698315 C990.689127,290.205207 990.119449,290.572741 989.108729,293.108729 C988.777948,293.954058 988.37366,295.038285 987.859112,296.490046 C987.712098,295.62634 987.620214,294.744257 987.381317,293.898928 C987.215926,293.347626 986.848392,292.851455 986.609495,292.37366 C981.75804,293.38438 984.294028,297.482389 983.411945,300.183767 C981.445636,298.382848 979.773354,296.85758 978.156202,295.369066 C985.212864,289.892802 992.986217,283.957121 1000.64931,277.874426 C1003.95712,275.246554 1007.15467,272.434916 1010.20521,269.513017 C1016.72894,263.264931 1017.97856,263.228178 1023.91424,270.358346 C1027.90199,275.136294 1031.66922,280.079632 1036.42879,286.052067 C1031.88974,283.846861 1028.63706,282.248086 1025.45789,280.686064 Z M1079.50383,334.713629 C1079.00766,334.750383 1078.52986,334.805513 1078.03369,334.842266 C1076.89433,330.578867 1075.75498,326.315467 1074.59724,322.070444 C1074.0827,322.180704 1073.54977,322.309342 1073.03522,322.419602 C1073.42113,324.661562 1073.78867,326.903522 1074.45023,330.762634 C1071.58346,326.02144 1068.95559,322.732006 1067.48545,319.001531 C1065.99694,315.215926 1059.84074,315.601838 1060.68606,310.254211 C1072.74119,311.540582 1076.01225,321.096478 1079.59571,330.248086 C1080.09188,331.51608 1079.55896,333.206738 1079.50383,334.713629 Z M1095.91424,259.497703 C1098.87289,261.849923 1101.97856,264.036753 1104.80858,266.535988 C1106.05819,267.638591 1106.79326,269.32925 1107.76723,270.762634 C1100.94946,270.909648 1096.70444,267.087289 1092.16539,263.981623 C1090.71363,262.98928 1086.76263,261.75804 1084.09801,261.886677 C1082.31547,261.97856 1080.47779,261.353752 1078.25421,260.986217 C1083.93262,256.355283 1091.39357,255.895865 1095.91424,259.497703 Z M1059.80398,250.015314 C1064.49005,252.771822 1068.42266,255.30781 1072.53905,257.457887 C1076.03063,259.277182 1076.50842,262.676876 1077.46401,265.800919 C1080.90046,277.084227 1084.07963,288.459418 1087.57121,299.724349 C1089.02297,304.392037 1091.02603,308.894334 1092.69832,313.506891 C1093.24962,315.032159 1093.52527,316.667688 1093.91118,318.248086 C1093.45176,318.3951 1092.97397,318.56049 1092.51455,318.707504 C1089.61103,311.136294 1086.90965,303.473201 1083.74885,295.993874 C1081.50689,290.683002 1078.76876,285.555896 1075.99387,280.48392 C1075.07504,278.793262 1073.67841,276.973966 1072.0245,276.11026 C1062.67075,271.240429 1062.48698,261.537519 1059.63859,253.249617 C1059.38132,252.477795 1059.7121,251.522205 1059.80398,250.015314 Z M999.693721,246.248086 C1010.16845,240.826953 1020.03675,234.192956 1029.84992,227.614089 C1033.23124,225.353752 1035.62021,221.6049 1038.96478,217.984686 C1041.37213,220.833078 1043.52221,223.313936 1045.59877,225.8683 C1047.89587,228.716692 1047.65697,233.972435 1053.96018,232.980092 C1055.70597,232.704441 1059.12404,236.049005 1058.09495,240.183767 C1057.35988,243.179173 1057.24962,246.413476 1057.43338,249.500766 C1057.63553,253.23124 1057.45176,257.476263 1059.1608,260.526799 C1064.25115,269.623277 1062.81776,279.638591 1064.37979,289.212864 C1064.47167,289.819296 1064.12251,290.499234 1063.9755,291.124043 C1057.92956,290.591118 1055.4487,288.367534 1054.6585,283.148545 C1054.52986,282.266462 1053.73966,281.457887 1053.16998,280.667688 C1052.2879,279.436447 1050.98315,278.370597 1050.52374,277.01072 C1049.40276,273.611026 1048.72282,270.064319 1047.67534,266.627871 C1047.60184,266.388974 1046.03982,266.591118 1044.86371,266.591118 C1043.13629,262.107198 1046.94028,255.767228 1041.26187,251.411945 C1040.45329,255.693721 1039.69985,259.62634 1038.9464,263.558959 C1038.43185,263.577335 1037.9173,263.614089 1037.40276,263.632466 C1036.85145,262.364472 1035.87749,261.114855 1035.82236,259.828484 C1035.52833,252.790199 1035.62021,252.790199 1029.83155,247.62634 C1029.53752,249.960184 1029.28025,252.018377 1028.98622,254.333844 C1030.27259,254.02144 1031.30168,253.782542 1032.95559,253.378254 C1033.26799,255.215926 1033.5804,257.035222 1033.91118,259.001531 C1027.29556,257.954058 1025.53139,253.984686 1025.93568,248.361409 C1026.22971,244.300153 1023.76723,242.444104 1019.59571,241.17611 C1019.22818,243.656968 1018.93415,245.751914 1018.56662,248.232772 C1017.51914,246.854518 1016.58193,245.623277 1015.40582,244.079632 C1013.03522,246.3951 1011.65697,248.728943 1012.92496,251.448698 C1013.40276,252.477795 1015.51608,252.753446 1017.61103,253.690658 C1015.22205,255.087289 1012.99847,256.37366 1010.59112,257.770291 C1009.70904,254.572741 1008.86371,251.467075 1008,248.343032 C1007.39357,248.453292 1006.78714,248.563553 1006.16233,248.673813 C1006.34609,250.621746 1006.52986,252.569678 1006.80551,255.583461 C1005.39051,253.745789 1004.45329,252.532925 1003.00153,250.640123 C1001.9173,254.003063 994.805513,250.658499 996.826953,257.586524 C995.669219,256.37366 994.493109,255.14242 992.600306,253.157734 C992.600306,256.520674 992.600306,258.946401 992.600306,261.372129 C992.251149,261.537519 991.901991,261.684533 991.534456,261.849923 C990.744257,260.58193 989.954058,259.295559 989.016845,257.788668 C988.042879,259.62634 987.399694,261.022971 986.572741,262.309342 C985.672282,263.705972 984.826953,265.892802 982.842266,263.264931 C981.592649,264.220521 980.343032,265.17611 978.817764,266.352221 C978.137825,265.543645 977.127106,264.349158 975.509954,262.437979 C974.885145,265.12098 974.462481,266.940276 974.02144,268.851455 C971.081164,268.851455 968.434916,268.851455 965.751914,268.851455 C965.366003,270.082695 964.980092,271.332312 964.355283,273.372129 C962.995406,271.7366 961.984686,270.56049 960.422665,268.686064 C959.963247,270.376723 959.669219,271.460949 959.264931,272.986217 C958.254211,272.453292 957.261868,271.901991 956.049005,271.258806 C955.405819,273.390505 954.799387,275.430322 953.935681,278.315467 C952.961715,276.496172 952.410413,275.467075 951.840735,274.401225 C950.113323,275.411945 948.257274,276.238897 946.695253,277.451761 C943.79173,279.730475 943.148545,276.036753 941.32925,275.595712 C941.310873,275.595712 941.310873,275.614089 941.292496,275.614089 C941.274119,275.614089 941.255743,275.632466 941.237366,275.632466 C941.108729,276.918836 940.961715,278.205207 940.906585,278.774885 C937.341501,280.226646 933.996937,281.035222 931.313936,282.817764 C924.937213,287.04441 917.898928,289.396631 910.584992,291.583461 C911.816233,288.073507 913.598775,286.952527 924.698315,282.431853 C930.211332,280.171516 935.724349,277.911179 941.255743,275.632466 C941.255743,275.614089 941.255743,275.577335 941.255743,275.558959 C941.292496,275.558959 941.310873,275.577335 941.347626,275.577335 C943.130168,274.327718 944.80245,272.839204 946.732006,271.901991 C964.37366,263.338438 982.272588,255.271057 999.693721,246.248086 Z M958.437979,234.064319 C960.238897,237.004594 962.701378,239.705972 961.433384,243.877489 C945.096478,222.248086 927.877489,201.261868 917.623277,175.607963 C916.998469,175.920368 916.37366,176.232772 915.748851,176.545176 C917.807044,182.18683 919.865237,187.828484 922.309342,194.554364 C911.595712,180.937213 908.122511,182.444104 901.690658,150.928025 C907.166922,155.963247 912.441041,160.667688 917.54977,165.555896 C918.799387,166.750383 919.754977,168.385911 920.545176,169.947933 C925.06585,178.842266 929.366003,187.846861 934.015314,196.667688 C935.981623,200.398162 938.444104,203.908116 940.980092,207.289433 C945.611026,213.500766 949.911179,219.803982 951.693721,227.558959 C951.914242,228.496172 954.468606,228.698315 955.497703,229.690658 C956.728943,230.885145 957.519142,232.557427 958.437979,234.064319 Z M951.803982,183.179173 C946.952527,174.725881 938.260337,168.753446 935.558959,157.488515 C946.033691,164.177642 952.006126,172.704441 955.222052,184.20827 C953.660031,183.767228 952.153139,183.803982 951.803982,183.179173 Z" id="Shape" fill-rule="nonzero"></path>
            </g>
        </g>
    </g>
</svg>