<?xml version="1.0" encoding="UTF-8"?>
<svg width="24px" height="24px" viewBox="0 0 24 24" version="1.1" xmlns="http://www.w3.org/2000/svg" xmlns:xlink="http://www.w3.org/1999/xlink">
    <!-- Generator: Sketch 52.5 (67469) - http://www.bohemiancoding.com/sketch -->
    <title>baseline-org-24px</title>
    <desc>Created with Sketch.</desc>
    <g id="baseline-org-24px" stroke="none" stroke-width="1" fill="none" fill-rule="evenodd">
        <g id="baseline-account_balance-24px">
            <polygon id="Path" points="0 0 24 0 24 24 0 24"></polygon>
            <path d="M19,21 L19,14 L15,14 L15,21 L14,21 L14,14 L10,14 L10,21 L9,21 L9,14 L5,14 L5,21 L3,21 L3,12 L21,12 L21,21 L19,21 Z M3,10 L3,11 L21,11 L21,10 L3,10 Z M3,7 L3,9 L21,9 L21,7 L12,3 L3,7 Z" id="Shape" fill="#393939" fill-rule="nonzero"></path>
        </g>
    </g>
</svg>