<?xml version="1.0" encoding="UTF-8"?>
<svg width="24px" height="24px" viewBox="0 0 24 24" version="1.1" xmlns="http://www.w3.org/2000/svg" xmlns:xlink="http://www.w3.org/1999/xlink">
    <!-- Generator: Sketch 52.5 (67469) - http://www.bohemiancoding.com/sketch -->
    <title>Elements/Icons/baseline-org-24px</title>
    <desc>Created with Sketch.</desc>
    <g id="Elements/Icons/baseline-org-24px" stroke="none" stroke-width="1" fill="none" fill-rule="evenodd">
        <g id="baseline-account_balance-24px">
            <polygon id="Path" points="0 0 24 0 24 24 0 24"></polygon>
            <path d="M19,22 L19,15 L15,15 L15,22 L14,22 L14,15 L10,15 L10,22 L9,22 L9,15 L5,15 L5,22 L2,22 L2,12 L22,12 L22,22 L19,22 Z M2,2 L2,11 L8,11 L8,2 L2,2 Z M9,2 L9,11 L15,11 L15,2 L9,2 Z M16,2 L16,11 L22,11 L22,2 L16,2 Z" id="Shape" fill="#393939" fill-rule="nonzero"></path>
        </g>
    </g>
</svg>