<?xml version="1.0" encoding="UTF-8"?>
<svg width="40px" height="40px" viewBox="0 0 40 40" version="1.1" xmlns="http://www.w3.org/2000/svg" xmlns:xlink="http://www.w3.org/1999/xlink">
    <!-- Generator: Sketch 52.5 (67469) - http://www.bohemiancoding.com/sketch -->
    <title>icon/license</title>
    <desc>Created with Sketch.</desc>
    <defs>
        <polygon id="path-1" points="48 0 48 48 0 48 0 0"></polygon>
    </defs>
    <g id="Top" stroke="none" stroke-width="1" fill="none" fill-rule="evenodd">
        <g id="fullhd/search/database" transform="translate(-564.000000, -545.000000)">
            <g id="icon/license" transform="translate(560.000000, 541.000000)">
                <mask id="mask-2" fill="white">
                    <use xlink:href="#path-1"></use>
                </mask>
                <g id="a"></g>
                <path d="M20.16,21.72 C20.26,21.06 20.48,20.48 20.76,19.98 C21.04,19.48 21.44,19.06 21.94,18.74 C22.42,18.44 23.02,18.3 23.76,18.28 C24.22,18.3 24.64,18.38 25.02,18.54 C25.42,18.72 25.78,18.96 26.06,19.26 C26.34,19.56 26.56,19.92 26.74,20.32 C26.92,20.72 27,21.16 27.02,21.6 L30.6,21.6 C30.56,20.66 30.38,19.8 30.04,19.02 C29.7,18.24 29.24,17.56 28.64,17 C28.04,16.44 27.32,16 26.48,15.68 C25.64,15.36 24.72,15.22 23.7,15.22 C22.4,15.22 21.26,15.44 20.3,15.9 C19.34,16.36 18.54,16.96 17.9,17.74 C17.26,18.52 16.78,19.42 16.48,20.46 C16.18,21.5 16,22.58 16,23.74 L16,24.28 C16,25.44 16.16,26.52 16.46,27.56 C16.76,28.6 17.24,29.5 17.88,30.26 C18.52,31.02 19.32,31.64 20.28,32.08 C21.24,32.52 22.38,32.76 23.68,32.76 C24.62,32.76 25.5,32.6 26.32,32.3 C27.14,32 27.86,31.58 28.48,31.04 C29.1,30.5 29.6,29.88 29.96,29.16 C30.32,28.44 30.54,27.68 30.56,26.86 L26.98,26.86 C26.96,27.28 26.86,27.66 26.68,28.02 C26.5,28.38 26.26,28.68 25.96,28.94 C25.66,29.2 25.32,29.4 24.92,29.54 C24.54,29.68 24.14,29.72 23.72,29.74 C23,29.72 22.4,29.58 21.94,29.28 C21.44,28.96 21.04,28.54 20.76,28.04 C20.48,27.54 20.26,26.94 20.16,26.28 C20.06,25.62 20,24.94 20,24.28 L20,23.74 C20,23.04 20.06,22.38 20.16,21.72 Z M24,4 C12.96,4 4,12.96 4,24 C4,35.04 12.96,44 24,44 C35.04,44 44,35.04 44,24 C44,12.96 35.04,4 24,4 Z M24,40 C15.18,40 8,32.82 8,24 C8,15.18 15.18,8 24,8 C32.82,8 40,15.18 40,24 C40,32.82 32.82,40 24,40 Z" id="Shape" fill="#000000" fill-rule="nonzero" mask="url(#mask-2)"></path>
            </g>
        </g>
    </g>
</svg>