<?xml version="1.0" encoding="UTF-8"?>
<svg width="24px" height="24px" viewBox="0 0 24 24" version="1.1" xmlns="http://www.w3.org/2000/svg" xmlns:xlink="http://www.w3.org/1999/xlink">
    <!-- Generator: Sketch 52.5 (67469) - http://www.bohemiancoding.com/sketch -->
    <title>sns-line-24px</title>
    <desc>Created with Sketch.</desc>
    <g id="Page-1" stroke="none" stroke-width="1" fill="none" fill-rule="evenodd">
        <g id="Artboard" transform="translate(-131.000000, -33.000000)" fill="#FFFFFF">
            <g id="sns-line-24px" transform="translate(131.000000, 33.000000)">
                <path d="M12.0019835,23.928595 C5.42933851,23.928595 0.101157025,18.6004136 0.101157025,12.0277686 C0.101157025,5.45512364 5.42933851,0.126942149 12.0019835,0.126942149 C18.5746284,0.126942149 23.9028099,5.45512364 23.9028099,12.0277686 C23.9028099,18.6004136 18.5746284,23.928595 12.0019835,23.928595 Z M19.9180165,11.313719 C19.9180165,7.77123967 16.3676033,4.8892562 12.0019835,4.8892562 C7.63834711,4.8892562 4.08595041,7.77123967 4.08595041,11.313719 C4.08595041,14.4892562 6.90247934,17.1490909 10.7067769,17.6509091 C10.9646281,17.7064463 11.3157025,17.8214876 11.4049587,18.0416529 C11.4842975,18.2419835 11.4565289,18.5553719 11.4307438,18.757686 C11.4307438,18.757686 11.3375207,19.3170248 11.317686,19.4360331 C11.2839669,19.6363636 11.1590083,20.2195041 12.0039669,19.8624793 C12.8489256,19.507438 16.5619835,17.178843 18.2241322,15.2667769 C19.368595,14.0072727 19.9180165,12.7299174 19.9180165,11.313719 Z" id="Oval-2"></path>
                <g id="TYPE_A_7_" transform="translate(5.966942, 8.760331)">
                    <g id="Group">
                        <g transform="translate(0.578512, 0.760331)" id="Path">
                            <path d="M3.84793388,0.081322314 L3.29256198,0.081322314 C3.20727273,0.081322314 3.13785124,0.150743802 3.13785124,0.236033058 L3.13785124,3.68528926 C3.13785124,3.77057851 3.20727273,3.84 3.29256198,3.84 L3.84793388,3.84 C3.93322314,3.84 4.00264463,3.77057851 4.00264463,3.68528926 L4.00264463,0.236033058 C4.00264463,0.150743802 3.93322314,0.081322314 3.84793388,0.081322314"></path>
                            <path d="M7.67008264,0.081322314 L7.11471074,0.081322314 C7.02942149,0.081322314 6.96,0.150743802 6.96,0.236033058 L6.96,2.28495868 L5.37917355,0.150743802 C5.37520661,0.144793388 5.37123967,0.140826446 5.36727273,0.134876033 C5.36727273,0.134876033 5.36727273,0.134876033 5.36528926,0.132892562 C5.36132231,0.12892562 5.35933884,0.126942149 5.3553719,0.122975207 C5.35338843,0.122975207 5.35338843,0.120991736 5.35338843,0.120991736 C5.35140496,0.119008264 5.34743802,0.117024793 5.34545455,0.115041322 C5.34347107,0.113057851 5.34347107,0.113057851 5.3414876,0.11107438 C5.33950413,0.109090909 5.33553719,0.107107438 5.33355372,0.105123967 C5.33157025,0.103140496 5.32958678,0.103140496 5.32958678,0.103140496 C5.32760331,0.101157025 5.32363636,0.0991735537 5.32165289,0.0991735537 C5.31966942,0.0991735537 5.31768595,0.0971900826 5.31768595,0.0971900826 C5.31570248,0.0952066116 5.31173554,0.0952066116 5.30975207,0.0932231405 C5.3077686,0.0932231405 5.30578512,0.0912396694 5.30380165,0.0912396694 C5.29983471,0.0892561983 5.29785124,0.0892561983 5.2938843,0.0872727273 C5.29190083,0.0872727273 5.28991736,0.0872727273 5.28793388,0.0852892562 C5.28396694,0.0852892562 5.28198347,0.0833057851 5.28,0.0833057851 C5.27801653,0.0833057851 5.27603306,0.0833057851 5.27404959,0.0833057851 C5.27206612,0.0833057851 5.26809917,0.0833057851 5.2661157,0.081322314 C5.26413223,0.081322314 5.26016529,0.081322314 5.25818182,0.081322314 C5.25619835,0.081322314 5.25421488,0.081322314 5.2522314,0.081322314 L4.6968595,0.081322314 C4.61157025,0.081322314 4.54214876,0.150743802 4.54214876,0.236033058 L4.54214876,3.68528926 C4.54214876,3.77057851 4.61157025,3.84 4.6968595,3.84 L5.2522314,3.84 C5.33752066,3.84 5.40694215,3.77057851 5.40694215,3.68528926 L5.40694215,1.63636364 L6.98975207,3.77454545 C6.99966942,3.79041322 7.01355372,3.80231405 7.02942149,3.8122314 C7.02942149,3.8122314 7.03140496,3.8122314 7.03140496,3.81421488 C7.0353719,3.81619835 7.03735537,3.81818182 7.04132231,3.82016529 C7.04330579,3.82016529 7.04330579,3.82214876 7.04528926,3.82214876 C7.04727273,3.82413223 7.0492562,3.82413223 7.05322314,3.8261157 C7.05520661,3.82809917 7.05719008,3.82809917 7.06115702,3.83008264 C7.0631405,3.83008264 7.06512397,3.83206612 7.06512397,3.83206612 C7.06909091,3.83404959 7.07305785,3.83404959 7.07504132,3.83603306 C7.07504132,3.83603306 7.07702479,3.83603306 7.07702479,3.83603306 C7.08892562,3.84 7.10280992,3.84198347 7.11669421,3.84198347 L7.67206612,3.84198347 C7.75735537,3.84198347 7.82677686,3.77256198 7.82677686,3.68727273 L7.82677686,0.238016529 C7.82479339,0.150743802 7.7553719,0.081322314 7.67008264,0.081322314"></path>
                            <path d="M2.51107438,2.97322314 L1.00165289,2.97322314 L1.00165289,0.234049587 C1.00165289,0.148760331 0.932231405,0.079338843 0.846942149,0.079338843 L0.291570248,0.079338843 C0.206280992,0.079338843 0.136859504,0.148760331 0.136859504,0.234049587 L0.136859504,3.68330579 C0.136859504,3.72495868 0.152727273,3.76264463 0.180495868,3.79041322 C0.180495868,3.79041322 0.182479339,3.79239669 0.182479339,3.79239669 C0.182479339,3.79239669 0.18446281,3.79438017 0.18446281,3.79438017 C0.212231405,3.82016529 0.249917355,3.83801653 0.291570248,3.83801653 L2.50909091,3.83801653 C2.59438017,3.83801653 2.66380165,3.76859504 2.66380165,3.68330579 L2.66380165,3.12793388 C2.66380165,3.04264463 2.59438017,2.97322314 2.51107438,2.97322314"></path>
                            <path d="M10.7365289,0.944132231 C10.8218182,0.944132231 10.8912397,0.874710744 10.8912397,0.789421488 L10.8912397,0.234049587 C10.8912397,0.148760331 10.8218182,0.079338843 10.7365289,0.079338843 L8.51900826,0.079338843 C8.47735537,0.079338843 8.43966942,0.0952066116 8.41190083,0.122975207 C8.41190083,0.122975207 8.40991736,0.124958678 8.40991736,0.124958678 C8.40991736,0.126942149 8.40793388,0.126942149 8.40793388,0.126942149 C8.38214876,0.154710744 8.36429752,0.192396694 8.36429752,0.234049587 L8.36429752,3.68330579 C8.36429752,3.72495868 8.38016529,3.76264463 8.40793388,3.79041322 C8.40793388,3.79041322 8.40991736,3.79239669 8.40991736,3.79239669 C8.40991736,3.79239669 8.41190083,3.79438017 8.41190083,3.79438017 C8.43966942,3.82016529 8.47735537,3.83801653 8.51900826,3.83801653 L10.7365289,3.83801653 C10.8218182,3.83801653 10.8912397,3.76859504 10.8912397,3.68330579 L10.8912397,3.12793388 C10.8912397,3.04264463 10.8218182,2.97322314 10.7365289,2.97322314 L9.22710744,2.97322314 L9.22710744,2.39008264 L10.7365289,2.39008264 C10.8218182,2.39008264 10.8912397,2.32066116 10.8912397,2.2353719 L10.8912397,1.68 C10.8912397,1.59471074 10.8218182,1.52528926 10.7365289,1.52528926 L9.22710744,1.52528926 L9.22710744,0.94214876 L10.7365289,0.94214876 L10.7365289,0.944132231 Z"></path>
                        </g>
                    </g>
                </g>
            </g>
        </g>
    </g>
</svg>