<?xml version="1.0" encoding="UTF-8"?>
<svg width="24px" height="24px" viewBox="0 0 24 24" version="1.1" xmlns="http://www.w3.org/2000/svg" xmlns:xlink="http://www.w3.org/1999/xlink">
    <!-- Generator: Sketch 52.5 (67469) - http://www.bohemiancoding.com/sketch -->
    <title>sns-fb-24px</title>
    <desc>Created with Sketch.</desc>
    <g id="Page-1" stroke="none" stroke-width="1" fill="none" fill-rule="evenodd">
        <g id="Artboard" transform="translate(-63.000000, -33.000000)" fill="#FFFFFF" fill-rule="nonzero">
            <g id="sns-fb-24px" transform="translate(63.000000, 33.000000)">
                <path d="M24,12 C24,18.63 18.63,24 12,24 C5.37,24 2.66453526e-15,18.63 2.66453526e-15,12 C2.66453526e-15,5.37 5.37,-1.11022302e-16 12,-1.11022302e-16 C18.63,-1.11022302e-16 24,5.37 24,12 Z M18.2263158,5 L5.77368421,5 C5.34639022,5 5,5.34639022 5,5.77368421 L5,18.2263158 C5,18.6536098 5.34639022,19 5.77368421,19 L12.4789474,19 L12.4789474,13.5964912 L10.6491228,13.5964912 L10.6491228,11.4670175 L12.4691228,11.4670175 L12.4691228,9.9122807 C12.4691228,8.10210526 13.5719298,7.11719298 15.185614,7.11719298 C15.7337938,7.1188217 16.2814878,7.14997794 16.8263158,7.21052632 L16.8263158,9.09929825 L15.7112281,9.09929825 C14.834386,9.09929825 14.6649123,9.51438596 14.6649123,10.1259649 L14.6649123,11.4768421 L16.7649123,11.4768421 L16.4922807,13.5964912 L14.6649123,13.5964912 L14.6649123,19 L18.2263158,19 C18.6536098,19 19,18.6536098 19,18.2263158 L19,5.77368421 C19,5.34639022 18.6536098,5 18.2263158,5 Z" id="Shape"></path>
            </g>
        </g>
    </g>
</svg>