<?xml version="1.0" encoding="UTF-8"?>
<svg width="24px" height="24px" viewBox="0 0 24 24" version="1.1" xmlns="http://www.w3.org/2000/svg" xmlns:xlink="http://www.w3.org/1999/xlink">
    <!-- Generator: Sketch 52.5 (67469) - http://www.bohemiancoding.com/sketch -->
    <title>sns-tw-24px</title>
    <desc>Created with Sketch.</desc>
    <g id="Page-1" stroke="none" stroke-width="1" fill="none" fill-rule="evenodd">
        <g id="Artboard" transform="translate(-97.000000, -33.000000)" fill="#FFFFFF" fill-rule="nonzero">
            <g id="sns-tw-24px" transform="translate(97.000000, 33.000000)">
                <path d="M24,12 C24,18.63 18.63,24 12,24 C5.37,24 0,18.63 0,12 C0,5.37 5.37,0 12,0 C18.63,0 24,5.37 24,12 Z M9.804,18.33 C15.126,18.33 18.036,13.92 18.036,10.098 C18.036,9.972 18.036,9.846 18.03,9.726 C18.594,9.318 19.086,8.808 19.476,8.226 C18.96,8.454 18.402,8.61 17.814,8.682 C18.414,8.322 18.87,7.758 19.086,7.08 C18.528,7.41 17.91,7.65 17.25,7.782 C16.722,7.218 15.972,6.87 15.138,6.87 C13.542,6.87 12.246,8.166 12.246,9.762 C12.246,9.99 12.27,10.212 12.324,10.422 C9.918,10.302 7.788,9.15 6.36,7.398 C6.114,7.824 5.97,8.322 5.97,8.85 C5.97,9.852 6.48,10.74 7.26,11.256 C6.786,11.244 6.342,11.112 5.952,10.896 C5.952,10.908 5.952,10.92 5.952,10.932 C5.952,12.336 6.948,13.5 8.274,13.77 C8.034,13.836 7.776,13.872 7.512,13.872 C7.326,13.872 7.146,13.854 6.966,13.818 C7.332,14.97 8.4,15.804 9.666,15.828 C8.676,16.602 7.428,17.064 6.072,17.064 C5.838,17.064 5.61,17.052 5.382,17.022 C6.648,17.85 8.172,18.33 9.804,18.33 Z" id="Shape"></path>
            </g>
        </g>
    </g>
</svg>