<?xml version="1.0" standalone="no"?>
<!DOCTYPE svg PUBLIC "-//W3C//DTD SVG 1.1//EN" "http://www.w3.org/Graphics/SVG/1.1/DTD/svg11.dtd" >
<svg xmlns="http://www.w3.org/2000/svg">
<defs>
<font id="icomoon" horiz-adv-x="1024">
<font-face units-per-em="1024" ascent="960" descent="-64" />
<missing-glyph horiz-adv-x="1024" />
<glyph unicode="&#x20;" horiz-adv-x="512" d="" />
<glyph unicode="&#xe900;" glyph-name="ko-01" d="M896 960h128v-1024h-128v896h-320v-896h-128v896h-96v-896h-128v1024h672zM672 736h128v-800h-128v800zM0 960h128v-1024h-128v1024z" />
<glyph unicode="&#xe901;" glyph-name="ko-02" d="M896 960h128v-1024h-128v1024zM672 960h128v-1024h-128v1024zM448 960h128v-1024h-128v1024zM224 960h128v-1024h-128v1024zM0 960h128v-1024h-128v1024z" />
<glyph unicode="&#xe902;" glyph-name="ko-03" d="M896 960h128v-1024h-128v896h-96v-896h-128v1024h224zM448 960h128v-1024h-128v1024zM224 960h128v-1024h-128v1024zM0 960h128v-1024h-128v1024z" />
<glyph unicode="&#xe903;" glyph-name="ko-04" d="M672 960h128v-1024h-128v896h-96v-896h-128v1024h224zM896 960h128v-1024h-128v1024zM224 960h128v-1024h-128v1024zM0 960h128v-1024h-128v1024z" />
<glyph unicode="&#xe904;" glyph-name="ko-05" d="M896 960h128v-1024h-128v896h-96v-896h-128v1024h224zM448 960h128v-1024h-128v896h-96v-896h-128v1024h224zM0 960h128v-1024h-128v1024z" />
<glyph unicode="&#xe905;" glyph-name="ko-06" d="M672 960h128v-1024h-128v896h-96v-896h-128v896h-96v-896h-128v896h-96v-896h-128v1024h672zM896 960h128v-1024h-128v1024z" />
<glyph unicode="&#xe906;" glyph-name="ko-07" d="M896 960h128v-1024h-128v896h-320v-896h-128v896h-96v-896h-128v1024h672zM672 736h128v-800h-128v800zM0 960h128v-1024h-128v1024z" />
<glyph unicode="&#xe907;" glyph-name="ko-08" d="M896 960h128v-1024h-128v896h-320v-896h-128v1024h448zM672 736h128v-800h-128v800zM224 960h128v-1024h-128v1024zM0 960h128v-1024h-128v1024z" />
<glyph unicode="&#xe908;" glyph-name="ko-09" d="M224 960h128v-1024h-128v896h-96v-896h-128v1024h224zM896 960h128v-1024h-128v1024zM672 960h128v-1024h-128v1024zM448 960h128v-1024h-128v1024z" />
<glyph unicode="&#xe909;" glyph-name="ko-10" d="M896 960h128v-1024h-128v896h-96v-896h-128v1024h224zM448 960h128v-1024h-128v896h-96v-896h-128v896h-96v-896h-128v1024h448z" />
<glyph unicode="&#xe90a;" glyph-name="ko-11" d="M800 736h224v-800h-128v672h-96v-672h-128v672h-96v-672h-128v800h224v96h-320v-896h-128v1024h576v-224zM0 960h128v-1024h-128v1024z" />
<glyph unicode="&#xe90b;" glyph-name="ko-12" d="M352 736h448v-800h-128v672h-96v-672h-128v672h-96v-672h-128v672h-96v-672h-128v800h224v224h800v-1024h-128v896h-544v-96z" />
<glyph unicode="&#xe90c;" glyph-name="ko-13" d="M448 960h128v-1024h-128v896h-96v-896h-128v1024h224zM896 960h128v-1024h-128v1024zM672 960h128v-1024h-128v1024zM0 960h128v-1024h-128v1024z" />
<glyph unicode="&#xe90d;" glyph-name="ko-14" d="M896 960h128v-1024h-128v896h-96v-896h-128v896h-320v-896h-128v1024h672zM448 736h128v-800h-128v800zM0 960h128v-1024h-128v1024z" />
<glyph unicode="&#xe90e;" glyph-name="ko-15" d="M448 960h128v-1024h-128v896h-96v-896h-128v896h-96v-896h-128v1024h448zM896 960h128v-1024h-128v1024zM672 960h128v-1024h-128v1024z" />
<glyph unicode="&#xe90f;" glyph-name="ko-16" d="M672 960h128v-1024h-128v896h-96v-896h-128v896h-96v-896h-128v1024h448zM896 960h128v-1024h-128v1024zM0 960h128v-1024h-128v1024z" />
<glyph unicode="&#xe910;" glyph-name="ko-17" d="M352 960h672v-1024h-128v896h-544v-96h224v-800h-128v672h-96v-672h-128v672h-96v-672h-128v800h224v224h128zM672 736h128v-800h-128v800z" />
<glyph unicode="&#xe911;" glyph-name="ko-18" d="M672 960h128v-1024h-128v896h-96v-896h-128v1024h224zM224 960h128v-1024h-128v896h-96v-896h-128v1024h224zM896 960h128v-1024h-128v1024z" />
<glyph unicode="&#xe912;" glyph-name="ko-19" d="M896 960h128v-1024h-128v896h-96v-896h-128v896h-96v-896h-128v896h-96v-896h-128v1024h672zM0 960h128v-1024h-128v1024z" />
<glyph unicode="&#xe913;" glyph-name="ko-20" d="M672 960h128v-1024h-128v896h-96v-896h-128v896h-320v-896h-128v1024h672zM896 960h128v-1024h-128v1024zM224 736h128v-800h-128v800z" />
<glyph unicode="&#xe914;" glyph-name="ko-21" d="M448 960h128v-1024h-128v896h-320v-896h-128v1024h448zM896 960h128v-1024h-128v1024zM672 960h128v-1024h-128v1024zM224 736h128v-800h-128v800z" />
<glyph unicode="&#xe915;" glyph-name="ko-22" d="M224 960h128v-1024h-128v896h-96v-896h-128v1024h224zM896 960h128v-1024h-128v896h-96v-896h-128v896h-96v-896h-128v1024h448z" />
<glyph unicode="&#xe916;" glyph-name="ko-23" d="M352 736h224v-800h-128v672h-96v-672h-128v672h-96v-672h-128v800h224v224h576v-1024h-128v896h-320v-96zM896 960h128v-1024h-128v1024z" />
<glyph unicode="&#xe917;" glyph-name="ko-24" d="M800 736h224v-800h-128v672h-96v-672h-128v672h-96v-672h-128v672h-96v-672h-128v800h448v96h-544v-896h-128v1024h800v-224z" />
<glyph unicode="&#xe918;" glyph-name="ko-25" d="M672 960h128v-1024h-128v896h-320v-896h-128v896h-96v-896h-128v1024h672zM896 960h128v-1024h-128v1024zM448 736h128v-800h-128v800z" />
<glyph unicode="&#xe919;" glyph-name="ko-26" d="M896 960h128v-1024h-128v896h-96v-896h-128v896h-96v-896h-128v1024h448zM224 960h128v-1024h-128v1024zM0 960h128v-1024h-128v1024z" />
<glyph unicode="&#xe91a;" glyph-name="ko-27" d="M672 960h128v-1024h-128v896h-320v-896h-128v1024h448zM896 960h128v-1024h-128v1024zM448 736h128v-800h-128v800zM0 960h128v-1024h-128v1024z" />
<glyph unicode="&#xe91b;" glyph-name="ko-28" d="M896 960h128v-1024h-128v896h-96v-896h-128v1024h224zM224 960h128v-1024h-128v896h-96v-896h-128v1024h224zM448 960h128v-1024h-128v1024z" />
<glyph unicode="&#xe91c;" glyph-name="ko-29" d="M576 736h448v-800h-128v672h-96v-672h-128v672h-96v-672h-128v672h-96v-672h-128v800h224v96h-320v-896h-128v1024h576v-224z" />
<glyph unicode="&#xe91d;" glyph-name="ko-30" d="M672 960h128v-1024h-128v896h-544v-896h-128v1024h672zM896 960h128v-1024h-128v1024zM448 736h128v-800h-128v800zM224 736h128v-800h-128v800z" />
<glyph unicode="&#xe91e;" glyph-name="ko-31" d="M672 736h128v-800h-128v672h-320v-672h-128v800h448zM896 960h128v-1024h-128v896h-768v-896h-128v1024h896zM448 512h128v-576h-128v576z" />
<glyph unicode="&#xe91f;" glyph-name="ko-32" d="M896 960h128v-1024h-128v896h-320v-896h-128v896h-96v-896h-128v896h-96v-896h-128v1024h896zM672 736h128v-800h-128v800z" />
<glyph unicode="&#xe920;" glyph-name="ko-33" d="M672 736h128v-800h-128v672h-96v-672h-128v800h224zM896 960h128v-1024h-128v896h-544v-896h-128v1024h672zM0 960h128v-1024h-128v1024z" />
<glyph unicode="&#xe921;" glyph-name="ko-34" d="M672 736h128v-800h-128v672h-96v-672h-128v800h224zM896 960h128v-1024h-128v896h-544v-896h-128v896h-96v-896h-128v1024h896z" />
<glyph unicode="&#xe922;" glyph-name="ko-35" d="M896 960h128v-1024h-128v896h-96v-896h-128v1024h224zM448 960h128v-1024h-128v896h-320v-896h-128v1024h448zM224 736h128v-800h-128v800z" />
<glyph unicode="&#xe923;" glyph-name="ko-36" d="M896 960h128v-1024h-128v896h-320v-896h-128v896h-320v-896h-128v1024h896zM672 736h128v-800h-128v800zM224 736h128v-800h-128v800z" />
<glyph unicode="&#xe924;" glyph-name="ko-37" d="M896 960h128v-1024h-128v896h-96v-896h-128v896h-544v-896h-128v1024h896zM448 736h128v-800h-128v800zM224 736h128v-800h-128v800z" />
<glyph unicode="&#xe925;" glyph-name="ko-38" d="M672 736h128v-800h-128v672h-96v-672h-128v800h224zM896 960h128v-1024h-128v896h-768v-896h-128v1024h896zM224 736h128v-800h-128v800z" />
<glyph unicode="&#xe926;" glyph-name="ko-39" d="M576 736h224v-800h-128v672h-96v-672h-128v672h-320v-672h-128v800h448v224h576v-1024h-128v896h-320v-96zM224 512h128v-576h-128v576z" />
<glyph unicode="&#xe927;" glyph-name="ko-40" d="M800 736h224v-800h-128v672h-96v-672h-128v672h-320v-672h-128v800h448v96h-544v-896h-128v1024h800v-224zM448 512h128v-576h-128v576z" />
<glyph unicode="&#xe928;" glyph-name="ko-41" d="M896 960h128v-1024h-128v896h-768v-896h-128v1024h896zM672 736h128v-800h-128v800zM448 736h128v-800h-128v800zM224 736h128v-800h-128v800z" />
<glyph unicode="&#xe929;" glyph-name="ko-42" d="M576 736h224v-800h-128v672h-96v-672h-128v672h-96v-672h-128v672h-96v-672h-128v800h448v224h576v-1024h-128v896h-320v-96z" />
<glyph unicode="&#xe92a;" glyph-name="ko-43" d="M896 960h128v-1024h-128v896h-544v-896h-128v1024h672zM672 736h128v-800h-128v800zM448 736h128v-800h-128v800zM0 960h128v-1024h-128v1024z" />
<glyph unicode="&#xe92b;" glyph-name="ko-45" d="M672 736h128v-800h-128v672h-96v-672h-128v672h-96v-672h-128v800h448zM896 960h128v-1024h-128v896h-768v-896h-128v1024h896z" />
<glyph unicode="&#xe92c;" glyph-name="ko-46" d="M448 736h128v-800h-128v672h-96v-672h-128v800h224zM672 960h128v-1024h-128v896h-544v-896h-128v1024h672zM896 960h128v-1024h-128v1024z" />
<glyph unicode="&#xe92d;" glyph-name="ko-47" d="M448 736h128v-800h-128v672h-96v-672h-128v800h224zM896 960h128v-1024h-128v896h-96v-896h-128v896h-544v-896h-128v1024h896z" />
<glyph unicode="&#xe92e;" glyph-name="ko-48" d="M224 960h128v-1024h-128v896h-96v-896h-128v1024h224zM896 960h128v-1024h-128v896h-320v-896h-128v1024h448zM672 736h128v-800h-128v800z" />
<glyph unicode="&#xe92f;" glyph-name="ko-49" d="M896 960h128v-1024h-128v896h-96v-896h-128v896h-320v-896h-128v896h-96v-896h-128v1024h896zM448 736h128v-800h-128v800z" />
<glyph unicode="&#xe930;" glyph-name="ko-50" d="M896 960h128v-1024h-128v896h-544v-896h-128v896h-96v-896h-128v1024h896zM672 736h128v-800h-128v800zM448 736h128v-800h-128v800z" />
<glyph unicode="&#xe931;" glyph-name="ko-51" d="M448 736h128v-800h-128v672h-96v-672h-128v800h224zM896 960h128v-1024h-128v896h-768v-896h-128v1024h896zM672 736h128v-800h-128v800z" />
<glyph unicode="&#xe932;" glyph-name="ko-52" d="M576 736h224v-800h-128v672h-96v-672h-128v672h-96v-672h-128v800h224v96h-320v-896h-128v1024h1024v-1024h-128v896h-320v-96z" />
<glyph unicode="&#xe933;" glyph-name="ko-53" d="M896 960h128v-1024h-128v896h-96v-896h-128v896h-96v-896h-128v896h-96v-896h-128v896h-96v-896h-128v1024h896z" />
<glyph unicode="&#xe934;" glyph-name="ko-54" d="M352 960h672v-1024h-128v896h-96v-896h-128v896h-320v-96h224v-800h-128v672h-96v-672h-128v672h-96v-672h-128v800h224v224h128z" />
<glyph unicode="&#xe935;" glyph-name="baseline-global-24px" d="M512 960c-282.624 0-512-229.376-512-512s229.376-512 512-512c282.624 0 512 229.376 512 512s-229.376 512-512 512zM460.8 41.984c-202.24 25.088-358.4 197.12-358.4 406.016 0 31.744 4.096 61.952 10.752 91.648l245.248-245.248v-51.2c0-56.32 46.080-102.4 102.4-102.4v-98.816zM814.080 172.032c-13.312 41.472-51.2 71.168-97.28 71.168h-51.2v153.6c0 28.16-23.040 51.2-51.2 51.2h-307.2v102.4h102.4c28.16 0 51.2 23.040 51.2 51.2v102.4h102.4c56.32 0 102.4 46.080 102.4 102.4v20.992c150.016-60.928 256-207.872 256-379.392 0-106.496-40.96-203.264-107.52-275.968z" />
<glyph unicode="&#xe936;" glyph-name="baseline-org" d="M810.667 64v298.667h-170.667v-298.667h-42.667v298.667h-170.667v-298.667h-42.667v298.667h-170.667v-298.667h-85.333v384h768v-384h-85.333zM128 533.333v-42.667h768v42.667h-768zM128 661.333v-85.333h768v85.333l-384 170.667-384-170.667z" />
<glyph unicode="&#xe937;" glyph-name="sns-fb-24px" d="M1024 448c0-282.88-229.12-512-512-512s-512 229.12-512 512c0 282.88 229.12 512 512 512s512-229.12 512-512zM777.656 746.667h-531.312c-18.231 0-33.011-14.779-33.011-33.011v-531.312c0-18.231 14.779-33.011 33.011-33.011h286.091v230.55h-78.073v90.858h77.653v66.335c0 77.234 47.053 119.257 115.904 119.257 23.389-0.069 46.757-1.399 70.003-3.982v-80.588h-47.577c-37.412 0-44.643-17.71-44.643-43.804v-57.637h89.6l-11.632-90.438h-77.968v-230.55h151.953c18.231 0 33.011 14.779 33.011 33.011v531.312c0 18.231-14.779 33.011-33.011 33.011z" />
<glyph unicode="&#xe938;" glyph-name="sns-line-24px" d="M512.085-60.953c-280.433 0-507.769 227.336-507.769 507.769s227.336 507.769 507.769 507.769c280.433 0 507.769-227.336 507.769-507.769s-227.336-507.769-507.769-507.769zM849.835 477.281c0 151.146-151.484 274.11-337.751 274.11-186.182 0-337.751-122.965-337.751-274.11 0-135.49 120.172-248.976 282.489-270.387 11.002-2.37 25.981-7.278 29.789-16.672 3.385-8.547 2.2-21.919 1.1-30.551 0 0-3.978-23.865-4.824-28.943-1.439-8.547-6.77-33.428 29.281-18.195 36.052 15.148 194.475 114.502 265.394 196.083 48.83 53.739 72.272 108.239 72.272 168.664zM443.451 550.315h-23.696c-3.639 0-6.601-2.962-6.601-6.601v-147.168c0-3.639 2.962-6.601 6.601-6.601h23.696c3.639 0 6.601 2.962 6.601 6.601v147.168c0 3.639-2.962 6.601-6.601 6.601zM606.53 550.315h-23.696c-3.639 0-6.601-2.962-6.601-6.601v-87.421l-67.449 91.060c-0.169 0.254-0.339 0.423-0.508 0.677 0 0 0 0-0.085 0.085-0.169 0.169-0.254 0.254-0.423 0.423-0.085 0-0.085 0.085-0.085 0.085-0.085 0.085-0.254 0.169-0.339 0.254s-0.085 0.085-0.169 0.169-0.254 0.169-0.339 0.254c-0.085 0.085-0.169 0.085-0.169 0.085-0.085 0.085-0.254 0.169-0.339 0.169s-0.169 0.085-0.169 0.085-0.254 0.085-0.339 0.169c-0.085 0-0.169 0.085-0.254 0.085-0.169 0.085-0.254 0.085-0.423 0.169-0.085 0-0.169 0-0.254 0.085-0.169 0-0.254 0.085-0.339 0.085s-0.169 0-0.254 0c-0.085 0-0.254 0-0.339 0.085-0.085 0-0.254 0-0.339 0s-0.169 0-0.254 0h-23.696c-3.639 0-6.601-2.962-6.601-6.601v-147.168c0-3.639 2.962-6.601 6.601-6.601h23.696c3.639 0 6.601 2.962 6.601 6.601v87.421l67.533-91.229c0.423-0.677 1.016-1.185 1.693-1.608 0 0 0.085 0 0.085-0.085 0.169-0.085 0.254-0.169 0.423-0.254 0.085 0 0.085-0.085 0.169-0.085 0.085-0.085 0.169-0.085 0.339-0.169 0.085-0.085 0.169-0.085 0.339-0.169 0.085 0 0.169-0.085 0.169-0.085 0.169-0.085 0.339-0.085 0.423-0.169 0 0 0.085 0 0.085 0 0.508-0.169 1.1-0.254 1.693-0.254h23.696c3.639 0 6.601 2.962 6.601 6.601v147.168c-0.085 3.724-3.047 6.686-6.686 6.686zM386.412 426.928h-64.402v116.871c0 3.639-2.962 6.601-6.601 6.601h-23.696c-3.639 0-6.601-2.962-6.601-6.601v-147.168c0-1.777 0.677-3.385 1.862-4.57 0 0 0.085-0.085 0.085-0.085s0.085-0.085 0.085-0.085c1.185-1.1 2.793-1.862 4.57-1.862h94.614c3.639 0 6.601 2.962 6.601 6.601v23.696c0 3.639-2.962 6.601-6.516 6.601zM737.365 513.502c3.639 0 6.601 2.962 6.601 6.601v23.696c0 3.639-2.962 6.601-6.601 6.601h-94.614c-1.777 0-3.385-0.677-4.57-1.862 0 0-0.085-0.085-0.085-0.085 0-0.085-0.085-0.085-0.085-0.085-1.1-1.185-1.862-2.793-1.862-4.57v-147.168c0-1.777 0.677-3.385 1.862-4.57 0 0 0.085-0.085 0.085-0.085s0.085-0.085 0.085-0.085c1.185-1.1 2.793-1.862 4.57-1.862h94.614c3.639 0 6.601 2.962 6.601 6.601v23.696c0 3.639-2.962 6.601-6.601 6.601h-64.402v24.881h64.402c3.639 0 6.601 2.962 6.601 6.601v23.696c0 3.639-2.962 6.601-6.601 6.601h-64.402v24.881h64.402v-0.085z" />
<glyph unicode="&#xe939;" glyph-name="sns-tw-24px" d="M1024 448c0-282.88-229.12-512-512-512s-512 229.12-512 512c0 282.88 229.12 512 512 512s512-229.12 512-512zM418.304 177.92c227.072 0 351.232 188.16 351.232 351.232 0 5.376 0 10.752-0.256 15.872 24.064 17.408 45.056 39.168 61.696 64-22.016-9.728-45.824-16.384-70.912-19.456 25.6 15.36 45.056 39.424 54.272 68.352-23.808-14.080-50.176-24.32-78.336-29.952-22.528 24.064-54.528 38.912-90.112 38.912-68.096 0-123.392-55.296-123.392-123.392 0-9.728 1.024-19.2 3.328-28.16-102.656 5.12-193.536 54.272-254.464 129.024-10.496-18.176-16.64-39.424-16.64-61.952 0-42.752 21.76-80.64 55.040-102.656-20.224 0.512-39.168 6.144-55.808 15.36 0-0.512 0-1.024 0-1.536 0-59.904 42.496-109.568 99.072-121.088-10.24-2.816-21.248-4.352-32.512-4.352-7.936 0-15.616 0.768-23.296 2.304 15.616-49.152 61.184-84.736 115.2-85.76-42.24-33.024-95.488-52.736-153.344-52.736-9.984 0-19.712 0.512-29.44 1.792 54.016-35.328 119.040-55.808 188.672-55.808z" />
</font>
</defs>
</svg>
